G04 PROTEUS GERBER X2 FILE*
%TF.GenerationSoftware,Labcenter,Proteus,8.9-SP2-Build28501*%
%TF.CreationDate,2020-06-14T21:48:05+00:00*%
%TF.FileFunction,AssemblyDrawing,Top*%
%TF.FilePolarity,Positive*%
%TF.Part,Single*%
%TF.SameCoordinates,{e504a607-b79b-4a28-9592-e2b99df874d4}*%
%FSLAX45Y45*%
%MOMM*%
G01*
%TA.AperFunction,Profile*%
%ADD19C,0.203200*%
%TA.AperFunction,Material*%
%ADD71C,0.203200*%
%ADD20C,0.508000*%
%ADD72C,0.533400*%
%ADD73C,0.513080*%
%ADD21C,0.152400*%
%ADD30C,0.609600*%
%ADD31C,0.192020*%
%ADD32C,0.558800*%
%ADD33C,0.278890*%
%ADD34C,0.711200*%
%ADD35C,0.106680*%
%ADD36C,0.164590*%
%ADD37C,0.132080*%
%TD.AperFunction*%
D19*
X-5900000Y-9000000D02*
X+5700000Y-9000000D01*
X+5700000Y+9000000D01*
X-5900000Y+9000000D01*
X-5900000Y-9000000D01*
D71*
X+3165840Y-3088500D02*
X+5218160Y-3088500D01*
X+5218160Y-2199500D01*
X+3165840Y-2199500D01*
X+3165840Y-3088500D01*
D20*
X+3303000Y-3025000D02*
X+3303000Y-3025000D01*
D72*
X+3765280Y-2483980D02*
X+3765280Y-2750680D01*
X+3818620Y-2804020D01*
X+4031980Y-2804020D01*
X+4085320Y-2750680D01*
X+4085320Y-2483980D01*
X+4298680Y-2590660D02*
X+4405360Y-2483980D01*
X+4405360Y-2804020D01*
D71*
X+581840Y-1491500D02*
X+2634160Y-1491500D01*
X+2634160Y-602500D01*
X+581840Y-602500D01*
X+581840Y-1491500D01*
D20*
X+2497000Y-666000D02*
X+2497000Y-666000D01*
D72*
X+1181280Y-886980D02*
X+1181280Y-1153680D01*
X+1234620Y-1207020D01*
X+1447980Y-1207020D01*
X+1501320Y-1153680D01*
X+1501320Y-886980D01*
X+1661340Y-940320D02*
X+1714680Y-886980D01*
X+1874700Y-886980D01*
X+1928040Y-940320D01*
X+1928040Y-993660D01*
X+1874700Y-1047000D01*
X+1714680Y-1047000D01*
X+1661340Y-1100340D01*
X+1661340Y-1207020D01*
X+1928040Y-1207020D01*
D71*
X-2403160Y-3213500D02*
X-350840Y-3213500D01*
X-350840Y-2324500D01*
X-2403160Y-2324500D01*
X-2403160Y-3213500D01*
D20*
X-2266000Y-3150000D02*
X-2266000Y-3150000D01*
D72*
X-1803720Y-2608980D02*
X-1803720Y-2875680D01*
X-1750380Y-2929020D01*
X-1537020Y-2929020D01*
X-1483680Y-2875680D01*
X-1483680Y-2608980D01*
X-1323660Y-2662320D02*
X-1270320Y-2608980D01*
X-1110300Y-2608980D01*
X-1056960Y-2662320D01*
X-1056960Y-2715660D01*
X-1110300Y-2769000D01*
X-1056960Y-2822340D01*
X-1056960Y-2875680D01*
X-1110300Y-2929020D01*
X-1270320Y-2929020D01*
X-1323660Y-2875680D01*
X-1216980Y-2769000D02*
X-1110300Y-2769000D01*
D71*
X-5137160Y-1459500D02*
X-3084840Y-1459500D01*
X-3084840Y-570500D01*
X-5137160Y-570500D01*
X-5137160Y-1459500D01*
D20*
X-3222000Y-634000D02*
X-3222000Y-634000D01*
D72*
X-4537720Y-854980D02*
X-4537720Y-1121680D01*
X-4484380Y-1175020D01*
X-4271020Y-1175020D01*
X-4217680Y-1121680D01*
X-4217680Y-854980D01*
X-3790960Y-1068340D02*
X-4111000Y-1068340D01*
X-3897640Y-854980D01*
X-3897640Y-1175020D01*
D71*
X-5115160Y+3004500D02*
X-3062840Y+3004500D01*
X-3062840Y+3893500D01*
X-5115160Y+3893500D01*
X-5115160Y+3004500D01*
D20*
X-4978000Y+3068000D02*
X-4978000Y+3068000D01*
D72*
X-4515720Y+3609020D02*
X-4515720Y+3342320D01*
X-4462380Y+3288980D01*
X-4249020Y+3288980D01*
X-4195680Y+3342320D01*
X-4195680Y+3609020D01*
X-3768960Y+3609020D02*
X-4035660Y+3609020D01*
X-4035660Y+3502340D01*
X-3822300Y+3502340D01*
X-3768960Y+3449000D01*
X-3768960Y+3342320D01*
X-3822300Y+3288980D01*
X-3982320Y+3288980D01*
X-4035660Y+3342320D01*
D71*
X-2737160Y+1572500D02*
X-684840Y+1572500D01*
X-684840Y+2461500D01*
X-2737160Y+2461500D01*
X-2737160Y+1572500D01*
D20*
X-822000Y+2398000D02*
X-822000Y+2398000D01*
D72*
X-2137720Y+2177020D02*
X-2137720Y+1910320D01*
X-2084380Y+1856980D01*
X-1871020Y+1856980D01*
X-1817680Y+1910320D01*
X-1817680Y+2177020D01*
X-1390960Y+2123680D02*
X-1444300Y+2177020D01*
X-1604320Y+2177020D01*
X-1657660Y+2123680D01*
X-1657660Y+1910320D01*
X-1604320Y+1856980D01*
X-1444300Y+1856980D01*
X-1390960Y+1910320D01*
X-1390960Y+1963660D01*
X-1444300Y+2017000D01*
X-1657660Y+2017000D01*
D71*
X+584840Y+2972500D02*
X+2637160Y+2972500D01*
X+2637160Y+3861500D01*
X+584840Y+3861500D01*
X+584840Y+2972500D01*
D20*
X+722000Y+3036000D02*
X+722000Y+3036000D01*
D72*
X+1184280Y+3577020D02*
X+1184280Y+3310320D01*
X+1237620Y+3256980D01*
X+1450980Y+3256980D01*
X+1504320Y+3310320D01*
X+1504320Y+3577020D01*
X+1664340Y+3577020D02*
X+1931040Y+3577020D01*
X+1931040Y+3523680D01*
X+1664340Y+3256980D01*
D71*
X+3220840Y+1604500D02*
X+5273160Y+1604500D01*
X+5273160Y+2493500D01*
X+3220840Y+2493500D01*
X+3220840Y+1604500D01*
D20*
X+5136000Y+2430000D02*
X+5136000Y+2430000D01*
D72*
X+3820280Y+2209020D02*
X+3820280Y+1942320D01*
X+3873620Y+1888980D01*
X+4086980Y+1888980D01*
X+4140320Y+1942320D01*
X+4140320Y+2209020D01*
X+4353680Y+2049000D02*
X+4300340Y+2102340D01*
X+4300340Y+2155680D01*
X+4353680Y+2209020D01*
X+4513700Y+2209020D01*
X+4567040Y+2155680D01*
X+4567040Y+2102340D01*
X+4513700Y+2049000D01*
X+4353680Y+2049000D01*
X+4300340Y+1995660D01*
X+4300340Y+1942320D01*
X+4353680Y+1888980D01*
X+4513700Y+1888980D01*
X+4567040Y+1942320D01*
X+4567040Y+1995660D01*
X+4513700Y+2049000D01*
D71*
X-4734160Y+6534500D02*
X-2681840Y+6534500D01*
X-2681840Y+7423500D01*
X-4734160Y+7423500D01*
X-4734160Y+6534500D01*
D20*
X-4597000Y+6598000D02*
X-4597000Y+6598000D01*
D72*
X-4134720Y+7139020D02*
X-4134720Y+6872320D01*
X-4081380Y+6818980D01*
X-3868020Y+6818980D01*
X-3814680Y+6872320D01*
X-3814680Y+7139020D01*
X-3387960Y+7032340D02*
X-3441300Y+6979000D01*
X-3601320Y+6979000D01*
X-3654660Y+7032340D01*
X-3654660Y+7085680D01*
X-3601320Y+7139020D01*
X-3441300Y+7139020D01*
X-3387960Y+7085680D01*
X-3387960Y+6872320D01*
X-3441300Y+6818980D01*
X-3601320Y+6818980D01*
D71*
X+2126840Y+6524500D02*
X+4179160Y+6524500D01*
X+4179160Y+7413500D01*
X+2126840Y+7413500D01*
X+2126840Y+6524500D01*
D20*
X+4042000Y+7350000D02*
X+4042000Y+7350000D01*
D73*
X+2537304Y+7122924D02*
X+2537304Y+6866384D01*
X+2588612Y+6815076D01*
X+2793844Y+6815076D01*
X+2845152Y+6866384D01*
X+2845152Y+7122924D01*
X+3050384Y+7020308D02*
X+3153000Y+7122924D01*
X+3153000Y+6815076D01*
X+3358232Y+6866384D02*
X+3358232Y+7071616D01*
X+3409540Y+7122924D01*
X+3614772Y+7122924D01*
X+3666080Y+7071616D01*
X+3666080Y+6866384D01*
X+3614772Y+6815076D01*
X+3409540Y+6815076D01*
X+3358232Y+6866384D01*
X+3358232Y+6815076D02*
X+3666080Y+7122924D01*
D21*
X+5152400Y-4362300D02*
X+4847600Y-4362300D01*
X+4847600Y-8705700D01*
X+5152400Y-8705700D01*
X+5152400Y-4362300D01*
X+4847600Y-4362300D01*
X+4847600Y-8705700D01*
X+5152400Y-8705700D01*
X+5152400Y-4362300D01*
D30*
X+5000000Y-4756000D02*
X+5000000Y-4756000D01*
D31*
X+5019203Y-6687619D02*
X+5038405Y-6687619D01*
X+5057608Y-6668417D01*
X+5057608Y-6591608D01*
X+5038405Y-6572405D01*
X+4942393Y-6572405D01*
X+4942393Y-6418786D02*
X+4942393Y-6514798D01*
X+4980798Y-6514798D01*
X+4980798Y-6437989D01*
X+5000000Y-6418786D01*
X+5038405Y-6418786D01*
X+5057608Y-6437989D01*
X+5057608Y-6495596D01*
X+5038405Y-6514798D01*
D21*
X+2902400Y-4348300D02*
X+2597600Y-4348300D01*
X+2597600Y-8691700D01*
X+2902400Y-8691700D01*
X+2902400Y-4348300D01*
X+2597600Y-4348300D01*
X+2597600Y-8691700D01*
X+2902400Y-8691700D01*
X+2902400Y-4348300D01*
D30*
X+2750000Y-4742000D02*
X+2750000Y-4742000D01*
D31*
X+2769203Y-6673619D02*
X+2788405Y-6673619D01*
X+2807608Y-6654417D01*
X+2807608Y-6577608D01*
X+2788405Y-6558405D01*
X+2692393Y-6558405D01*
X+2711596Y-6404786D02*
X+2692393Y-6423989D01*
X+2692393Y-6481596D01*
X+2711596Y-6500798D01*
X+2788405Y-6500798D01*
X+2807608Y-6481596D01*
X+2807608Y-6423989D01*
X+2788405Y-6404786D01*
X+2769203Y-6404786D01*
X+2750000Y-6423989D01*
X+2750000Y-6500798D01*
D21*
X-3474420Y+823520D02*
X-3474420Y+373940D01*
X-1325580Y+373940D01*
X-1325580Y+823520D01*
X-3474420Y+823520D01*
X-3474420Y+373940D01*
X-1325580Y+373940D01*
X-1325580Y+823520D01*
X-3474420Y+823520D01*
D32*
X-3300000Y+500000D02*
X-3300000Y+500000D01*
D33*
X-2623113Y+570840D02*
X-2623113Y+542951D01*
X-2595224Y+515062D01*
X-2483668Y+515062D01*
X-2455779Y+542951D01*
X-2455779Y+682397D01*
X-2344222Y+626619D02*
X-2288444Y+682397D01*
X-2288444Y+515062D01*
D21*
X+1375580Y+873520D02*
X+1375580Y+423940D01*
X+3524420Y+423940D01*
X+3524420Y+873520D01*
X+1375580Y+873520D01*
X+1375580Y+423940D01*
X+3524420Y+423940D01*
X+3524420Y+873520D01*
X+1375580Y+873520D01*
D32*
X+1550000Y+550000D02*
X+1550000Y+550000D01*
D33*
X+2226887Y+620840D02*
X+2226887Y+592951D01*
X+2254776Y+565062D01*
X+2366332Y+565062D01*
X+2394221Y+592951D01*
X+2394221Y+732397D01*
X+2477889Y+704508D02*
X+2505778Y+732397D01*
X+2589445Y+732397D01*
X+2617334Y+704508D01*
X+2617334Y+676619D01*
X+2589445Y+648730D01*
X+2505778Y+648730D01*
X+2477889Y+620840D01*
X+2477889Y+565062D01*
X+2617334Y+565062D01*
D21*
X-3474420Y+5223520D02*
X-3474420Y+4773940D01*
X-1325580Y+4773940D01*
X-1325580Y+5223520D01*
X-3474420Y+5223520D01*
X-3474420Y+4773940D01*
X-1325580Y+4773940D01*
X-1325580Y+5223520D01*
X-3474420Y+5223520D01*
D32*
X-3300000Y+4900000D02*
X-3300000Y+4900000D01*
D33*
X-2623113Y+4970840D02*
X-2623113Y+4942951D01*
X-2595224Y+4915062D01*
X-2483668Y+4915062D01*
X-2455779Y+4942951D01*
X-2455779Y+5082397D01*
X-2372111Y+5054508D02*
X-2344222Y+5082397D01*
X-2260555Y+5082397D01*
X-2232666Y+5054508D01*
X-2232666Y+5026619D01*
X-2260555Y+4998730D01*
X-2232666Y+4970840D01*
X-2232666Y+4942951D01*
X-2260555Y+4915062D01*
X-2344222Y+4915062D01*
X-2372111Y+4942951D01*
X-2316333Y+4998730D02*
X-2260555Y+4998730D01*
D21*
X+1375580Y+5223520D02*
X+1375580Y+4773940D01*
X+3524420Y+4773940D01*
X+3524420Y+5223520D01*
X+1375580Y+5223520D01*
X+1375580Y+4773940D01*
X+3524420Y+4773940D01*
X+3524420Y+5223520D01*
X+1375580Y+5223520D01*
D32*
X+1550000Y+4900000D02*
X+1550000Y+4900000D01*
D33*
X+2226887Y+4970840D02*
X+2226887Y+4942951D01*
X+2254776Y+4915062D01*
X+2366332Y+4915062D01*
X+2394221Y+4942951D01*
X+2394221Y+5082397D01*
X+2617334Y+4970840D02*
X+2450000Y+4970840D01*
X+2561556Y+5082397D01*
X+2561556Y+4915062D01*
D21*
X-974420Y+8473520D02*
X-974420Y+8023940D01*
X+1174420Y+8023940D01*
X+1174420Y+8473520D01*
X-974420Y+8473520D01*
X-974420Y+8023940D01*
X+1174420Y+8023940D01*
X+1174420Y+8473520D01*
X-974420Y+8473520D01*
D32*
X-800000Y+8150000D02*
X-800000Y+8150000D01*
D33*
X-123113Y+8220840D02*
X-123113Y+8192951D01*
X-95224Y+8165062D01*
X+16332Y+8165062D01*
X+44221Y+8192951D01*
X+44221Y+8332397D01*
X+127889Y+8332397D02*
X+267334Y+8332397D01*
X+267334Y+8304508D01*
X+127889Y+8165062D01*
D71*
X-3362900Y-3451900D02*
X-3185100Y-3451900D01*
X-3185100Y-2258100D01*
X-3362900Y-2258100D01*
X-3362900Y-3451900D01*
D34*
X-3274000Y-2347000D02*
X-3274000Y-2347000D01*
D35*
X-3241996Y-2940344D02*
X-3306004Y-2940344D01*
X-3306004Y-2887004D01*
X-3295336Y-2876336D01*
X-3284668Y-2876336D01*
X-3274000Y-2887004D01*
X-3274000Y-2940344D01*
X-3274000Y-2887004D02*
X-3263332Y-2876336D01*
X-3241996Y-2876336D01*
X-3252664Y-2855000D02*
X-3295336Y-2855000D01*
X-3306004Y-2844332D01*
X-3306004Y-2801660D01*
X-3295336Y-2790992D01*
X-3252664Y-2790992D01*
X-3241996Y-2801660D01*
X-3241996Y-2844332D01*
X-3252664Y-2855000D01*
X-3241996Y-2855000D02*
X-3306004Y-2790992D01*
D71*
X+1539100Y-5054900D02*
X+1716900Y-5054900D01*
X+1716900Y-3861100D01*
X+1539100Y-3861100D01*
X+1539100Y-5054900D01*
D34*
X+1628000Y-3950000D02*
X+1628000Y-3950000D01*
D35*
X+1660004Y-4543344D02*
X+1595996Y-4543344D01*
X+1595996Y-4490004D01*
X+1606664Y-4479336D01*
X+1617332Y-4479336D01*
X+1628000Y-4490004D01*
X+1628000Y-4543344D01*
X+1628000Y-4490004D02*
X+1638668Y-4479336D01*
X+1660004Y-4479336D01*
X+1617332Y-4436664D02*
X+1595996Y-4415328D01*
X+1660004Y-4415328D01*
D71*
X+4026100Y-6246900D02*
X+4203900Y-6246900D01*
X+4203900Y-5053100D01*
X+4026100Y-5053100D01*
X+4026100Y-6246900D01*
D34*
X+4115000Y-5142000D02*
X+4115000Y-5142000D01*
D35*
X+4147004Y-5735344D02*
X+4082996Y-5735344D01*
X+4082996Y-5682004D01*
X+4093664Y-5671336D01*
X+4104332Y-5671336D01*
X+4115000Y-5682004D01*
X+4115000Y-5735344D01*
X+4115000Y-5682004D02*
X+4125668Y-5671336D01*
X+4147004Y-5671336D01*
X+4093664Y-5639332D02*
X+4082996Y-5628664D01*
X+4082996Y-5596660D01*
X+4093664Y-5585992D01*
X+4104332Y-5585992D01*
X+4115000Y-5596660D01*
X+4115000Y-5628664D01*
X+4125668Y-5639332D01*
X+4147004Y-5639332D01*
X+4147004Y-5585992D01*
D71*
X-4045900Y-3412900D02*
X-3868100Y-3412900D01*
X-3868100Y-2219100D01*
X-4045900Y-2219100D01*
X-4045900Y-3412900D01*
D34*
X-3957000Y-2308000D02*
X-3957000Y-2308000D01*
D35*
X-3924996Y-2901344D02*
X-3989004Y-2901344D01*
X-3989004Y-2848004D01*
X-3978336Y-2837336D01*
X-3967668Y-2837336D01*
X-3957000Y-2848004D01*
X-3957000Y-2901344D01*
X-3957000Y-2848004D02*
X-3946332Y-2837336D01*
X-3924996Y-2837336D01*
X-3978336Y-2805332D02*
X-3989004Y-2794664D01*
X-3989004Y-2762660D01*
X-3978336Y-2751992D01*
X-3967668Y-2751992D01*
X-3957000Y-2762660D01*
X-3946332Y-2751992D01*
X-3935664Y-2751992D01*
X-3924996Y-2762660D01*
X-3924996Y-2794664D01*
X-3935664Y-2805332D01*
X-3957000Y-2783996D02*
X-3957000Y-2762660D01*
D71*
X-4843900Y-3410900D02*
X-4666100Y-3410900D01*
X-4666100Y-2217100D01*
X-4843900Y-2217100D01*
X-4843900Y-3410900D01*
D34*
X-4755000Y-2306000D02*
X-4755000Y-2306000D01*
D35*
X-4722996Y-2899344D02*
X-4787004Y-2899344D01*
X-4787004Y-2846004D01*
X-4776336Y-2835336D01*
X-4765668Y-2835336D01*
X-4755000Y-2846004D01*
X-4755000Y-2899344D01*
X-4755000Y-2846004D02*
X-4744332Y-2835336D01*
X-4722996Y-2835336D01*
X-4744332Y-2749992D02*
X-4744332Y-2814000D01*
X-4787004Y-2771328D01*
X-4722996Y-2771328D01*
D71*
X+1614100Y-7746900D02*
X+1791900Y-7746900D01*
X+1791900Y-6553100D01*
X+1614100Y-6553100D01*
X+1614100Y-7746900D01*
D34*
X+1703000Y-6642000D02*
X+1703000Y-6642000D01*
D35*
X+1735004Y-7235344D02*
X+1670996Y-7235344D01*
X+1670996Y-7182004D01*
X+1681664Y-7171336D01*
X+1692332Y-7171336D01*
X+1703000Y-7182004D01*
X+1703000Y-7235344D01*
X+1703000Y-7182004D02*
X+1713668Y-7171336D01*
X+1735004Y-7171336D01*
X+1670996Y-7085992D02*
X+1670996Y-7139332D01*
X+1692332Y-7139332D01*
X+1692332Y-7096660D01*
X+1703000Y-7085992D01*
X+1724336Y-7085992D01*
X+1735004Y-7096660D01*
X+1735004Y-7128664D01*
X+1724336Y-7139332D01*
D71*
X-1890900Y-1173900D02*
X-697100Y-1173900D01*
X-697100Y-996100D01*
X-1890900Y-996100D01*
X-1890900Y-1173900D01*
D34*
X-1802000Y-1085000D02*
X-1802000Y-1085000D01*
D35*
X-1379344Y-1117004D02*
X-1379344Y-1052996D01*
X-1326004Y-1052996D01*
X-1315336Y-1063664D01*
X-1315336Y-1074332D01*
X-1326004Y-1085000D01*
X-1379344Y-1085000D01*
X-1326004Y-1085000D02*
X-1315336Y-1095668D01*
X-1315336Y-1117004D01*
X-1229992Y-1063664D02*
X-1240660Y-1052996D01*
X-1272664Y-1052996D01*
X-1283332Y-1063664D01*
X-1283332Y-1106336D01*
X-1272664Y-1117004D01*
X-1240660Y-1117004D01*
X-1229992Y-1106336D01*
X-1229992Y-1095668D01*
X-1240660Y-1085000D01*
X-1283332Y-1085000D01*
D71*
X+4877100Y-683900D02*
X+5054900Y-683900D01*
X+5054900Y+509900D01*
X+4877100Y+509900D01*
X+4877100Y-683900D01*
D34*
X+4966000Y+421000D02*
X+4966000Y+421000D01*
D35*
X+4998004Y-172344D02*
X+4933996Y-172344D01*
X+4933996Y-119004D01*
X+4944664Y-108336D01*
X+4955332Y-108336D01*
X+4966000Y-119004D01*
X+4966000Y-172344D01*
X+4966000Y-119004D02*
X+4976668Y-108336D01*
X+4998004Y-108336D01*
X+4933996Y-76332D02*
X+4933996Y-22992D01*
X+4944664Y-22992D01*
X+4998004Y-76332D01*
D71*
X-750900Y+3980100D02*
X-573100Y+3980100D01*
X-573100Y+5173900D01*
X-750900Y+5173900D01*
X-750900Y+3980100D01*
D34*
X-662000Y+5085000D02*
X-662000Y+5085000D01*
D35*
X-629996Y+4491656D02*
X-694004Y+4491656D01*
X-694004Y+4544996D01*
X-683336Y+4555664D01*
X-672668Y+4555664D01*
X-662000Y+4544996D01*
X-662000Y+4491656D01*
X-662000Y+4544996D02*
X-651332Y+4555664D01*
X-629996Y+4555664D01*
X-662000Y+4598336D02*
X-672668Y+4587668D01*
X-683336Y+4587668D01*
X-694004Y+4598336D01*
X-694004Y+4630340D01*
X-683336Y+4641008D01*
X-672668Y+4641008D01*
X-662000Y+4630340D01*
X-662000Y+4598336D01*
X-651332Y+4587668D01*
X-640664Y+4587668D01*
X-629996Y+4598336D01*
X-629996Y+4630340D01*
X-640664Y+4641008D01*
X-651332Y+4641008D01*
X-662000Y+4630340D01*
D71*
X+5195100Y+3976100D02*
X+5372900Y+3976100D01*
X+5372900Y+5169900D01*
X+5195100Y+5169900D01*
X+5195100Y+3976100D01*
D34*
X+5284000Y+5081000D02*
X+5284000Y+5081000D01*
D35*
X+5316004Y+4487656D02*
X+5251996Y+4487656D01*
X+5251996Y+4540996D01*
X+5262664Y+4551664D01*
X+5273332Y+4551664D01*
X+5284000Y+4540996D01*
X+5284000Y+4487656D01*
X+5284000Y+4540996D02*
X+5294668Y+4551664D01*
X+5316004Y+4551664D01*
X+5273332Y+4637008D02*
X+5284000Y+4626340D01*
X+5284000Y+4594336D01*
X+5273332Y+4583668D01*
X+5262664Y+4583668D01*
X+5251996Y+4594336D01*
X+5251996Y+4626340D01*
X+5262664Y+4637008D01*
X+5305336Y+4637008D01*
X+5316004Y+4626340D01*
X+5316004Y+4594336D01*
D71*
X+1050100Y-3440900D02*
X+1227900Y-3440900D01*
X+1227900Y-2247100D01*
X+1050100Y-2247100D01*
X+1050100Y-3440900D01*
D34*
X+1139000Y-2336000D02*
X+1139000Y-2336000D01*
D35*
X+1171004Y-2972016D02*
X+1106996Y-2972016D01*
X+1106996Y-2918676D01*
X+1117664Y-2908008D01*
X+1128332Y-2908008D01*
X+1139000Y-2918676D01*
X+1139000Y-2972016D01*
X+1139000Y-2918676D02*
X+1149668Y-2908008D01*
X+1171004Y-2908008D01*
X+1128332Y-2865336D02*
X+1106996Y-2844000D01*
X+1171004Y-2844000D01*
X+1160336Y-2801328D02*
X+1117664Y-2801328D01*
X+1106996Y-2790660D01*
X+1106996Y-2747988D01*
X+1117664Y-2737320D01*
X+1160336Y-2737320D01*
X+1171004Y-2747988D01*
X+1171004Y-2790660D01*
X+1160336Y-2801328D01*
X+1171004Y-2801328D02*
X+1106996Y-2737320D01*
D71*
X+4150100Y-3844900D02*
X+5343900Y-3844900D01*
X+5343900Y-3667100D01*
X+4150100Y-3667100D01*
X+4150100Y-3844900D01*
D34*
X+4239000Y-3756000D02*
X+4239000Y-3756000D01*
D35*
X+4618984Y-3788004D02*
X+4618984Y-3723996D01*
X+4672324Y-3723996D01*
X+4682992Y-3734664D01*
X+4682992Y-3745332D01*
X+4672324Y-3756000D01*
X+4618984Y-3756000D01*
X+4672324Y-3756000D02*
X+4682992Y-3766668D01*
X+4682992Y-3788004D01*
X+4725664Y-3745332D02*
X+4747000Y-3723996D01*
X+4747000Y-3788004D01*
X+4811008Y-3745332D02*
X+4832344Y-3723996D01*
X+4832344Y-3788004D01*
D71*
X+280100Y+553100D02*
X+457900Y+553100D01*
X+457900Y+1746900D01*
X+280100Y+1746900D01*
X+280100Y+553100D01*
D34*
X+369000Y+1658000D02*
X+369000Y+1658000D01*
D35*
X+401004Y+1021984D02*
X+336996Y+1021984D01*
X+336996Y+1075324D01*
X+347664Y+1085992D01*
X+358332Y+1085992D01*
X+369000Y+1075324D01*
X+369000Y+1021984D01*
X+369000Y+1075324D02*
X+379668Y+1085992D01*
X+401004Y+1085992D01*
X+358332Y+1128664D02*
X+336996Y+1150000D01*
X+401004Y+1150000D01*
X+347664Y+1203340D02*
X+336996Y+1214008D01*
X+336996Y+1246012D01*
X+347664Y+1256680D01*
X+358332Y+1256680D01*
X+369000Y+1246012D01*
X+369000Y+1214008D01*
X+379668Y+1203340D01*
X+401004Y+1203340D01*
X+401004Y+1256680D01*
D71*
X+5209100Y+7263100D02*
X+5386900Y+7263100D01*
X+5386900Y+8456900D01*
X+5209100Y+8456900D01*
X+5209100Y+7263100D01*
D34*
X+5298000Y+8368000D02*
X+5298000Y+8368000D01*
D35*
X+5330004Y+7731984D02*
X+5265996Y+7731984D01*
X+5265996Y+7785324D01*
X+5276664Y+7795992D01*
X+5287332Y+7795992D01*
X+5298000Y+7785324D01*
X+5298000Y+7731984D01*
X+5298000Y+7785324D02*
X+5308668Y+7795992D01*
X+5330004Y+7795992D01*
X+5287332Y+7838664D02*
X+5265996Y+7860000D01*
X+5330004Y+7860000D01*
X+5276664Y+7913340D02*
X+5265996Y+7924008D01*
X+5265996Y+7956012D01*
X+5276664Y+7966680D01*
X+5287332Y+7966680D01*
X+5298000Y+7956012D01*
X+5308668Y+7966680D01*
X+5319336Y+7966680D01*
X+5330004Y+7956012D01*
X+5330004Y+7924008D01*
X+5319336Y+7913340D01*
X+5298000Y+7934676D02*
X+5298000Y+7956012D01*
D71*
X+3444100Y-8106900D02*
X+3621900Y-8106900D01*
X+3621900Y-6913100D01*
X+3444100Y-6913100D01*
X+3444100Y-8106900D01*
D34*
X+3533000Y-7002000D02*
X+3533000Y-7002000D01*
D35*
X+3565004Y-7638016D02*
X+3500996Y-7638016D01*
X+3500996Y-7584676D01*
X+3511664Y-7574008D01*
X+3522332Y-7574008D01*
X+3533000Y-7584676D01*
X+3533000Y-7638016D01*
X+3533000Y-7584676D02*
X+3543668Y-7574008D01*
X+3565004Y-7574008D01*
X+3522332Y-7531336D02*
X+3500996Y-7510000D01*
X+3565004Y-7510000D01*
X+3543668Y-7403320D02*
X+3543668Y-7467328D01*
X+3500996Y-7424656D01*
X+3565004Y-7424656D01*
D71*
X+1746840Y+6712840D02*
X+2021160Y+6712840D01*
X+2021160Y+7241160D01*
X+1746840Y+7241160D01*
X+1746840Y+6712840D01*
D34*
X+1884000Y+6850000D02*
X+1884000Y+6850000D01*
D36*
X+1916919Y+6944081D02*
X+1933378Y+6927622D01*
X+1933378Y+6878245D01*
X+1900460Y+6845327D01*
X+1867541Y+6845327D01*
X+1834623Y+6878245D01*
X+1834623Y+6927622D01*
X+1851082Y+6944081D01*
X+1867541Y+7009918D02*
X+1834623Y+7042836D01*
X+1933378Y+7042836D01*
D71*
X-3187160Y+1712840D02*
X-2912840Y+1712840D01*
X-2912840Y+2241160D01*
X-3187160Y+2241160D01*
X-3187160Y+1712840D01*
D34*
X-3050000Y+2104000D02*
X-3050000Y+2104000D01*
D36*
X-3017081Y+1944081D02*
X-3000622Y+1927622D01*
X-3000622Y+1878245D01*
X-3033540Y+1845327D01*
X-3066459Y+1845327D01*
X-3099377Y+1878245D01*
X-3099377Y+1927622D01*
X-3082918Y+1944081D01*
X-3082918Y+1993459D02*
X-3099377Y+2009918D01*
X-3099377Y+2059295D01*
X-3082918Y+2075754D01*
X-3066459Y+2075754D01*
X-3050000Y+2059295D01*
X-3050000Y+2009918D01*
X-3033540Y+1993459D01*
X-3000622Y+1993459D01*
X-3000622Y+2075754D01*
D71*
X+212840Y+3162840D02*
X+487160Y+3162840D01*
X+487160Y+3691160D01*
X+212840Y+3691160D01*
X+212840Y+3162840D01*
D34*
X+350000Y+3554000D02*
X+350000Y+3554000D01*
D36*
X+382919Y+3394081D02*
X+399378Y+3377622D01*
X+399378Y+3328245D01*
X+366460Y+3295327D01*
X+333541Y+3295327D01*
X+300623Y+3328245D01*
X+300623Y+3377622D01*
X+317082Y+3394081D01*
X+317082Y+3443459D02*
X+300623Y+3459918D01*
X+300623Y+3509295D01*
X+317082Y+3525754D01*
X+333541Y+3525754D01*
X+350000Y+3509295D01*
X+366460Y+3525754D01*
X+382919Y+3525754D01*
X+399378Y+3509295D01*
X+399378Y+3459918D01*
X+382919Y+3443459D01*
X+350000Y+3476377D02*
X+350000Y+3509295D01*
D71*
X+2812840Y-2941160D02*
X+3087160Y-2941160D01*
X+3087160Y-2412840D01*
X+2812840Y-2412840D01*
X+2812840Y-2941160D01*
D34*
X+2950000Y-2804000D02*
X+2950000Y-2804000D01*
D36*
X+2982919Y-2709919D02*
X+2999378Y-2726378D01*
X+2999378Y-2775755D01*
X+2966460Y-2808673D01*
X+2933541Y-2808673D01*
X+2900623Y-2775755D01*
X+2900623Y-2726378D01*
X+2917082Y-2709919D01*
X+2966460Y-2578246D02*
X+2966460Y-2677000D01*
X+2900623Y-2611164D01*
X+2999378Y-2611164D01*
D71*
X+212840Y-1287160D02*
X+487160Y-1287160D01*
X+487160Y-758840D01*
X+212840Y-758840D01*
X+212840Y-1287160D01*
D34*
X+350000Y-1150000D02*
X+350000Y-1150000D01*
D36*
X+382919Y-1055919D02*
X+399378Y-1072378D01*
X+399378Y-1121755D01*
X+366460Y-1154673D01*
X+333541Y-1154673D01*
X+300623Y-1121755D01*
X+300623Y-1072378D01*
X+317082Y-1055919D01*
X+300623Y-924246D02*
X+300623Y-1006541D01*
X+333541Y-1006541D01*
X+333541Y-940705D01*
X+350000Y-924246D01*
X+382919Y-924246D01*
X+399378Y-940705D01*
X+399378Y-990082D01*
X+382919Y-1006541D01*
D71*
X+2812840Y+1808840D02*
X+3087160Y+1808840D01*
X+3087160Y+2337160D01*
X+2812840Y+2337160D01*
X+2812840Y+1808840D01*
D34*
X+2950000Y+2200000D02*
X+2950000Y+2200000D01*
D36*
X+2982919Y+2040081D02*
X+2999378Y+2023622D01*
X+2999378Y+1974245D01*
X+2966460Y+1941327D01*
X+2933541Y+1941327D01*
X+2900623Y+1974245D01*
X+2900623Y+2023622D01*
X+2917082Y+2040081D01*
X+2917082Y+2171754D02*
X+2900623Y+2155295D01*
X+2900623Y+2105918D01*
X+2917082Y+2089459D01*
X+2982919Y+2089459D01*
X+2999378Y+2105918D01*
X+2999378Y+2155295D01*
X+2982919Y+2171754D01*
X+2966460Y+2171754D01*
X+2950000Y+2155295D01*
X+2950000Y+2089459D01*
D71*
X-5487160Y-1291160D02*
X-5212840Y-1291160D01*
X-5212840Y-762840D01*
X-5487160Y-762840D01*
X-5487160Y-1291160D01*
D34*
X-5350000Y-1154000D02*
X-5350000Y-1154000D01*
D36*
X-5317081Y-1059919D02*
X-5300622Y-1076378D01*
X-5300622Y-1125755D01*
X-5333540Y-1158673D01*
X-5366459Y-1158673D01*
X-5399377Y-1125755D01*
X-5399377Y-1076378D01*
X-5382918Y-1059919D01*
X-5350000Y-994082D02*
X-5366459Y-1010541D01*
X-5382918Y-1010541D01*
X-5399377Y-994082D01*
X-5399377Y-944705D01*
X-5382918Y-928246D01*
X-5366459Y-928246D01*
X-5350000Y-944705D01*
X-5350000Y-994082D01*
X-5333540Y-1010541D01*
X-5317081Y-1010541D01*
X-5300622Y-994082D01*
X-5300622Y-944705D01*
X-5317081Y-928246D01*
X-5333540Y-928246D01*
X-5350000Y-944705D01*
D71*
X-2837160Y-3037160D02*
X-2562840Y-3037160D01*
X-2562840Y-2508840D01*
X-2837160Y-2508840D01*
X-2837160Y-3037160D01*
D34*
X-2700000Y-2646000D02*
X-2700000Y-2646000D01*
D36*
X-2667081Y-2805919D02*
X-2650622Y-2822378D01*
X-2650622Y-2871755D01*
X-2683540Y-2904673D01*
X-2716459Y-2904673D01*
X-2749377Y-2871755D01*
X-2749377Y-2822378D01*
X-2732918Y-2805919D01*
X-2749377Y-2756541D02*
X-2749377Y-2674246D01*
X-2732918Y-2674246D01*
X-2650622Y-2756541D01*
D71*
X-5587160Y+3212840D02*
X-5312840Y+3212840D01*
X-5312840Y+3741160D01*
X-5587160Y+3741160D01*
X-5587160Y+3212840D01*
D34*
X-5450000Y+3604000D02*
X-5450000Y+3604000D01*
D36*
X-5417081Y+3444081D02*
X-5400622Y+3427622D01*
X-5400622Y+3378245D01*
X-5433540Y+3345327D01*
X-5466459Y+3345327D01*
X-5499377Y+3378245D01*
X-5499377Y+3427622D01*
X-5482918Y+3444081D01*
X-5466459Y+3575754D02*
X-5450000Y+3559295D01*
X-5450000Y+3509918D01*
X-5466459Y+3493459D01*
X-5482918Y+3493459D01*
X-5499377Y+3509918D01*
X-5499377Y+3559295D01*
X-5482918Y+3575754D01*
X-5417081Y+3575754D01*
X-5400622Y+3559295D01*
X-5400622Y+3509918D01*
D71*
X-5337160Y+6712840D02*
X-5062840Y+6712840D01*
X-5062840Y+7241160D01*
X-5337160Y+7241160D01*
X-5337160Y+6712840D01*
D34*
X-5200000Y+7104000D02*
X-5200000Y+7104000D01*
D37*
X-5173584Y+6897752D02*
X-5160376Y+6884544D01*
X-5160376Y+6844920D01*
X-5186792Y+6818504D01*
X-5213208Y+6818504D01*
X-5239624Y+6844920D01*
X-5239624Y+6884544D01*
X-5226416Y+6897752D01*
X-5213208Y+6950584D02*
X-5239624Y+6977000D01*
X-5160376Y+6977000D01*
X-5173584Y+7029832D02*
X-5226416Y+7029832D01*
X-5239624Y+7043040D01*
X-5239624Y+7095872D01*
X-5226416Y+7109080D01*
X-5173584Y+7109080D01*
X-5160376Y+7095872D01*
X-5160376Y+7043040D01*
X-5173584Y+7029832D01*
X-5160376Y+7029832D02*
X-5239624Y+7109080D01*
M02*
