G04 PROTEUS GERBER X2 FILE*
%TF.GenerationSoftware,Labcenter,Proteus,8.9-SP2-Build28501*%
%TF.CreationDate,2020-06-14T21:48:05+00:00*%
%TF.FileFunction,Copper,L1,Top*%
%TF.FilePolarity,Positive*%
%TF.Part,Single*%
%TF.SameCoordinates,{e504a607-b79b-4a28-9592-e2b99df874d4}*%
%FSLAX45Y45*%
%MOMM*%
G01*
%TA.AperFunction,Conductor*%
%ADD10C,0.254000*%
%TA.AperFunction,ViaPad*%
%ADD11C,0.762000*%
%TA.AperFunction,Conductor*%
%ADD12C,0.762000*%
%TA.AperFunction,ComponentPad*%
%ADD13R,1.270000X1.270000*%
%ADD14C,1.270000*%
%TA.AperFunction,WasherPad*%
%ADD15C,1.524000*%
%TA.AperFunction,WasherPad*%
%ADD16C,1.397000*%
%TA.AperFunction,ComponentPad*%
%ADD17C,1.778000*%
%TA.AperFunction,OtherPad,Unknown*%
%ADD18C,6.350000*%
%TA.AperFunction,Profile*%
%ADD19C,0.203200*%
%TD.AperFunction*%
G36*
X+5613640Y-8800000D02*
X+4395998Y-8800000D01*
X+4436079Y-8759919D01*
X+4436079Y-8440081D01*
X+4209919Y-8213921D01*
X+3890081Y-8213921D01*
X+3663921Y-8440081D01*
X+3663921Y-8759919D01*
X+3704002Y-8800000D01*
X-3904002Y-8800000D01*
X-3863921Y-8759919D01*
X-3863921Y-8440081D01*
X-4090081Y-8213921D01*
X-4409919Y-8213921D01*
X-4636079Y-8440081D01*
X-4636079Y-8759919D01*
X-4595998Y-8800000D01*
X-5813640Y-8800000D01*
X-5813640Y+8913640D01*
X-4482358Y+8913640D01*
X-4636079Y+8759919D01*
X-4636079Y+8440081D01*
X-4409919Y+8213921D01*
X-4090081Y+8213921D01*
X-3980701Y+8323301D01*
X-4072861Y+7991390D01*
X-4272279Y+7782576D01*
X-4272279Y+7476067D01*
X-4288291Y+7492079D01*
X-4397709Y+7492079D01*
X-4470000Y+7419788D01*
X-4542291Y+7492079D01*
X-4651709Y+7492079D01*
X-4729079Y+7414709D01*
X-4729079Y+7305291D01*
X-4651709Y+7227921D01*
X-4542291Y+7227921D01*
X-4470000Y+7300212D01*
X-4397709Y+7227921D01*
X-4288291Y+7227921D01*
X-4272279Y+7243933D01*
X-4272279Y+6893249D01*
X-4161165Y+6782135D01*
X-2706079Y+6782135D01*
X-2684779Y+6760835D01*
X-2684779Y+6574165D01*
X-2686921Y+6572023D01*
X-2686921Y+6652709D01*
X-2764291Y+6730079D01*
X-2873709Y+6730079D01*
X-2946000Y+6657788D01*
X-3018291Y+6730079D01*
X-3127709Y+6730079D01*
X-3200000Y+6657788D01*
X-3272291Y+6730079D01*
X-3381709Y+6730079D01*
X-3454000Y+6657788D01*
X-3526291Y+6730079D01*
X-3635709Y+6730079D01*
X-3708000Y+6657788D01*
X-3780291Y+6730079D01*
X-3889709Y+6730079D01*
X-3962000Y+6657788D01*
X-4034291Y+6730079D01*
X-4143709Y+6730079D01*
X-4216000Y+6657788D01*
X-4288291Y+6730079D01*
X-4397709Y+6730079D01*
X-4464921Y+6662867D01*
X-4464921Y+6730079D01*
X-4729079Y+6730079D01*
X-4729079Y+6465921D01*
X-4543446Y+6465921D01*
X-4551679Y+6457688D01*
X-4551679Y+6393179D01*
X-4616188Y+6393179D01*
X-4678679Y+6330688D01*
X-4678679Y+6242312D01*
X-4616188Y+6179821D01*
X-4527812Y+6179821D01*
X-4502412Y+6205221D01*
X-3915146Y+6205221D01*
X-3916679Y+6203688D01*
X-3916679Y+6115312D01*
X-3854188Y+6052821D01*
X-3765812Y+6052821D01*
X-3740412Y+6078221D01*
X-2101588Y+6078221D01*
X-2076188Y+6052821D01*
X-1987812Y+6052821D01*
X-1925321Y+6115312D01*
X-1925321Y+6203688D01*
X-1926854Y+6205221D01*
X-1149088Y+6205221D01*
X-1123688Y+6179821D01*
X-1035312Y+6179821D01*
X-972821Y+6242312D01*
X-972821Y+6330688D01*
X-1035312Y+6393179D01*
X-1123688Y+6393179D01*
X-1149088Y+6367779D01*
X-1355354Y+6367779D01*
X-1353821Y+6369312D01*
X-1353821Y+6457688D01*
X-1402854Y+6506721D01*
X+2158491Y+6506721D01*
X+2209291Y+6455921D01*
X+2318709Y+6455921D01*
X+2331721Y+6468933D01*
X+2331721Y+6320165D01*
X+2315835Y+6304279D01*
X-97165Y+6304279D01*
X-241220Y+6160224D01*
X-241220Y+3970665D01*
X-300606Y+3911279D01*
X-3094491Y+3911279D01*
X-3145291Y+3962079D01*
X-3254709Y+3962079D01*
X-3327000Y+3889788D01*
X-3399291Y+3962079D01*
X-3474721Y+3962079D01*
X-3474721Y+3970665D01*
X-3585835Y+4081779D01*
X-4249665Y+4081779D01*
X-4297279Y+4034165D01*
X-4297279Y+3935509D01*
X-4343000Y+3889788D01*
X-4415291Y+3962079D01*
X-4476977Y+3962079D01*
X-3417412Y+5021644D01*
X-3395768Y+5000000D01*
X-3438429Y+4957339D01*
X-3438429Y+4842661D01*
X-3357339Y+4761571D01*
X-3242661Y+4761571D01*
X-3200000Y+4804232D01*
X-3157339Y+4761571D01*
X-3042661Y+4761571D01*
X-3000000Y+4804232D01*
X-2957339Y+4761571D01*
X-2842661Y+4761571D01*
X-2800000Y+4804232D01*
X-2757339Y+4761571D01*
X-2642661Y+4761571D01*
X-2600000Y+4804232D01*
X-2557339Y+4761571D01*
X-2442661Y+4761571D01*
X-2400000Y+4804232D01*
X-2357339Y+4761571D01*
X-2242661Y+4761571D01*
X-2200000Y+4804232D01*
X-2157339Y+4761571D01*
X-2042661Y+4761571D01*
X-2000000Y+4804232D01*
X-1957339Y+4761571D01*
X-1842661Y+4761571D01*
X-1800000Y+4804232D01*
X-1781279Y+4785511D01*
X-1781279Y+4714335D01*
X-1313179Y+4246235D01*
X-1313179Y+4210312D01*
X-1250688Y+4147821D01*
X-1162312Y+4147821D01*
X-1099821Y+4210312D01*
X-1099821Y+4298688D01*
X-1162312Y+4361179D01*
X-1198235Y+4361179D01*
X-1618721Y+4781665D01*
X-1618721Y+4785511D01*
X-1600000Y+4804232D01*
X-1557339Y+4761571D01*
X-1442661Y+4761571D01*
X-1385511Y+4818721D01*
X-813335Y+4818721D01*
X-704535Y+4927521D01*
X-596770Y+4927521D01*
X-504521Y+5019770D01*
X-504521Y+5150230D01*
X-596770Y+5242479D01*
X-727230Y+5242479D01*
X-819479Y+5150230D01*
X-819479Y+5042465D01*
X-880665Y+4981279D01*
X-1385511Y+4981279D01*
X-1404232Y+5000000D01*
X-1361571Y+5042661D01*
X-1361571Y+5157339D01*
X-1442661Y+5238429D01*
X-1557339Y+5238429D01*
X-1600000Y+5195768D01*
X-1618721Y+5214489D01*
X-1618721Y+5875665D01*
X-1729835Y+5986779D01*
X-3994412Y+5986779D01*
X-4019812Y+6012179D01*
X-4108188Y+6012179D01*
X-4170679Y+5949688D01*
X-4170679Y+5861312D01*
X-4169146Y+5859779D01*
X-5177165Y+5859779D01*
X-5288279Y+5748665D01*
X-5288279Y+3816088D01*
X-5313679Y+3790688D01*
X-5313679Y+3702312D01*
X-5251188Y+3639821D01*
X-5162812Y+3639821D01*
X-5100321Y+3702312D01*
X-5100321Y+3765533D01*
X-5032709Y+3697921D01*
X-4923291Y+3697921D01*
X-4907279Y+3713933D01*
X-4907279Y+3200079D01*
X-5110079Y+3200079D01*
X-5110079Y+2935921D01*
X-4845921Y+2935921D01*
X-4845921Y+3003133D01*
X-4778709Y+2935921D01*
X-4669291Y+2935921D01*
X-4597000Y+3008212D01*
X-4524709Y+2935921D01*
X-4415291Y+2935921D01*
X-4343000Y+3008212D01*
X-4270709Y+2935921D01*
X-4161291Y+2935921D01*
X-4089000Y+3008212D01*
X-4016709Y+2935921D01*
X-3907291Y+2935921D01*
X-3835000Y+3008212D01*
X-3762709Y+2935921D01*
X-3653291Y+2935921D01*
X-3581000Y+3008212D01*
X-3508709Y+2935921D01*
X-3399291Y+2935921D01*
X-3327000Y+3008212D01*
X-3254709Y+2935921D01*
X-3145291Y+2935921D01*
X-3067921Y+3013291D01*
X-3067921Y+3079977D01*
X-3065779Y+3077835D01*
X-3065779Y+2764165D01*
X-3319779Y+2510165D01*
X-3319779Y+1665835D01*
X-3208665Y+1554721D01*
X-2705509Y+1554721D01*
X-2654709Y+1503921D01*
X-2545291Y+1503921D01*
X-2473000Y+1576212D01*
X-2400709Y+1503921D01*
X-2291291Y+1503921D01*
X-2272578Y+1522634D01*
X-2228223Y+1478279D01*
X-4819912Y+1478279D01*
X-4845312Y+1503679D01*
X-4933688Y+1503679D01*
X-4996179Y+1441188D01*
X-4996179Y+1352812D01*
X-4933688Y+1290321D01*
X-4845312Y+1290321D01*
X-4819912Y+1315721D01*
X+2800777Y+1315721D01*
X+2373485Y+888429D01*
X+2292661Y+888429D01*
X+2250000Y+845768D01*
X+2231279Y+864489D01*
X+2231279Y+972821D01*
X+2266688Y+972821D01*
X+2329179Y+1035312D01*
X+2329179Y+1123688D01*
X+2266688Y+1186179D01*
X+2178312Y+1186179D01*
X+2115821Y+1123688D01*
X+2115821Y+1087765D01*
X+2068721Y+1040665D01*
X+2068721Y+864489D01*
X+2050000Y+845768D01*
X+2007339Y+888429D01*
X+1892661Y+888429D01*
X+1850000Y+845768D01*
X+1807339Y+888429D01*
X+1692661Y+888429D01*
X+1650000Y+845768D01*
X+1607339Y+888429D01*
X+1492661Y+888429D01*
X+1411571Y+807339D01*
X+1411571Y+692661D01*
X+1454232Y+650000D01*
X+1411571Y+607339D01*
X+1411571Y+492661D01*
X+1492661Y+411571D01*
X+1607339Y+411571D01*
X+1650000Y+454232D01*
X+1692661Y+411571D01*
X+1807339Y+411571D01*
X+1850000Y+454232D01*
X+1892661Y+411571D01*
X+2007339Y+411571D01*
X+2050000Y+454232D01*
X+2092661Y+411571D01*
X+2207339Y+411571D01*
X+2250000Y+454232D01*
X+2292661Y+411571D01*
X+2407339Y+411571D01*
X+2450000Y+454232D01*
X+2492661Y+411571D01*
X+2607339Y+411571D01*
X+2650000Y+454232D01*
X+2692661Y+411571D01*
X+2807339Y+411571D01*
X+2850000Y+454232D01*
X+2892661Y+411571D01*
X+3007339Y+411571D01*
X+3050000Y+454232D01*
X+3092661Y+411571D01*
X+3207339Y+411571D01*
X+3250000Y+454232D01*
X+3292661Y+411571D01*
X+3373485Y+411571D01*
X+3445335Y+339721D01*
X+4824570Y+339721D01*
X+4900770Y+263521D01*
X+5031230Y+263521D01*
X+5123479Y+355770D01*
X+5123479Y+476577D01*
X+5125721Y+474335D01*
X+5125721Y-2130921D01*
X+5063865Y-2130921D01*
X+4502665Y-1569721D01*
X+4423146Y-1569721D01*
X+4424679Y-1568188D01*
X+4424679Y-1479812D01*
X+4362188Y-1417321D01*
X+4273812Y-1417321D01*
X+4248412Y-1442721D01*
X+3651250Y-1442722D01*
X+3054088Y-1442721D01*
X+3028688Y-1417321D01*
X+2940312Y-1417321D01*
X+2877821Y-1479812D01*
X+2877821Y-1568188D01*
X+2879354Y-1569721D01*
X+2245665Y-1569721D01*
X+2236023Y-1560079D01*
X+2297709Y-1560079D01*
X+2370000Y-1487788D01*
X+2442291Y-1560079D01*
X+2551709Y-1560079D01*
X+2629079Y-1482709D01*
X+2629079Y-1373291D01*
X+2551709Y-1295921D01*
X+2479865Y-1295921D01*
X+2252665Y-1068721D01*
X+491430Y-1068721D01*
X+445709Y-1023000D01*
X+507479Y-961230D01*
X+507479Y-830770D01*
X+415230Y-738521D01*
X+297179Y-738521D01*
X+297179Y-717812D01*
X+234688Y-655321D01*
X+146312Y-655321D01*
X+83821Y-717812D01*
X+83821Y-806188D01*
X+109221Y-831588D01*
X+109221Y-946412D01*
X+83821Y-971812D01*
X+83821Y-1060188D01*
X+146312Y-1122679D01*
X+192521Y-1122679D01*
X+192521Y-1192535D01*
X+132835Y-1252221D01*
X-997577Y-1252221D01*
X-984574Y-1239218D01*
X-984574Y-1036018D01*
X-880735Y-932179D01*
X-855888Y-932179D01*
X-943479Y-1019770D01*
X-943479Y-1150230D01*
X-851230Y-1242479D01*
X-720770Y-1242479D01*
X-644570Y-1166279D01*
X-106679Y-1166279D01*
X-106679Y-1187188D01*
X-44188Y-1249679D01*
X+44188Y-1249679D01*
X+106679Y-1187188D01*
X+106679Y-1098812D01*
X+44188Y-1036321D01*
X+8265Y-1036321D01*
X-24335Y-1003721D01*
X-644570Y-1003721D01*
X-720770Y-927521D01*
X-840154Y-927521D01*
X-782321Y-869688D01*
X-782321Y-781312D01*
X-844812Y-718821D01*
X-933188Y-718821D01*
X-995679Y-781312D01*
X-995679Y-817235D01*
X-1147132Y-968688D01*
X-1147132Y-1171888D01*
X-1176665Y-1201421D01*
X-1213477Y-1201421D01*
X-1188721Y-1176665D01*
X-1188721Y+859165D01*
X-1299835Y+970279D01*
X-2144665Y+970279D01*
X-2276515Y+838429D01*
X-2357339Y+838429D01*
X-2400000Y+795768D01*
X-2442661Y+838429D01*
X-2557339Y+838429D01*
X-2600000Y+795768D01*
X-2642661Y+838429D01*
X-2757339Y+838429D01*
X-2800000Y+795768D01*
X-2842661Y+838429D01*
X-2957339Y+838429D01*
X-3000000Y+795768D01*
X-3042661Y+838429D01*
X-3157339Y+838429D01*
X-3200000Y+795768D01*
X-3242661Y+838429D01*
X-3357339Y+838429D01*
X-3438429Y+757339D01*
X-3438429Y+642661D01*
X-3395768Y+600000D01*
X-3438429Y+557339D01*
X-3438429Y+442661D01*
X-3394547Y+398779D01*
X-4669165Y+398779D01*
X-4827279Y+240665D01*
X-4827279Y-528491D01*
X-4873000Y-574212D01*
X-4945291Y-501921D01*
X-5054709Y-501921D01*
X-5132079Y-579291D01*
X-5132079Y-688709D01*
X-5054709Y-766079D01*
X-4945291Y-766079D01*
X-4873000Y-693788D01*
X-4800709Y-766079D01*
X-4691291Y-766079D01*
X-4619000Y-693788D01*
X-4546709Y-766079D01*
X-4437291Y-766079D01*
X-4365000Y-693788D01*
X-4292709Y-766079D01*
X-4183291Y-766079D01*
X-4111000Y-693788D01*
X-4038709Y-766079D01*
X-3929291Y-766079D01*
X-3857000Y-693788D01*
X-3784709Y-766079D01*
X-3675291Y-766079D01*
X-3603000Y-693788D01*
X-3530709Y-766079D01*
X-3421291Y-766079D01*
X-3354079Y-698867D01*
X-3354079Y-766079D01*
X-3089921Y-766079D01*
X-3089921Y-715279D01*
X-3000335Y-715279D01*
X-1923485Y+361571D01*
X-1842661Y+361571D01*
X-1800000Y+404232D01*
X-1795356Y+399588D01*
X-3458865Y-1263921D01*
X-3530709Y-1263921D01*
X-3603000Y-1336212D01*
X-3675291Y-1263921D01*
X-3784709Y-1263921D01*
X-3857000Y-1336212D01*
X-3929291Y-1263921D01*
X-4038709Y-1263921D01*
X-4046221Y-1271433D01*
X-4046221Y-1183835D01*
X-4157335Y-1072721D01*
X-5208570Y-1072721D01*
X-5254291Y-1027000D01*
X-5192521Y-965230D01*
X-5192521Y-834770D01*
X-5284770Y-742521D01*
X-5415230Y-742521D01*
X-5507479Y-834770D01*
X-5507479Y-965230D01*
X-5445709Y-1027000D01*
X-5507479Y-1088770D01*
X-5507479Y-1219230D01*
X-5415230Y-1311479D01*
X-5284770Y-1311479D01*
X-5208570Y-1235279D01*
X-4224665Y-1235279D01*
X-4208779Y-1251165D01*
X-4208779Y-1263921D01*
X-4292709Y-1263921D01*
X-4365000Y-1336212D01*
X-4437291Y-1263921D01*
X-4546709Y-1263921D01*
X-4619000Y-1336212D01*
X-4691291Y-1263921D01*
X-4800709Y-1263921D01*
X-4873000Y-1336212D01*
X-4945291Y-1263921D01*
X-5054709Y-1263921D01*
X-5132079Y-1341291D01*
X-5132079Y-1450709D01*
X-5054709Y-1528079D01*
X-4945291Y-1528079D01*
X-4873000Y-1455788D01*
X-4800709Y-1528079D01*
X-4691291Y-1528079D01*
X-4619000Y-1455788D01*
X-4546709Y-1528079D01*
X-4474865Y-1528079D01*
X-4334165Y-1668779D01*
X-3788146Y-1668779D01*
X-3789679Y-1670312D01*
X-3789679Y-1758688D01*
X-3727188Y-1821179D01*
X-3638812Y-1821179D01*
X-3613412Y-1795779D01*
X-1883146Y-1795779D01*
X-1884679Y-1797312D01*
X-1884679Y-1885688D01*
X-1822188Y-1948179D01*
X-1733812Y-1948179D01*
X-1708412Y-1922779D01*
X-391723Y-1922779D01*
X-724865Y-2255921D01*
X-759135Y-2255921D01*
X-1000835Y-2014221D01*
X-4578165Y-2014221D01*
X-4712465Y-2148521D01*
X-4820230Y-2148521D01*
X-4912479Y-2240770D01*
X-4912479Y-2371230D01*
X-4820230Y-2463479D01*
X-4689770Y-2463479D01*
X-4597521Y-2371230D01*
X-4597521Y-2263465D01*
X-4510835Y-2176779D01*
X-4048488Y-2176779D01*
X-4114479Y-2242770D01*
X-4114479Y-2373230D01*
X-4022230Y-2465479D01*
X-3891770Y-2465479D01*
X-3799521Y-2373230D01*
X-3799521Y-2265465D01*
X-3774335Y-2240279D01*
X-3389988Y-2240279D01*
X-3431479Y-2281770D01*
X-3431479Y-2412230D01*
X-3339230Y-2504479D01*
X-3208770Y-2504479D01*
X-3132570Y-2428279D01*
X-2694335Y-2428279D01*
X-2633335Y-2367279D01*
X-2398079Y-2367279D01*
X-2398079Y-2442709D01*
X-2320709Y-2520079D01*
X-2211291Y-2520079D01*
X-2139000Y-2447788D01*
X-2066709Y-2520079D01*
X-1957291Y-2520079D01*
X-1885000Y-2447788D01*
X-1812709Y-2520079D01*
X-1703291Y-2520079D01*
X-1631000Y-2447788D01*
X-1558709Y-2520079D01*
X-1486865Y-2520079D01*
X-1131665Y-2875279D01*
X-387088Y-2875279D01*
X-361688Y-2900679D01*
X-273312Y-2900679D01*
X-247912Y-2875279D01*
X+160665Y-2875279D01*
X+859165Y-2176779D01*
X+1553835Y-2176779D01*
X+1617335Y-2240279D01*
X+3170921Y-2240279D01*
X+3170921Y-2317709D01*
X+3248291Y-2395079D01*
X+3357709Y-2395079D01*
X+3430000Y-2322788D01*
X+3502291Y-2395079D01*
X+3611709Y-2395079D01*
X+3684000Y-2322788D01*
X+3756291Y-2395079D01*
X+3865709Y-2395079D01*
X+3938000Y-2322788D01*
X+4010291Y-2395079D01*
X+4119709Y-2395079D01*
X+4192000Y-2322788D01*
X+4264291Y-2395079D01*
X+4373709Y-2395079D01*
X+4446000Y-2322788D01*
X+4518291Y-2395079D01*
X+4627709Y-2395079D01*
X+4700000Y-2322788D01*
X+4772291Y-2395079D01*
X+4881709Y-2395079D01*
X+4954000Y-2322788D01*
X+5026291Y-2395079D01*
X+5125721Y-2395079D01*
X+5125721Y-2892921D01*
X+5026291Y-2892921D01*
X+4954000Y-2965212D01*
X+4881709Y-2892921D01*
X+4772291Y-2892921D01*
X+4700000Y-2965212D01*
X+4627709Y-2892921D01*
X+4518291Y-2892921D01*
X+4446000Y-2965212D01*
X+4373709Y-2892921D01*
X+4264291Y-2892921D01*
X+4192000Y-2965212D01*
X+4119709Y-2892921D01*
X+4010291Y-2892921D01*
X+3938000Y-2965212D01*
X+3865709Y-2892921D01*
X+3756291Y-2892921D01*
X+3684000Y-2965212D01*
X+3611709Y-2892921D01*
X+3502291Y-2892921D01*
X+3435079Y-2960133D01*
X+3435079Y-2892921D01*
X+3170921Y-2892921D01*
X+3170921Y-3157079D01*
X+3435079Y-3157079D01*
X+3435079Y-3089867D01*
X+3502291Y-3157079D01*
X+3611709Y-3157079D01*
X+3684000Y-3084788D01*
X+3756291Y-3157079D01*
X+3828135Y-3157079D01*
X+3990835Y-3319779D01*
X+5240665Y-3319779D01*
X+5351779Y-3208665D01*
X+5351779Y+1240165D01*
X+5240665Y+1351279D01*
X+4740646Y+1351279D01*
X+4742179Y+1352812D01*
X+4742179Y+1441188D01*
X+4740646Y+1442721D01*
X+5025665Y+1442721D01*
X+5118865Y+1535921D01*
X+5190709Y+1535921D01*
X+5268079Y+1613291D01*
X+5268079Y+1722709D01*
X+5190709Y+1800079D01*
X+5081291Y+1800079D01*
X+5009000Y+1727788D01*
X+4936709Y+1800079D01*
X+4827291Y+1800079D01*
X+4755000Y+1727788D01*
X+4682709Y+1800079D01*
X+4589779Y+1800079D01*
X+4589779Y+2297921D01*
X+4682709Y+2297921D01*
X+4755000Y+2370212D01*
X+4827291Y+2297921D01*
X+4936709Y+2297921D01*
X+4987509Y+2348721D01*
X+5003921Y+2348721D01*
X+5003921Y+2297921D01*
X+5268079Y+2297921D01*
X+5268079Y+2562079D01*
X+5003921Y+2562079D01*
X+5003921Y+2511280D01*
X+4987508Y+2511280D01*
X+4963279Y+2535509D01*
X+4963279Y+3914665D01*
X+4895223Y+3982721D01*
X+4946912Y+3982721D01*
X+4972312Y+3957321D01*
X+5060688Y+3957321D01*
X+5123179Y+4019812D01*
X+5123179Y+4108188D01*
X+5060688Y+4170679D01*
X+4972312Y+4170679D01*
X+4946912Y+4145279D01*
X+4299078Y+4145279D01*
X+4374634Y+4220835D01*
X+4374634Y+4959190D01*
X+4415165Y+4999721D01*
X+5142570Y+4999721D01*
X+5218770Y+4923521D01*
X+5349230Y+4923521D01*
X+5441479Y+5015770D01*
X+5441479Y+5146230D01*
X+5349230Y+5238479D01*
X+5218770Y+5238479D01*
X+5142570Y+5162279D01*
X+4347835Y+5162279D01*
X+4212076Y+5026520D01*
X+4212076Y+4288165D01*
X+4196190Y+4272279D01*
X+4133223Y+4272279D01*
X+4208779Y+4347835D01*
X+4208779Y+5520165D01*
X+3273023Y+6455921D01*
X+3334709Y+6455921D01*
X+3407000Y+6528212D01*
X+3479291Y+6455921D01*
X+3588709Y+6455921D01*
X+3661000Y+6528212D01*
X+3733291Y+6455921D01*
X+3842709Y+6455921D01*
X+3915000Y+6528212D01*
X+3987291Y+6455921D01*
X+4096709Y+6455921D01*
X+4174079Y+6533291D01*
X+4174079Y+6642709D01*
X+4096709Y+6720079D01*
X+4024865Y+6720079D01*
X+3813665Y+6931279D01*
X+2025430Y+6931279D01*
X+1979709Y+6977000D01*
X+2041479Y+7038770D01*
X+2041479Y+7169230D01*
X+1949230Y+7261479D01*
X+1818770Y+7261479D01*
X+1726521Y+7169230D01*
X+1726521Y+7038770D01*
X+1788291Y+6977000D01*
X+1726521Y+6915230D01*
X+1726521Y+6784770D01*
X+1818770Y+6692521D01*
X+1949230Y+6692521D01*
X+2025430Y+6768721D01*
X+2399277Y+6768721D01*
X+2334672Y+6704116D01*
X+2318709Y+6720079D01*
X+2209291Y+6720079D01*
X+2158491Y+6669279D01*
X-1982335Y+6669279D01*
X-2569835Y+7256779D01*
X-2735433Y+7256779D01*
X-2686921Y+7305291D01*
X-2686921Y+7414709D01*
X-2764291Y+7492079D01*
X-2873709Y+7492079D01*
X-2946000Y+7419788D01*
X-3018291Y+7492079D01*
X-3127709Y+7492079D01*
X-3200000Y+7419788D01*
X-3272291Y+7492079D01*
X-3314977Y+7492079D01*
X-2430260Y+8376796D01*
X-938429Y+8376796D01*
X-938429Y+8292661D01*
X-895768Y+8250000D01*
X-938429Y+8207339D01*
X-938429Y+8092661D01*
X-857339Y+8011571D01*
X-742661Y+8011571D01*
X-700000Y+8054232D01*
X-657339Y+8011571D01*
X-576515Y+8011571D01*
X+23335Y+7411721D01*
X+2138933Y+7411721D01*
X+2131921Y+7404709D01*
X+2131921Y+7295291D01*
X+2209291Y+7217921D01*
X+2318709Y+7217921D01*
X+2391000Y+7290212D01*
X+2463291Y+7217921D01*
X+2572709Y+7217921D01*
X+2645000Y+7290212D01*
X+2717291Y+7217921D01*
X+2826709Y+7217921D01*
X+2899000Y+7290212D01*
X+2971291Y+7217921D01*
X+3080709Y+7217921D01*
X+3153000Y+7290212D01*
X+3225291Y+7217921D01*
X+3334709Y+7217921D01*
X+3407000Y+7290212D01*
X+3479291Y+7217921D01*
X+3588709Y+7217921D01*
X+3661000Y+7290212D01*
X+3733291Y+7217921D01*
X+3842709Y+7217921D01*
X+3909921Y+7285133D01*
X+3909921Y+7217921D01*
X+4174079Y+7217921D01*
X+4174079Y+7482079D01*
X+4024865Y+7482079D01*
X+3488223Y+8018721D01*
X+5063665Y+8018721D01*
X+5255465Y+8210521D01*
X+5363230Y+8210521D01*
X+5455479Y+8302770D01*
X+5455479Y+8433230D01*
X+5363230Y+8525479D01*
X+5232770Y+8525479D01*
X+5140521Y+8433230D01*
X+5140521Y+8325465D01*
X+4996335Y+8181279D01*
X+2696665Y+8181279D01*
X+2446665Y+8431279D01*
X+1114489Y+8431279D01*
X+1057339Y+8488429D01*
X+942661Y+8488429D01*
X+900000Y+8445768D01*
X+857339Y+8488429D01*
X+742661Y+8488429D01*
X+700000Y+8445768D01*
X+681279Y+8464489D01*
X+681279Y+8704665D01*
X+541665Y+8844279D01*
X-3722955Y+8844279D01*
X-3762084Y+8820260D01*
X-3863921Y+8619645D01*
X-3863921Y+8759919D01*
X-4017642Y+8913640D01*
X+3817642Y+8913640D01*
X+3663921Y+8759919D01*
X+3663921Y+8440081D01*
X+3890081Y+8213921D01*
X+4209919Y+8213921D01*
X+4436079Y+8440081D01*
X+4436079Y+8759919D01*
X+4282358Y+8913640D01*
X+5613640Y+8913640D01*
X+5613640Y-8800000D01*
G37*
%LPC*%
G36*
X+2629079Y-798079D02*
X+2364921Y-798079D01*
X+2364921Y-730867D01*
X+2297709Y-798079D01*
X+2188291Y-798079D01*
X+2116000Y-725788D01*
X+2043709Y-798079D01*
X+1934291Y-798079D01*
X+1862000Y-725788D01*
X+1789709Y-798079D01*
X+1680291Y-798079D01*
X+1608000Y-725788D01*
X+1535709Y-798079D01*
X+1426291Y-798079D01*
X+1354000Y-725788D01*
X+1281709Y-798079D01*
X+1172291Y-798079D01*
X+1100000Y-725788D01*
X+1027709Y-798079D01*
X+918291Y-798079D01*
X+846000Y-725788D01*
X+773709Y-798079D01*
X+664291Y-798079D01*
X+586921Y-720709D01*
X+586921Y-611291D01*
X+664291Y-533921D01*
X+773709Y-533921D01*
X+846000Y-606212D01*
X+918291Y-533921D01*
X+1027709Y-533921D01*
X+1100000Y-606212D01*
X+1172291Y-533921D01*
X+1281709Y-533921D01*
X+1354000Y-606212D01*
X+1426291Y-533921D01*
X+1535709Y-533921D01*
X+1608000Y-606212D01*
X+1680291Y-533921D01*
X+1789709Y-533921D01*
X+1862000Y-606212D01*
X+1934291Y-533921D01*
X+2043709Y-533921D01*
X+2116000Y-606212D01*
X+2188291Y-533921D01*
X+2297709Y-533921D01*
X+2364921Y-601133D01*
X+2364921Y-533921D01*
X+2629079Y-533921D01*
X+2629079Y-798079D01*
G37*
G36*
X-355921Y-3095291D02*
X-355921Y-3204709D01*
X-433291Y-3282079D01*
X-542709Y-3282079D01*
X-615000Y-3209788D01*
X-687291Y-3282079D01*
X-796709Y-3282079D01*
X-869000Y-3209788D01*
X-941291Y-3282079D01*
X-1050709Y-3282079D01*
X-1123000Y-3209788D01*
X-1195291Y-3282079D01*
X-1304709Y-3282079D01*
X-1377000Y-3209788D01*
X-1449291Y-3282079D01*
X-1558709Y-3282079D01*
X-1631000Y-3209788D01*
X-1703291Y-3282079D01*
X-1812709Y-3282079D01*
X-1885000Y-3209788D01*
X-1957291Y-3282079D01*
X-2066709Y-3282079D01*
X-2133921Y-3214867D01*
X-2133921Y-3282079D01*
X-2398079Y-3282079D01*
X-2398079Y-3017921D01*
X-2133921Y-3017921D01*
X-2133921Y-3085133D01*
X-2066709Y-3017921D01*
X-1957291Y-3017921D01*
X-1885000Y-3090212D01*
X-1812709Y-3017921D01*
X-1703291Y-3017921D01*
X-1631000Y-3090212D01*
X-1558709Y-3017921D01*
X-1449291Y-3017921D01*
X-1377000Y-3090212D01*
X-1304709Y-3017921D01*
X-1195291Y-3017921D01*
X-1123000Y-3090212D01*
X-1050709Y-3017921D01*
X-941291Y-3017921D01*
X-869000Y-3090212D01*
X-796709Y-3017921D01*
X-687291Y-3017921D01*
X-615000Y-3090212D01*
X-542709Y-3017921D01*
X-433291Y-3017921D01*
X-355921Y-3095291D01*
G37*
G36*
X+5441479Y+4130230D02*
X+5441479Y+4022465D01*
X+5542279Y+3921665D01*
X+5542279Y-3399165D01*
X+5431165Y-3510279D01*
X+5005723Y-3510279D01*
X+5081279Y-3585835D01*
X+5081279Y-4632531D01*
X+5144779Y-4696031D01*
X+5144779Y-4815969D01*
X+5077748Y-4883000D01*
X+5144779Y-4950031D01*
X+5144779Y-5069969D01*
X+5077748Y-5137000D01*
X+5144779Y-5204031D01*
X+5144779Y-5323969D01*
X+5077748Y-5391000D01*
X+5144779Y-5458031D01*
X+5144779Y-5577969D01*
X+5077748Y-5645000D01*
X+5144779Y-5712031D01*
X+5144779Y-5831969D01*
X+5077748Y-5899000D01*
X+5144779Y-5966031D01*
X+5144779Y-6085969D01*
X+5077748Y-6153000D01*
X+5144779Y-6220031D01*
X+5144779Y-6339969D01*
X+5077748Y-6407000D01*
X+5144779Y-6474031D01*
X+5144779Y-6593969D01*
X+5077748Y-6661000D01*
X+5144779Y-6728031D01*
X+5144779Y-6847969D01*
X+5077748Y-6915000D01*
X+5144779Y-6982031D01*
X+5144779Y-7101969D01*
X+5077748Y-7169000D01*
X+5144779Y-7236031D01*
X+5144779Y-7355969D01*
X+5077748Y-7423000D01*
X+5144779Y-7490031D01*
X+5144779Y-7609969D01*
X+5077748Y-7677000D01*
X+5144779Y-7744031D01*
X+5144779Y-7863969D01*
X+5077748Y-7931000D01*
X+5144779Y-7998031D01*
X+5144779Y-8117969D01*
X+5077748Y-8185000D01*
X+5144779Y-8252031D01*
X+5144779Y-8371969D01*
X+5059969Y-8456779D01*
X+4940031Y-8456779D01*
X+4855221Y-8371969D01*
X+4855221Y-8252031D01*
X+4922252Y-8185000D01*
X+4855221Y-8117969D01*
X+4855221Y-7998031D01*
X+4922252Y-7931000D01*
X+4855221Y-7863969D01*
X+4855221Y-7744031D01*
X+4922252Y-7677000D01*
X+4855221Y-7609969D01*
X+4855221Y-7490031D01*
X+4922252Y-7423000D01*
X+4855221Y-7355969D01*
X+4855221Y-7236031D01*
X+4922252Y-7169000D01*
X+4855221Y-7101969D01*
X+4855221Y-6982031D01*
X+4922252Y-6915000D01*
X+4855221Y-6847969D01*
X+4855221Y-6728031D01*
X+4922252Y-6661000D01*
X+4855221Y-6593969D01*
X+4855221Y-6474031D01*
X+4922252Y-6407000D01*
X+4855221Y-6339969D01*
X+4855221Y-6250165D01*
X+4844335Y-6239279D01*
X+4256430Y-6239279D01*
X+4180230Y-6315479D01*
X+4049770Y-6315479D01*
X+3957521Y-6223230D01*
X+3957521Y-6092770D01*
X+4049770Y-6000521D01*
X+4180230Y-6000521D01*
X+4256430Y-6076721D01*
X+4855221Y-6076721D01*
X+4855221Y-5966031D01*
X+4922252Y-5899000D01*
X+4855221Y-5831969D01*
X+4855221Y-5712031D01*
X+4922252Y-5645000D01*
X+4855221Y-5577969D01*
X+4855221Y-5458031D01*
X+4922252Y-5391000D01*
X+4855221Y-5323969D01*
X+4855221Y-5204031D01*
X+4922252Y-5137000D01*
X+4855221Y-5069969D01*
X+4855221Y-4950031D01*
X+4922252Y-4883000D01*
X+4855221Y-4815969D01*
X+4855221Y-4696031D01*
X+4918721Y-4632531D01*
X+4918721Y-3653165D01*
X+4902835Y-3637279D01*
X+4342988Y-3637279D01*
X+4396479Y-3690770D01*
X+4396479Y-3821230D01*
X+4304230Y-3913479D01*
X+4196465Y-3913479D01*
X+3840793Y-4269151D01*
X+3840793Y-4782151D01*
X+2894779Y-5728165D01*
X+2894779Y-5817969D01*
X+2827748Y-5885000D01*
X+2894779Y-5952031D01*
X+2894779Y-6071969D01*
X+2827748Y-6139000D01*
X+2894779Y-6206031D01*
X+2894779Y-6325969D01*
X+2827748Y-6393000D01*
X+2873469Y-6438721D01*
X+3084665Y-6438721D01*
X+3490465Y-6844521D01*
X+3598230Y-6844521D01*
X+3690479Y-6936770D01*
X+3690479Y-7067230D01*
X+3598230Y-7159479D01*
X+3467770Y-7159479D01*
X+3375521Y-7067230D01*
X+3375521Y-6959465D01*
X+3017335Y-6601279D01*
X+2873469Y-6601279D01*
X+2827748Y-6647000D01*
X+2894779Y-6714031D01*
X+2894779Y-6833969D01*
X+2827748Y-6901000D01*
X+2894779Y-6968031D01*
X+2894779Y-7087969D01*
X+2827748Y-7155000D01*
X+2894779Y-7222031D01*
X+2894779Y-7341969D01*
X+2827748Y-7409000D01*
X+2894779Y-7476031D01*
X+2894779Y-7595969D01*
X+2827748Y-7663000D01*
X+2894779Y-7730031D01*
X+2894779Y-7849969D01*
X+2827748Y-7917000D01*
X+2894779Y-7984031D01*
X+2894779Y-8103969D01*
X+2827748Y-8171000D01*
X+2894779Y-8238031D01*
X+2894779Y-8357969D01*
X+2809969Y-8442779D01*
X+2690031Y-8442779D01*
X+2605221Y-8357969D01*
X+2605221Y-8238031D01*
X+2672252Y-8171000D01*
X+2605221Y-8103969D01*
X+2605221Y-7984031D01*
X+2672252Y-7917000D01*
X+2605221Y-7849969D01*
X+2605221Y-7730031D01*
X+2672252Y-7663000D01*
X+2605221Y-7595969D01*
X+2605221Y-7476031D01*
X+2672252Y-7409000D01*
X+2605221Y-7341969D01*
X+2605221Y-7222031D01*
X+2672252Y-7155000D01*
X+2605221Y-7087969D01*
X+2605221Y-6968031D01*
X+2672252Y-6901000D01*
X+2605221Y-6833969D01*
X+2605221Y-6714031D01*
X+2672252Y-6647000D01*
X+2605221Y-6579969D01*
X+2605221Y-6460031D01*
X+2672252Y-6393000D01*
X+2626531Y-6347279D01*
X+2112665Y-6347279D01*
X+1860479Y-6599465D01*
X+1860479Y-6707230D01*
X+1768230Y-6799479D01*
X+1637770Y-6799479D01*
X+1545521Y-6707230D01*
X+1545521Y-6576770D01*
X+1637770Y-6484521D01*
X+1745535Y-6484521D01*
X+2045335Y-6184721D01*
X+2626531Y-6184721D01*
X+2672252Y-6139000D01*
X+2605221Y-6071969D01*
X+2605221Y-5952031D01*
X+2672252Y-5885000D01*
X+2605221Y-5817969D01*
X+2605221Y-5698031D01*
X+2672252Y-5631000D01*
X+2605221Y-5563969D01*
X+2605221Y-5444031D01*
X+2672252Y-5377000D01*
X+2605221Y-5309969D01*
X+2605221Y-5190031D01*
X+2672252Y-5123000D01*
X+2605221Y-5055969D01*
X+2605221Y-4936031D01*
X+2672252Y-4869000D01*
X+2605221Y-4801969D01*
X+2605221Y-4682031D01*
X+2690031Y-4597221D01*
X+2809969Y-4597221D01*
X+2894779Y-4682031D01*
X+2894779Y-4801969D01*
X+2827748Y-4869000D01*
X+2894779Y-4936031D01*
X+2894779Y-5055969D01*
X+2827748Y-5123000D01*
X+2894779Y-5190031D01*
X+2894779Y-5309969D01*
X+2827748Y-5377000D01*
X+2894779Y-5444031D01*
X+2894779Y-5498277D01*
X+3678235Y-4714821D01*
X+3678235Y-4201821D01*
X+4081521Y-3798535D01*
X+4081521Y-3690770D01*
X+4135012Y-3637279D01*
X+3716665Y-3637279D01*
X+3662679Y-3691265D01*
X+3662679Y-3727188D01*
X+3600188Y-3789679D01*
X+3564265Y-3789679D01*
X+3322665Y-4031279D01*
X+1769430Y-4031279D01*
X+1693230Y-4107479D01*
X+1562770Y-4107479D01*
X+1470521Y-4015230D01*
X+1470521Y-3884770D01*
X+1562770Y-3792521D01*
X+1693230Y-3792521D01*
X+1769430Y-3868721D01*
X+3255335Y-3868721D01*
X+3449321Y-3674735D01*
X+3449321Y-3638812D01*
X+3511812Y-3576321D01*
X+3547735Y-3576321D01*
X+3613777Y-3510279D01*
X+2482588Y-3510279D01*
X+2457188Y-3535679D01*
X+2368812Y-3535679D01*
X+2306321Y-3473188D01*
X+2306321Y-3384812D01*
X+2368812Y-3322321D01*
X+2457188Y-3322321D01*
X+2482588Y-3347721D01*
X+5363835Y-3347721D01*
X+5379721Y-3331835D01*
X+5379721Y+3854335D01*
X+5326535Y+3907521D01*
X+5218770Y+3907521D01*
X+5126521Y+3999770D01*
X+5126521Y+4130230D01*
X+5218770Y+4222479D01*
X+5349230Y+4222479D01*
X+5441479Y+4130230D01*
G37*
G36*
X-4613570Y-3240721D02*
X-4159335Y-3240721D01*
X-4157335Y-3242721D01*
X-4098430Y-3242721D01*
X-4022230Y-3166521D01*
X-3891770Y-3166521D01*
X-3815570Y-3242721D01*
X-3624835Y-3242721D01*
X-3585834Y-3281722D01*
X-3415430Y-3281721D01*
X-3339230Y-3205521D01*
X-3208770Y-3205521D01*
X-3116521Y-3297770D01*
X-3116521Y-3428230D01*
X-3208770Y-3520479D01*
X-3339230Y-3520479D01*
X-3415430Y-3444279D01*
X-3653166Y-3444278D01*
X-3692165Y-3405279D01*
X-3815570Y-3405279D01*
X-3891770Y-3481479D01*
X-4022230Y-3481479D01*
X-4098430Y-3405279D01*
X-4224665Y-3405279D01*
X-4226665Y-3403279D01*
X-4613570Y-3403279D01*
X-4689770Y-3479479D01*
X-4820230Y-3479479D01*
X-4912479Y-3387230D01*
X-4912479Y-3256770D01*
X-4820230Y-3164521D01*
X-4689770Y-3164521D01*
X-4613570Y-3240721D01*
G37*
G36*
X+1562770Y-4808521D02*
X+1693230Y-4808521D01*
X+1785479Y-4900770D01*
X+1785479Y-5031230D01*
X+1693230Y-5123479D01*
X+1562770Y-5123479D01*
X+1470521Y-5031230D01*
X+1470521Y-4900770D01*
X+1562770Y-4808521D01*
G37*
G36*
X+4049770Y-4984521D02*
X+4180230Y-4984521D01*
X+4272479Y-5076770D01*
X+4272479Y-5207230D01*
X+4180230Y-5299479D01*
X+4049770Y-5299479D01*
X+3957521Y-5207230D01*
X+3957521Y-5076770D01*
X+4049770Y-4984521D01*
G37*
G36*
X+1637770Y-7500521D02*
X+1768230Y-7500521D01*
X+1860479Y-7592770D01*
X+1860479Y-7723230D01*
X+1768230Y-7815479D01*
X+1637770Y-7815479D01*
X+1545521Y-7723230D01*
X+1545521Y-7592770D01*
X+1637770Y-7500521D01*
G37*
G36*
X+4900770Y-437521D02*
X+5031230Y-437521D01*
X+5123479Y-529770D01*
X+5123479Y-660230D01*
X+5031230Y-752479D01*
X+4900770Y-752479D01*
X+4808521Y-660230D01*
X+4808521Y-529770D01*
X+4900770Y-437521D01*
G37*
G36*
X-727230Y+4226479D02*
X-596770Y+4226479D01*
X-504521Y+4134230D01*
X-504521Y+4003770D01*
X-596770Y+3911521D01*
X-727230Y+3911521D01*
X-819479Y+4003770D01*
X-819479Y+4134230D01*
X-727230Y+4226479D01*
G37*
G36*
X+1073770Y-2178521D02*
X+1204230Y-2178521D01*
X+1296479Y-2270770D01*
X+1296479Y-2401230D01*
X+1204230Y-2493479D01*
X+1073770Y-2493479D01*
X+981521Y-2401230D01*
X+981521Y-2270770D01*
X+1073770Y-2178521D01*
G37*
G36*
X+1073770Y-3194521D02*
X+1204230Y-3194521D01*
X+1296479Y-3286770D01*
X+1296479Y-3417230D01*
X+1204230Y-3509479D01*
X+1073770Y-3509479D01*
X+981521Y-3417230D01*
X+981521Y-3286770D01*
X+1073770Y-3194521D01*
G37*
G36*
X+5097521Y-3821230D02*
X+5097521Y-3690770D01*
X+5189770Y-3598521D01*
X+5320230Y-3598521D01*
X+5412479Y-3690770D01*
X+5412479Y-3821230D01*
X+5320230Y-3913479D01*
X+5189770Y-3913479D01*
X+5097521Y-3821230D01*
G37*
G36*
X+303770Y+799479D02*
X+434230Y+799479D01*
X+526479Y+707230D01*
X+526479Y+576770D01*
X+434230Y+484521D01*
X+303770Y+484521D01*
X+211521Y+576770D01*
X+211521Y+707230D01*
X+303770Y+799479D01*
G37*
G36*
X+5232770Y+7509479D02*
X+5363230Y+7509479D01*
X+5455479Y+7417230D01*
X+5455479Y+7286770D01*
X+5363230Y+7194521D01*
X+5232770Y+7194521D01*
X+5140521Y+7286770D01*
X+5140521Y+7417230D01*
X+5232770Y+7509479D01*
G37*
G36*
X+3467770Y-7860521D02*
X+3598230Y-7860521D01*
X+3690479Y-7952770D01*
X+3690479Y-8083230D01*
X+3598230Y-8175479D01*
X+3467770Y-8175479D01*
X+3375521Y-8083230D01*
X+3375521Y-7952770D01*
X+3467770Y-7860521D01*
G37*
G36*
X+3107479Y-2484770D02*
X+3107479Y-2615230D01*
X+3045709Y-2677000D01*
X+3107479Y-2738770D01*
X+3107479Y-2869230D01*
X+3015230Y-2961479D01*
X+2884770Y-2961479D01*
X+2792521Y-2869230D01*
X+2792521Y-2738770D01*
X+2854291Y-2677000D01*
X+2792521Y-2615230D01*
X+2792521Y-2484770D01*
X+2884770Y-2392521D01*
X+3015230Y-2392521D01*
X+3107479Y-2484770D01*
G37*
G36*
X-2542521Y-2580770D02*
X-2542521Y-2711230D01*
X-2604291Y-2773000D01*
X-2542521Y-2834770D01*
X-2542521Y-2965230D01*
X-2634770Y-3057479D01*
X-2765230Y-3057479D01*
X-2857479Y-2965230D01*
X-2857479Y-2834770D01*
X-2795709Y-2773000D01*
X-2857479Y-2711230D01*
X-2857479Y-2580770D01*
X-2765230Y-2488521D01*
X-2634770Y-2488521D01*
X-2542521Y-2580770D01*
G37*
G36*
X-5292521Y+3669230D02*
X-5292521Y+3538770D01*
X-5354291Y+3477000D01*
X-5292521Y+3415230D01*
X-5292521Y+3284770D01*
X-5384770Y+3192521D01*
X-5515230Y+3192521D01*
X-5607479Y+3284770D01*
X-5607479Y+3415230D01*
X-5545709Y+3477000D01*
X-5607479Y+3538770D01*
X-5607479Y+3669230D01*
X-5515230Y+3761479D01*
X-5384770Y+3761479D01*
X-5292521Y+3669230D01*
G37*
G36*
X-5042521Y+7169230D02*
X-5042521Y+7038770D01*
X-5104291Y+6977000D01*
X-5042521Y+6915230D01*
X-5042521Y+6784770D01*
X-5134770Y+6692521D01*
X-5265230Y+6692521D01*
X-5357479Y+6784770D01*
X-5357479Y+6915230D01*
X-5295709Y+6977000D01*
X-5357479Y+7038770D01*
X-5357479Y+7169230D01*
X-5265230Y+7261479D01*
X-5134770Y+7261479D01*
X-5042521Y+7169230D01*
G37*
G36*
X-3105150Y+1182828D02*
X-3105150Y+1230172D01*
X-3071672Y+1263650D01*
X-3024328Y+1263650D01*
X-2990850Y+1230172D01*
X-2990850Y+1182828D01*
X-3024328Y+1149350D01*
X-3071672Y+1149350D01*
X-3105150Y+1182828D01*
G37*
G36*
X-3322321Y+1250688D02*
X-3322321Y+1162312D01*
X-3376656Y+1107978D01*
X-3371850Y+1103172D01*
X-3371850Y+1055828D01*
X-3405328Y+1022350D01*
X-3452672Y+1022350D01*
X-3486150Y+1055828D01*
X-3486150Y+1103172D01*
X-3481344Y+1107978D01*
X-3498588Y+1125221D01*
X-4565912Y+1125221D01*
X-4591312Y+1099821D01*
X-4679688Y+1099821D01*
X-4742179Y+1162312D01*
X-4742179Y+1250688D01*
X-4679688Y+1313179D01*
X-4591312Y+1313179D01*
X-4565912Y+1287779D01*
X-3498588Y+1287779D01*
X-3473188Y+1313179D01*
X-3384812Y+1313179D01*
X-3322321Y+1250688D01*
G37*
G36*
X-2660650Y+928828D02*
X-2660650Y+976172D01*
X-2627172Y+1009650D01*
X-2579828Y+1009650D01*
X-2546350Y+976172D01*
X-2546350Y+928828D01*
X-2579828Y+895350D01*
X-2627172Y+895350D01*
X-2660650Y+928828D01*
G37*
%LPD*%
G36*
X+2468721Y+5363835D02*
X+2468721Y+5214489D01*
X+2450000Y+5195768D01*
X+2407339Y+5238429D01*
X+2326515Y+5238429D01*
X+2288094Y+5276850D01*
X+2309672Y+5276850D01*
X+2343150Y+5310328D01*
X+2343150Y+5357672D01*
X+2321101Y+5379721D01*
X+2452835Y+5379721D01*
X+2468721Y+5363835D01*
G37*
G36*
X+1339528Y+5207796D02*
X+1315721Y+5183989D01*
X+1315721Y+5178601D01*
X+1293672Y+5200650D01*
X+1246328Y+5200650D01*
X+1224279Y+5178601D01*
X+1224279Y+5224135D01*
X+1240165Y+5240021D01*
X+1371753Y+5240021D01*
X+1339528Y+5207796D01*
G37*
G36*
X+1315721Y+4097665D02*
X+1313179Y+4095123D01*
X+1313179Y+4171688D01*
X+1250688Y+4234179D01*
X+1224279Y+4234179D01*
X+1224279Y+5108399D01*
X+1246328Y+5086350D01*
X+1293672Y+5086350D01*
X+1315721Y+5108399D01*
X+1315721Y+4097665D01*
G37*
G36*
X+2668721Y+4785511D02*
X+2668721Y+4030335D01*
X+2680777Y+4018279D01*
X+2097335Y+4018279D01*
X+2009135Y+3930079D01*
X+1937291Y+3930079D01*
X+1865000Y+3857788D01*
X+1792709Y+3930079D01*
X+1683291Y+3930079D01*
X+1611000Y+3857788D01*
X+1538709Y+3930079D01*
X+1429291Y+3930079D01*
X+1414779Y+3915567D01*
X+1414779Y+3966835D01*
X+1478279Y+4030335D01*
X+1478279Y+4775953D01*
X+1492661Y+4761571D01*
X+1607339Y+4761571D01*
X+1650000Y+4804232D01*
X+1692661Y+4761571D01*
X+1807339Y+4761571D01*
X+1850000Y+4804232D01*
X+1892661Y+4761571D01*
X+2007339Y+4761571D01*
X+2050000Y+4804232D01*
X+2092661Y+4761571D01*
X+2207339Y+4761571D01*
X+2250000Y+4804232D01*
X+2292661Y+4761571D01*
X+2407339Y+4761571D01*
X+2450000Y+4804232D01*
X+2492661Y+4761571D01*
X+2607339Y+4761571D01*
X+2650000Y+4804232D01*
X+2668721Y+4785511D01*
G37*
G36*
X+2436721Y+6129665D02*
X+2420835Y+6113779D01*
X+156835Y+6113779D01*
X+45721Y+6002665D01*
X+45721Y+2760335D01*
X+156835Y+2649221D01*
X+2279912Y+2649221D01*
X+2305312Y+2623821D01*
X+2393688Y+2623821D01*
X+2456179Y+2686312D01*
X+2456179Y+2774688D01*
X+2393688Y+2837179D01*
X+2305312Y+2837179D01*
X+2279912Y+2811779D01*
X+224165Y+2811779D01*
X+208279Y+2827665D01*
X+208279Y+3219012D01*
X+284770Y+3142521D01*
X+415230Y+3142521D01*
X+507479Y+3234770D01*
X+507479Y+3365230D01*
X+445709Y+3427000D01*
X+491430Y+3472721D01*
X+511665Y+3472721D01*
X+704865Y+3665921D01*
X+744221Y+3665921D01*
X+744221Y+3168079D01*
X+589921Y+3168079D01*
X+589921Y+2903921D01*
X+791135Y+2903921D01*
X+855335Y+2839721D01*
X+1656665Y+2839721D01*
X+1720865Y+2903921D01*
X+1792709Y+2903921D01*
X+1865000Y+2976212D01*
X+1937291Y+2903921D01*
X+2046709Y+2903921D01*
X+2119000Y+2976212D01*
X+2191291Y+2903921D01*
X+2300709Y+2903921D01*
X+2373000Y+2976212D01*
X+2445291Y+2903921D01*
X+2554709Y+2903921D01*
X+2632079Y+2981291D01*
X+2632079Y+3090709D01*
X+2565567Y+3157221D01*
X+4427221Y+3157221D01*
X+4427221Y+2562079D01*
X+4319291Y+2562079D01*
X+4247000Y+2489788D01*
X+4174709Y+2562079D01*
X+4065291Y+2562079D01*
X+3993000Y+2489788D01*
X+3920709Y+2562079D01*
X+3811291Y+2562079D01*
X+3739000Y+2489788D01*
X+3666709Y+2562079D01*
X+3557291Y+2562079D01*
X+3485000Y+2489788D01*
X+3412709Y+2562079D01*
X+3303291Y+2562079D01*
X+3225921Y+2484709D01*
X+3225921Y+2375291D01*
X+3303291Y+2297921D01*
X+3412709Y+2297921D01*
X+3485000Y+2370212D01*
X+3557291Y+2297921D01*
X+3666709Y+2297921D01*
X+3739000Y+2370212D01*
X+3811291Y+2297921D01*
X+3920709Y+2297921D01*
X+3993000Y+2370212D01*
X+4065291Y+2297921D01*
X+4174709Y+2297921D01*
X+4247000Y+2370212D01*
X+4319291Y+2297921D01*
X+4427221Y+2297921D01*
X+4427221Y+1836165D01*
X+4391135Y+1800079D01*
X+4335779Y+1800079D01*
X+4335779Y+2129165D01*
X+4183665Y+2281279D01*
X+3091430Y+2281279D01*
X+3015230Y+2357479D01*
X+2884770Y+2357479D01*
X+2808570Y+2281279D01*
X+2710179Y+2281279D01*
X+2710179Y+2330188D01*
X+2647688Y+2392679D01*
X+2559312Y+2392679D01*
X+2533912Y+2367279D01*
X-689921Y+2367279D01*
X-689921Y+2530079D01*
X-954079Y+2530079D01*
X-954079Y+2462867D01*
X-1021291Y+2530079D01*
X-1130709Y+2530079D01*
X-1203000Y+2457788D01*
X-1275291Y+2530079D01*
X-1384709Y+2530079D01*
X-1457000Y+2457788D01*
X-1529291Y+2530079D01*
X-1633221Y+2530079D01*
X-1633221Y+3589665D01*
X-1744335Y+3700779D01*
X-3142433Y+3700779D01*
X-3094491Y+3748721D01*
X-233276Y+3748721D01*
X-78662Y+3903335D01*
X-78662Y+6092894D01*
X-29835Y+6141721D01*
X+2383165Y+6141721D01*
X+2436721Y+6195277D01*
X+2436721Y+6129665D01*
G37*
G36*
X-3606699Y+3359755D02*
X-3582892Y+3335948D01*
X-2625392Y+3335948D01*
X-2557779Y+3268335D01*
X-2557779Y+2530079D01*
X-2654709Y+2530079D01*
X-2712721Y+2472067D01*
X-2712721Y+3208665D01*
X-2823835Y+3319779D01*
X-3966835Y+3319779D01*
X-3982721Y+3335665D01*
X-3982721Y+3697921D01*
X-3944865Y+3697921D01*
X-3606699Y+3359755D01*
G37*
G36*
X-2654709Y+2265921D02*
X-2557779Y+2265921D01*
X-2557779Y+2252335D01*
X-2545723Y+2240279D01*
X-2696835Y+2240279D01*
X-2712721Y+2256165D01*
X-2712721Y+2323933D01*
X-2654709Y+2265921D01*
G37*
G36*
X+4173221Y+2061835D02*
X+4173221Y+1800079D01*
X+4065291Y+1800079D01*
X+3993000Y+1727788D01*
X+3920709Y+1800079D01*
X+3811291Y+1800079D01*
X+3739000Y+1727788D01*
X+3666709Y+1800079D01*
X+3557291Y+1800079D01*
X+3485000Y+1727788D01*
X+3412709Y+1800079D01*
X+3303291Y+1800079D01*
X+3225921Y+1722709D01*
X+3225921Y+1613291D01*
X+3233933Y+1605279D01*
X+526479Y+1605279D01*
X+526479Y+1723230D01*
X+434230Y+1815479D01*
X+303770Y+1815479D01*
X+211521Y+1723230D01*
X+211521Y+1630679D01*
X+146312Y+1630679D01*
X+83821Y+1568188D01*
X+83821Y+1479812D01*
X+85354Y+1478279D01*
X-864777Y+1478279D01*
X-839135Y+1503921D01*
X-767291Y+1503921D01*
X-689921Y+1581291D01*
X-689921Y+1653135D01*
X-328835Y+2014221D01*
X+184412Y+2014221D01*
X+209812Y+1988821D01*
X+298188Y+1988821D01*
X+323588Y+2014221D01*
X+732167Y+2014221D01*
X+779779Y+2061833D01*
X+779779Y+2061835D01*
X+836665Y+2118721D01*
X+2808570Y+2118721D01*
X+2854291Y+2073000D01*
X+2792521Y+2011230D01*
X+2792521Y+1880770D01*
X+2884770Y+1788521D01*
X+3015230Y+1788521D01*
X+3107479Y+1880770D01*
X+3107479Y+2011230D01*
X+3045709Y+2073000D01*
X+3091430Y+2118721D01*
X+4116335Y+2118721D01*
X+4173221Y+2061835D01*
G37*
G36*
X-2303779Y+2006835D02*
X-2303779Y+1768079D01*
X-2400709Y+1768079D01*
X-2473000Y+1695788D01*
X-2545291Y+1768079D01*
X-2654709Y+1768079D01*
X-2705509Y+1717279D01*
X-2960012Y+1717279D01*
X-2892521Y+1784770D01*
X-2892521Y+1915230D01*
X-2954291Y+1977000D01*
X-2908570Y+2022721D01*
X-2319665Y+2022721D01*
X-2303779Y+2006835D01*
G37*
D10*
X+1989000Y-1428000D02*
X+2212000Y-1651000D01*
X+4469000Y-1651000D01*
X+5081000Y-2263000D01*
X+3556000Y-3683000D02*
X+3683000Y-3556000D01*
X+4936500Y-3556000D01*
X+5000000Y-3619500D01*
X+5000000Y-4756000D01*
X+3556000Y-3683000D02*
X+3289000Y-3950000D01*
X+1628000Y-3950000D01*
X+635000Y-1651000D02*
X+444500Y-1841500D01*
X-1778000Y-1841500D01*
X-508000Y-1714500D02*
X-3683000Y-1714500D01*
X-4889500Y+1397000D02*
X+4635500Y+1397000D01*
X+3534000Y+6588000D02*
X+3391000Y+6731000D01*
X+2476500Y+6731000D01*
X+2413000Y+6667500D01*
X+2413000Y+6286500D01*
X+2349500Y+6223000D01*
X-63500Y+6223000D01*
X-159941Y+6126559D01*
X-159941Y+3937000D01*
X-266941Y+3830000D01*
X-3200000Y+3830000D01*
X-2600000Y+1636000D02*
X-3175000Y+1636000D01*
X-3238500Y+1699500D01*
X-3238500Y+2476500D01*
X-2984500Y+2730500D01*
X-2984500Y+3111500D01*
X-3048000Y+3175000D01*
X-4381500Y+3175000D01*
X-4470000Y+3263500D01*
X-4470000Y+3830000D01*
X-1460500Y+2286000D02*
X+2603500Y+2286000D01*
X+2264000Y+6588000D02*
X-2016000Y+6588000D01*
X-2603500Y+7175500D01*
X-3904500Y+7175500D01*
X-4089000Y+7360000D01*
X-3274000Y-3363000D02*
X-3619500Y-3363000D01*
X-3658500Y-3324000D01*
X-3957000Y-3324000D01*
X-4191000Y-3324000D01*
X-4193000Y-3322000D01*
X-4755000Y-3322000D01*
X-3708000Y+3830000D02*
X-3815000Y+3937000D01*
X-4000500Y+3937000D01*
X-4064000Y+3873500D01*
X-4064000Y+3302000D01*
X-4000500Y+3238500D01*
X-2857500Y+3238500D01*
X-2794000Y+3175000D01*
X-2794000Y+2222500D01*
X-2730500Y+2159000D01*
X-2155500Y+2159000D01*
X-2092000Y+2095500D01*
X-2092000Y+1636000D01*
X+4573000Y-2263000D02*
X+4405500Y-2095500D01*
X+1905000Y-2095500D01*
X+1841500Y-2032000D01*
X+1841500Y-1333500D01*
X+1778000Y-1270000D01*
X+1385000Y-1270000D01*
X+1227000Y-1428000D01*
X-1016000Y-1587500D02*
X-4300500Y-1587500D01*
X-4492000Y-1396000D01*
X+1227000Y-1428000D02*
X+1069000Y-1270000D01*
X+698500Y-1270000D01*
X+381000Y-1587500D01*
X-1016000Y-1587500D01*
X+4000500Y+3873500D02*
X+3365500Y+3873500D01*
X+3302000Y+3937000D01*
X+2131000Y+3937000D01*
X+1992000Y+3798000D01*
X+4115000Y-6158000D02*
X+4878000Y-6158000D01*
X+5000000Y-6280000D01*
X+4000500Y+4445000D02*
X+4000500Y+5359500D01*
X+2772000Y+6588000D01*
X+3533000Y-7002000D02*
X+3051000Y-6520000D01*
X+2750000Y-6520000D01*
X+1000000Y+8350000D02*
X+2413000Y+8350000D01*
X+2663000Y+8100000D01*
X+5030000Y+8100000D01*
X+5298000Y+8368000D01*
X-1500000Y+4900000D02*
X-847000Y+4900000D01*
X-662000Y+5085000D01*
X+2413000Y-3429000D02*
X+5397500Y-3429000D01*
X+5461000Y-3365500D01*
X+5461000Y+3888000D01*
X+5284000Y+4065000D01*
X+2750000Y-6266000D02*
X+2079000Y-6266000D01*
X+1703000Y-6642000D01*
X+3350000Y+4900000D02*
X+3350000Y+4270000D01*
X+3429000Y+4191000D01*
X+4229855Y+4191000D01*
X+4293355Y+4254500D01*
X+4293355Y+4992855D01*
X+4381500Y+5081000D01*
X+5284000Y+5081000D01*
X+0Y-1143000D02*
X-58000Y-1085000D01*
X-786000Y-1085000D01*
X+4239000Y-3756000D02*
X+3759514Y-4235486D01*
X+3759514Y-4748486D01*
X+2750000Y-5758000D01*
X+3350000Y+550000D02*
X+3479000Y+421000D01*
X+4966000Y+421000D01*
X-5000000Y-634000D02*
X-5000000Y+389500D01*
X-4889500Y+500000D01*
X-3300000Y+500000D01*
X+1139000Y-3352000D02*
X+1941000Y-2550000D01*
X+2950000Y-2550000D01*
X+5081000Y-3025000D02*
X+4606000Y-2550000D01*
X+2950000Y-2550000D01*
X-3200000Y+3068000D02*
X-3410500Y+2857500D01*
X-4957500Y+2857500D01*
X-5450000Y+3350000D01*
X-2819000Y+6598000D02*
X-2952000Y+6731000D01*
X-4318000Y+6731000D01*
X-4437000Y+6850000D01*
X-5200000Y+6850000D01*
X+2500000Y+3036000D02*
X+2321500Y+2857500D01*
X+413500Y+2857500D01*
X+350000Y+2921000D01*
X+350000Y+3300000D01*
X-488000Y-3150000D02*
X-738000Y-2900000D01*
X-2700000Y-2900000D01*
X+2500000Y+3036000D02*
X+2752000Y+3036000D01*
X+3358000Y+2430000D01*
X+1550000Y+550000D02*
X+952500Y+550000D01*
X+860500Y+642000D01*
X+369000Y+642000D01*
X+1884000Y+7104000D02*
X+2018000Y+7104000D01*
X+2264000Y+7350000D01*
X-3300000Y+700000D02*
X-3429000Y+829000D01*
X-3429000Y+1079500D01*
X+2286000Y+5334000D02*
X+2222500Y+5270500D01*
X+1270000Y+5270500D01*
X+1270000Y+5143500D01*
X-3429000Y+1079500D02*
X-3175000Y+1079500D01*
X-3048000Y+1206500D01*
X+369000Y+642000D02*
X+58500Y+952500D01*
X-2603500Y+952500D01*
X-3300000Y+4900000D02*
X-3300000Y+5100000D01*
X-800000Y+8150000D02*
X-800000Y+8350000D01*
X+1550000Y+5100000D02*
X+1550000Y+4900000D01*
X+1550000Y+550000D02*
X+1550000Y+750000D01*
X-3962000Y+3830000D02*
X-3549227Y+3417227D01*
X-2591727Y+3417227D01*
X-2476500Y+3302000D01*
X-2476500Y+2286000D01*
X-2413000Y+2222500D01*
X-1901500Y+2222500D01*
X-1838000Y+2159000D01*
X-1838000Y+1636000D01*
X+1481000Y-1428000D02*
X+877000Y-2032000D01*
X+381000Y-2032000D01*
X+4120000Y+1668000D02*
X+3976000Y+1524000D01*
X+190500Y+1524000D01*
X-1250000Y-2388000D02*
X-1098000Y-2540000D01*
X-127000Y-2540000D01*
X+381000Y-2032000D01*
X-1250000Y-2388000D02*
X-1479000Y-2159000D01*
X-3808000Y-2159000D01*
X-3957000Y-2308000D01*
X+4318000Y-1524000D02*
X+2984500Y-1524000D01*
X+190500Y-762000D02*
X+190500Y-1016000D01*
X+3492500Y+4318000D02*
X+4064000Y+4318000D01*
X+4127500Y+4381500D01*
X+4127500Y+5486500D01*
X+3026000Y+6588000D01*
X+2794000Y-1778000D02*
X+3810000Y-1778000D01*
X+2349500Y+2730500D02*
X+190500Y+2730500D01*
X+127000Y+2794000D01*
X+127000Y+5969000D01*
X+190500Y+6032500D01*
X+2454500Y+6032500D01*
X+2518000Y+6096000D01*
X+2518000Y+6588000D01*
X-742000Y-2388000D02*
X-1034500Y-2095500D01*
X-4544500Y-2095500D01*
X-4755000Y-2306000D01*
X+973000Y-1428000D02*
X+496000Y-1905000D01*
X-259000Y-1905000D01*
X-742000Y-2388000D01*
X-3429000Y+1206500D02*
X-4635500Y+1206500D01*
X+3810000Y-1905000D02*
X+3810000Y-1778000D01*
X+3810000Y-1905000D02*
X+4469000Y-1905000D01*
X+4827000Y-2263000D01*
X-4216000Y+3830000D02*
X-4216000Y+4000500D01*
X-3619500Y+4000500D01*
X-3556000Y+3937000D01*
X-3556000Y+3683000D01*
X-3492500Y+3619500D01*
X-1778000Y+3619500D01*
X-1714500Y+3556000D01*
X-1714500Y+1766500D01*
X-1584000Y+1636000D01*
X-444500Y-2794000D02*
X-317500Y-2794000D01*
X+4508500Y+3238500D02*
X+2043500Y+3238500D01*
X+1484000Y+3798000D01*
X-1504000Y-2388000D02*
X-1098000Y-2794000D01*
X-444500Y-2794000D01*
X+4065000Y-2263000D02*
X+3961000Y-2159000D01*
X+1651000Y-2159000D01*
X+1587500Y-2095500D01*
X+4374000Y+1668000D02*
X+4508500Y+1802500D01*
X+4508500Y+3111500D01*
X+1587500Y-2095500D02*
X+1735000Y-1948000D01*
X+1735000Y-1428000D01*
X-1504000Y-2388000D02*
X-1606000Y-2286000D01*
X-2667000Y-2286000D01*
X-2728000Y-2347000D01*
X-3274000Y-2347000D01*
X+4508500Y+3111500D02*
X+4508500Y+3238500D01*
X+1587500Y-2095500D02*
X+825500Y-2095500D01*
X+127000Y-2794000D01*
X-317500Y-2794000D01*
X-1700000Y+500000D02*
X-1700000Y+380000D01*
X-3476000Y-1396000D01*
X-3100000Y+5100000D02*
X-3100000Y+5270500D01*
X-3283500Y+5270500D01*
X-4724000Y+3830000D01*
X-1206500Y+4254500D02*
X-1700000Y+4748000D01*
X-1700000Y+4900000D01*
X+5016500Y+4064000D02*
X+3213500Y+4064000D01*
X+3150000Y+4127500D01*
X+3150000Y+4900000D01*
X-4064000Y+7493000D02*
X-3429000Y+7493000D01*
X-2463925Y+8458075D01*
X-708075Y+8458075D01*
X-600000Y+8350000D01*
X+600000Y+8150000D02*
X+812500Y+7937500D01*
X+3454500Y+7937500D01*
X+4042000Y+7350000D01*
X-1900000Y+500000D02*
X-3034000Y-634000D01*
X-3222000Y-634000D01*
X-5207000Y+3746500D02*
X-5207000Y+5715000D01*
X-5143500Y+5778500D01*
X-2921000Y+5778500D01*
X-4572000Y+6286500D02*
X-1079500Y+6286500D01*
X+2222500Y+1079500D02*
X+2150000Y+1007000D01*
X+2150000Y+750000D01*
X-2100000Y+500000D02*
X-3108000Y-508000D01*
X-3350000Y-508000D01*
X-3476000Y-634000D01*
X-2700000Y+5100000D02*
X-2934000Y+5334000D01*
X-4762500Y+5334000D01*
X-4826000Y+5270500D01*
X-4826000Y+3170000D01*
X-4724000Y+3068000D01*
X+952500Y+3238500D02*
X+1079500Y+3365500D01*
X+1079500Y+5334000D01*
X+1143000Y+5397500D01*
X+2095500Y+5397500D01*
X+4882000Y+2430000D02*
X+4882000Y+3881000D01*
X+4762500Y+4000500D01*
X+2813500Y+4000500D01*
X+2750000Y+4064000D01*
X+2750000Y+4900000D01*
X+4882000Y+2430000D02*
X+5016500Y+2430000D01*
X+5016501Y+2430001D01*
X+5136000Y+2430001D01*
X+5136000Y+2430000D01*
X-4445000Y+6413500D02*
X-1460500Y+6413500D01*
X+2350000Y+750000D02*
X+2870000Y+1270000D01*
X+5207000Y+1270000D01*
X+5270500Y+1206500D01*
X+5270500Y-3175000D01*
X+5207000Y-3238500D01*
X+4024500Y-3238500D01*
X+3811000Y-3025000D01*
X+200000Y+8150000D02*
X+666500Y+7683500D01*
X+3200500Y+7683500D01*
X+3534000Y+7350000D01*
X-2300000Y+500000D02*
X-3244500Y-444500D01*
X-3540500Y-444500D01*
X-3730000Y-634000D01*
X-4318000Y+5461000D02*
X-2563500Y+5461000D01*
X-2500000Y+5397500D01*
X-2500000Y+5100000D01*
X+2350000Y+5100000D02*
X+2236176Y+5213824D01*
X+1460500Y+5213824D01*
X+1397000Y+5150324D01*
X+1397000Y+4064000D01*
X+1333500Y+4000500D01*
X+1333500Y+3139500D01*
X+1230000Y+3036000D01*
X-3365500Y+8064500D02*
X-3388716Y+8087716D01*
X-3388716Y+8422284D01*
X-3302000Y+8509000D01*
X-159000Y+8509000D01*
X+0Y+8350000D01*
X+4191000Y+1143000D02*
X+2943000Y+1143000D01*
X+2550000Y+750000D01*
X+0Y+8150000D02*
X+530000Y+7620000D01*
X+3010000Y+7620000D01*
X+3280000Y+7350000D01*
X-1587500Y-1206500D02*
X-1333500Y-1206500D01*
X-1270000Y-1143000D01*
X-1270000Y+825500D01*
X-1333500Y+889000D01*
X-2111000Y+889000D01*
X-2300000Y+700000D01*
X-2500000Y+500000D02*
X-3190500Y-190500D01*
X-3540500Y-190500D01*
X-3984000Y-634000D01*
X-4572000Y+5461000D02*
X-4495800Y+5384800D01*
X-2717800Y+5384800D01*
X-2603500Y+5270500D01*
X+1206500Y+4127500D02*
X+1143000Y+4191000D01*
X+1143000Y+5257800D01*
X+1206500Y+5321300D01*
X+2146300Y+5321300D01*
X+2286000Y+5461000D01*
X+2486500Y+5461000D01*
X+2550000Y+5397500D01*
X+2550000Y+5100000D01*
X-3810000Y+6159500D02*
X-2032000Y+6159500D01*
X+4445000Y+1016000D02*
X+3016000Y+1016000D01*
X+2750000Y+750000D01*
X-4127500Y+0D02*
X-4121575Y-5925D01*
X-3205925Y-5925D01*
X-2700000Y+500000D01*
X-3810000Y+5588000D02*
X-3746500Y+5524500D01*
X-2163500Y+5524500D01*
X-2100000Y+5461000D01*
X-2100000Y+5100000D01*
X+2750000Y+5100000D02*
X+2750000Y+5461000D01*
X+2686500Y+5524500D01*
X+889000Y+5524500D01*
X+825500Y+5461000D01*
X+825500Y+2984500D01*
X+889000Y+2921000D01*
X+1623000Y+2921000D01*
X+1738000Y+3036000D01*
X+4699000Y+825500D02*
X+4127500Y+825500D01*
X+4000500Y+952500D01*
X+3152500Y+952500D01*
X+2950000Y+750000D01*
X-400000Y+8150000D02*
X+193500Y+7556500D01*
X+2565500Y+7556500D01*
X+2772000Y+7350000D01*
X-889000Y-825500D02*
X-1065853Y-1002353D01*
X-1065853Y-1205553D01*
X-1143000Y-1282700D01*
X-1892300Y-1282700D01*
X-1968500Y-1206500D01*
X-1968500Y-952500D01*
X-1333500Y-317500D01*
X-1333500Y+762000D01*
X-1397000Y+825500D01*
X-1774500Y+825500D01*
X-1900000Y+700000D01*
X-2900000Y+500000D02*
X-3273000Y+127000D01*
X-4381500Y+127000D01*
X-4492000Y+16500D01*
X-4492000Y-634000D01*
X-3556000Y+5651500D02*
X-1963500Y+5651500D01*
X-1900000Y+5588000D01*
X-1900000Y+5100000D01*
X+2095500Y+3683000D02*
X+4635500Y+3683000D01*
X-3327000Y+6598000D02*
X-3206000Y+6477000D01*
X-2667000Y+6477000D01*
X-2603500Y+6540500D01*
X-2603500Y+6794500D01*
X-2672414Y+6863414D01*
X-4127500Y+6863414D01*
X-4191000Y+6926914D01*
X-4191000Y+7750000D01*
X-4000000Y+7950000D01*
X-3863921Y+8440081D01*
X-3700000Y+8763000D01*
X+508000Y+8763000D01*
X+600000Y+8671000D01*
X+600000Y+8350000D01*
X+3150000Y+750000D02*
X+3289000Y+889000D01*
X+3746500Y+889000D01*
X+4064000Y+571500D01*
X+5143500Y+571500D01*
X+5207000Y+508000D01*
X+5207000Y-3111500D01*
X+5143500Y-3175000D01*
X+4977000Y-3175000D01*
X+4827000Y-3025000D01*
X-600000Y+8150000D02*
X+57000Y+7493000D01*
X+2375000Y+7493000D01*
X+2518000Y+7350000D01*
X-3100000Y+500000D02*
X-3282500Y+317500D01*
X-4635500Y+317500D01*
X-4746000Y+207000D01*
X-4746000Y-634000D01*
X-4064000Y+5905500D02*
X-1763500Y+5905500D01*
X-1700000Y+5842000D01*
X-1700000Y+5100000D01*
X+2159000Y+3556000D02*
X+4508500Y+3556000D01*
X-2921000Y+8636000D02*
X+381000Y+8636000D01*
X+508000Y+8509000D01*
X+2950000Y+2200000D02*
X+4150000Y+2200000D01*
X+4254500Y+2095500D01*
X+4254500Y+1587500D01*
X+4318000Y+1524000D01*
X+4992000Y+1524000D01*
X+5136000Y+1668000D01*
X-822000Y+1636000D02*
X-934000Y+1524000D01*
X-2159000Y+1524000D01*
X-2222500Y+1587500D01*
X-2222500Y+2040500D01*
X-2286000Y+2104000D01*
X-3050000Y+2104000D01*
X+2497000Y-1428000D02*
X+2219000Y-1150000D01*
X+350000Y-1150000D01*
X+1884000Y+6850000D02*
X+3780000Y+6850000D01*
X+4042000Y+6588000D01*
X-3222000Y-1396000D02*
X-3350000Y-1524000D01*
X-4064000Y-1524000D01*
X-4127500Y-1460500D01*
X-4127500Y-1217500D01*
X-4191000Y-1154000D01*
X-5350000Y-1154000D01*
X+698500Y+2095500D02*
X+254000Y+2095500D01*
X+350000Y-1150000D02*
X+166500Y-1333500D01*
X-2159000Y-1333500D01*
X+2950000Y+2200000D02*
X+803000Y+2200000D01*
X+698500Y+2095500D01*
X-3222000Y-1396000D02*
X-2349500Y-1396000D01*
X-2349500Y-1333500D01*
X-2286000Y-1333500D01*
X+722000Y+3798000D02*
X+478000Y+3554000D01*
X+350000Y+3554000D01*
X-2159000Y-1333500D02*
X-2286000Y-1333500D01*
X-822000Y+1636000D02*
X-362500Y+2095500D01*
X+254000Y+2095500D01*
D11*
X+3556000Y-3683000D03*
X-1778000Y-1841500D03*
X+635000Y-1651000D03*
X-3683000Y-1714500D03*
X-508000Y-1714500D03*
X+4635500Y+1397000D03*
X-4889500Y+1397000D03*
X+2603500Y+2286000D03*
X-1460500Y+2286000D03*
X+4000500Y+4445000D03*
X+4000500Y+3873500D03*
X-1016000Y-1587500D03*
X+2413000Y-3429000D03*
X+0Y-1143000D03*
X+1270000Y+5143500D03*
X+2286000Y+5334000D03*
X-3048000Y+1206500D03*
X-3429000Y+1079500D03*
X-2603500Y+952500D03*
X+2984500Y-1524000D03*
X+4318000Y-1524000D03*
X+381000Y-2032000D03*
X+190500Y-1016000D03*
X+190500Y-762000D03*
X+3492500Y+4318000D03*
X+190500Y+1524000D03*
X+3810000Y-1778000D03*
X+2349500Y+2730500D03*
X-4635500Y+1206500D03*
X+2794000Y-1778000D03*
X-3429000Y+1206500D03*
X-317500Y-2794000D03*
X+4508500Y+3238500D03*
X-1206500Y+4254500D03*
X+5016500Y+4064000D03*
X-4064000Y+7493000D03*
X-2921000Y+5778500D03*
X-5207000Y+3746500D03*
X-1079500Y+6286500D03*
X-4572000Y+6286500D03*
X+2222500Y+1079500D03*
X+2095500Y+5397500D03*
X+952500Y+3238500D03*
X-1460500Y+6413500D03*
X-4445000Y+6413500D03*
X-4318000Y+5461000D03*
X-3365500Y+8064500D03*
X+4191000Y+1143000D03*
X-1587500Y-1206500D03*
X-2603500Y+5270500D03*
X-4572000Y+5461000D03*
X+1206500Y+4127500D03*
X-2032000Y+6159500D03*
X-3810000Y+6159500D03*
X+4445000Y+1016000D03*
X-4127500Y+0D03*
X-3810000Y+5588000D03*
X+4699000Y+825500D03*
X-889000Y-825500D03*
X-3556000Y+5651500D03*
X+4635500Y+3683000D03*
X+2095500Y+3683000D03*
X-4064000Y+5905500D03*
X+4508500Y+3556000D03*
X+2159000Y+3556000D03*
X+508000Y+8509000D03*
X-2921000Y+8636000D03*
X+254000Y+2095500D03*
X-2286000Y-1333500D03*
D12*
X+5613640Y-8800000D02*
X+4395998Y-8800000D01*
X+4436079Y-8759919D01*
X+4436079Y-8440081D01*
X+4209919Y-8213921D01*
X+3890081Y-8213921D01*
X+3663921Y-8440081D01*
X+3663921Y-8759919D01*
X+3704002Y-8800000D01*
X-3904002Y-8800000D01*
X-3863921Y-8759919D01*
X-3863921Y-8440081D01*
X-4090081Y-8213921D01*
X-4409919Y-8213921D01*
X-4636079Y-8440081D01*
X-4636079Y-8759919D01*
X-4595998Y-8800000D01*
X-5813640Y-8800000D01*
X-5813640Y+8913640D01*
X-4482358Y+8913640D01*
X-4636079Y+8759919D01*
X-4636079Y+8440081D01*
X-4409919Y+8213921D01*
X-4090081Y+8213921D01*
X-3980701Y+8323301D01*
X-4072861Y+7991390D01*
X-4272279Y+7782576D01*
X-4272279Y+7476067D01*
X-4288291Y+7492079D01*
X-4397709Y+7492079D01*
X-4470000Y+7419788D01*
X-4542291Y+7492079D01*
X-4651709Y+7492079D01*
X-4729079Y+7414709D01*
X-4729079Y+7305291D01*
X-4651709Y+7227921D01*
X-4542291Y+7227921D01*
X-4470000Y+7300212D01*
X-4397709Y+7227921D01*
X-4288291Y+7227921D01*
X-4272279Y+7243933D01*
X-4272279Y+6893249D01*
X-4161165Y+6782135D01*
X-2706079Y+6782135D01*
X-2684779Y+6760835D01*
X-2684779Y+6574165D01*
X-2686921Y+6572023D01*
X-2686921Y+6652709D01*
X-2764291Y+6730079D01*
X-2873709Y+6730079D01*
X-2946000Y+6657788D01*
X-3018291Y+6730079D01*
X-3127709Y+6730079D01*
X-3200000Y+6657788D01*
X-3272291Y+6730079D01*
X-3381709Y+6730079D01*
X-3454000Y+6657788D01*
X-3526291Y+6730079D01*
X-3635709Y+6730079D01*
X-3708000Y+6657788D01*
X-3780291Y+6730079D01*
X-3889709Y+6730079D01*
X-3962000Y+6657788D01*
X-4034291Y+6730079D01*
X-4143709Y+6730079D01*
X-4216000Y+6657788D01*
X-4288291Y+6730079D01*
X-4397709Y+6730079D01*
X-4464921Y+6662867D01*
X-4464921Y+6730079D01*
X-4729079Y+6730079D01*
X-4729079Y+6465921D01*
X-4543446Y+6465921D01*
X-4551679Y+6457688D01*
X-4551679Y+6393179D01*
X-4616188Y+6393179D01*
X-4678679Y+6330688D01*
X-4678679Y+6242312D01*
X-4616188Y+6179821D01*
X-4527812Y+6179821D01*
X-4502412Y+6205221D01*
X-3915146Y+6205221D01*
X-3916679Y+6203688D01*
X-3916679Y+6115312D01*
X-3854188Y+6052821D01*
X-3765812Y+6052821D01*
X-3740412Y+6078221D01*
X-2101588Y+6078221D01*
X-2076188Y+6052821D01*
X-1987812Y+6052821D01*
X-1925321Y+6115312D01*
X-1925321Y+6203688D01*
X-1926854Y+6205221D01*
X-1149088Y+6205221D01*
X-1123688Y+6179821D01*
X-1035312Y+6179821D01*
X-972821Y+6242312D01*
X-972821Y+6330688D01*
X-1035312Y+6393179D01*
X-1123688Y+6393179D01*
X-1149088Y+6367779D01*
X-1355354Y+6367779D01*
X-1353821Y+6369312D01*
X-1353821Y+6457688D01*
X-1402854Y+6506721D01*
X+2158491Y+6506721D01*
X+2209291Y+6455921D01*
X+2318709Y+6455921D01*
X+2331721Y+6468933D01*
X+2331721Y+6320165D01*
X+2315835Y+6304279D01*
X-97165Y+6304279D01*
X-241220Y+6160224D01*
X-241220Y+3970665D01*
X-300606Y+3911279D01*
X-3094491Y+3911279D01*
X-3145291Y+3962079D01*
X-3254709Y+3962079D01*
X-3327000Y+3889788D01*
X-3399291Y+3962079D01*
X-3474721Y+3962079D01*
X-3474721Y+3970665D01*
X-3585835Y+4081779D01*
X-4249665Y+4081779D01*
X-4297279Y+4034165D01*
X-4297279Y+3935509D01*
X-4343000Y+3889788D01*
X-4415291Y+3962079D01*
X-4476977Y+3962079D01*
X-3417412Y+5021644D01*
X-3395768Y+5000000D01*
X-3438429Y+4957339D01*
X-3438429Y+4842661D01*
X-3357339Y+4761571D01*
X-3242661Y+4761571D01*
X-3200000Y+4804232D01*
X-3157339Y+4761571D01*
X-3042661Y+4761571D01*
X-3000000Y+4804232D01*
X-2957339Y+4761571D01*
X-2842661Y+4761571D01*
X-2800000Y+4804232D01*
X-2757339Y+4761571D01*
X-2642661Y+4761571D01*
X-2600000Y+4804232D01*
X-2557339Y+4761571D01*
X-2442661Y+4761571D01*
X-2400000Y+4804232D01*
X-2357339Y+4761571D01*
X-2242661Y+4761571D01*
X-2200000Y+4804232D01*
X-2157339Y+4761571D01*
X-2042661Y+4761571D01*
X-2000000Y+4804232D01*
X-1957339Y+4761571D01*
X-1842661Y+4761571D01*
X-1800000Y+4804232D01*
X-1781279Y+4785511D01*
X-1781279Y+4714335D01*
X-1313179Y+4246235D01*
X-1313179Y+4210312D01*
X-1250688Y+4147821D01*
X-1162312Y+4147821D01*
X-1099821Y+4210312D01*
X-1099821Y+4298688D01*
X-1162312Y+4361179D01*
X-1198235Y+4361179D01*
X-1618721Y+4781665D01*
X-1618721Y+4785511D01*
X-1600000Y+4804232D01*
X-1557339Y+4761571D01*
X-1442661Y+4761571D01*
X-1385511Y+4818721D01*
X-813335Y+4818721D01*
X-704535Y+4927521D01*
X-596770Y+4927521D01*
X-504521Y+5019770D01*
X-504521Y+5150230D01*
X-596770Y+5242479D01*
X-727230Y+5242479D01*
X-819479Y+5150230D01*
X-819479Y+5042465D01*
X-880665Y+4981279D01*
X-1385511Y+4981279D01*
X-1404232Y+5000000D01*
X-1361571Y+5042661D01*
X-1361571Y+5157339D01*
X-1442661Y+5238429D01*
X-1557339Y+5238429D01*
X-1600000Y+5195768D01*
X-1618721Y+5214489D01*
X-1618721Y+5875665D01*
X-1729835Y+5986779D01*
X-3994412Y+5986779D01*
X-4019812Y+6012179D01*
X-4108188Y+6012179D01*
X-4170679Y+5949688D01*
X-4170679Y+5861312D01*
X-4169146Y+5859779D01*
X-5177165Y+5859779D01*
X-5288279Y+5748665D01*
X-5288279Y+3816088D01*
X-5313679Y+3790688D01*
X-5313679Y+3702312D01*
X-5251188Y+3639821D01*
X-5162812Y+3639821D01*
X-5100321Y+3702312D01*
X-5100321Y+3765533D01*
X-5032709Y+3697921D01*
X-4923291Y+3697921D01*
X-4907279Y+3713933D01*
X-4907279Y+3200079D01*
X-5110079Y+3200079D01*
X-5110079Y+2935921D01*
X-4845921Y+2935921D01*
X-4845921Y+3003133D01*
X-4778709Y+2935921D01*
X-4669291Y+2935921D01*
X-4597000Y+3008212D01*
X-4524709Y+2935921D01*
X-4415291Y+2935921D01*
X-4343000Y+3008212D01*
X-4270709Y+2935921D01*
X-4161291Y+2935921D01*
X-4089000Y+3008212D01*
X-4016709Y+2935921D01*
X-3907291Y+2935921D01*
X-3835000Y+3008212D01*
X-3762709Y+2935921D01*
X-3653291Y+2935921D01*
X-3581000Y+3008212D01*
X-3508709Y+2935921D01*
X-3399291Y+2935921D01*
X-3327000Y+3008212D01*
X-3254709Y+2935921D01*
X-3145291Y+2935921D01*
X-3067921Y+3013291D01*
X-3067921Y+3079977D01*
X-3065779Y+3077835D01*
X-3065779Y+2764165D01*
X-3319779Y+2510165D01*
X-3319779Y+1665835D01*
X-3208665Y+1554721D01*
X-2705509Y+1554721D01*
X-2654709Y+1503921D01*
X-2545291Y+1503921D01*
X-2473000Y+1576212D01*
X-2400709Y+1503921D01*
X-2291291Y+1503921D01*
X-2272578Y+1522634D01*
X-2228223Y+1478279D01*
X-4819912Y+1478279D01*
X-4845312Y+1503679D01*
X-4933688Y+1503679D01*
X-4996179Y+1441188D01*
X-4996179Y+1352812D01*
X-4933688Y+1290321D01*
X-4845312Y+1290321D01*
X-4819912Y+1315721D01*
X+2800777Y+1315721D01*
X+2373485Y+888429D01*
X+2292661Y+888429D01*
X+2250000Y+845768D01*
X+2231279Y+864489D01*
X+2231279Y+972821D01*
X+2266688Y+972821D01*
X+2329179Y+1035312D01*
X+2329179Y+1123688D01*
X+2266688Y+1186179D01*
X+2178312Y+1186179D01*
X+2115821Y+1123688D01*
X+2115821Y+1087765D01*
X+2068721Y+1040665D01*
X+2068721Y+864489D01*
X+2050000Y+845768D01*
X+2007339Y+888429D01*
X+1892661Y+888429D01*
X+1850000Y+845768D01*
X+1807339Y+888429D01*
X+1692661Y+888429D01*
X+1650000Y+845768D01*
X+1607339Y+888429D01*
X+1492661Y+888429D01*
X+1411571Y+807339D01*
X+1411571Y+692661D01*
X+1454232Y+650000D01*
X+1411571Y+607339D01*
X+1411571Y+492661D01*
X+1492661Y+411571D01*
X+1607339Y+411571D01*
X+1650000Y+454232D01*
X+1692661Y+411571D01*
X+1807339Y+411571D01*
X+1850000Y+454232D01*
X+1892661Y+411571D01*
X+2007339Y+411571D01*
X+2050000Y+454232D01*
X+2092661Y+411571D01*
X+2207339Y+411571D01*
X+2250000Y+454232D01*
X+2292661Y+411571D01*
X+2407339Y+411571D01*
X+2450000Y+454232D01*
X+2492661Y+411571D01*
X+2607339Y+411571D01*
X+2650000Y+454232D01*
X+2692661Y+411571D01*
X+2807339Y+411571D01*
X+2850000Y+454232D01*
X+2892661Y+411571D01*
X+3007339Y+411571D01*
X+3050000Y+454232D01*
X+3092661Y+411571D01*
X+3207339Y+411571D01*
X+3250000Y+454232D01*
X+3292661Y+411571D01*
X+3373485Y+411571D01*
X+3445335Y+339721D01*
X+4824570Y+339721D01*
X+4900770Y+263521D01*
X+5031230Y+263521D01*
X+5123479Y+355770D01*
X+5123479Y+476577D01*
X+5125721Y+474335D01*
X+5125721Y-2130921D01*
X+5063865Y-2130921D01*
X+4502665Y-1569721D01*
X+4423146Y-1569721D01*
X+4424679Y-1568188D01*
X+4424679Y-1479812D01*
X+4362188Y-1417321D01*
X+4273812Y-1417321D01*
X+4248412Y-1442721D01*
X+3651250Y-1442722D01*
X+3054088Y-1442721D01*
X+3028688Y-1417321D01*
X+2940312Y-1417321D01*
X+2877821Y-1479812D01*
X+2877821Y-1568188D01*
X+2879354Y-1569721D01*
X+2245665Y-1569721D01*
X+2236023Y-1560079D01*
X+2297709Y-1560079D01*
X+2370000Y-1487788D01*
X+2442291Y-1560079D01*
X+2551709Y-1560079D01*
X+2629079Y-1482709D01*
X+2629079Y-1373291D01*
X+2551709Y-1295921D01*
X+2479865Y-1295921D01*
X+2252665Y-1068721D01*
X+491430Y-1068721D01*
X+445709Y-1023000D01*
X+507479Y-961230D01*
X+507479Y-830770D01*
X+415230Y-738521D01*
X+297179Y-738521D01*
X+297179Y-717812D01*
X+234688Y-655321D01*
X+146312Y-655321D01*
X+83821Y-717812D01*
X+83821Y-806188D01*
X+109221Y-831588D01*
X+109221Y-946412D01*
X+83821Y-971812D01*
X+83821Y-1060188D01*
X+146312Y-1122679D01*
X+192521Y-1122679D01*
X+192521Y-1192535D01*
X+132835Y-1252221D01*
X-997577Y-1252221D01*
X-984574Y-1239218D01*
X-984574Y-1036018D01*
X-880735Y-932179D01*
X-855888Y-932179D01*
X-943479Y-1019770D01*
X-943479Y-1150230D01*
X-851230Y-1242479D01*
X-720770Y-1242479D01*
X-644570Y-1166279D01*
X-106679Y-1166279D01*
X-106679Y-1187188D01*
X-44188Y-1249679D01*
X+44188Y-1249679D01*
X+106679Y-1187188D01*
X+106679Y-1098812D01*
X+44188Y-1036321D01*
X+8265Y-1036321D01*
X-24335Y-1003721D01*
X-644570Y-1003721D01*
X-720770Y-927521D01*
X-840154Y-927521D01*
X-782321Y-869688D01*
X-782321Y-781312D01*
X-844812Y-718821D01*
X-933188Y-718821D01*
X-995679Y-781312D01*
X-995679Y-817235D01*
X-1147132Y-968688D01*
X-1147132Y-1171888D01*
X-1176665Y-1201421D01*
X-1213477Y-1201421D01*
X-1188721Y-1176665D01*
X-1188721Y+859165D01*
X-1299835Y+970279D01*
X-2144665Y+970279D01*
X-2276515Y+838429D01*
X-2357339Y+838429D01*
X-2400000Y+795768D01*
X-2442661Y+838429D01*
X-2557339Y+838429D01*
X-2600000Y+795768D01*
X-2642661Y+838429D01*
X-2757339Y+838429D01*
X-2800000Y+795768D01*
X-2842661Y+838429D01*
X-2957339Y+838429D01*
X-3000000Y+795768D01*
X-3042661Y+838429D01*
X-3157339Y+838429D01*
X-3200000Y+795768D01*
X-3242661Y+838429D01*
X-3357339Y+838429D01*
X-3438429Y+757339D01*
X-3438429Y+642661D01*
X-3395768Y+600000D01*
X-3438429Y+557339D01*
X-3438429Y+442661D01*
X-3394547Y+398779D01*
X-4669165Y+398779D01*
X-4827279Y+240665D01*
X-4827279Y-528491D01*
X-4873000Y-574212D01*
X-4945291Y-501921D01*
X-5054709Y-501921D01*
X-5132079Y-579291D01*
X-5132079Y-688709D01*
X-5054709Y-766079D01*
X-4945291Y-766079D01*
X-4873000Y-693788D01*
X-4800709Y-766079D01*
X-4691291Y-766079D01*
X-4619000Y-693788D01*
X-4546709Y-766079D01*
X-4437291Y-766079D01*
X-4365000Y-693788D01*
X-4292709Y-766079D01*
X-4183291Y-766079D01*
X-4111000Y-693788D01*
X-4038709Y-766079D01*
X-3929291Y-766079D01*
X-3857000Y-693788D01*
X-3784709Y-766079D01*
X-3675291Y-766079D01*
X-3603000Y-693788D01*
X-3530709Y-766079D01*
X-3421291Y-766079D01*
X-3354079Y-698867D01*
X-3354079Y-766079D01*
X-3089921Y-766079D01*
X-3089921Y-715279D01*
X-3000335Y-715279D01*
X-1923485Y+361571D01*
X-1842661Y+361571D01*
X-1800000Y+404232D01*
X-1795356Y+399588D01*
X-3458865Y-1263921D01*
X-3530709Y-1263921D01*
X-3603000Y-1336212D01*
X-3675291Y-1263921D01*
X-3784709Y-1263921D01*
X-3857000Y-1336212D01*
X-3929291Y-1263921D01*
X-4038709Y-1263921D01*
X-4046221Y-1271433D01*
X-4046221Y-1183835D01*
X-4157335Y-1072721D01*
X-5208570Y-1072721D01*
X-5254291Y-1027000D01*
X-5192521Y-965230D01*
X-5192521Y-834770D01*
X-5284770Y-742521D01*
X-5415230Y-742521D01*
X-5507479Y-834770D01*
X-5507479Y-965230D01*
X-5445709Y-1027000D01*
X-5507479Y-1088770D01*
X-5507479Y-1219230D01*
X-5415230Y-1311479D01*
X-5284770Y-1311479D01*
X-5208570Y-1235279D01*
X-4224665Y-1235279D01*
X-4208779Y-1251165D01*
X-4208779Y-1263921D01*
X-4292709Y-1263921D01*
X-4365000Y-1336212D01*
X-4437291Y-1263921D01*
X-4546709Y-1263921D01*
X-4619000Y-1336212D01*
X-4691291Y-1263921D01*
X-4800709Y-1263921D01*
X-4873000Y-1336212D01*
X-4945291Y-1263921D01*
X-5054709Y-1263921D01*
X-5132079Y-1341291D01*
X-5132079Y-1450709D01*
X-5054709Y-1528079D01*
X-4945291Y-1528079D01*
X-4873000Y-1455788D01*
X-4800709Y-1528079D01*
X-4691291Y-1528079D01*
X-4619000Y-1455788D01*
X-4546709Y-1528079D01*
X-4474865Y-1528079D01*
X-4334165Y-1668779D01*
X-3788146Y-1668779D01*
X-3789679Y-1670312D01*
X-3789679Y-1758688D01*
X-3727188Y-1821179D01*
X-3638812Y-1821179D01*
X-3613412Y-1795779D01*
X-1883146Y-1795779D01*
X-1884679Y-1797312D01*
X-1884679Y-1885688D01*
X-1822188Y-1948179D01*
X-1733812Y-1948179D01*
X-1708412Y-1922779D01*
X-391723Y-1922779D01*
X-724865Y-2255921D01*
X-759135Y-2255921D01*
X-1000835Y-2014221D01*
X-4578165Y-2014221D01*
X-4712465Y-2148521D01*
X-4820230Y-2148521D01*
X-4912479Y-2240770D01*
X-4912479Y-2371230D01*
X-4820230Y-2463479D01*
X-4689770Y-2463479D01*
X-4597521Y-2371230D01*
X-4597521Y-2263465D01*
X-4510835Y-2176779D01*
X-4048488Y-2176779D01*
X-4114479Y-2242770D01*
X-4114479Y-2373230D01*
X-4022230Y-2465479D01*
X-3891770Y-2465479D01*
X-3799521Y-2373230D01*
X-3799521Y-2265465D01*
X-3774335Y-2240279D01*
X-3389988Y-2240279D01*
X-3431479Y-2281770D01*
X-3431479Y-2412230D01*
X-3339230Y-2504479D01*
X-3208770Y-2504479D01*
X-3132570Y-2428279D01*
X-2694335Y-2428279D01*
X-2633335Y-2367279D01*
X-2398079Y-2367279D01*
X-2398079Y-2442709D01*
X-2320709Y-2520079D01*
X-2211291Y-2520079D01*
X-2139000Y-2447788D01*
X-2066709Y-2520079D01*
X-1957291Y-2520079D01*
X-1885000Y-2447788D01*
X-1812709Y-2520079D01*
X-1703291Y-2520079D01*
X-1631000Y-2447788D01*
X-1558709Y-2520079D01*
X-1486865Y-2520079D01*
X-1131665Y-2875279D01*
X-387088Y-2875279D01*
X-361688Y-2900679D01*
X-273312Y-2900679D01*
X-247912Y-2875279D01*
X+160665Y-2875279D01*
X+859165Y-2176779D01*
X+1553835Y-2176779D01*
X+1617335Y-2240279D01*
X+3170921Y-2240279D01*
X+3170921Y-2317709D01*
X+3248291Y-2395079D01*
X+3357709Y-2395079D01*
X+3430000Y-2322788D01*
X+3502291Y-2395079D01*
X+3611709Y-2395079D01*
X+3684000Y-2322788D01*
X+3756291Y-2395079D01*
X+3865709Y-2395079D01*
X+3938000Y-2322788D01*
X+4010291Y-2395079D01*
X+4119709Y-2395079D01*
X+4192000Y-2322788D01*
X+4264291Y-2395079D01*
X+4373709Y-2395079D01*
X+4446000Y-2322788D01*
X+4518291Y-2395079D01*
X+4627709Y-2395079D01*
X+4700000Y-2322788D01*
X+4772291Y-2395079D01*
X+4881709Y-2395079D01*
X+4954000Y-2322788D01*
X+5026291Y-2395079D01*
X+5125721Y-2395079D01*
X+5125721Y-2892921D01*
X+5026291Y-2892921D01*
X+4954000Y-2965212D01*
X+4881709Y-2892921D01*
X+4772291Y-2892921D01*
X+4700000Y-2965212D01*
X+4627709Y-2892921D01*
X+4518291Y-2892921D01*
X+4446000Y-2965212D01*
X+4373709Y-2892921D01*
X+4264291Y-2892921D01*
X+4192000Y-2965212D01*
X+4119709Y-2892921D01*
X+4010291Y-2892921D01*
X+3938000Y-2965212D01*
X+3865709Y-2892921D01*
X+3756291Y-2892921D01*
X+3684000Y-2965212D01*
X+3611709Y-2892921D01*
X+3502291Y-2892921D01*
X+3435079Y-2960133D01*
X+3435079Y-2892921D01*
X+3170921Y-2892921D01*
X+3170921Y-3157079D01*
X+3435079Y-3157079D01*
X+3435079Y-3089867D01*
X+3502291Y-3157079D01*
X+3611709Y-3157079D01*
X+3684000Y-3084788D01*
X+3756291Y-3157079D01*
X+3828135Y-3157079D01*
X+3990835Y-3319779D01*
X+5240665Y-3319779D01*
X+5351779Y-3208665D01*
X+5351779Y+1240165D01*
X+5240665Y+1351279D01*
X+4740646Y+1351279D01*
X+4742179Y+1352812D01*
X+4742179Y+1441188D01*
X+4740646Y+1442721D01*
X+5025665Y+1442721D01*
X+5118865Y+1535921D01*
X+5190709Y+1535921D01*
X+5268079Y+1613291D01*
X+5268079Y+1722709D01*
X+5190709Y+1800079D01*
X+5081291Y+1800079D01*
X+5009000Y+1727788D01*
X+4936709Y+1800079D01*
X+4827291Y+1800079D01*
X+4755000Y+1727788D01*
X+4682709Y+1800079D01*
X+4589779Y+1800079D01*
X+4589779Y+2297921D01*
X+4682709Y+2297921D01*
X+4755000Y+2370212D01*
X+4827291Y+2297921D01*
X+4936709Y+2297921D01*
X+4987509Y+2348721D01*
X+5003921Y+2348721D01*
X+5003921Y+2297921D01*
X+5268079Y+2297921D01*
X+5268079Y+2562079D01*
X+5003921Y+2562079D01*
X+5003921Y+2511280D01*
X+4987508Y+2511280D01*
X+4963279Y+2535509D01*
X+4963279Y+3914665D01*
X+4895223Y+3982721D01*
X+4946912Y+3982721D01*
X+4972312Y+3957321D01*
X+5060688Y+3957321D01*
X+5123179Y+4019812D01*
X+5123179Y+4108188D01*
X+5060688Y+4170679D01*
X+4972312Y+4170679D01*
X+4946912Y+4145279D01*
X+4299078Y+4145279D01*
X+4374634Y+4220835D01*
X+4374634Y+4959190D01*
X+4415165Y+4999721D01*
X+5142570Y+4999721D01*
X+5218770Y+4923521D01*
X+5349230Y+4923521D01*
X+5441479Y+5015770D01*
X+5441479Y+5146230D01*
X+5349230Y+5238479D01*
X+5218770Y+5238479D01*
X+5142570Y+5162279D01*
X+4347835Y+5162279D01*
X+4212076Y+5026520D01*
X+4212076Y+4288165D01*
X+4196190Y+4272279D01*
X+4133223Y+4272279D01*
X+4208779Y+4347835D01*
X+4208779Y+5520165D01*
X+3273023Y+6455921D01*
X+3334709Y+6455921D01*
X+3407000Y+6528212D01*
X+3479291Y+6455921D01*
X+3588709Y+6455921D01*
X+3661000Y+6528212D01*
X+3733291Y+6455921D01*
X+3842709Y+6455921D01*
X+3915000Y+6528212D01*
X+3987291Y+6455921D01*
X+4096709Y+6455921D01*
X+4174079Y+6533291D01*
X+4174079Y+6642709D01*
X+4096709Y+6720079D01*
X+4024865Y+6720079D01*
X+3813665Y+6931279D01*
X+2025430Y+6931279D01*
X+1979709Y+6977000D01*
X+2041479Y+7038770D01*
X+2041479Y+7169230D01*
X+1949230Y+7261479D01*
X+1818770Y+7261479D01*
X+1726521Y+7169230D01*
X+1726521Y+7038770D01*
X+1788291Y+6977000D01*
X+1726521Y+6915230D01*
X+1726521Y+6784770D01*
X+1818770Y+6692521D01*
X+1949230Y+6692521D01*
X+2025430Y+6768721D01*
X+2399277Y+6768721D01*
X+2334672Y+6704116D01*
X+2318709Y+6720079D01*
X+2209291Y+6720079D01*
X+2158491Y+6669279D01*
X-1982335Y+6669279D01*
X-2569835Y+7256779D01*
X-2735433Y+7256779D01*
X-2686921Y+7305291D01*
X-2686921Y+7414709D01*
X-2764291Y+7492079D01*
X-2873709Y+7492079D01*
X-2946000Y+7419788D01*
X-3018291Y+7492079D01*
X-3127709Y+7492079D01*
X-3200000Y+7419788D01*
X-3272291Y+7492079D01*
X-3314977Y+7492079D01*
X-2430260Y+8376796D01*
X-938429Y+8376796D01*
X-938429Y+8292661D01*
X-895768Y+8250000D01*
X-938429Y+8207339D01*
X-938429Y+8092661D01*
X-857339Y+8011571D01*
X-742661Y+8011571D01*
X-700000Y+8054232D01*
X-657339Y+8011571D01*
X-576515Y+8011571D01*
X+23335Y+7411721D01*
X+2138933Y+7411721D01*
X+2131921Y+7404709D01*
X+2131921Y+7295291D01*
X+2209291Y+7217921D01*
X+2318709Y+7217921D01*
X+2391000Y+7290212D01*
X+2463291Y+7217921D01*
X+2572709Y+7217921D01*
X+2645000Y+7290212D01*
X+2717291Y+7217921D01*
X+2826709Y+7217921D01*
X+2899000Y+7290212D01*
X+2971291Y+7217921D01*
X+3080709Y+7217921D01*
X+3153000Y+7290212D01*
X+3225291Y+7217921D01*
X+3334709Y+7217921D01*
X+3407000Y+7290212D01*
X+3479291Y+7217921D01*
X+3588709Y+7217921D01*
X+3661000Y+7290212D01*
X+3733291Y+7217921D01*
X+3842709Y+7217921D01*
X+3909921Y+7285133D01*
X+3909921Y+7217921D01*
X+4174079Y+7217921D01*
X+4174079Y+7482079D01*
X+4024865Y+7482079D01*
X+3488223Y+8018721D01*
X+5063665Y+8018721D01*
X+5255465Y+8210521D01*
X+5363230Y+8210521D01*
X+5455479Y+8302770D01*
X+5455479Y+8433230D01*
X+5363230Y+8525479D01*
X+5232770Y+8525479D01*
X+5140521Y+8433230D01*
X+5140521Y+8325465D01*
X+4996335Y+8181279D01*
X+2696665Y+8181279D01*
X+2446665Y+8431279D01*
X+1114489Y+8431279D01*
X+1057339Y+8488429D01*
X+942661Y+8488429D01*
X+900000Y+8445768D01*
X+857339Y+8488429D01*
X+742661Y+8488429D01*
X+700000Y+8445768D01*
X+681279Y+8464489D01*
X+681279Y+8704665D01*
X+541665Y+8844279D01*
X-3722955Y+8844279D01*
X-3762084Y+8820260D01*
X-3863921Y+8619645D01*
X-3863921Y+8759919D01*
X-4017642Y+8913640D01*
X+3817642Y+8913640D01*
X+3663921Y+8759919D01*
X+3663921Y+8440081D01*
X+3890081Y+8213921D01*
X+4209919Y+8213921D01*
X+4436079Y+8440081D01*
X+4436079Y+8759919D01*
X+4282358Y+8913640D01*
X+5613640Y+8913640D01*
X+5613640Y-8800000D01*
X+2629079Y-798079D02*
X+2364921Y-798079D01*
X+2364921Y-730867D01*
X+2297709Y-798079D01*
X+2188291Y-798079D01*
X+2116000Y-725788D01*
X+2043709Y-798079D01*
X+1934291Y-798079D01*
X+1862000Y-725788D01*
X+1789709Y-798079D01*
X+1680291Y-798079D01*
X+1608000Y-725788D01*
X+1535709Y-798079D01*
X+1426291Y-798079D01*
X+1354000Y-725788D01*
X+1281709Y-798079D01*
X+1172291Y-798079D01*
X+1100000Y-725788D01*
X+1027709Y-798079D01*
X+918291Y-798079D01*
X+846000Y-725788D01*
X+773709Y-798079D01*
X+664291Y-798079D01*
X+586921Y-720709D01*
X+586921Y-611291D01*
X+664291Y-533921D01*
X+773709Y-533921D01*
X+846000Y-606212D01*
X+918291Y-533921D01*
X+1027709Y-533921D01*
X+1100000Y-606212D01*
X+1172291Y-533921D01*
X+1281709Y-533921D01*
X+1354000Y-606212D01*
X+1426291Y-533921D01*
X+1535709Y-533921D01*
X+1608000Y-606212D01*
X+1680291Y-533921D01*
X+1789709Y-533921D01*
X+1862000Y-606212D01*
X+1934291Y-533921D01*
X+2043709Y-533921D01*
X+2116000Y-606212D01*
X+2188291Y-533921D01*
X+2297709Y-533921D01*
X+2364921Y-601133D01*
X+2364921Y-533921D01*
X+2629079Y-533921D01*
X+2629079Y-798079D01*
X-355921Y-3095291D02*
X-355921Y-3204709D01*
X-433291Y-3282079D01*
X-542709Y-3282079D01*
X-615000Y-3209788D01*
X-687291Y-3282079D01*
X-796709Y-3282079D01*
X-869000Y-3209788D01*
X-941291Y-3282079D01*
X-1050709Y-3282079D01*
X-1123000Y-3209788D01*
X-1195291Y-3282079D01*
X-1304709Y-3282079D01*
X-1377000Y-3209788D01*
X-1449291Y-3282079D01*
X-1558709Y-3282079D01*
X-1631000Y-3209788D01*
X-1703291Y-3282079D01*
X-1812709Y-3282079D01*
X-1885000Y-3209788D01*
X-1957291Y-3282079D01*
X-2066709Y-3282079D01*
X-2133921Y-3214867D01*
X-2133921Y-3282079D01*
X-2398079Y-3282079D01*
X-2398079Y-3017921D01*
X-2133921Y-3017921D01*
X-2133921Y-3085133D01*
X-2066709Y-3017921D01*
X-1957291Y-3017921D01*
X-1885000Y-3090212D01*
X-1812709Y-3017921D01*
X-1703291Y-3017921D01*
X-1631000Y-3090212D01*
X-1558709Y-3017921D01*
X-1449291Y-3017921D01*
X-1377000Y-3090212D01*
X-1304709Y-3017921D01*
X-1195291Y-3017921D01*
X-1123000Y-3090212D01*
X-1050709Y-3017921D01*
X-941291Y-3017921D01*
X-869000Y-3090212D01*
X-796709Y-3017921D01*
X-687291Y-3017921D01*
X-615000Y-3090212D01*
X-542709Y-3017921D01*
X-433291Y-3017921D01*
X-355921Y-3095291D01*
X+5441479Y+4130230D02*
X+5441479Y+4022465D01*
X+5542279Y+3921665D01*
X+5542279Y-3399165D01*
X+5431165Y-3510279D01*
X+5005723Y-3510279D01*
X+5081279Y-3585835D01*
X+5081279Y-4632531D01*
X+5144779Y-4696031D01*
X+5144779Y-4815969D01*
X+5077748Y-4883000D01*
X+5144779Y-4950031D01*
X+5144779Y-5069969D01*
X+5077748Y-5137000D01*
X+5144779Y-5204031D01*
X+5144779Y-5323969D01*
X+5077748Y-5391000D01*
X+5144779Y-5458031D01*
X+5144779Y-5577969D01*
X+5077748Y-5645000D01*
X+5144779Y-5712031D01*
X+5144779Y-5831969D01*
X+5077748Y-5899000D01*
X+5144779Y-5966031D01*
X+5144779Y-6085969D01*
X+5077748Y-6153000D01*
X+5144779Y-6220031D01*
X+5144779Y-6339969D01*
X+5077748Y-6407000D01*
X+5144779Y-6474031D01*
X+5144779Y-6593969D01*
X+5077748Y-6661000D01*
X+5144779Y-6728031D01*
X+5144779Y-6847969D01*
X+5077748Y-6915000D01*
X+5144779Y-6982031D01*
X+5144779Y-7101969D01*
X+5077748Y-7169000D01*
X+5144779Y-7236031D01*
X+5144779Y-7355969D01*
X+5077748Y-7423000D01*
X+5144779Y-7490031D01*
X+5144779Y-7609969D01*
X+5077748Y-7677000D01*
X+5144779Y-7744031D01*
X+5144779Y-7863969D01*
X+5077748Y-7931000D01*
X+5144779Y-7998031D01*
X+5144779Y-8117969D01*
X+5077748Y-8185000D01*
X+5144779Y-8252031D01*
X+5144779Y-8371969D01*
X+5059969Y-8456779D01*
X+4940031Y-8456779D01*
X+4855221Y-8371969D01*
X+4855221Y-8252031D01*
X+4922252Y-8185000D01*
X+4855221Y-8117969D01*
X+4855221Y-7998031D01*
X+4922252Y-7931000D01*
X+4855221Y-7863969D01*
X+4855221Y-7744031D01*
X+4922252Y-7677000D01*
X+4855221Y-7609969D01*
X+4855221Y-7490031D01*
X+4922252Y-7423000D01*
X+4855221Y-7355969D01*
X+4855221Y-7236031D01*
X+4922252Y-7169000D01*
X+4855221Y-7101969D01*
X+4855221Y-6982031D01*
X+4922252Y-6915000D01*
X+4855221Y-6847969D01*
X+4855221Y-6728031D01*
X+4922252Y-6661000D01*
X+4855221Y-6593969D01*
X+4855221Y-6474031D01*
X+4922252Y-6407000D01*
X+4855221Y-6339969D01*
X+4855221Y-6250165D01*
X+4844335Y-6239279D01*
X+4256430Y-6239279D01*
X+4180230Y-6315479D01*
X+4049770Y-6315479D01*
X+3957521Y-6223230D01*
X+3957521Y-6092770D01*
X+4049770Y-6000521D01*
X+4180230Y-6000521D01*
X+4256430Y-6076721D01*
X+4855221Y-6076721D01*
X+4855221Y-5966031D01*
X+4922252Y-5899000D01*
X+4855221Y-5831969D01*
X+4855221Y-5712031D01*
X+4922252Y-5645000D01*
X+4855221Y-5577969D01*
X+4855221Y-5458031D01*
X+4922252Y-5391000D01*
X+4855221Y-5323969D01*
X+4855221Y-5204031D01*
X+4922252Y-5137000D01*
X+4855221Y-5069969D01*
X+4855221Y-4950031D01*
X+4922252Y-4883000D01*
X+4855221Y-4815969D01*
X+4855221Y-4696031D01*
X+4918721Y-4632531D01*
X+4918721Y-3653165D01*
X+4902835Y-3637279D01*
X+4342988Y-3637279D01*
X+4396479Y-3690770D01*
X+4396479Y-3821230D01*
X+4304230Y-3913479D01*
X+4196465Y-3913479D01*
X+3840793Y-4269151D01*
X+3840793Y-4782151D01*
X+2894779Y-5728165D01*
X+2894779Y-5817969D01*
X+2827748Y-5885000D01*
X+2894779Y-5952031D01*
X+2894779Y-6071969D01*
X+2827748Y-6139000D01*
X+2894779Y-6206031D01*
X+2894779Y-6325969D01*
X+2827748Y-6393000D01*
X+2873469Y-6438721D01*
X+3084665Y-6438721D01*
X+3490465Y-6844521D01*
X+3598230Y-6844521D01*
X+3690479Y-6936770D01*
X+3690479Y-7067230D01*
X+3598230Y-7159479D01*
X+3467770Y-7159479D01*
X+3375521Y-7067230D01*
X+3375521Y-6959465D01*
X+3017335Y-6601279D01*
X+2873469Y-6601279D01*
X+2827748Y-6647000D01*
X+2894779Y-6714031D01*
X+2894779Y-6833969D01*
X+2827748Y-6901000D01*
X+2894779Y-6968031D01*
X+2894779Y-7087969D01*
X+2827748Y-7155000D01*
X+2894779Y-7222031D01*
X+2894779Y-7341969D01*
X+2827748Y-7409000D01*
X+2894779Y-7476031D01*
X+2894779Y-7595969D01*
X+2827748Y-7663000D01*
X+2894779Y-7730031D01*
X+2894779Y-7849969D01*
X+2827748Y-7917000D01*
X+2894779Y-7984031D01*
X+2894779Y-8103969D01*
X+2827748Y-8171000D01*
X+2894779Y-8238031D01*
X+2894779Y-8357969D01*
X+2809969Y-8442779D01*
X+2690031Y-8442779D01*
X+2605221Y-8357969D01*
X+2605221Y-8238031D01*
X+2672252Y-8171000D01*
X+2605221Y-8103969D01*
X+2605221Y-7984031D01*
X+2672252Y-7917000D01*
X+2605221Y-7849969D01*
X+2605221Y-7730031D01*
X+2672252Y-7663000D01*
X+2605221Y-7595969D01*
X+2605221Y-7476031D01*
X+2672252Y-7409000D01*
X+2605221Y-7341969D01*
X+2605221Y-7222031D01*
X+2672252Y-7155000D01*
X+2605221Y-7087969D01*
X+2605221Y-6968031D01*
X+2672252Y-6901000D01*
X+2605221Y-6833969D01*
X+2605221Y-6714031D01*
X+2672252Y-6647000D01*
X+2605221Y-6579969D01*
X+2605221Y-6460031D01*
X+2672252Y-6393000D01*
X+2626531Y-6347279D01*
X+2112665Y-6347279D01*
X+1860479Y-6599465D01*
X+1860479Y-6707230D01*
X+1768230Y-6799479D01*
X+1637770Y-6799479D01*
X+1545521Y-6707230D01*
X+1545521Y-6576770D01*
X+1637770Y-6484521D01*
X+1745535Y-6484521D01*
X+2045335Y-6184721D01*
X+2626531Y-6184721D01*
X+2672252Y-6139000D01*
X+2605221Y-6071969D01*
X+2605221Y-5952031D01*
X+2672252Y-5885000D01*
X+2605221Y-5817969D01*
X+2605221Y-5698031D01*
X+2672252Y-5631000D01*
X+2605221Y-5563969D01*
X+2605221Y-5444031D01*
X+2672252Y-5377000D01*
X+2605221Y-5309969D01*
X+2605221Y-5190031D01*
X+2672252Y-5123000D01*
X+2605221Y-5055969D01*
X+2605221Y-4936031D01*
X+2672252Y-4869000D01*
X+2605221Y-4801969D01*
X+2605221Y-4682031D01*
X+2690031Y-4597221D01*
X+2809969Y-4597221D01*
X+2894779Y-4682031D01*
X+2894779Y-4801969D01*
X+2827748Y-4869000D01*
X+2894779Y-4936031D01*
X+2894779Y-5055969D01*
X+2827748Y-5123000D01*
X+2894779Y-5190031D01*
X+2894779Y-5309969D01*
X+2827748Y-5377000D01*
X+2894779Y-5444031D01*
X+2894779Y-5498277D01*
X+3678235Y-4714821D01*
X+3678235Y-4201821D01*
X+4081521Y-3798535D01*
X+4081521Y-3690770D01*
X+4135012Y-3637279D01*
X+3716665Y-3637279D01*
X+3662679Y-3691265D01*
X+3662679Y-3727188D01*
X+3600188Y-3789679D01*
X+3564265Y-3789679D01*
X+3322665Y-4031279D01*
X+1769430Y-4031279D01*
X+1693230Y-4107479D01*
X+1562770Y-4107479D01*
X+1470521Y-4015230D01*
X+1470521Y-3884770D01*
X+1562770Y-3792521D01*
X+1693230Y-3792521D01*
X+1769430Y-3868721D01*
X+3255335Y-3868721D01*
X+3449321Y-3674735D01*
X+3449321Y-3638812D01*
X+3511812Y-3576321D01*
X+3547735Y-3576321D01*
X+3613777Y-3510279D01*
X+2482588Y-3510279D01*
X+2457188Y-3535679D01*
X+2368812Y-3535679D01*
X+2306321Y-3473188D01*
X+2306321Y-3384812D01*
X+2368812Y-3322321D01*
X+2457188Y-3322321D01*
X+2482588Y-3347721D01*
X+5363835Y-3347721D01*
X+5379721Y-3331835D01*
X+5379721Y+3854335D01*
X+5326535Y+3907521D01*
X+5218770Y+3907521D01*
X+5126521Y+3999770D01*
X+5126521Y+4130230D01*
X+5218770Y+4222479D01*
X+5349230Y+4222479D01*
X+5441479Y+4130230D01*
X-4613570Y-3240721D02*
X-4159335Y-3240721D01*
X-4157335Y-3242721D01*
X-4098430Y-3242721D01*
X-4022230Y-3166521D01*
X-3891770Y-3166521D01*
X-3815570Y-3242721D01*
X-3624835Y-3242721D01*
X-3585834Y-3281722D01*
X-3415430Y-3281721D01*
X-3339230Y-3205521D01*
X-3208770Y-3205521D01*
X-3116521Y-3297770D01*
X-3116521Y-3428230D01*
X-3208770Y-3520479D01*
X-3339230Y-3520479D01*
X-3415430Y-3444279D01*
X-3653166Y-3444278D01*
X-3692165Y-3405279D01*
X-3815570Y-3405279D01*
X-3891770Y-3481479D01*
X-4022230Y-3481479D01*
X-4098430Y-3405279D01*
X-4224665Y-3405279D01*
X-4226665Y-3403279D01*
X-4613570Y-3403279D01*
X-4689770Y-3479479D01*
X-4820230Y-3479479D01*
X-4912479Y-3387230D01*
X-4912479Y-3256770D01*
X-4820230Y-3164521D01*
X-4689770Y-3164521D01*
X-4613570Y-3240721D01*
X+1562770Y-4808521D02*
X+1693230Y-4808521D01*
X+1785479Y-4900770D01*
X+1785479Y-5031230D01*
X+1693230Y-5123479D01*
X+1562770Y-5123479D01*
X+1470521Y-5031230D01*
X+1470521Y-4900770D01*
X+1562770Y-4808521D01*
X+4049770Y-4984521D02*
X+4180230Y-4984521D01*
X+4272479Y-5076770D01*
X+4272479Y-5207230D01*
X+4180230Y-5299479D01*
X+4049770Y-5299479D01*
X+3957521Y-5207230D01*
X+3957521Y-5076770D01*
X+4049770Y-4984521D01*
X+1637770Y-7500521D02*
X+1768230Y-7500521D01*
X+1860479Y-7592770D01*
X+1860479Y-7723230D01*
X+1768230Y-7815479D01*
X+1637770Y-7815479D01*
X+1545521Y-7723230D01*
X+1545521Y-7592770D01*
X+1637770Y-7500521D01*
X+4900770Y-437521D02*
X+5031230Y-437521D01*
X+5123479Y-529770D01*
X+5123479Y-660230D01*
X+5031230Y-752479D01*
X+4900770Y-752479D01*
X+4808521Y-660230D01*
X+4808521Y-529770D01*
X+4900770Y-437521D01*
X-727230Y+4226479D02*
X-596770Y+4226479D01*
X-504521Y+4134230D01*
X-504521Y+4003770D01*
X-596770Y+3911521D01*
X-727230Y+3911521D01*
X-819479Y+4003770D01*
X-819479Y+4134230D01*
X-727230Y+4226479D01*
X+1073770Y-2178521D02*
X+1204230Y-2178521D01*
X+1296479Y-2270770D01*
X+1296479Y-2401230D01*
X+1204230Y-2493479D01*
X+1073770Y-2493479D01*
X+981521Y-2401230D01*
X+981521Y-2270770D01*
X+1073770Y-2178521D01*
X+1073770Y-3194521D02*
X+1204230Y-3194521D01*
X+1296479Y-3286770D01*
X+1296479Y-3417230D01*
X+1204230Y-3509479D01*
X+1073770Y-3509479D01*
X+981521Y-3417230D01*
X+981521Y-3286770D01*
X+1073770Y-3194521D01*
X+5097521Y-3821230D02*
X+5097521Y-3690770D01*
X+5189770Y-3598521D01*
X+5320230Y-3598521D01*
X+5412479Y-3690770D01*
X+5412479Y-3821230D01*
X+5320230Y-3913479D01*
X+5189770Y-3913479D01*
X+5097521Y-3821230D01*
X+303770Y+799479D02*
X+434230Y+799479D01*
X+526479Y+707230D01*
X+526479Y+576770D01*
X+434230Y+484521D01*
X+303770Y+484521D01*
X+211521Y+576770D01*
X+211521Y+707230D01*
X+303770Y+799479D01*
X+5232770Y+7509479D02*
X+5363230Y+7509479D01*
X+5455479Y+7417230D01*
X+5455479Y+7286770D01*
X+5363230Y+7194521D01*
X+5232770Y+7194521D01*
X+5140521Y+7286770D01*
X+5140521Y+7417230D01*
X+5232770Y+7509479D01*
X+3467770Y-7860521D02*
X+3598230Y-7860521D01*
X+3690479Y-7952770D01*
X+3690479Y-8083230D01*
X+3598230Y-8175479D01*
X+3467770Y-8175479D01*
X+3375521Y-8083230D01*
X+3375521Y-7952770D01*
X+3467770Y-7860521D01*
X+3107479Y-2484770D02*
X+3107479Y-2615230D01*
X+3045709Y-2677000D01*
X+3107479Y-2738770D01*
X+3107479Y-2869230D01*
X+3015230Y-2961479D01*
X+2884770Y-2961479D01*
X+2792521Y-2869230D01*
X+2792521Y-2738770D01*
X+2854291Y-2677000D01*
X+2792521Y-2615230D01*
X+2792521Y-2484770D01*
X+2884770Y-2392521D01*
X+3015230Y-2392521D01*
X+3107479Y-2484770D01*
X-2542521Y-2580770D02*
X-2542521Y-2711230D01*
X-2604291Y-2773000D01*
X-2542521Y-2834770D01*
X-2542521Y-2965230D01*
X-2634770Y-3057479D01*
X-2765230Y-3057479D01*
X-2857479Y-2965230D01*
X-2857479Y-2834770D01*
X-2795709Y-2773000D01*
X-2857479Y-2711230D01*
X-2857479Y-2580770D01*
X-2765230Y-2488521D01*
X-2634770Y-2488521D01*
X-2542521Y-2580770D01*
X-5292521Y+3669230D02*
X-5292521Y+3538770D01*
X-5354291Y+3477000D01*
X-5292521Y+3415230D01*
X-5292521Y+3284770D01*
X-5384770Y+3192521D01*
X-5515230Y+3192521D01*
X-5607479Y+3284770D01*
X-5607479Y+3415230D01*
X-5545709Y+3477000D01*
X-5607479Y+3538770D01*
X-5607479Y+3669230D01*
X-5515230Y+3761479D01*
X-5384770Y+3761479D01*
X-5292521Y+3669230D01*
X-5042521Y+7169230D02*
X-5042521Y+7038770D01*
X-5104291Y+6977000D01*
X-5042521Y+6915230D01*
X-5042521Y+6784770D01*
X-5134770Y+6692521D01*
X-5265230Y+6692521D01*
X-5357479Y+6784770D01*
X-5357479Y+6915230D01*
X-5295709Y+6977000D01*
X-5357479Y+7038770D01*
X-5357479Y+7169230D01*
X-5265230Y+7261479D01*
X-5134770Y+7261479D01*
X-5042521Y+7169230D01*
X-3105150Y+1182828D02*
X-3105150Y+1230172D01*
X-3071672Y+1263650D01*
X-3024328Y+1263650D01*
X-2990850Y+1230172D01*
X-2990850Y+1182828D01*
X-3024328Y+1149350D01*
X-3071672Y+1149350D01*
X-3105150Y+1182828D01*
X-3322321Y+1250688D02*
X-3322321Y+1162312D01*
X-3376656Y+1107978D01*
X-3371850Y+1103172D01*
X-3371850Y+1055828D01*
X-3405328Y+1022350D01*
X-3452672Y+1022350D01*
X-3486150Y+1055828D01*
X-3486150Y+1103172D01*
X-3481344Y+1107978D01*
X-3498588Y+1125221D01*
X-4565912Y+1125221D01*
X-4591312Y+1099821D01*
X-4679688Y+1099821D01*
X-4742179Y+1162312D01*
X-4742179Y+1250688D01*
X-4679688Y+1313179D01*
X-4591312Y+1313179D01*
X-4565912Y+1287779D01*
X-3498588Y+1287779D01*
X-3473188Y+1313179D01*
X-3384812Y+1313179D01*
X-3322321Y+1250688D01*
X-2660650Y+928828D02*
X-2660650Y+976172D01*
X-2627172Y+1009650D01*
X-2579828Y+1009650D01*
X-2546350Y+976172D01*
X-2546350Y+928828D01*
X-2579828Y+895350D01*
X-2627172Y+895350D01*
X-2660650Y+928828D01*
X+2468721Y+5363835D02*
X+2468721Y+5214489D01*
X+2450000Y+5195768D01*
X+2407339Y+5238429D01*
X+2326515Y+5238429D01*
X+2288094Y+5276850D01*
X+2309672Y+5276850D01*
X+2343150Y+5310328D01*
X+2343150Y+5357672D01*
X+2321101Y+5379721D01*
X+2452835Y+5379721D01*
X+2468721Y+5363835D01*
X+1339528Y+5207796D02*
X+1315721Y+5183989D01*
X+1315721Y+5178601D01*
X+1293672Y+5200650D01*
X+1246328Y+5200650D01*
X+1224279Y+5178601D01*
X+1224279Y+5224135D01*
X+1240165Y+5240021D01*
X+1371753Y+5240021D01*
X+1339528Y+5207796D01*
X+1315721Y+4097665D02*
X+1313179Y+4095123D01*
X+1313179Y+4171688D01*
X+1250688Y+4234179D01*
X+1224279Y+4234179D01*
X+1224279Y+5108399D01*
X+1246328Y+5086350D01*
X+1293672Y+5086350D01*
X+1315721Y+5108399D01*
X+1315721Y+4097665D01*
X+2668721Y+4785511D02*
X+2668721Y+4030335D01*
X+2680777Y+4018279D01*
X+2097335Y+4018279D01*
X+2009135Y+3930079D01*
X+1937291Y+3930079D01*
X+1865000Y+3857788D01*
X+1792709Y+3930079D01*
X+1683291Y+3930079D01*
X+1611000Y+3857788D01*
X+1538709Y+3930079D01*
X+1429291Y+3930079D01*
X+1414779Y+3915567D01*
X+1414779Y+3966835D01*
X+1478279Y+4030335D01*
X+1478279Y+4775953D01*
X+1492661Y+4761571D01*
X+1607339Y+4761571D01*
X+1650000Y+4804232D01*
X+1692661Y+4761571D01*
X+1807339Y+4761571D01*
X+1850000Y+4804232D01*
X+1892661Y+4761571D01*
X+2007339Y+4761571D01*
X+2050000Y+4804232D01*
X+2092661Y+4761571D01*
X+2207339Y+4761571D01*
X+2250000Y+4804232D01*
X+2292661Y+4761571D01*
X+2407339Y+4761571D01*
X+2450000Y+4804232D01*
X+2492661Y+4761571D01*
X+2607339Y+4761571D01*
X+2650000Y+4804232D01*
X+2668721Y+4785511D01*
X+2436721Y+6129665D02*
X+2420835Y+6113779D01*
X+156835Y+6113779D01*
X+45721Y+6002665D01*
X+45721Y+2760335D01*
X+156835Y+2649221D01*
X+2279912Y+2649221D01*
X+2305312Y+2623821D01*
X+2393688Y+2623821D01*
X+2456179Y+2686312D01*
X+2456179Y+2774688D01*
X+2393688Y+2837179D01*
X+2305312Y+2837179D01*
X+2279912Y+2811779D01*
X+224165Y+2811779D01*
X+208279Y+2827665D01*
X+208279Y+3219012D01*
X+284770Y+3142521D01*
X+415230Y+3142521D01*
X+507479Y+3234770D01*
X+507479Y+3365230D01*
X+445709Y+3427000D01*
X+491430Y+3472721D01*
X+511665Y+3472721D01*
X+704865Y+3665921D01*
X+744221Y+3665921D01*
X+744221Y+3168079D01*
X+589921Y+3168079D01*
X+589921Y+2903921D01*
X+791135Y+2903921D01*
X+855335Y+2839721D01*
X+1656665Y+2839721D01*
X+1720865Y+2903921D01*
X+1792709Y+2903921D01*
X+1865000Y+2976212D01*
X+1937291Y+2903921D01*
X+2046709Y+2903921D01*
X+2119000Y+2976212D01*
X+2191291Y+2903921D01*
X+2300709Y+2903921D01*
X+2373000Y+2976212D01*
X+2445291Y+2903921D01*
X+2554709Y+2903921D01*
X+2632079Y+2981291D01*
X+2632079Y+3090709D01*
X+2565567Y+3157221D01*
X+4427221Y+3157221D01*
X+4427221Y+2562079D01*
X+4319291Y+2562079D01*
X+4247000Y+2489788D01*
X+4174709Y+2562079D01*
X+4065291Y+2562079D01*
X+3993000Y+2489788D01*
X+3920709Y+2562079D01*
X+3811291Y+2562079D01*
X+3739000Y+2489788D01*
X+3666709Y+2562079D01*
X+3557291Y+2562079D01*
X+3485000Y+2489788D01*
X+3412709Y+2562079D01*
X+3303291Y+2562079D01*
X+3225921Y+2484709D01*
X+3225921Y+2375291D01*
X+3303291Y+2297921D01*
X+3412709Y+2297921D01*
X+3485000Y+2370212D01*
X+3557291Y+2297921D01*
X+3666709Y+2297921D01*
X+3739000Y+2370212D01*
X+3811291Y+2297921D01*
X+3920709Y+2297921D01*
X+3993000Y+2370212D01*
X+4065291Y+2297921D01*
X+4174709Y+2297921D01*
X+4247000Y+2370212D01*
X+4319291Y+2297921D01*
X+4427221Y+2297921D01*
X+4427221Y+1836165D01*
X+4391135Y+1800079D01*
X+4335779Y+1800079D01*
X+4335779Y+2129165D01*
X+4183665Y+2281279D01*
X+3091430Y+2281279D01*
X+3015230Y+2357479D01*
X+2884770Y+2357479D01*
X+2808570Y+2281279D01*
X+2710179Y+2281279D01*
X+2710179Y+2330188D01*
X+2647688Y+2392679D01*
X+2559312Y+2392679D01*
X+2533912Y+2367279D01*
X-689921Y+2367279D01*
X-689921Y+2530079D01*
X-954079Y+2530079D01*
X-954079Y+2462867D01*
X-1021291Y+2530079D01*
X-1130709Y+2530079D01*
X-1203000Y+2457788D01*
X-1275291Y+2530079D01*
X-1384709Y+2530079D01*
X-1457000Y+2457788D01*
X-1529291Y+2530079D01*
X-1633221Y+2530079D01*
X-1633221Y+3589665D01*
X-1744335Y+3700779D01*
X-3142433Y+3700779D01*
X-3094491Y+3748721D01*
X-233276Y+3748721D01*
X-78662Y+3903335D01*
X-78662Y+6092894D01*
X-29835Y+6141721D01*
X+2383165Y+6141721D01*
X+2436721Y+6195277D01*
X+2436721Y+6129665D01*
X-3606699Y+3359755D02*
X-3582892Y+3335948D01*
X-2625392Y+3335948D01*
X-2557779Y+3268335D01*
X-2557779Y+2530079D01*
X-2654709Y+2530079D01*
X-2712721Y+2472067D01*
X-2712721Y+3208665D01*
X-2823835Y+3319779D01*
X-3966835Y+3319779D01*
X-3982721Y+3335665D01*
X-3982721Y+3697921D01*
X-3944865Y+3697921D01*
X-3606699Y+3359755D01*
X-2654709Y+2265921D02*
X-2557779Y+2265921D01*
X-2557779Y+2252335D01*
X-2545723Y+2240279D01*
X-2696835Y+2240279D01*
X-2712721Y+2256165D01*
X-2712721Y+2323933D01*
X-2654709Y+2265921D01*
X+4173221Y+2061835D02*
X+4173221Y+1800079D01*
X+4065291Y+1800079D01*
X+3993000Y+1727788D01*
X+3920709Y+1800079D01*
X+3811291Y+1800079D01*
X+3739000Y+1727788D01*
X+3666709Y+1800079D01*
X+3557291Y+1800079D01*
X+3485000Y+1727788D01*
X+3412709Y+1800079D01*
X+3303291Y+1800079D01*
X+3225921Y+1722709D01*
X+3225921Y+1613291D01*
X+3233933Y+1605279D01*
X+526479Y+1605279D01*
X+526479Y+1723230D01*
X+434230Y+1815479D01*
X+303770Y+1815479D01*
X+211521Y+1723230D01*
X+211521Y+1630679D01*
X+146312Y+1630679D01*
X+83821Y+1568188D01*
X+83821Y+1479812D01*
X+85354Y+1478279D01*
X-864777Y+1478279D01*
X-839135Y+1503921D01*
X-767291Y+1503921D01*
X-689921Y+1581291D01*
X-689921Y+1653135D01*
X-328835Y+2014221D01*
X+184412Y+2014221D01*
X+209812Y+1988821D01*
X+298188Y+1988821D01*
X+323588Y+2014221D01*
X+732167Y+2014221D01*
X+779779Y+2061833D01*
X+779779Y+2061835D01*
X+836665Y+2118721D01*
X+2808570Y+2118721D01*
X+2854291Y+2073000D01*
X+2792521Y+2011230D01*
X+2792521Y+1880770D01*
X+2884770Y+1788521D01*
X+3015230Y+1788521D01*
X+3107479Y+1880770D01*
X+3107479Y+2011230D01*
X+3045709Y+2073000D01*
X+3091430Y+2118721D01*
X+4116335Y+2118721D01*
X+4173221Y+2061835D01*
X-2303779Y+2006835D02*
X-2303779Y+1768079D01*
X-2400709Y+1768079D01*
X-2473000Y+1695788D01*
X-2545291Y+1768079D01*
X-2654709Y+1768079D01*
X-2705509Y+1717279D01*
X-2960012Y+1717279D01*
X-2892521Y+1784770D01*
X-2892521Y+1915230D01*
X-2954291Y+1977000D01*
X-2908570Y+2022721D01*
X-2319665Y+2022721D01*
X-2303779Y+2006835D01*
X+5081000Y-2892921D02*
X+5081000Y-3025000D01*
X+586921Y-666000D02*
X+719000Y-666000D01*
X+719000Y-533921D02*
X+719000Y-666000D01*
X+719000Y-798079D02*
X+719000Y-666000D01*
X-355921Y-3150000D02*
X-488000Y-3150000D01*
X-488000Y-3282079D02*
X-488000Y-3150000D01*
X-488000Y-3017921D02*
X-488000Y-3150000D01*
X-5132079Y-634000D02*
X-5000000Y-634000D01*
X-5000000Y-501921D02*
X-5000000Y-634000D01*
X-5000000Y-766079D02*
X-5000000Y-634000D01*
X-3067921Y+3068000D02*
X-3200000Y+3068000D01*
X-3200000Y+2935921D02*
X-3200000Y+3068000D01*
X-2600000Y+2530079D02*
X-2600000Y+2398000D01*
X-2600000Y+2265921D02*
X-2600000Y+2398000D01*
X+2632079Y+3036000D02*
X+2500000Y+3036000D01*
X+2500000Y+2903921D02*
X+2500000Y+3036000D01*
X+3225921Y+2430000D02*
X+3358000Y+2430000D01*
X+3358000Y+2562079D02*
X+3358000Y+2430000D01*
X+3358000Y+2297921D02*
X+3358000Y+2430000D01*
X-2686921Y+6598000D02*
X-2819000Y+6598000D01*
X-2819000Y+6730079D02*
X-2819000Y+6598000D01*
X+2131921Y+7350000D02*
X+2264000Y+7350000D01*
X+2264000Y+7217921D02*
X+2264000Y+7350000D01*
X+2605221Y-8044000D02*
X+2750000Y-8044000D01*
X+2894779Y-8044000D02*
X+2750000Y-8044000D01*
X-3438429Y+500000D02*
X-3300000Y+500000D01*
X-3438429Y+700000D02*
X-3300000Y+700000D01*
X-3300000Y+838429D02*
X-3300000Y+700000D01*
X+1411571Y+550000D02*
X+1550000Y+550000D01*
X+1550000Y+411571D02*
X+1550000Y+550000D01*
X+1411571Y+750000D02*
X+1550000Y+750000D01*
X+1550000Y+888429D02*
X+1550000Y+750000D01*
X-3438429Y+4900000D02*
X-3300000Y+4900000D01*
X-3300000Y+4761571D02*
X-3300000Y+4900000D01*
X+1550000Y+4761571D02*
X+1550000Y+4900000D01*
X-938429Y+8150000D02*
X-800000Y+8150000D01*
X-800000Y+8011571D02*
X-800000Y+8150000D01*
X-938429Y+8350000D02*
X-800000Y+8350000D01*
X+1628000Y-4808521D02*
X+1628000Y-4966000D01*
X+1628000Y-5123479D02*
X+1628000Y-4966000D01*
X+1470521Y-4966000D02*
X+1628000Y-4966000D01*
X+1785479Y-4966000D02*
X+1628000Y-4966000D01*
X+4115000Y-4984521D02*
X+4115000Y-5142000D01*
X+4115000Y-5299479D02*
X+4115000Y-5142000D01*
X+3957521Y-5142000D02*
X+4115000Y-5142000D01*
X+4272479Y-5142000D02*
X+4115000Y-5142000D01*
X+1703000Y-7500521D02*
X+1703000Y-7658000D01*
X+1703000Y-7815479D02*
X+1703000Y-7658000D01*
X+1545521Y-7658000D02*
X+1703000Y-7658000D01*
X+1860479Y-7658000D02*
X+1703000Y-7658000D01*
X+1139000Y-3194521D02*
X+1139000Y-3352000D01*
X+1139000Y-3509479D02*
X+1139000Y-3352000D01*
X+981521Y-3352000D02*
X+1139000Y-3352000D01*
X+1296479Y-3352000D02*
X+1139000Y-3352000D01*
X+5097521Y-3756000D02*
X+5255000Y-3756000D01*
X+5412479Y-3756000D02*
X+5255000Y-3756000D01*
X+5255000Y-3913479D02*
X+5255000Y-3756000D01*
X+5255000Y-3598521D02*
X+5255000Y-3756000D01*
X+369000Y+799479D02*
X+369000Y+642000D01*
X+369000Y+484521D02*
X+369000Y+642000D01*
X+211521Y+642000D02*
X+369000Y+642000D01*
X+526479Y+642000D02*
X+369000Y+642000D01*
X+3533000Y-7860521D02*
X+3533000Y-8018000D01*
X+3533000Y-8175479D02*
X+3533000Y-8018000D01*
X+3375521Y-8018000D02*
X+3533000Y-8018000D01*
X+3690479Y-8018000D02*
X+3533000Y-8018000D01*
X+1884000Y+7261479D02*
X+1884000Y+7104000D01*
X+2041479Y+7104000D02*
X+1884000Y+7104000D01*
X+1726521Y+7104000D02*
X+1884000Y+7104000D01*
X-2892521Y+1850000D02*
X-3050000Y+1850000D01*
X+350000Y+3142521D02*
X+350000Y+3300000D01*
X+507479Y+3300000D02*
X+350000Y+3300000D01*
X+2950000Y-2392521D02*
X+2950000Y-2550000D01*
X+3107479Y-2550000D02*
X+2950000Y-2550000D01*
X+2792521Y-2550000D02*
X+2950000Y-2550000D01*
X+350000Y-738521D02*
X+350000Y-896000D01*
X+507479Y-896000D02*
X+350000Y-896000D01*
X+2950000Y+1788521D02*
X+2950000Y+1946000D01*
X+2792521Y+1946000D02*
X+2950000Y+1946000D01*
X+3107479Y+1946000D02*
X+2950000Y+1946000D01*
X-5350000Y-742521D02*
X-5350000Y-900000D01*
X-5192521Y-900000D02*
X-5350000Y-900000D01*
X-5507479Y-900000D02*
X-5350000Y-900000D01*
X-2700000Y-3057479D02*
X-2700000Y-2900000D01*
X-2857479Y-2900000D02*
X-2700000Y-2900000D01*
X-2542521Y-2900000D02*
X-2700000Y-2900000D01*
X-5450000Y+3192521D02*
X-5450000Y+3350000D01*
X-5607479Y+3350000D02*
X-5450000Y+3350000D01*
X-5292521Y+3350000D02*
X-5450000Y+3350000D01*
X-5200000Y+6692521D02*
X-5200000Y+6850000D01*
X-5357479Y+6850000D02*
X-5200000Y+6850000D01*
X-5042521Y+6850000D02*
X-5200000Y+6850000D01*
D13*
X+3303000Y-3025000D03*
D14*
X+3557000Y-3025000D03*
X+3811000Y-3025000D03*
X+4065000Y-3025000D03*
X+4319000Y-3025000D03*
X+4573000Y-3025000D03*
X+4827000Y-3025000D03*
X+5081000Y-3025000D03*
X+5081000Y-2263000D03*
X+4827000Y-2263000D03*
X+4573000Y-2263000D03*
X+4319000Y-2263000D03*
X+4065000Y-2263000D03*
X+3811000Y-2263000D03*
X+3557000Y-2263000D03*
X+3303000Y-2263000D03*
D13*
X+2497000Y-666000D03*
D14*
X+2243000Y-666000D03*
X+1989000Y-666000D03*
X+1735000Y-666000D03*
X+1481000Y-666000D03*
X+1227000Y-666000D03*
X+973000Y-666000D03*
X+719000Y-666000D03*
X+719000Y-1428000D03*
X+973000Y-1428000D03*
X+1227000Y-1428000D03*
X+1481000Y-1428000D03*
X+1735000Y-1428000D03*
X+1989000Y-1428000D03*
X+2243000Y-1428000D03*
X+2497000Y-1428000D03*
D13*
X-2266000Y-3150000D03*
D14*
X-2012000Y-3150000D03*
X-1758000Y-3150000D03*
X-1504000Y-3150000D03*
X-1250000Y-3150000D03*
X-996000Y-3150000D03*
X-742000Y-3150000D03*
X-488000Y-3150000D03*
X-488000Y-2388000D03*
X-742000Y-2388000D03*
X-996000Y-2388000D03*
X-1250000Y-2388000D03*
X-1504000Y-2388000D03*
X-1758000Y-2388000D03*
X-2012000Y-2388000D03*
X-2266000Y-2388000D03*
D13*
X-3222000Y-634000D03*
D14*
X-3476000Y-634000D03*
X-3730000Y-634000D03*
X-3984000Y-634000D03*
X-4238000Y-634000D03*
X-4492000Y-634000D03*
X-4746000Y-634000D03*
X-5000000Y-634000D03*
X-5000000Y-1396000D03*
X-4746000Y-1396000D03*
X-4492000Y-1396000D03*
X-4238000Y-1396000D03*
X-3984000Y-1396000D03*
X-3730000Y-1396000D03*
X-3476000Y-1396000D03*
X-3222000Y-1396000D03*
D13*
X-4978000Y+3068000D03*
D14*
X-4724000Y+3068000D03*
X-4470000Y+3068000D03*
X-4216000Y+3068000D03*
X-3962000Y+3068000D03*
X-3708000Y+3068000D03*
X-3454000Y+3068000D03*
X-3200000Y+3068000D03*
X-3200000Y+3830000D03*
X-3454000Y+3830000D03*
X-3708000Y+3830000D03*
X-3962000Y+3830000D03*
X-4216000Y+3830000D03*
X-4470000Y+3830000D03*
X-4724000Y+3830000D03*
X-4978000Y+3830000D03*
D13*
X-822000Y+2398000D03*
D14*
X-1076000Y+2398000D03*
X-1330000Y+2398000D03*
X-1584000Y+2398000D03*
X-1838000Y+2398000D03*
X-2092000Y+2398000D03*
X-2346000Y+2398000D03*
X-2600000Y+2398000D03*
X-2600000Y+1636000D03*
X-2346000Y+1636000D03*
X-2092000Y+1636000D03*
X-1838000Y+1636000D03*
X-1584000Y+1636000D03*
X-1330000Y+1636000D03*
X-1076000Y+1636000D03*
X-822000Y+1636000D03*
D13*
X+722000Y+3036000D03*
D14*
X+976000Y+3036000D03*
X+1230000Y+3036000D03*
X+1484000Y+3036000D03*
X+1738000Y+3036000D03*
X+1992000Y+3036000D03*
X+2246000Y+3036000D03*
X+2500000Y+3036000D03*
X+2500000Y+3798000D03*
X+2246000Y+3798000D03*
X+1992000Y+3798000D03*
X+1738000Y+3798000D03*
X+1484000Y+3798000D03*
X+1230000Y+3798000D03*
X+976000Y+3798000D03*
X+722000Y+3798000D03*
D13*
X+5136000Y+2430000D03*
D14*
X+4882000Y+2430000D03*
X+4628000Y+2430000D03*
X+4374000Y+2430000D03*
X+4120000Y+2430000D03*
X+3866000Y+2430000D03*
X+3612000Y+2430000D03*
X+3358000Y+2430000D03*
X+3358000Y+1668000D03*
X+3612000Y+1668000D03*
X+3866000Y+1668000D03*
X+4120000Y+1668000D03*
X+4374000Y+1668000D03*
X+4628000Y+1668000D03*
X+4882000Y+1668000D03*
X+5136000Y+1668000D03*
D13*
X-4597000Y+6598000D03*
D14*
X-4343000Y+6598000D03*
X-4089000Y+6598000D03*
X-3835000Y+6598000D03*
X-3581000Y+6598000D03*
X-3327000Y+6598000D03*
X-3073000Y+6598000D03*
X-2819000Y+6598000D03*
X-2819000Y+7360000D03*
X-3073000Y+7360000D03*
X-3327000Y+7360000D03*
X-3581000Y+7360000D03*
X-3835000Y+7360000D03*
X-4089000Y+7360000D03*
X-4343000Y+7360000D03*
X-4597000Y+7360000D03*
D13*
X+4042000Y+7350000D03*
D14*
X+3788000Y+7350000D03*
X+3534000Y+7350000D03*
X+3280000Y+7350000D03*
X+3026000Y+7350000D03*
X+2772000Y+7350000D03*
X+2518000Y+7350000D03*
X+2264000Y+7350000D03*
X+2264000Y+6588000D03*
X+2518000Y+6588000D03*
X+2772000Y+6588000D03*
X+3026000Y+6588000D03*
X+3280000Y+6588000D03*
X+3534000Y+6588000D03*
X+3788000Y+6588000D03*
X+4042000Y+6588000D03*
D15*
X+5000000Y-4756000D03*
X+5000000Y-5010000D03*
X+5000000Y-5264000D03*
X+5000000Y-5518000D03*
X+5000000Y-5772000D03*
X+5000000Y-6026000D03*
X+5000000Y-6280000D03*
X+5000000Y-6534000D03*
X+5000000Y-6788000D03*
X+5000000Y-7042000D03*
X+5000000Y-7296000D03*
X+5000000Y-7550000D03*
X+5000000Y-7804000D03*
X+5000000Y-8058000D03*
X+5000000Y-8312000D03*
X+2750000Y-4742000D03*
X+2750000Y-4996000D03*
X+2750000Y-5250000D03*
X+2750000Y-5504000D03*
X+2750000Y-5758000D03*
X+2750000Y-6012000D03*
X+2750000Y-6266000D03*
X+2750000Y-6520000D03*
X+2750000Y-6774000D03*
X+2750000Y-7028000D03*
X+2750000Y-7282000D03*
X+2750000Y-7536000D03*
X+2750000Y-7790000D03*
X+2750000Y-8044000D03*
X+2750000Y-8298000D03*
D16*
X-3300000Y+500000D03*
X-3300000Y+700000D03*
X-3100000Y+500000D03*
X-3100000Y+700000D03*
X-2900000Y+500000D03*
X-2900000Y+700000D03*
X-2700000Y+500000D03*
X-2700000Y+700000D03*
X-2500000Y+500000D03*
X-2500000Y+700000D03*
X-2300000Y+500000D03*
X-2300000Y+700000D03*
X-2100000Y+500000D03*
X-2100000Y+700000D03*
X-1900000Y+500000D03*
X-1900000Y+700000D03*
X-1700000Y+500000D03*
X-1700000Y+700000D03*
X-1500000Y+500000D03*
X-1500000Y+700000D03*
X+1550000Y+550000D03*
X+1550000Y+750000D03*
X+1750000Y+550000D03*
X+1750000Y+750000D03*
X+1950000Y+550000D03*
X+1950000Y+750000D03*
X+2150000Y+550000D03*
X+2150000Y+750000D03*
X+2350000Y+550000D03*
X+2350000Y+750000D03*
X+2550000Y+550000D03*
X+2550000Y+750000D03*
X+2750000Y+550000D03*
X+2750000Y+750000D03*
X+2950000Y+550000D03*
X+2950000Y+750000D03*
X+3150000Y+550000D03*
X+3150000Y+750000D03*
X+3350000Y+550000D03*
X+3350000Y+750000D03*
X-3300000Y+4900000D03*
X-3300000Y+5100000D03*
X-3100000Y+4900000D03*
X-3100000Y+5100000D03*
X-2900000Y+4900000D03*
X-2900000Y+5100000D03*
X-2700000Y+4900000D03*
X-2700000Y+5100000D03*
X-2500000Y+4900000D03*
X-2500000Y+5100000D03*
X-2300000Y+4900000D03*
X-2300000Y+5100000D03*
X-2100000Y+4900000D03*
X-2100000Y+5100000D03*
X-1900000Y+4900000D03*
X-1900000Y+5100000D03*
X-1700000Y+4900000D03*
X-1700000Y+5100000D03*
X-1500000Y+4900000D03*
X-1500000Y+5100000D03*
X+1550000Y+4900000D03*
X+1550000Y+5100000D03*
X+1750000Y+4900000D03*
X+1750000Y+5100000D03*
X+1950000Y+4900000D03*
X+1950000Y+5100000D03*
X+2150000Y+4900000D03*
X+2150000Y+5100000D03*
X+2350000Y+4900000D03*
X+2350000Y+5100000D03*
X+2550000Y+4900000D03*
X+2550000Y+5100000D03*
X+2750000Y+4900000D03*
X+2750000Y+5100000D03*
X+2950000Y+4900000D03*
X+2950000Y+5100000D03*
X+3150000Y+4900000D03*
X+3150000Y+5100000D03*
X+3350000Y+4900000D03*
X+3350000Y+5100000D03*
X-800000Y+8150000D03*
X-800000Y+8350000D03*
X-600000Y+8150000D03*
X-600000Y+8350000D03*
X-400000Y+8150000D03*
X-400000Y+8350000D03*
X-200000Y+8150000D03*
X-200000Y+8350000D03*
X+0Y+8150000D03*
X+0Y+8350000D03*
X+200000Y+8150000D03*
X+200000Y+8350000D03*
X+400000Y+8150000D03*
X+400000Y+8350000D03*
X+600000Y+8150000D03*
X+600000Y+8350000D03*
X+800000Y+8150000D03*
X+800000Y+8350000D03*
X+1000000Y+8150000D03*
X+1000000Y+8350000D03*
D17*
X-3274000Y-2347000D03*
X-3274000Y-3363000D03*
X+1628000Y-3950000D03*
X+1628000Y-4966000D03*
X+4115000Y-5142000D03*
X+4115000Y-6158000D03*
X-3957000Y-2308000D03*
X-3957000Y-3324000D03*
X-4755000Y-2306000D03*
X-4755000Y-3322000D03*
X+1703000Y-6642000D03*
X+1703000Y-7658000D03*
X-1802000Y-1085000D03*
X-786000Y-1085000D03*
X+4966000Y+421000D03*
X+4966000Y-595000D03*
X-662000Y+5085000D03*
X-662000Y+4069000D03*
X+5284000Y+5081000D03*
X+5284000Y+4065000D03*
X+1139000Y-2336000D03*
X+1139000Y-3352000D03*
X+4239000Y-3756000D03*
X+5255000Y-3756000D03*
X+369000Y+1658000D03*
X+369000Y+642000D03*
X+5298000Y+8368000D03*
X+5298000Y+7352000D03*
X+3533000Y-7002000D03*
X+3533000Y-8018000D03*
X+1884000Y+6850000D03*
X+1884000Y+7104000D03*
X-3050000Y+2104000D03*
X-3050000Y+1850000D03*
X+350000Y+3554000D03*
X+350000Y+3300000D03*
X+2950000Y-2804000D03*
X+2950000Y-2550000D03*
X+350000Y-1150000D03*
X+350000Y-896000D03*
X+2950000Y+2200000D03*
X+2950000Y+1946000D03*
X-5350000Y-1154000D03*
X-5350000Y-900000D03*
X-2700000Y-2646000D03*
X-2700000Y-2900000D03*
X-5450000Y+3604000D03*
X-5450000Y+3350000D03*
X-5200000Y+7104000D03*
X-5200000Y+6850000D03*
D18*
X+4050000Y+8600000D03*
X-4250000Y+8600000D03*
X+4050000Y-8600000D03*
X-4250000Y-8600000D03*
D19*
X-5900000Y-9000000D02*
X+5700000Y-9000000D01*
X+5700000Y+9000000D01*
X-5900000Y+9000000D01*
X-5900000Y-9000000D01*
M02*
