G04 PROTEUS GERBER X2 FILE*
%TF.GenerationSoftware,Labcenter,Proteus,8.9-SP2-Build28501*%
%TF.CreationDate,2020-06-14T21:48:05+00:00*%
%TF.FileFunction,Legend,Top*%
%TF.FilePolarity,Positive*%
%TF.Part,Single*%
%TF.SameCoordinates,{e504a607-b79b-4a28-9592-e2b99df874d4}*%
%FSLAX45Y45*%
%MOMM*%
G01*
%TA.AperFunction,NonMaterial*%
%ADD70C,0.203200*%
%TA.AperFunction,Profile*%
%ADD19C,0.203200*%
%TA.AperFunction,Material*%
%ADD71C,0.203200*%
%ADD20C,0.508000*%
%ADD21C,0.152400*%
%TA.AperFunction,NonMaterial*%
%ADD22C,0.063500*%
%TA.AperFunction,Material*%
%ADD23C,0.063500*%
%TD.AperFunction*%
D70*
X-15250000Y-12500000D02*
X+15000000Y-12500000D01*
X-15250000Y-12500000D02*
X-15123000Y-12627000D01*
X-15250000Y-12500000D02*
X-15123000Y-12373000D01*
X+15000000Y-12500000D02*
X+14873000Y-12373000D01*
X+15000000Y-12500000D02*
X+14873000Y-12627000D01*
X-93250Y-12500000D02*
X-93359Y-12497366D01*
X-94249Y-12492097D01*
X-96111Y-12486828D01*
X-99154Y-12481559D01*
X-103809Y-12476357D01*
X-109078Y-12472531D01*
X-114347Y-12470091D01*
X-119616Y-12468710D01*
X-124885Y-12468250D01*
X-125000Y-12468250D01*
X-156750Y-12500000D02*
X-156641Y-12497366D01*
X-155751Y-12492097D01*
X-153889Y-12486828D01*
X-150846Y-12481559D01*
X-146191Y-12476357D01*
X-140922Y-12472531D01*
X-135653Y-12470091D01*
X-130384Y-12468710D01*
X-125115Y-12468250D01*
X-125000Y-12468250D01*
X-156750Y-12500000D02*
X-156641Y-12502634D01*
X-155751Y-12507903D01*
X-153889Y-12513172D01*
X-150846Y-12518441D01*
X-146191Y-12523643D01*
X-140922Y-12527469D01*
X-135653Y-12529909D01*
X-130384Y-12531290D01*
X-125115Y-12531750D01*
X-125000Y-12531750D01*
X-93250Y-12500000D02*
X-93359Y-12502634D01*
X-94249Y-12507903D01*
X-96111Y-12513172D01*
X-99154Y-12518441D01*
X-103809Y-12523643D01*
X-109078Y-12527469D01*
X-114347Y-12529909D01*
X-119616Y-12531290D01*
X-124885Y-12531750D01*
X-125000Y-12531750D01*
X-553625Y-12383160D02*
X-537750Y-12367920D01*
X-490125Y-12367920D01*
X-474250Y-12383160D01*
X-474250Y-12398400D01*
X-490125Y-12413640D01*
X-474250Y-12428880D01*
X-474250Y-12444120D01*
X-490125Y-12459360D01*
X-537750Y-12459360D01*
X-553625Y-12444120D01*
X-521875Y-12413640D02*
X-490125Y-12413640D01*
X-442500Y-12444120D02*
X-442500Y-12383160D01*
X-426625Y-12367920D01*
X-363125Y-12367920D01*
X-347250Y-12383160D01*
X-347250Y-12444120D01*
X-363125Y-12459360D01*
X-426625Y-12459360D01*
X-442500Y-12444120D01*
X-442500Y-12459360D02*
X-347250Y-12367920D01*
X-299625Y-12383160D02*
X-283750Y-12367920D01*
X-236125Y-12367920D01*
X-220250Y-12383160D01*
X-220250Y-12398400D01*
X-236125Y-12413640D01*
X-283750Y-12413640D01*
X-299625Y-12428880D01*
X-299625Y-12459360D01*
X-220250Y-12459360D01*
X-140875Y-12444120D02*
X-125000Y-12444120D01*
X-125000Y-12459360D01*
X-140875Y-12459360D01*
X-140875Y-12444120D01*
X+33750Y-12367920D02*
X-45625Y-12367920D01*
X-45625Y-12398400D01*
X+17875Y-12398400D01*
X+33750Y-12413640D01*
X+33750Y-12444120D01*
X+17875Y-12459360D01*
X-29750Y-12459360D01*
X-45625Y-12444120D01*
X+65500Y-12459360D02*
X+65500Y-12398400D01*
X+65500Y-12413640D02*
X+81375Y-12398400D01*
X+113125Y-12428880D01*
X+144875Y-12398400D01*
X+160750Y-12413640D01*
X+160750Y-12459360D01*
X+192500Y-12459360D02*
X+192500Y-12398400D01*
X+192500Y-12413640D02*
X+208375Y-12398400D01*
X+240125Y-12428880D01*
X+271875Y-12398400D01*
X+287750Y-12413640D01*
X+287750Y-12459360D01*
X+15250000Y-12500000D02*
X+15250000Y+12500000D01*
X+15250000Y-12500000D02*
X+15377000Y-12373000D01*
X+15250000Y-12500000D02*
X+15123000Y-12373000D01*
X+15250000Y+12500000D02*
X+15123000Y+12373000D01*
X+15250000Y+12500000D02*
X+15377000Y+12373000D01*
X+15281750Y+0D02*
X+15281641Y+2634D01*
X+15280751Y+7903D01*
X+15278889Y+13172D01*
X+15275846Y+18441D01*
X+15271191Y+23643D01*
X+15265922Y+27469D01*
X+15260653Y+29909D01*
X+15255384Y+31290D01*
X+15250115Y+31750D01*
X+15250000Y+31750D01*
X+15218250Y+0D02*
X+15218359Y+2634D01*
X+15219249Y+7903D01*
X+15221111Y+13172D01*
X+15224154Y+18441D01*
X+15228809Y+23643D01*
X+15234078Y+27469D01*
X+15239347Y+29909D01*
X+15244616Y+31290D01*
X+15249885Y+31750D01*
X+15250000Y+31750D01*
X+15218250Y+0D02*
X+15218359Y-2634D01*
X+15219249Y-7903D01*
X+15221111Y-13172D01*
X+15224154Y-18441D01*
X+15228809Y-23643D01*
X+15234078Y-27469D01*
X+15239347Y-29909D01*
X+15244616Y-31290D01*
X+15249885Y-31750D01*
X+15250000Y-31750D01*
X+15281750Y+0D02*
X+15281641Y-2634D01*
X+15280751Y-7903D01*
X+15278889Y-13172D01*
X+15275846Y-18441D01*
X+15271191Y-23643D01*
X+15265922Y-27469D01*
X+15260653Y-29909D01*
X+15255384Y-31290D01*
X+15250115Y-31750D01*
X+15250000Y-31750D01*
X+15133160Y-301625D02*
X+15117920Y-285750D01*
X+15117920Y-238125D01*
X+15133160Y-222250D01*
X+15148400Y-222250D01*
X+15163640Y-238125D01*
X+15163640Y-285750D01*
X+15178880Y-301625D01*
X+15209360Y-301625D01*
X+15209360Y-222250D01*
X+15117920Y-95250D02*
X+15117920Y-174625D01*
X+15148400Y-174625D01*
X+15148400Y-111125D01*
X+15163640Y-95250D01*
X+15194120Y-95250D01*
X+15209360Y-111125D01*
X+15209360Y-158750D01*
X+15194120Y-174625D01*
X+15194120Y-63500D02*
X+15133160Y-63500D01*
X+15117920Y-47625D01*
X+15117920Y+15875D01*
X+15133160Y+31750D01*
X+15194120Y+31750D01*
X+15209360Y+15875D01*
X+15209360Y-47625D01*
X+15194120Y-63500D01*
X+15209360Y-63500D02*
X+15117920Y+31750D01*
X+15209360Y+63500D02*
X+15148400Y+63500D01*
X+15163640Y+63500D02*
X+15148400Y+79375D01*
X+15178880Y+111125D01*
X+15148400Y+142875D01*
X+15163640Y+158750D01*
X+15209360Y+158750D01*
X+15209360Y+190500D02*
X+15148400Y+190500D01*
X+15163640Y+190500D02*
X+15148400Y+206375D01*
X+15178880Y+238125D01*
X+15148400Y+269875D01*
X+15163640Y+285750D01*
X+15209360Y+285750D01*
D19*
X-5900000Y-9000000D02*
X+5700000Y-9000000D01*
X+5700000Y+9000000D01*
X-5900000Y+9000000D01*
X-5900000Y-9000000D01*
D71*
X+3176000Y-2898000D02*
X+3176000Y-2771000D01*
X+3303000Y-2644000D02*
X+3300564Y-2618124D01*
X+3293515Y-2594152D01*
X+3282238Y-2572562D01*
X+3267122Y-2553830D01*
X+3248554Y-2538431D01*
X+3226919Y-2526842D01*
X+3202606Y-2519540D01*
X+3176000Y-2517000D01*
X+3303000Y-2644000D02*
X+3300564Y-2670606D01*
X+3293515Y-2694919D01*
X+3282238Y-2716554D01*
X+3267122Y-2735122D01*
X+3248554Y-2750238D01*
X+3226919Y-2761515D01*
X+3202606Y-2768564D01*
X+3176000Y-2771000D01*
X+3176000Y-2517000D02*
X+3176000Y-2390000D01*
X+5208000Y-2898000D02*
X+5208000Y-2390000D01*
X+3176000Y-2898000D02*
X+5208000Y-2898000D01*
X+5208000Y-2390000D02*
X+3176000Y-2390000D01*
X+3043920Y-2771000D02*
X+3120120Y-2771000D01*
X+3135360Y-2755125D01*
X+3135360Y-2691625D01*
X+3120120Y-2675750D01*
X+3043920Y-2675750D01*
X+3074400Y-2612250D02*
X+3043920Y-2580500D01*
X+3135360Y-2580500D01*
X+2624000Y-793000D02*
X+2624000Y-920000D01*
X+2497000Y-1047000D02*
X+2499436Y-1072876D01*
X+2506485Y-1096848D01*
X+2517762Y-1118438D01*
X+2532878Y-1137170D01*
X+2551446Y-1152569D01*
X+2573081Y-1164158D01*
X+2597394Y-1171460D01*
X+2624000Y-1174000D01*
X+2497000Y-1047000D02*
X+2499436Y-1020394D01*
X+2506485Y-996081D01*
X+2517762Y-974446D01*
X+2532878Y-955878D01*
X+2551446Y-940762D01*
X+2573081Y-929485D01*
X+2597394Y-922436D01*
X+2624000Y-920000D01*
X+2624000Y-1174000D02*
X+2624000Y-1301000D01*
X+592000Y-793000D02*
X+592000Y-1301000D01*
X+2624000Y-793000D02*
X+592000Y-793000D01*
X+592000Y-1301000D02*
X+2624000Y-1301000D01*
X+2664640Y-1174000D02*
X+2740840Y-1174000D01*
X+2756080Y-1158125D01*
X+2756080Y-1094625D01*
X+2740840Y-1078750D01*
X+2664640Y-1078750D01*
X+2679880Y-1031125D02*
X+2664640Y-1015250D01*
X+2664640Y-967625D01*
X+2679880Y-951750D01*
X+2695120Y-951750D01*
X+2710360Y-967625D01*
X+2710360Y-1015250D01*
X+2725600Y-1031125D01*
X+2756080Y-1031125D01*
X+2756080Y-951750D01*
X-2393000Y-3023000D02*
X-2393000Y-2896000D01*
X-2266000Y-2769000D02*
X-2268436Y-2743124D01*
X-2275485Y-2719152D01*
X-2286762Y-2697562D01*
X-2301878Y-2678830D01*
X-2320446Y-2663431D01*
X-2342081Y-2651842D01*
X-2366394Y-2644540D01*
X-2393000Y-2642000D01*
X-2266000Y-2769000D02*
X-2268436Y-2795606D01*
X-2275485Y-2819919D01*
X-2286762Y-2841554D01*
X-2301878Y-2860122D01*
X-2320446Y-2875238D01*
X-2342081Y-2886515D01*
X-2366394Y-2893564D01*
X-2393000Y-2896000D01*
X-2393000Y-2642000D02*
X-2393000Y-2515000D01*
X-361000Y-3023000D02*
X-361000Y-2515000D01*
X-2393000Y-3023000D02*
X-361000Y-3023000D01*
X-361000Y-2515000D02*
X-2393000Y-2515000D01*
X-2525080Y-2896000D02*
X-2448880Y-2896000D01*
X-2433640Y-2880125D01*
X-2433640Y-2816625D01*
X-2448880Y-2800750D01*
X-2525080Y-2800750D01*
X-2509840Y-2753125D02*
X-2525080Y-2737250D01*
X-2525080Y-2689625D01*
X-2509840Y-2673750D01*
X-2494600Y-2673750D01*
X-2479360Y-2689625D01*
X-2464120Y-2673750D01*
X-2448880Y-2673750D01*
X-2433640Y-2689625D01*
X-2433640Y-2737250D01*
X-2448880Y-2753125D01*
X-2479360Y-2721375D02*
X-2479360Y-2689625D01*
X-3095000Y-761000D02*
X-3095000Y-888000D01*
X-3222000Y-1015000D02*
X-3219564Y-1040876D01*
X-3212515Y-1064848D01*
X-3201238Y-1086438D01*
X-3186122Y-1105170D01*
X-3167554Y-1120569D01*
X-3145919Y-1132158D01*
X-3121606Y-1139460D01*
X-3095000Y-1142000D01*
X-3222000Y-1015000D02*
X-3219564Y-988394D01*
X-3212515Y-964081D01*
X-3201238Y-942446D01*
X-3186122Y-923878D01*
X-3167554Y-908762D01*
X-3145919Y-897485D01*
X-3121606Y-890436D01*
X-3095000Y-888000D01*
X-3095000Y-1142000D02*
X-3095000Y-1269000D01*
X-5127000Y-761000D02*
X-5127000Y-1269000D01*
X-3095000Y-761000D02*
X-5127000Y-761000D01*
X-5127000Y-1269000D02*
X-3095000Y-1269000D01*
X-3054360Y-1142000D02*
X-2978160Y-1142000D01*
X-2962920Y-1126125D01*
X-2962920Y-1062625D01*
X-2978160Y-1046750D01*
X-3054360Y-1046750D01*
X-2993400Y-919750D02*
X-2993400Y-1015000D01*
X-3054360Y-951500D01*
X-2962920Y-951500D01*
X-5105000Y+3195000D02*
X-5105000Y+3322000D01*
X-4978000Y+3449000D02*
X-4980436Y+3474876D01*
X-4987485Y+3498848D01*
X-4998762Y+3520438D01*
X-5013878Y+3539170D01*
X-5032446Y+3554569D01*
X-5054081Y+3566158D01*
X-5078394Y+3573460D01*
X-5105000Y+3576000D01*
X-4978000Y+3449000D02*
X-4980436Y+3422394D01*
X-4987485Y+3398081D01*
X-4998762Y+3376446D01*
X-5013878Y+3357878D01*
X-5032446Y+3342762D01*
X-5054081Y+3331485D01*
X-5078394Y+3324436D01*
X-5105000Y+3322000D01*
X-5105000Y+3576000D02*
X-5105000Y+3703000D01*
X-3073000Y+3195000D02*
X-3073000Y+3703000D01*
X-5105000Y+3195000D02*
X-3073000Y+3195000D01*
X-3073000Y+3703000D02*
X-5105000Y+3703000D01*
X-5237080Y+3322000D02*
X-5160880Y+3322000D01*
X-5145640Y+3337875D01*
X-5145640Y+3401375D01*
X-5160880Y+3417250D01*
X-5237080Y+3417250D01*
X-5237080Y+3544250D02*
X-5237080Y+3464875D01*
X-5206600Y+3464875D01*
X-5206600Y+3528375D01*
X-5191360Y+3544250D01*
X-5160880Y+3544250D01*
X-5145640Y+3528375D01*
X-5145640Y+3480750D01*
X-5160880Y+3464875D01*
X-695000Y+2271000D02*
X-695000Y+2144000D01*
X-822000Y+2017000D02*
X-819564Y+1991124D01*
X-812515Y+1967152D01*
X-801238Y+1945562D01*
X-786122Y+1926830D01*
X-767554Y+1911431D01*
X-745919Y+1899842D01*
X-721606Y+1892540D01*
X-695000Y+1890000D01*
X-822000Y+2017000D02*
X-819564Y+2043606D01*
X-812515Y+2067919D01*
X-801238Y+2089554D01*
X-786122Y+2108122D01*
X-767554Y+2123238D01*
X-745919Y+2134515D01*
X-721606Y+2141564D01*
X-695000Y+2144000D01*
X-695000Y+1890000D02*
X-695000Y+1763000D01*
X-2727000Y+2271000D02*
X-2727000Y+1763000D01*
X-695000Y+2271000D02*
X-2727000Y+2271000D01*
X-2727000Y+1763000D02*
X-695000Y+1763000D01*
X-654360Y+1890000D02*
X-578160Y+1890000D01*
X-562920Y+1905875D01*
X-562920Y+1969375D01*
X-578160Y+1985250D01*
X-654360Y+1985250D01*
X-639120Y+2112250D02*
X-654360Y+2096375D01*
X-654360Y+2048750D01*
X-639120Y+2032875D01*
X-578160Y+2032875D01*
X-562920Y+2048750D01*
X-562920Y+2096375D01*
X-578160Y+2112250D01*
X-593400Y+2112250D01*
X-608640Y+2096375D01*
X-608640Y+2032875D01*
X+595000Y+3163000D02*
X+595000Y+3290000D01*
X+722000Y+3417000D02*
X+719564Y+3442876D01*
X+712515Y+3466848D01*
X+701238Y+3488438D01*
X+686122Y+3507170D01*
X+667554Y+3522569D01*
X+645919Y+3534158D01*
X+621606Y+3541460D01*
X+595000Y+3544000D01*
X+722000Y+3417000D02*
X+719564Y+3390394D01*
X+712515Y+3366081D01*
X+701238Y+3344446D01*
X+686122Y+3325878D01*
X+667554Y+3310762D01*
X+645919Y+3299485D01*
X+621606Y+3292436D01*
X+595000Y+3290000D01*
X+595000Y+3544000D02*
X+595000Y+3671000D01*
X+2627000Y+3163000D02*
X+2627000Y+3671000D01*
X+595000Y+3163000D02*
X+2627000Y+3163000D01*
X+2627000Y+3671000D02*
X+595000Y+3671000D01*
X+462920Y+3290000D02*
X+539120Y+3290000D01*
X+554360Y+3305875D01*
X+554360Y+3369375D01*
X+539120Y+3385250D01*
X+462920Y+3385250D01*
X+462920Y+3432875D02*
X+462920Y+3512250D01*
X+478160Y+3512250D01*
X+554360Y+3432875D01*
X+5263000Y+2303000D02*
X+5263000Y+2176000D01*
X+5136000Y+2049000D02*
X+5138436Y+2023124D01*
X+5145485Y+1999152D01*
X+5156762Y+1977562D01*
X+5171878Y+1958830D01*
X+5190446Y+1943431D01*
X+5212081Y+1931842D01*
X+5236394Y+1924540D01*
X+5263000Y+1922000D01*
X+5136000Y+2049000D02*
X+5138436Y+2075606D01*
X+5145485Y+2099919D01*
X+5156762Y+2121554D01*
X+5171878Y+2140122D01*
X+5190446Y+2155238D01*
X+5212081Y+2166515D01*
X+5236394Y+2173564D01*
X+5263000Y+2176000D01*
X+5263000Y+1922000D02*
X+5263000Y+1795000D01*
X+3231000Y+2303000D02*
X+3231000Y+1795000D01*
X+5263000Y+2303000D02*
X+3231000Y+2303000D01*
X+3231000Y+1795000D02*
X+5263000Y+1795000D01*
X+5303640Y+1922000D02*
X+5379840Y+1922000D01*
X+5395080Y+1937875D01*
X+5395080Y+2001375D01*
X+5379840Y+2017250D01*
X+5303640Y+2017250D01*
X+5349360Y+2080750D02*
X+5334120Y+2064875D01*
X+5318880Y+2064875D01*
X+5303640Y+2080750D01*
X+5303640Y+2128375D01*
X+5318880Y+2144250D01*
X+5334120Y+2144250D01*
X+5349360Y+2128375D01*
X+5349360Y+2080750D01*
X+5364600Y+2064875D01*
X+5379840Y+2064875D01*
X+5395080Y+2080750D01*
X+5395080Y+2128375D01*
X+5379840Y+2144250D01*
X+5364600Y+2144250D01*
X+5349360Y+2128375D01*
X-4724000Y+6725000D02*
X-4724000Y+6852000D01*
X-4597000Y+6979000D02*
X-4599436Y+7004876D01*
X-4606485Y+7028848D01*
X-4617762Y+7050438D01*
X-4632878Y+7069170D01*
X-4651446Y+7084569D01*
X-4673081Y+7096158D01*
X-4697394Y+7103460D01*
X-4724000Y+7106000D01*
X-4597000Y+6979000D02*
X-4599436Y+6952394D01*
X-4606485Y+6928081D01*
X-4617762Y+6906446D01*
X-4632878Y+6887878D01*
X-4651446Y+6872762D01*
X-4673081Y+6861485D01*
X-4697394Y+6854436D01*
X-4724000Y+6852000D01*
X-4724000Y+7106000D02*
X-4724000Y+7233000D01*
X-2692000Y+6725000D02*
X-2692000Y+7233000D01*
X-4724000Y+6725000D02*
X-2692000Y+6725000D01*
X-2692000Y+7233000D02*
X-4724000Y+7233000D01*
X-4856080Y+6852000D02*
X-4779880Y+6852000D01*
X-4764640Y+6867875D01*
X-4764640Y+6931375D01*
X-4779880Y+6947250D01*
X-4856080Y+6947250D01*
X-4825600Y+7074250D02*
X-4810360Y+7058375D01*
X-4810360Y+7010750D01*
X-4825600Y+6994875D01*
X-4840840Y+6994875D01*
X-4856080Y+7010750D01*
X-4856080Y+7058375D01*
X-4840840Y+7074250D01*
X-4779880Y+7074250D01*
X-4764640Y+7058375D01*
X-4764640Y+7010750D01*
X+4169000Y+7223000D02*
X+4169000Y+7096000D01*
X+4042000Y+6969000D02*
X+4044436Y+6943124D01*
X+4051485Y+6919152D01*
X+4062762Y+6897562D01*
X+4077878Y+6878830D01*
X+4096446Y+6863431D01*
X+4118081Y+6851842D01*
X+4142394Y+6844540D01*
X+4169000Y+6842000D01*
X+4042000Y+6969000D02*
X+4044436Y+6995606D01*
X+4051485Y+7019919D01*
X+4062762Y+7041554D01*
X+4077878Y+7060122D01*
X+4096446Y+7075238D01*
X+4118081Y+7086515D01*
X+4142394Y+7093564D01*
X+4169000Y+7096000D01*
X+4169000Y+6842000D02*
X+4169000Y+6715000D01*
X+2137000Y+7223000D02*
X+2137000Y+6715000D01*
X+4169000Y+7223000D02*
X+2137000Y+7223000D01*
X+2137000Y+6715000D02*
X+4169000Y+6715000D01*
X+4209640Y+6778500D02*
X+4285840Y+6778500D01*
X+4301080Y+6794375D01*
X+4301080Y+6857875D01*
X+4285840Y+6873750D01*
X+4209640Y+6873750D01*
X+4240120Y+6937250D02*
X+4209640Y+6969000D01*
X+4301080Y+6969000D01*
X+4285840Y+7032500D02*
X+4224880Y+7032500D01*
X+4209640Y+7048375D01*
X+4209640Y+7111875D01*
X+4224880Y+7127750D01*
X+4285840Y+7127750D01*
X+4301080Y+7111875D01*
X+4301080Y+7048375D01*
X+4285840Y+7032500D01*
X+4301080Y+7032500D02*
X+4209640Y+7127750D01*
D20*
X+5228600Y-4756000D02*
X+5228469Y-4752842D01*
X+5227403Y-4746524D01*
X+5225172Y-4740206D01*
X+5221527Y-4733888D01*
X+5215952Y-4727649D01*
X+5209634Y-4723053D01*
X+5203316Y-4720120D01*
X+5196998Y-4718458D01*
X+5190680Y-4717900D01*
X+5190500Y-4717900D01*
X+5152400Y-4756000D02*
X+5152531Y-4752842D01*
X+5153597Y-4746524D01*
X+5155828Y-4740206D01*
X+5159473Y-4733888D01*
X+5165048Y-4727649D01*
X+5171366Y-4723053D01*
X+5177684Y-4720120D01*
X+5184002Y-4718458D01*
X+5190320Y-4717900D01*
X+5190500Y-4717900D01*
X+5152400Y-4756000D02*
X+5152531Y-4759158D01*
X+5153597Y-4765476D01*
X+5155828Y-4771794D01*
X+5159473Y-4778112D01*
X+5165048Y-4784351D01*
X+5171366Y-4788947D01*
X+5177684Y-4791880D01*
X+5184002Y-4793542D01*
X+5190320Y-4794100D01*
X+5190500Y-4794100D01*
X+5228600Y-4756000D02*
X+5228469Y-4759158D01*
X+5227403Y-4765476D01*
X+5225172Y-4771794D01*
X+5221527Y-4778112D01*
X+5215952Y-4784351D01*
X+5209634Y-4788947D01*
X+5203316Y-4791880D01*
X+5196998Y-4793542D01*
X+5190680Y-4794100D01*
X+5190500Y-4794100D01*
D21*
X+4873000Y-4387700D02*
X+4873000Y-8680300D01*
X+5127000Y-8680300D01*
X+5127000Y-4387700D01*
X+4873000Y-4387700D01*
D71*
X+5345440Y-6661000D02*
X+5360680Y-6661000D01*
X+5375920Y-6645125D01*
X+5375920Y-6581625D01*
X+5360680Y-6565750D01*
X+5284480Y-6565750D01*
X+5284480Y-6438750D02*
X+5284480Y-6518125D01*
X+5314960Y-6518125D01*
X+5314960Y-6454625D01*
X+5330200Y-6438750D01*
X+5360680Y-6438750D01*
X+5375920Y-6454625D01*
X+5375920Y-6502250D01*
X+5360680Y-6518125D01*
D20*
X+2978600Y-4742000D02*
X+2978469Y-4738842D01*
X+2977403Y-4732524D01*
X+2975172Y-4726206D01*
X+2971527Y-4719888D01*
X+2965952Y-4713649D01*
X+2959634Y-4709053D01*
X+2953316Y-4706120D01*
X+2946998Y-4704458D01*
X+2940680Y-4703900D01*
X+2940500Y-4703900D01*
X+2902400Y-4742000D02*
X+2902531Y-4738842D01*
X+2903597Y-4732524D01*
X+2905828Y-4726206D01*
X+2909473Y-4719888D01*
X+2915048Y-4713649D01*
X+2921366Y-4709053D01*
X+2927684Y-4706120D01*
X+2934002Y-4704458D01*
X+2940320Y-4703900D01*
X+2940500Y-4703900D01*
X+2902400Y-4742000D02*
X+2902531Y-4745158D01*
X+2903597Y-4751476D01*
X+2905828Y-4757794D01*
X+2909473Y-4764112D01*
X+2915048Y-4770351D01*
X+2921366Y-4774947D01*
X+2927684Y-4777880D01*
X+2934002Y-4779542D01*
X+2940320Y-4780100D01*
X+2940500Y-4780100D01*
X+2978600Y-4742000D02*
X+2978469Y-4745158D01*
X+2977403Y-4751476D01*
X+2975172Y-4757794D01*
X+2971527Y-4764112D01*
X+2965952Y-4770351D01*
X+2959634Y-4774947D01*
X+2953316Y-4777880D01*
X+2946998Y-4779542D01*
X+2940680Y-4780100D01*
X+2940500Y-4780100D01*
D21*
X+2623000Y-4373700D02*
X+2623000Y-8666300D01*
X+2877000Y-8666300D01*
X+2877000Y-4373700D01*
X+2623000Y-4373700D01*
D71*
X+3095440Y-6647000D02*
X+3110680Y-6647000D01*
X+3125920Y-6631125D01*
X+3125920Y-6567625D01*
X+3110680Y-6551750D01*
X+3034480Y-6551750D01*
X+3049720Y-6424750D02*
X+3034480Y-6440625D01*
X+3034480Y-6488250D01*
X+3049720Y-6504125D01*
X+3110680Y-6504125D01*
X+3125920Y-6488250D01*
X+3125920Y-6440625D01*
X+3110680Y-6424750D01*
X+3095440Y-6424750D01*
X+3080200Y-6440625D01*
X+3080200Y-6504125D01*
D20*
X-3261900Y+309500D02*
X-3262031Y+312658D01*
X-3263097Y+318976D01*
X-3265328Y+325294D01*
X-3268973Y+331612D01*
X-3274548Y+337851D01*
X-3280866Y+342447D01*
X-3287184Y+345380D01*
X-3293502Y+347042D01*
X-3299820Y+347600D01*
X-3300000Y+347600D01*
X-3338100Y+309500D02*
X-3337969Y+312658D01*
X-3336903Y+318976D01*
X-3334672Y+325294D01*
X-3331027Y+331612D01*
X-3325452Y+337851D01*
X-3319134Y+342447D01*
X-3312816Y+345380D01*
X-3306498Y+347042D01*
X-3300180Y+347600D01*
X-3300000Y+347600D01*
X-3338100Y+309500D02*
X-3337969Y+306342D01*
X-3336903Y+300024D01*
X-3334672Y+293706D01*
X-3331027Y+287388D01*
X-3325452Y+281149D01*
X-3319134Y+276553D01*
X-3312816Y+273620D01*
X-3306498Y+271958D01*
X-3300180Y+271400D01*
X-3300000Y+271400D01*
X-3261900Y+309500D02*
X-3262031Y+306342D01*
X-3263097Y+300024D01*
X-3265328Y+293706D01*
X-3268973Y+287388D01*
X-3274548Y+281149D01*
X-3280866Y+276553D01*
X-3287184Y+273620D01*
X-3293502Y+271958D01*
X-3299820Y+271400D01*
X-3300000Y+271400D01*
D21*
X-3449020Y+399340D02*
X-3322408Y+399340D01*
X-1350980Y+399340D02*
X-1350980Y+798120D01*
X-1468266Y+798120D01*
X-3449020Y+798120D02*
X-3449020Y+399340D01*
X-1531734Y+798120D02*
X-1668266Y+798120D01*
X-1477592Y+399340D02*
X-1350980Y+399340D01*
X-1731734Y+798120D02*
X-1868266Y+798120D01*
X-1677592Y+399340D02*
X-1522408Y+399340D01*
X-1931734Y+798120D02*
X-2068266Y+798120D01*
X-1877592Y+399340D02*
X-1722409Y+399340D01*
X-2131734Y+798120D02*
X-2268266Y+798120D01*
X-2077592Y+399340D02*
X-1922408Y+399340D01*
X-2331734Y+798120D02*
X-2468266Y+798120D01*
X-2277592Y+399340D02*
X-2122408Y+399340D01*
X-2531734Y+798120D02*
X-2668266Y+798120D01*
X-2477592Y+399340D02*
X-2322408Y+399340D01*
X-2731734Y+798120D02*
X-2868266Y+798120D01*
X-2677592Y+399340D02*
X-2522408Y+399340D01*
X-2931734Y+798120D02*
X-3068266Y+798120D01*
X-2877592Y+399340D02*
X-2722408Y+399340D01*
X-3131734Y+798120D02*
X-3268266Y+798120D01*
X-3077592Y+399340D02*
X-2922408Y+399340D01*
X-3331734Y+798120D02*
X-3449020Y+798120D01*
X-3277592Y+399340D02*
X-3122409Y+399340D01*
D71*
X-2527000Y+866700D02*
X-2527000Y+851460D01*
X-2511125Y+836220D01*
X-2447625Y+836220D01*
X-2431750Y+851460D01*
X-2431750Y+927660D01*
X-2368250Y+897180D02*
X-2336500Y+927660D01*
X-2336500Y+836220D01*
D20*
X+1588100Y+359500D02*
X+1587969Y+362658D01*
X+1586903Y+368976D01*
X+1584672Y+375294D01*
X+1581027Y+381612D01*
X+1575452Y+387851D01*
X+1569134Y+392447D01*
X+1562816Y+395380D01*
X+1556498Y+397042D01*
X+1550180Y+397600D01*
X+1550000Y+397600D01*
X+1511900Y+359500D02*
X+1512031Y+362658D01*
X+1513097Y+368976D01*
X+1515328Y+375294D01*
X+1518973Y+381612D01*
X+1524548Y+387851D01*
X+1530866Y+392447D01*
X+1537184Y+395380D01*
X+1543502Y+397042D01*
X+1549820Y+397600D01*
X+1550000Y+397600D01*
X+1511900Y+359500D02*
X+1512031Y+356342D01*
X+1513097Y+350024D01*
X+1515328Y+343706D01*
X+1518973Y+337388D01*
X+1524548Y+331149D01*
X+1530866Y+326553D01*
X+1537184Y+323620D01*
X+1543502Y+321958D01*
X+1549820Y+321400D01*
X+1550000Y+321400D01*
X+1588100Y+359500D02*
X+1587969Y+356342D01*
X+1586903Y+350024D01*
X+1584672Y+343706D01*
X+1581027Y+337388D01*
X+1575452Y+331149D01*
X+1569134Y+326553D01*
X+1562816Y+323620D01*
X+1556498Y+321958D01*
X+1550180Y+321400D01*
X+1550000Y+321400D01*
D21*
X+1400980Y+449340D02*
X+1527592Y+449340D01*
X+3499020Y+449340D02*
X+3499020Y+848120D01*
X+3381734Y+848120D01*
X+1400980Y+848120D02*
X+1400980Y+449340D01*
X+3318266Y+848120D02*
X+3181734Y+848120D01*
X+3372408Y+449340D02*
X+3499020Y+449340D01*
X+3118266Y+848120D02*
X+2981734Y+848120D01*
X+3172408Y+449340D02*
X+3327592Y+449340D01*
X+2918266Y+848120D02*
X+2781734Y+848120D01*
X+2972408Y+449340D02*
X+3127591Y+449340D01*
X+2718266Y+848120D02*
X+2581734Y+848120D01*
X+2772408Y+449340D02*
X+2927592Y+449340D01*
X+2518266Y+848120D02*
X+2381734Y+848120D01*
X+2572408Y+449340D02*
X+2727592Y+449340D01*
X+2318266Y+848120D02*
X+2181734Y+848120D01*
X+2372408Y+449340D02*
X+2527592Y+449340D01*
X+2118266Y+848120D02*
X+1981734Y+848120D01*
X+2172408Y+449340D02*
X+2327592Y+449340D01*
X+1918266Y+848120D02*
X+1781734Y+848120D01*
X+1972408Y+449340D02*
X+2127592Y+449340D01*
X+1718266Y+848120D02*
X+1581734Y+848120D01*
X+1772408Y+449340D02*
X+1927592Y+449340D01*
X+1518266Y+848120D02*
X+1400980Y+848120D01*
X+1572408Y+449340D02*
X+1727591Y+449340D01*
D71*
X+2323000Y+916700D02*
X+2323000Y+901460D01*
X+2338875Y+886220D01*
X+2402375Y+886220D01*
X+2418250Y+901460D01*
X+2418250Y+977660D01*
X+2465875Y+962420D02*
X+2481750Y+977660D01*
X+2529375Y+977660D01*
X+2545250Y+962420D01*
X+2545250Y+947180D01*
X+2529375Y+931940D01*
X+2481750Y+931940D01*
X+2465875Y+916700D01*
X+2465875Y+886220D01*
X+2545250Y+886220D01*
D20*
X-3261900Y+4709500D02*
X-3262031Y+4712658D01*
X-3263097Y+4718976D01*
X-3265328Y+4725294D01*
X-3268973Y+4731612D01*
X-3274548Y+4737851D01*
X-3280866Y+4742447D01*
X-3287184Y+4745380D01*
X-3293502Y+4747042D01*
X-3299820Y+4747600D01*
X-3300000Y+4747600D01*
X-3338100Y+4709500D02*
X-3337969Y+4712658D01*
X-3336903Y+4718976D01*
X-3334672Y+4725294D01*
X-3331027Y+4731612D01*
X-3325452Y+4737851D01*
X-3319134Y+4742447D01*
X-3312816Y+4745380D01*
X-3306498Y+4747042D01*
X-3300180Y+4747600D01*
X-3300000Y+4747600D01*
X-3338100Y+4709500D02*
X-3337969Y+4706342D01*
X-3336903Y+4700024D01*
X-3334672Y+4693706D01*
X-3331027Y+4687388D01*
X-3325452Y+4681149D01*
X-3319134Y+4676553D01*
X-3312816Y+4673620D01*
X-3306498Y+4671958D01*
X-3300180Y+4671400D01*
X-3300000Y+4671400D01*
X-3261900Y+4709500D02*
X-3262031Y+4706342D01*
X-3263097Y+4700024D01*
X-3265328Y+4693706D01*
X-3268973Y+4687388D01*
X-3274548Y+4681149D01*
X-3280866Y+4676553D01*
X-3287184Y+4673620D01*
X-3293502Y+4671958D01*
X-3299820Y+4671400D01*
X-3300000Y+4671400D01*
D21*
X-3449020Y+4799340D02*
X-3322408Y+4799340D01*
X-1350980Y+4799340D02*
X-1350980Y+5198120D01*
X-1468266Y+5198120D01*
X-3449020Y+5198120D02*
X-3449020Y+4799340D01*
X-1531734Y+5198120D02*
X-1668266Y+5198120D01*
X-1477592Y+4799340D02*
X-1350980Y+4799340D01*
X-1731734Y+5198120D02*
X-1868266Y+5198120D01*
X-1677592Y+4799340D02*
X-1522408Y+4799340D01*
X-1931734Y+5198120D02*
X-2068266Y+5198120D01*
X-1877592Y+4799340D02*
X-1722409Y+4799340D01*
X-2131734Y+5198120D02*
X-2268266Y+5198120D01*
X-2077592Y+4799340D02*
X-1922408Y+4799340D01*
X-2331734Y+5198120D02*
X-2468266Y+5198120D01*
X-2277592Y+4799340D02*
X-2122408Y+4799340D01*
X-2531734Y+5198120D02*
X-2668266Y+5198120D01*
X-2477592Y+4799340D02*
X-2322408Y+4799340D01*
X-2731734Y+5198120D02*
X-2868266Y+5198120D01*
X-2677592Y+4799340D02*
X-2522408Y+4799340D01*
X-2931734Y+5198120D02*
X-3068266Y+5198120D01*
X-2877592Y+4799340D02*
X-2722408Y+4799340D01*
X-3131734Y+5198120D02*
X-3268266Y+5198120D01*
X-3077592Y+4799340D02*
X-2922408Y+4799340D01*
X-3331734Y+5198120D02*
X-3449020Y+5198120D01*
X-3277592Y+4799340D02*
X-3122409Y+4799340D01*
D71*
X-2527000Y+5266700D02*
X-2527000Y+5251460D01*
X-2511125Y+5236220D01*
X-2447625Y+5236220D01*
X-2431750Y+5251460D01*
X-2431750Y+5327660D01*
X-2384125Y+5312420D02*
X-2368250Y+5327660D01*
X-2320625Y+5327660D01*
X-2304750Y+5312420D01*
X-2304750Y+5297180D01*
X-2320625Y+5281940D01*
X-2304750Y+5266700D01*
X-2304750Y+5251460D01*
X-2320625Y+5236220D01*
X-2368250Y+5236220D01*
X-2384125Y+5251460D01*
X-2352375Y+5281940D02*
X-2320625Y+5281940D01*
D20*
X+1588100Y+4709500D02*
X+1587969Y+4712658D01*
X+1586903Y+4718976D01*
X+1584672Y+4725294D01*
X+1581027Y+4731612D01*
X+1575452Y+4737851D01*
X+1569134Y+4742447D01*
X+1562816Y+4745380D01*
X+1556498Y+4747042D01*
X+1550180Y+4747600D01*
X+1550000Y+4747600D01*
X+1511900Y+4709500D02*
X+1512031Y+4712658D01*
X+1513097Y+4718976D01*
X+1515328Y+4725294D01*
X+1518973Y+4731612D01*
X+1524548Y+4737851D01*
X+1530866Y+4742447D01*
X+1537184Y+4745380D01*
X+1543502Y+4747042D01*
X+1549820Y+4747600D01*
X+1550000Y+4747600D01*
X+1511900Y+4709500D02*
X+1512031Y+4706342D01*
X+1513097Y+4700024D01*
X+1515328Y+4693706D01*
X+1518973Y+4687388D01*
X+1524548Y+4681149D01*
X+1530866Y+4676553D01*
X+1537184Y+4673620D01*
X+1543502Y+4671958D01*
X+1549820Y+4671400D01*
X+1550000Y+4671400D01*
X+1588100Y+4709500D02*
X+1587969Y+4706342D01*
X+1586903Y+4700024D01*
X+1584672Y+4693706D01*
X+1581027Y+4687388D01*
X+1575452Y+4681149D01*
X+1569134Y+4676553D01*
X+1562816Y+4673620D01*
X+1556498Y+4671958D01*
X+1550180Y+4671400D01*
X+1550000Y+4671400D01*
D21*
X+1400980Y+4799340D02*
X+1527592Y+4799340D01*
X+3499020Y+4799340D02*
X+3499020Y+5198120D01*
X+3381734Y+5198120D01*
X+1400980Y+5198120D02*
X+1400980Y+4799340D01*
X+3318266Y+5198120D02*
X+3181734Y+5198120D01*
X+3372408Y+4799340D02*
X+3499020Y+4799340D01*
X+3118266Y+5198120D02*
X+2981734Y+5198120D01*
X+3172408Y+4799340D02*
X+3327592Y+4799340D01*
X+2918266Y+5198120D02*
X+2781734Y+5198120D01*
X+2972408Y+4799340D02*
X+3127591Y+4799340D01*
X+2718266Y+5198120D02*
X+2581734Y+5198120D01*
X+2772408Y+4799340D02*
X+2927592Y+4799340D01*
X+2518266Y+5198120D02*
X+2381734Y+5198120D01*
X+2572408Y+4799340D02*
X+2727592Y+4799340D01*
X+2318266Y+5198120D02*
X+2181734Y+5198120D01*
X+2372408Y+4799340D02*
X+2527592Y+4799340D01*
X+2118266Y+5198120D02*
X+1981734Y+5198120D01*
X+2172408Y+4799340D02*
X+2327592Y+4799340D01*
X+1918266Y+5198120D02*
X+1781734Y+5198120D01*
X+1972408Y+4799340D02*
X+2127592Y+4799340D01*
X+1718266Y+5198120D02*
X+1581734Y+5198120D01*
X+1772408Y+4799340D02*
X+1927592Y+4799340D01*
X+1518266Y+5198120D02*
X+1400980Y+5198120D01*
X+1572408Y+4799340D02*
X+1727591Y+4799340D01*
D71*
X+2323000Y+5266700D02*
X+2323000Y+5251460D01*
X+2338875Y+5236220D01*
X+2402375Y+5236220D01*
X+2418250Y+5251460D01*
X+2418250Y+5327660D01*
X+2545250Y+5266700D02*
X+2450000Y+5266700D01*
X+2513500Y+5327660D01*
X+2513500Y+5236220D01*
D20*
X-761900Y+7959500D02*
X-762031Y+7962658D01*
X-763097Y+7968976D01*
X-765328Y+7975294D01*
X-768973Y+7981612D01*
X-774548Y+7987851D01*
X-780866Y+7992447D01*
X-787184Y+7995380D01*
X-793502Y+7997042D01*
X-799820Y+7997600D01*
X-800000Y+7997600D01*
X-838100Y+7959500D02*
X-837969Y+7962658D01*
X-836903Y+7968976D01*
X-834672Y+7975294D01*
X-831027Y+7981612D01*
X-825452Y+7987851D01*
X-819134Y+7992447D01*
X-812816Y+7995380D01*
X-806498Y+7997042D01*
X-800180Y+7997600D01*
X-800000Y+7997600D01*
X-838100Y+7959500D02*
X-837969Y+7956342D01*
X-836903Y+7950024D01*
X-834672Y+7943706D01*
X-831027Y+7937388D01*
X-825452Y+7931149D01*
X-819134Y+7926553D01*
X-812816Y+7923620D01*
X-806498Y+7921958D01*
X-800180Y+7921400D01*
X-800000Y+7921400D01*
X-761900Y+7959500D02*
X-762031Y+7956342D01*
X-763097Y+7950024D01*
X-765328Y+7943706D01*
X-768973Y+7937388D01*
X-774548Y+7931149D01*
X-780866Y+7926553D01*
X-787184Y+7923620D01*
X-793502Y+7921958D01*
X-799820Y+7921400D01*
X-800000Y+7921400D01*
D21*
X-949020Y+8049340D02*
X-822408Y+8049340D01*
X+1149020Y+8049340D02*
X+1149020Y+8448120D01*
X+1031734Y+8448120D01*
X-949020Y+8448120D02*
X-949020Y+8049340D01*
X+968266Y+8448120D02*
X+831734Y+8448120D01*
X+1022408Y+8049340D02*
X+1149020Y+8049340D01*
X+768266Y+8448120D02*
X+631734Y+8448120D01*
X+822408Y+8049340D02*
X+977592Y+8049340D01*
X+568266Y+8448120D02*
X+431734Y+8448120D01*
X+622408Y+8049340D02*
X+777591Y+8049340D01*
X+368266Y+8448120D02*
X+231734Y+8448120D01*
X+422408Y+8049340D02*
X+577592Y+8049340D01*
X+168266Y+8448120D02*
X+31734Y+8448120D01*
X+222408Y+8049340D02*
X+377592Y+8049340D01*
X-31734Y+8448120D02*
X-168266Y+8448120D01*
X+22408Y+8049340D02*
X+177592Y+8049340D01*
X-231734Y+8448120D02*
X-368266Y+8448120D01*
X-177592Y+8049340D02*
X-22408Y+8049340D01*
X-431734Y+8448120D02*
X-568266Y+8448120D01*
X-377592Y+8049340D02*
X-222408Y+8049340D01*
X-631734Y+8448120D02*
X-768266Y+8448120D01*
X-577592Y+8049340D02*
X-422408Y+8049340D01*
X-831734Y+8448120D02*
X-949020Y+8448120D01*
X-777592Y+8049340D02*
X-622409Y+8049340D01*
D71*
X-27000Y+8516700D02*
X-27000Y+8501460D01*
X-11125Y+8486220D01*
X+52375Y+8486220D01*
X+68250Y+8501460D01*
X+68250Y+8577660D01*
X+115875Y+8577660D02*
X+195250Y+8577660D01*
X+195250Y+8562420D01*
X+115875Y+8486220D01*
X-3274000Y-2474000D02*
X-3274000Y-2601000D01*
X-3337500Y-3109000D02*
X-3210500Y-3109000D01*
X-3210500Y-2601000D01*
X-3337500Y-2601000D01*
X-3337500Y-3109000D01*
X-3274000Y-3109000D02*
X-3274000Y-3236000D01*
X-3078420Y-2982000D02*
X-3169860Y-2982000D01*
X-3169860Y-2902625D01*
X-3154620Y-2886750D01*
X-3139380Y-2886750D01*
X-3124140Y-2902625D01*
X-3124140Y-2982000D01*
X-3124140Y-2902625D02*
X-3108900Y-2886750D01*
X-3078420Y-2886750D01*
X-3093660Y-2855000D02*
X-3154620Y-2855000D01*
X-3169860Y-2839125D01*
X-3169860Y-2775625D01*
X-3154620Y-2759750D01*
X-3093660Y-2759750D01*
X-3078420Y-2775625D01*
X-3078420Y-2839125D01*
X-3093660Y-2855000D01*
X-3078420Y-2855000D02*
X-3169860Y-2759750D01*
X+1628000Y-4077000D02*
X+1628000Y-4204000D01*
X+1564500Y-4712000D02*
X+1691500Y-4712000D01*
X+1691500Y-4204000D01*
X+1564500Y-4204000D01*
X+1564500Y-4712000D01*
X+1628000Y-4712000D02*
X+1628000Y-4839000D01*
X+1823580Y-4585000D02*
X+1732140Y-4585000D01*
X+1732140Y-4505625D01*
X+1747380Y-4489750D01*
X+1762620Y-4489750D01*
X+1777860Y-4505625D01*
X+1777860Y-4585000D01*
X+1777860Y-4505625D02*
X+1793100Y-4489750D01*
X+1823580Y-4489750D01*
X+1762620Y-4426250D02*
X+1732140Y-4394500D01*
X+1823580Y-4394500D01*
X+4115000Y-5269000D02*
X+4115000Y-5396000D01*
X+4051500Y-5904000D02*
X+4178500Y-5904000D01*
X+4178500Y-5396000D01*
X+4051500Y-5396000D01*
X+4051500Y-5904000D01*
X+4115000Y-5904000D02*
X+4115000Y-6031000D01*
X+4310580Y-5527000D02*
X+4219140Y-5527000D01*
X+4219140Y-5447625D01*
X+4234380Y-5431750D01*
X+4249620Y-5431750D01*
X+4264860Y-5447625D01*
X+4264860Y-5527000D01*
X+4264860Y-5447625D02*
X+4280100Y-5431750D01*
X+4310580Y-5431750D01*
X+4234380Y-5384125D02*
X+4219140Y-5368250D01*
X+4219140Y-5320625D01*
X+4234380Y-5304750D01*
X+4249620Y-5304750D01*
X+4264860Y-5320625D01*
X+4264860Y-5368250D01*
X+4280100Y-5384125D01*
X+4310580Y-5384125D01*
X+4310580Y-5304750D01*
X-3957000Y-2435000D02*
X-3957000Y-2562000D01*
X-4020500Y-3070000D02*
X-3893500Y-3070000D01*
X-3893500Y-2562000D01*
X-4020500Y-2562000D01*
X-4020500Y-3070000D01*
X-3957000Y-3070000D02*
X-3957000Y-3197000D01*
X-3761420Y-2943000D02*
X-3852860Y-2943000D01*
X-3852860Y-2863625D01*
X-3837620Y-2847750D01*
X-3822380Y-2847750D01*
X-3807140Y-2863625D01*
X-3807140Y-2943000D01*
X-3807140Y-2863625D02*
X-3791900Y-2847750D01*
X-3761420Y-2847750D01*
X-3837620Y-2800125D02*
X-3852860Y-2784250D01*
X-3852860Y-2736625D01*
X-3837620Y-2720750D01*
X-3822380Y-2720750D01*
X-3807140Y-2736625D01*
X-3791900Y-2720750D01*
X-3776660Y-2720750D01*
X-3761420Y-2736625D01*
X-3761420Y-2784250D01*
X-3776660Y-2800125D01*
X-3807140Y-2768375D02*
X-3807140Y-2736625D01*
X-4755000Y-2433000D02*
X-4755000Y-2560000D01*
X-4818500Y-3068000D02*
X-4691500Y-3068000D01*
X-4691500Y-2560000D01*
X-4818500Y-2560000D01*
X-4818500Y-3068000D01*
X-4755000Y-3068000D02*
X-4755000Y-3195000D01*
X-4559420Y-2941000D02*
X-4650860Y-2941000D01*
X-4650860Y-2861625D01*
X-4635620Y-2845750D01*
X-4620380Y-2845750D01*
X-4605140Y-2861625D01*
X-4605140Y-2941000D01*
X-4605140Y-2861625D02*
X-4589900Y-2845750D01*
X-4559420Y-2845750D01*
X-4589900Y-2718750D02*
X-4589900Y-2814000D01*
X-4650860Y-2750500D01*
X-4559420Y-2750500D01*
X+1703000Y-6769000D02*
X+1703000Y-6896000D01*
X+1639500Y-7404000D02*
X+1766500Y-7404000D01*
X+1766500Y-6896000D01*
X+1639500Y-6896000D01*
X+1639500Y-7404000D01*
X+1703000Y-7404000D02*
X+1703000Y-7531000D01*
X+1898580Y-7277000D02*
X+1807140Y-7277000D01*
X+1807140Y-7197625D01*
X+1822380Y-7181750D01*
X+1837620Y-7181750D01*
X+1852860Y-7197625D01*
X+1852860Y-7277000D01*
X+1852860Y-7197625D02*
X+1868100Y-7181750D01*
X+1898580Y-7181750D01*
X+1807140Y-7054750D02*
X+1807140Y-7134125D01*
X+1837620Y-7134125D01*
X+1837620Y-7070625D01*
X+1852860Y-7054750D01*
X+1883340Y-7054750D01*
X+1898580Y-7070625D01*
X+1898580Y-7118250D01*
X+1883340Y-7134125D01*
X-1675000Y-1085000D02*
X-1548000Y-1085000D01*
X-1548000Y-1148500D02*
X-1040000Y-1148500D01*
X-1040000Y-1021500D01*
X-1548000Y-1021500D01*
X-1548000Y-1148500D01*
X-1040000Y-1085000D02*
X-913000Y-1085000D01*
X-1421000Y-980860D02*
X-1421000Y-889420D01*
X-1341625Y-889420D01*
X-1325750Y-904660D01*
X-1325750Y-919900D01*
X-1341625Y-935140D01*
X-1421000Y-935140D01*
X-1341625Y-935140D02*
X-1325750Y-950380D01*
X-1325750Y-980860D01*
X-1198750Y-904660D02*
X-1214625Y-889420D01*
X-1262250Y-889420D01*
X-1278125Y-904660D01*
X-1278125Y-965620D01*
X-1262250Y-980860D01*
X-1214625Y-980860D01*
X-1198750Y-965620D01*
X-1198750Y-950380D01*
X-1214625Y-935140D01*
X-1278125Y-935140D01*
X+4966000Y+294000D02*
X+4966000Y+167000D01*
X+4902500Y-341000D02*
X+5029500Y-341000D01*
X+5029500Y+167000D01*
X+4902500Y+167000D01*
X+4902500Y-341000D01*
X+4966000Y-341000D02*
X+4966000Y-468000D01*
X+5161580Y-214000D02*
X+5070140Y-214000D01*
X+5070140Y-134625D01*
X+5085380Y-118750D01*
X+5100620Y-118750D01*
X+5115860Y-134625D01*
X+5115860Y-214000D01*
X+5115860Y-134625D02*
X+5131100Y-118750D01*
X+5161580Y-118750D01*
X+5070140Y-71125D02*
X+5070140Y+8250D01*
X+5085380Y+8250D01*
X+5161580Y-71125D01*
X-662000Y+4958000D02*
X-662000Y+4831000D01*
X-725500Y+4323000D02*
X-598500Y+4323000D01*
X-598500Y+4831000D01*
X-725500Y+4831000D01*
X-725500Y+4323000D01*
X-662000Y+4323000D02*
X-662000Y+4196000D01*
X-466420Y+4450000D02*
X-557860Y+4450000D01*
X-557860Y+4529375D01*
X-542620Y+4545250D01*
X-527380Y+4545250D01*
X-512140Y+4529375D01*
X-512140Y+4450000D01*
X-512140Y+4529375D02*
X-496900Y+4545250D01*
X-466420Y+4545250D01*
X-512140Y+4608750D02*
X-527380Y+4592875D01*
X-542620Y+4592875D01*
X-557860Y+4608750D01*
X-557860Y+4656375D01*
X-542620Y+4672250D01*
X-527380Y+4672250D01*
X-512140Y+4656375D01*
X-512140Y+4608750D01*
X-496900Y+4592875D01*
X-481660Y+4592875D01*
X-466420Y+4608750D01*
X-466420Y+4656375D01*
X-481660Y+4672250D01*
X-496900Y+4672250D01*
X-512140Y+4656375D01*
X+5284000Y+4954000D02*
X+5284000Y+4827000D01*
X+5220500Y+4319000D02*
X+5347500Y+4319000D01*
X+5347500Y+4827000D01*
X+5220500Y+4827000D01*
X+5220500Y+4319000D01*
X+5284000Y+4319000D02*
X+5284000Y+4192000D01*
X+5479580Y+4446000D02*
X+5388140Y+4446000D01*
X+5388140Y+4525375D01*
X+5403380Y+4541250D01*
X+5418620Y+4541250D01*
X+5433860Y+4525375D01*
X+5433860Y+4446000D01*
X+5433860Y+4525375D02*
X+5449100Y+4541250D01*
X+5479580Y+4541250D01*
X+5418620Y+4668250D02*
X+5433860Y+4652375D01*
X+5433860Y+4604750D01*
X+5418620Y+4588875D01*
X+5403380Y+4588875D01*
X+5388140Y+4604750D01*
X+5388140Y+4652375D01*
X+5403380Y+4668250D01*
X+5464340Y+4668250D01*
X+5479580Y+4652375D01*
X+5479580Y+4604750D01*
X+1139000Y-2463000D02*
X+1139000Y-2590000D01*
X+1075500Y-3098000D02*
X+1202500Y-3098000D01*
X+1202500Y-2590000D01*
X+1075500Y-2590000D01*
X+1075500Y-3098000D01*
X+1139000Y-3098000D02*
X+1139000Y-3225000D01*
X+1334580Y-3034500D02*
X+1243140Y-3034500D01*
X+1243140Y-2955125D01*
X+1258380Y-2939250D01*
X+1273620Y-2939250D01*
X+1288860Y-2955125D01*
X+1288860Y-3034500D01*
X+1288860Y-2955125D02*
X+1304100Y-2939250D01*
X+1334580Y-2939250D01*
X+1273620Y-2875750D02*
X+1243140Y-2844000D01*
X+1334580Y-2844000D01*
X+1319340Y-2780500D02*
X+1258380Y-2780500D01*
X+1243140Y-2764625D01*
X+1243140Y-2701125D01*
X+1258380Y-2685250D01*
X+1319340Y-2685250D01*
X+1334580Y-2701125D01*
X+1334580Y-2764625D01*
X+1319340Y-2780500D01*
X+1334580Y-2780500D02*
X+1243140Y-2685250D01*
X+4366000Y-3756000D02*
X+4493000Y-3756000D01*
X+4493000Y-3819500D02*
X+5001000Y-3819500D01*
X+5001000Y-3692500D01*
X+4493000Y-3692500D01*
X+4493000Y-3819500D01*
X+5001000Y-3756000D02*
X+5128000Y-3756000D01*
X+4556500Y-3651860D02*
X+4556500Y-3560420D01*
X+4635875Y-3560420D01*
X+4651750Y-3575660D01*
X+4651750Y-3590900D01*
X+4635875Y-3606140D01*
X+4556500Y-3606140D01*
X+4635875Y-3606140D02*
X+4651750Y-3621380D01*
X+4651750Y-3651860D01*
X+4715250Y-3590900D02*
X+4747000Y-3560420D01*
X+4747000Y-3651860D01*
X+4842250Y-3590900D02*
X+4874000Y-3560420D01*
X+4874000Y-3651860D01*
X+369000Y+1531000D02*
X+369000Y+1404000D01*
X+305500Y+896000D02*
X+432500Y+896000D01*
X+432500Y+1404000D01*
X+305500Y+1404000D01*
X+305500Y+896000D01*
X+369000Y+896000D02*
X+369000Y+769000D01*
X+564580Y+959500D02*
X+473140Y+959500D01*
X+473140Y+1038875D01*
X+488380Y+1054750D01*
X+503620Y+1054750D01*
X+518860Y+1038875D01*
X+518860Y+959500D01*
X+518860Y+1038875D02*
X+534100Y+1054750D01*
X+564580Y+1054750D01*
X+503620Y+1118250D02*
X+473140Y+1150000D01*
X+564580Y+1150000D01*
X+488380Y+1229375D02*
X+473140Y+1245250D01*
X+473140Y+1292875D01*
X+488380Y+1308750D01*
X+503620Y+1308750D01*
X+518860Y+1292875D01*
X+518860Y+1245250D01*
X+534100Y+1229375D01*
X+564580Y+1229375D01*
X+564580Y+1308750D01*
X+5298000Y+8241000D02*
X+5298000Y+8114000D01*
X+5234500Y+7606000D02*
X+5361500Y+7606000D01*
X+5361500Y+8114000D01*
X+5234500Y+8114000D01*
X+5234500Y+7606000D01*
X+5298000Y+7606000D02*
X+5298000Y+7479000D01*
X+5493580Y+7669500D02*
X+5402140Y+7669500D01*
X+5402140Y+7748875D01*
X+5417380Y+7764750D01*
X+5432620Y+7764750D01*
X+5447860Y+7748875D01*
X+5447860Y+7669500D01*
X+5447860Y+7748875D02*
X+5463100Y+7764750D01*
X+5493580Y+7764750D01*
X+5432620Y+7828250D02*
X+5402140Y+7860000D01*
X+5493580Y+7860000D01*
X+5417380Y+7939375D02*
X+5402140Y+7955250D01*
X+5402140Y+8002875D01*
X+5417380Y+8018750D01*
X+5432620Y+8018750D01*
X+5447860Y+8002875D01*
X+5463100Y+8018750D01*
X+5478340Y+8018750D01*
X+5493580Y+8002875D01*
X+5493580Y+7955250D01*
X+5478340Y+7939375D01*
X+5447860Y+7971125D02*
X+5447860Y+8002875D01*
X+3533000Y-7129000D02*
X+3533000Y-7256000D01*
X+3469500Y-7764000D02*
X+3596500Y-7764000D01*
X+3596500Y-7256000D01*
X+3469500Y-7256000D01*
X+3469500Y-7764000D01*
X+3533000Y-7764000D02*
X+3533000Y-7891000D01*
X+3728580Y-7700500D02*
X+3637140Y-7700500D01*
X+3637140Y-7621125D01*
X+3652380Y-7605250D01*
X+3667620Y-7605250D01*
X+3682860Y-7621125D01*
X+3682860Y-7700500D01*
X+3682860Y-7621125D02*
X+3698100Y-7605250D01*
X+3728580Y-7605250D01*
X+3667620Y-7541750D02*
X+3637140Y-7510000D01*
X+3728580Y-7510000D01*
X+3698100Y-7351250D02*
X+3698100Y-7446500D01*
X+3637140Y-7383000D01*
X+3728580Y-7383000D01*
X+1884000Y+6723000D02*
X+1858124Y+6728080D01*
X+1834152Y+6742685D01*
X+1812562Y+6765862D01*
X+1793830Y+6796660D01*
X+1778431Y+6834125D01*
X+1766842Y+6877305D01*
X+1759540Y+6925248D01*
X+1757000Y+6977000D01*
X+1884000Y+7231000D02*
X+1858124Y+7225920D01*
X+1834152Y+7211315D01*
X+1812562Y+7188138D01*
X+1793830Y+7157340D01*
X+1778431Y+7119875D01*
X+1766842Y+7076695D01*
X+1759540Y+7028752D01*
X+1757000Y+6977000D01*
X+1884000Y+6723000D02*
X+1909876Y+6728080D01*
X+1933848Y+6742685D01*
X+1955438Y+6765862D01*
X+1974170Y+6796660D01*
X+1989569Y+6834125D01*
X+2001158Y+6877305D01*
X+2008460Y+6925248D01*
X+2011000Y+6977000D01*
X+1884000Y+7231000D02*
X+1909876Y+7225920D01*
X+1933848Y+7211315D01*
X+1955438Y+7188138D01*
X+1974170Y+7157340D01*
X+1989569Y+7119875D01*
X+2001158Y+7076695D01*
X+2008460Y+7028752D01*
X+2011000Y+6977000D01*
X+1701120Y+6945250D02*
X+1716360Y+6929375D01*
X+1716360Y+6881750D01*
X+1685880Y+6850000D01*
X+1655400Y+6850000D01*
X+1624920Y+6881750D01*
X+1624920Y+6929375D01*
X+1640160Y+6945250D01*
X+1655400Y+7008750D02*
X+1624920Y+7040500D01*
X+1716360Y+7040500D01*
X-3050000Y+2231000D02*
X-3024124Y+2225920D01*
X-3000152Y+2211315D01*
X-2978562Y+2188138D01*
X-2959830Y+2157340D01*
X-2944431Y+2119875D01*
X-2932842Y+2076695D01*
X-2925540Y+2028752D01*
X-2923000Y+1977000D01*
X-3050000Y+1723000D02*
X-3024124Y+1728080D01*
X-3000152Y+1742685D01*
X-2978562Y+1765862D01*
X-2959830Y+1796660D01*
X-2944431Y+1834125D01*
X-2932842Y+1877305D01*
X-2925540Y+1925248D01*
X-2923000Y+1977000D01*
X-3050000Y+2231000D02*
X-3075876Y+2225920D01*
X-3099848Y+2211315D01*
X-3121438Y+2188138D01*
X-3140170Y+2157340D01*
X-3155569Y+2119875D01*
X-3167158Y+2076695D01*
X-3174460Y+2028752D01*
X-3177000Y+1977000D01*
X-3050000Y+1723000D02*
X-3075876Y+1728080D01*
X-3099848Y+1742685D01*
X-3121438Y+1765862D01*
X-3140170Y+1796660D01*
X-3155569Y+1834125D01*
X-3167158Y+1877305D01*
X-3174460Y+1925248D01*
X-3177000Y+1977000D01*
X-2806160Y+1945250D02*
X-2790920Y+1929375D01*
X-2790920Y+1881750D01*
X-2821400Y+1850000D01*
X-2851880Y+1850000D01*
X-2882360Y+1881750D01*
X-2882360Y+1929375D01*
X-2867120Y+1945250D01*
X-2867120Y+1992875D02*
X-2882360Y+2008750D01*
X-2882360Y+2056375D01*
X-2867120Y+2072250D01*
X-2851880Y+2072250D01*
X-2836640Y+2056375D01*
X-2836640Y+2008750D01*
X-2821400Y+1992875D01*
X-2790920Y+1992875D01*
X-2790920Y+2072250D01*
X+350000Y+3681000D02*
X+375876Y+3675920D01*
X+399848Y+3661315D01*
X+421438Y+3638138D01*
X+440170Y+3607340D01*
X+455569Y+3569875D01*
X+467158Y+3526695D01*
X+474460Y+3478752D01*
X+477000Y+3427000D01*
X+350000Y+3173000D02*
X+375876Y+3178080D01*
X+399848Y+3192685D01*
X+421438Y+3215862D01*
X+440170Y+3246660D01*
X+455569Y+3284125D01*
X+467158Y+3327305D01*
X+474460Y+3375248D01*
X+477000Y+3427000D01*
X+350000Y+3681000D02*
X+324124Y+3675920D01*
X+300152Y+3661315D01*
X+278562Y+3638138D01*
X+259830Y+3607340D01*
X+244431Y+3569875D01*
X+232842Y+3526695D01*
X+225540Y+3478752D01*
X+223000Y+3427000D01*
X+350000Y+3173000D02*
X+324124Y+3178080D01*
X+300152Y+3192685D01*
X+278562Y+3215862D01*
X+259830Y+3246660D01*
X+244431Y+3284125D01*
X+232842Y+3327305D01*
X+225540Y+3375248D01*
X+223000Y+3427000D01*
X+593840Y+3395250D02*
X+609080Y+3379375D01*
X+609080Y+3331750D01*
X+578600Y+3300000D01*
X+548120Y+3300000D01*
X+517640Y+3331750D01*
X+517640Y+3379375D01*
X+532880Y+3395250D01*
X+532880Y+3442875D02*
X+517640Y+3458750D01*
X+517640Y+3506375D01*
X+532880Y+3522250D01*
X+548120Y+3522250D01*
X+563360Y+3506375D01*
X+578600Y+3522250D01*
X+593840Y+3522250D01*
X+609080Y+3506375D01*
X+609080Y+3458750D01*
X+593840Y+3442875D01*
X+563360Y+3474625D02*
X+563360Y+3506375D01*
X+2950000Y-2931000D02*
X+2924124Y-2925920D01*
X+2900152Y-2911315D01*
X+2878562Y-2888138D01*
X+2859830Y-2857340D01*
X+2844431Y-2819875D01*
X+2832842Y-2776695D01*
X+2825540Y-2728752D01*
X+2823000Y-2677000D01*
X+2950000Y-2423000D02*
X+2924124Y-2428080D01*
X+2900152Y-2442685D01*
X+2878562Y-2465862D01*
X+2859830Y-2496660D01*
X+2844431Y-2534125D01*
X+2832842Y-2577305D01*
X+2825540Y-2625248D01*
X+2823000Y-2677000D01*
X+2950000Y-2931000D02*
X+2975876Y-2925920D01*
X+2999848Y-2911315D01*
X+3021438Y-2888138D01*
X+3040170Y-2857340D01*
X+3055569Y-2819875D01*
X+3067158Y-2776695D01*
X+3074460Y-2728752D01*
X+3077000Y-2677000D01*
X+2950000Y-2423000D02*
X+2975876Y-2428080D01*
X+2999848Y-2442685D01*
X+3021438Y-2465862D01*
X+3040170Y-2496660D01*
X+3055569Y-2534125D01*
X+3067158Y-2577305D01*
X+3074460Y-2625248D01*
X+3077000Y-2677000D01*
X+2767120Y-2708750D02*
X+2782360Y-2724625D01*
X+2782360Y-2772250D01*
X+2751880Y-2804000D01*
X+2721400Y-2804000D01*
X+2690920Y-2772250D01*
X+2690920Y-2724625D01*
X+2706160Y-2708750D01*
X+2751880Y-2581750D02*
X+2751880Y-2677000D01*
X+2690920Y-2613500D01*
X+2782360Y-2613500D01*
X+350000Y-1277000D02*
X+324124Y-1271920D01*
X+300152Y-1257315D01*
X+278562Y-1234138D01*
X+259830Y-1203340D01*
X+244431Y-1165875D01*
X+232842Y-1122695D01*
X+225540Y-1074752D01*
X+223000Y-1023000D01*
X+350000Y-769000D02*
X+324124Y-774080D01*
X+300152Y-788685D01*
X+278562Y-811862D01*
X+259830Y-842660D01*
X+244431Y-880125D01*
X+232842Y-923305D01*
X+225540Y-971248D01*
X+223000Y-1023000D01*
X+350000Y-1277000D02*
X+375876Y-1271920D01*
X+399848Y-1257315D01*
X+421438Y-1234138D01*
X+440170Y-1203340D01*
X+455569Y-1165875D01*
X+467158Y-1122695D01*
X+474460Y-1074752D01*
X+477000Y-1023000D01*
X+350000Y-769000D02*
X+375876Y-774080D01*
X+399848Y-788685D01*
X+421438Y-811862D01*
X+440170Y-842660D01*
X+455569Y-880125D01*
X+467158Y-923305D01*
X+474460Y-971248D01*
X+477000Y-1023000D01*
X+167120Y-1054750D02*
X+182360Y-1070625D01*
X+182360Y-1118250D01*
X+151880Y-1150000D01*
X+121400Y-1150000D01*
X+90920Y-1118250D01*
X+90920Y-1070625D01*
X+106160Y-1054750D01*
X+90920Y-927750D02*
X+90920Y-1007125D01*
X+121400Y-1007125D01*
X+121400Y-943625D01*
X+136640Y-927750D01*
X+167120Y-927750D01*
X+182360Y-943625D01*
X+182360Y-991250D01*
X+167120Y-1007125D01*
X+2950000Y+2327000D02*
X+2975876Y+2321920D01*
X+2999848Y+2307315D01*
X+3021438Y+2284138D01*
X+3040170Y+2253340D01*
X+3055569Y+2215875D01*
X+3067158Y+2172695D01*
X+3074460Y+2124752D01*
X+3077000Y+2073000D01*
X+2950000Y+1819000D02*
X+2975876Y+1824080D01*
X+2999848Y+1838685D01*
X+3021438Y+1861862D01*
X+3040170Y+1892660D01*
X+3055569Y+1930125D01*
X+3067158Y+1973305D01*
X+3074460Y+2021248D01*
X+3077000Y+2073000D01*
X+2950000Y+2327000D02*
X+2924124Y+2321920D01*
X+2900152Y+2307315D01*
X+2878562Y+2284138D01*
X+2859830Y+2253340D01*
X+2844431Y+2215875D01*
X+2832842Y+2172695D01*
X+2825540Y+2124752D01*
X+2823000Y+2073000D01*
X+2950000Y+1819000D02*
X+2924124Y+1824080D01*
X+2900152Y+1838685D01*
X+2878562Y+1861862D01*
X+2859830Y+1892660D01*
X+2844431Y+1930125D01*
X+2832842Y+1973305D01*
X+2825540Y+2021248D01*
X+2823000Y+2073000D01*
X+3193840Y+2041250D02*
X+3209080Y+2025375D01*
X+3209080Y+1977750D01*
X+3178600Y+1946000D01*
X+3148120Y+1946000D01*
X+3117640Y+1977750D01*
X+3117640Y+2025375D01*
X+3132880Y+2041250D01*
X+3132880Y+2168250D02*
X+3117640Y+2152375D01*
X+3117640Y+2104750D01*
X+3132880Y+2088875D01*
X+3193840Y+2088875D01*
X+3209080Y+2104750D01*
X+3209080Y+2152375D01*
X+3193840Y+2168250D01*
X+3178600Y+2168250D01*
X+3163360Y+2152375D01*
X+3163360Y+2088875D01*
X-5350000Y-1281000D02*
X-5375876Y-1275920D01*
X-5399848Y-1261315D01*
X-5421438Y-1238138D01*
X-5440170Y-1207340D01*
X-5455569Y-1169875D01*
X-5467158Y-1126695D01*
X-5474460Y-1078752D01*
X-5477000Y-1027000D01*
X-5350000Y-773000D02*
X-5375876Y-778080D01*
X-5399848Y-792685D01*
X-5421438Y-815862D01*
X-5440170Y-846660D01*
X-5455569Y-884125D01*
X-5467158Y-927305D01*
X-5474460Y-975248D01*
X-5477000Y-1027000D01*
X-5350000Y-1281000D02*
X-5324124Y-1275920D01*
X-5300152Y-1261315D01*
X-5278562Y-1238138D01*
X-5259830Y-1207340D01*
X-5244431Y-1169875D01*
X-5232842Y-1126695D01*
X-5225540Y-1078752D01*
X-5223000Y-1027000D01*
X-5350000Y-773000D02*
X-5324124Y-778080D01*
X-5300152Y-792685D01*
X-5278562Y-815862D01*
X-5259830Y-846660D01*
X-5244431Y-884125D01*
X-5232842Y-927305D01*
X-5225540Y-975248D01*
X-5223000Y-1027000D01*
X-5532880Y-1058750D02*
X-5517640Y-1074625D01*
X-5517640Y-1122250D01*
X-5548120Y-1154000D01*
X-5578600Y-1154000D01*
X-5609080Y-1122250D01*
X-5609080Y-1074625D01*
X-5593840Y-1058750D01*
X-5563360Y-995250D02*
X-5578600Y-1011125D01*
X-5593840Y-1011125D01*
X-5609080Y-995250D01*
X-5609080Y-947625D01*
X-5593840Y-931750D01*
X-5578600Y-931750D01*
X-5563360Y-947625D01*
X-5563360Y-995250D01*
X-5548120Y-1011125D01*
X-5532880Y-1011125D01*
X-5517640Y-995250D01*
X-5517640Y-947625D01*
X-5532880Y-931750D01*
X-5548120Y-931750D01*
X-5563360Y-947625D01*
X-2700000Y-2519000D02*
X-2674124Y-2524080D01*
X-2650152Y-2538685D01*
X-2628562Y-2561862D01*
X-2609830Y-2592660D01*
X-2594431Y-2630125D01*
X-2582842Y-2673305D01*
X-2575540Y-2721248D01*
X-2573000Y-2773000D01*
X-2700000Y-3027000D02*
X-2674124Y-3021920D01*
X-2650152Y-3007315D01*
X-2628562Y-2984138D01*
X-2609830Y-2953340D01*
X-2594431Y-2915875D01*
X-2582842Y-2872695D01*
X-2575540Y-2824752D01*
X-2573000Y-2773000D01*
X-2700000Y-2519000D02*
X-2725876Y-2524080D01*
X-2749848Y-2538685D01*
X-2771438Y-2561862D01*
X-2790170Y-2592660D01*
X-2805569Y-2630125D01*
X-2817158Y-2673305D01*
X-2824460Y-2721248D01*
X-2827000Y-2773000D01*
X-2700000Y-3027000D02*
X-2725876Y-3021920D01*
X-2749848Y-3007315D01*
X-2771438Y-2984138D01*
X-2790170Y-2953340D01*
X-2805569Y-2915875D01*
X-2817158Y-2872695D01*
X-2824460Y-2824752D01*
X-2827000Y-2773000D01*
X-2456160Y-2804750D02*
X-2440920Y-2820625D01*
X-2440920Y-2868250D01*
X-2471400Y-2900000D01*
X-2501880Y-2900000D01*
X-2532360Y-2868250D01*
X-2532360Y-2820625D01*
X-2517120Y-2804750D01*
X-2532360Y-2757125D02*
X-2532360Y-2677750D01*
X-2517120Y-2677750D01*
X-2440920Y-2757125D01*
X-5450000Y+3731000D02*
X-5424124Y+3725920D01*
X-5400152Y+3711315D01*
X-5378562Y+3688138D01*
X-5359830Y+3657340D01*
X-5344431Y+3619875D01*
X-5332842Y+3576695D01*
X-5325540Y+3528752D01*
X-5323000Y+3477000D01*
X-5450000Y+3223000D02*
X-5424124Y+3228080D01*
X-5400152Y+3242685D01*
X-5378562Y+3265862D01*
X-5359830Y+3296660D01*
X-5344431Y+3334125D01*
X-5332842Y+3377305D01*
X-5325540Y+3425248D01*
X-5323000Y+3477000D01*
X-5450000Y+3731000D02*
X-5475876Y+3725920D01*
X-5499848Y+3711315D01*
X-5521438Y+3688138D01*
X-5540170Y+3657340D01*
X-5555569Y+3619875D01*
X-5567158Y+3576695D01*
X-5574460Y+3528752D01*
X-5577000Y+3477000D01*
X-5450000Y+3223000D02*
X-5475876Y+3228080D01*
X-5499848Y+3242685D01*
X-5521438Y+3265862D01*
X-5540170Y+3296660D01*
X-5555569Y+3334125D01*
X-5567158Y+3377305D01*
X-5574460Y+3425248D01*
X-5577000Y+3477000D01*
X-5206160Y+3445250D02*
X-5190920Y+3429375D01*
X-5190920Y+3381750D01*
X-5221400Y+3350000D01*
X-5251880Y+3350000D01*
X-5282360Y+3381750D01*
X-5282360Y+3429375D01*
X-5267120Y+3445250D01*
X-5251880Y+3572250D02*
X-5236640Y+3556375D01*
X-5236640Y+3508750D01*
X-5251880Y+3492875D01*
X-5267120Y+3492875D01*
X-5282360Y+3508750D01*
X-5282360Y+3556375D01*
X-5267120Y+3572250D01*
X-5206160Y+3572250D01*
X-5190920Y+3556375D01*
X-5190920Y+3508750D01*
X-5200000Y+7231000D02*
X-5174124Y+7225920D01*
X-5150152Y+7211315D01*
X-5128562Y+7188138D01*
X-5109830Y+7157340D01*
X-5094431Y+7119875D01*
X-5082842Y+7076695D01*
X-5075540Y+7028752D01*
X-5073000Y+6977000D01*
X-5200000Y+6723000D02*
X-5174124Y+6728080D01*
X-5150152Y+6742685D01*
X-5128562Y+6765862D01*
X-5109830Y+6796660D01*
X-5094431Y+6834125D01*
X-5082842Y+6877305D01*
X-5075540Y+6925248D01*
X-5073000Y+6977000D01*
X-5200000Y+7231000D02*
X-5225876Y+7225920D01*
X-5249848Y+7211315D01*
X-5271438Y+7188138D01*
X-5290170Y+7157340D01*
X-5305569Y+7119875D01*
X-5317158Y+7076695D01*
X-5324460Y+7028752D01*
X-5327000Y+6977000D01*
X-5200000Y+6723000D02*
X-5225876Y+6728080D01*
X-5249848Y+6742685D01*
X-5271438Y+6765862D01*
X-5290170Y+6796660D01*
X-5305569Y+6834125D01*
X-5317158Y+6877305D01*
X-5324460Y+6925248D01*
X-5327000Y+6977000D01*
X-4956160Y+6881750D02*
X-4940920Y+6865875D01*
X-4940920Y+6818250D01*
X-4971400Y+6786500D01*
X-5001880Y+6786500D01*
X-5032360Y+6818250D01*
X-5032360Y+6865875D01*
X-5017120Y+6881750D01*
X-5001880Y+6945250D02*
X-5032360Y+6977000D01*
X-4940920Y+6977000D01*
X-4956160Y+7040500D02*
X-5017120Y+7040500D01*
X-5032360Y+7056375D01*
X-5032360Y+7119875D01*
X-5017120Y+7135750D01*
X-4956160Y+7135750D01*
X-4940920Y+7119875D01*
X-4940920Y+7056375D01*
X-4956160Y+7040500D01*
X-4940920Y+7040500D02*
X-5032360Y+7135750D01*
D22*
X-3230255Y-8347295D02*
X-2320935Y-8347295D01*
X-3235335Y-8342215D02*
X-2315855Y-8342215D01*
X-3240415Y-8337135D02*
X-2310775Y-8337135D01*
X-3245495Y-8332055D02*
X-2305695Y-8332055D01*
X-3250575Y-8326975D02*
X-2300615Y-8326975D01*
X-3255655Y-8321895D02*
X-2295535Y-8321895D01*
X-3260735Y-8316815D02*
X-2290455Y-8316815D01*
X-3265815Y-8311735D02*
X-2285375Y-8311735D01*
X-3270895Y-8306655D02*
X-2280295Y-8306655D01*
X-3275975Y-8301575D02*
X-2275215Y-8301575D01*
X-3275975Y-8296495D02*
X-2808615Y-8296495D01*
X-2742575Y-8296495D02*
X-2275215Y-8296495D01*
X-3275975Y-8291415D02*
X-2813695Y-8291415D01*
X-2737495Y-8291415D02*
X-2275215Y-8291415D01*
X-3275975Y-8286335D02*
X-2818775Y-8286335D01*
X-2732415Y-8286335D02*
X-2275215Y-8286335D01*
X-3275975Y-8281255D02*
X-2823855Y-8281255D01*
X-2727335Y-8281255D02*
X-2275215Y-8281255D01*
X-3275975Y-8276175D02*
X-2828935Y-8276175D01*
X-2722255Y-8276175D02*
X-2275215Y-8276175D01*
X-3275975Y-8271095D02*
X-2834015Y-8271095D01*
X-2717175Y-8271095D02*
X-2275215Y-8271095D01*
X-3275975Y-8266015D02*
X-2844175Y-8266015D01*
X-2712095Y-8266015D02*
X-2275215Y-8266015D01*
X-3275975Y-8260935D02*
X-2844175Y-8260935D01*
X-2707015Y-8260935D02*
X-2275215Y-8260935D01*
X-3275975Y-8255855D02*
X-2844175Y-8255855D01*
X-2707015Y-8255855D02*
X-2275215Y-8255855D01*
X-3275975Y-8250775D02*
X-2844175Y-8250775D01*
X-2707015Y-8250775D02*
X-2275215Y-8250775D01*
X-3275975Y-8245695D02*
X-2844175Y-8245695D01*
X-2707015Y-8245695D02*
X-2275215Y-8245695D01*
X-3275975Y-8240615D02*
X-2844175Y-8240615D01*
X-2707015Y-8240615D02*
X-2275215Y-8240615D01*
X-3275975Y-8235535D02*
X-2844175Y-8235535D01*
X-2707015Y-8235535D02*
X-2275215Y-8235535D01*
X-3275975Y-8230455D02*
X-2844175Y-8230455D01*
X-2707015Y-8230455D02*
X-2275215Y-8230455D01*
X-3275975Y-8225375D02*
X-2844175Y-8225375D01*
X-2707015Y-8225375D02*
X-2275215Y-8225375D01*
X-3275975Y-8220295D02*
X-2844175Y-8220295D01*
X-2707015Y-8220295D02*
X-2275215Y-8220295D01*
X-3275975Y-8215215D02*
X-2844175Y-8215215D01*
X-2707015Y-8215215D02*
X-2275215Y-8215215D01*
X-3275975Y-8210135D02*
X-2844175Y-8210135D01*
X-2707015Y-8210135D02*
X-2275215Y-8210135D01*
X-3275975Y-8205055D02*
X-2844175Y-8205055D01*
X-2707015Y-8205055D02*
X-2275215Y-8205055D01*
X-3275975Y-8199975D02*
X-2839095Y-8199975D01*
X-2712095Y-8199975D02*
X-2275215Y-8199975D01*
X-3275975Y-8194895D02*
X-2834015Y-8194895D01*
X-2717175Y-8194895D02*
X-2275215Y-8194895D01*
X-3275975Y-8189815D02*
X-2834015Y-8189815D01*
X-2717175Y-8189815D02*
X-2275215Y-8189815D01*
X-3275975Y-8184735D02*
X-2834015Y-8184735D01*
X-2717175Y-8184735D02*
X-2275215Y-8184735D01*
X-3275975Y-8179655D02*
X-2828935Y-8179655D01*
X-2722255Y-8179655D02*
X-2275215Y-8179655D01*
X-3275975Y-8174575D02*
X-2808615Y-8174575D01*
X-2742575Y-8174575D02*
X-2275215Y-8174575D01*
X-3275975Y-8169495D02*
X-2808615Y-8169495D01*
X-2742575Y-8169495D02*
X-2275215Y-8169495D01*
X-3275975Y-8164415D02*
X-2275215Y-8164415D01*
X-3275975Y-8159335D02*
X-2275215Y-8159335D01*
X-3275975Y-8154255D02*
X-2275215Y-8154255D01*
X-3275975Y-8149175D02*
X-2275215Y-8149175D01*
X-3275975Y-8144095D02*
X-2275215Y-8144095D01*
X-3275975Y-8139015D02*
X-2275215Y-8139015D01*
X-3275975Y-8133935D02*
X-2275215Y-8133935D01*
X-3275975Y-8128855D02*
X-2275215Y-8128855D01*
X-3275975Y-8123775D02*
X-2275215Y-8123775D01*
X-3275975Y-8118695D02*
X-2275215Y-8118695D01*
X-3275975Y-8113615D02*
X-2275215Y-8113615D01*
X-3275975Y-8108535D02*
X-3174375Y-8108535D01*
X-2376815Y-8108535D02*
X-2275215Y-8108535D01*
X-3275975Y-8103455D02*
X-3179455Y-8103455D01*
X-2371735Y-8103455D02*
X-2275215Y-8103455D01*
X-3275975Y-8098375D02*
X-3184535Y-8098375D01*
X-2366655Y-8098375D02*
X-2275215Y-8098375D01*
X-3275975Y-8093295D02*
X-3189615Y-8093295D01*
X-2361575Y-8093295D02*
X-2275215Y-8093295D01*
X-3275975Y-8088215D02*
X-3194695Y-8088215D01*
X-2356495Y-8088215D02*
X-2275215Y-8088215D01*
X-3275975Y-8083135D02*
X-3204855Y-8083135D01*
X-2351415Y-8083135D02*
X-2275215Y-8083135D01*
X-3275975Y-8078055D02*
X-3204855Y-8078055D01*
X-2346335Y-8078055D02*
X-2275215Y-8078055D01*
X-3275975Y-8072975D02*
X-3204855Y-8072975D01*
X-2346335Y-8072975D02*
X-2275215Y-8072975D01*
X-4302135Y-8067895D02*
X-3387735Y-8067895D01*
X-3275975Y-8067895D02*
X-3204855Y-8067895D01*
X-2346335Y-8067895D02*
X-2275215Y-8067895D01*
X-2163455Y-8067895D02*
X-1218575Y-8067895D01*
X-4302135Y-8062815D02*
X-3387735Y-8062815D01*
X-3275975Y-8062815D02*
X-3204855Y-8062815D01*
X-2346335Y-8062815D02*
X-2275215Y-8062815D01*
X-2163455Y-8062815D02*
X-1213495Y-8062815D01*
X-4332615Y-8057735D02*
X-3387735Y-8057735D01*
X-3275975Y-8057735D02*
X-3204855Y-8057735D01*
X-2346335Y-8057735D02*
X-2275215Y-8057735D01*
X-2163455Y-8057735D02*
X-1183015Y-8057735D01*
X-4337695Y-8052655D02*
X-3387735Y-8052655D01*
X-3275975Y-8052655D02*
X-3204855Y-8052655D01*
X-2346335Y-8052655D02*
X-2275215Y-8052655D01*
X-2163455Y-8052655D02*
X-1183015Y-8052655D01*
X-4352935Y-8047575D02*
X-3387735Y-8047575D01*
X-3275975Y-8047575D02*
X-3204855Y-8047575D01*
X-2346335Y-8047575D02*
X-2275215Y-8047575D01*
X-2163455Y-8047575D02*
X-1162695Y-8047575D01*
X-4358015Y-8042495D02*
X-3387735Y-8042495D01*
X-3275975Y-8042495D02*
X-3204855Y-8042495D01*
X-2346335Y-8042495D02*
X-2275215Y-8042495D01*
X-2163455Y-8042495D02*
X-1162695Y-8042495D01*
X-4378335Y-8037415D02*
X-3387735Y-8037415D01*
X-3275975Y-8037415D02*
X-3204855Y-8037415D01*
X-2346335Y-8037415D02*
X-2275215Y-8037415D01*
X-2163455Y-8037415D02*
X-1142375Y-8037415D01*
X-4378335Y-8032335D02*
X-3387735Y-8032335D01*
X-3275975Y-8032335D02*
X-3204855Y-8032335D01*
X-2346335Y-8032335D02*
X-2275215Y-8032335D01*
X-2163455Y-8032335D02*
X-1142375Y-8032335D01*
X-4388495Y-8027255D02*
X-3387735Y-8027255D01*
X-3275975Y-8027255D02*
X-3204855Y-8027255D01*
X-2346335Y-8027255D02*
X-2275215Y-8027255D01*
X-2163455Y-8027255D02*
X-1132215Y-8027255D01*
X-4388495Y-8022175D02*
X-3387735Y-8022175D01*
X-3275975Y-8022175D02*
X-3204855Y-8022175D01*
X-2346335Y-8022175D02*
X-2275215Y-8022175D01*
X-2163455Y-8022175D02*
X-1127135Y-8022175D01*
X-4398655Y-8017095D02*
X-3387735Y-8017095D01*
X-3275975Y-8017095D02*
X-3204855Y-8017095D01*
X-2346335Y-8017095D02*
X-2275215Y-8017095D01*
X-2163455Y-8017095D02*
X-1122055Y-8017095D01*
X-4398655Y-8012015D02*
X-3387735Y-8012015D01*
X-3275975Y-8012015D02*
X-3204855Y-8012015D01*
X-2346335Y-8012015D02*
X-2275215Y-8012015D01*
X-2163455Y-8012015D02*
X-1116975Y-8012015D01*
X-4408815Y-8006935D02*
X-3387735Y-8006935D01*
X-3275975Y-8006935D02*
X-3204855Y-8006935D01*
X-2346335Y-8006935D02*
X-2275215Y-8006935D01*
X-2163455Y-8006935D02*
X-1111895Y-8006935D01*
X-4408815Y-8001855D02*
X-3387735Y-8001855D01*
X-3275975Y-8001855D02*
X-3204855Y-8001855D01*
X-2346335Y-8001855D02*
X-2275215Y-8001855D01*
X-2163455Y-8001855D02*
X-1106815Y-8001855D01*
X-4408815Y-7996775D02*
X-3387735Y-7996775D01*
X-3275975Y-7996775D02*
X-3204855Y-7996775D01*
X-2346335Y-7996775D02*
X-2275215Y-7996775D01*
X-2163455Y-7996775D02*
X-1106815Y-7996775D01*
X-4408815Y-7991695D02*
X-3387735Y-7991695D01*
X-3275975Y-7991695D02*
X-3204855Y-7991695D01*
X-2346335Y-7991695D02*
X-2275215Y-7991695D01*
X-2163455Y-7991695D02*
X-1106815Y-7991695D01*
X-4413895Y-7986615D02*
X-3387735Y-7986615D01*
X-3275975Y-7986615D02*
X-3204855Y-7986615D01*
X-2346335Y-7986615D02*
X-2275215Y-7986615D01*
X-2163455Y-7986615D02*
X-1101735Y-7986615D01*
X-4418975Y-7981535D02*
X-3387735Y-7981535D01*
X-3275975Y-7981535D02*
X-3204855Y-7981535D01*
X-2346335Y-7981535D02*
X-2275215Y-7981535D01*
X-2163455Y-7981535D02*
X-1096655Y-7981535D01*
X-4418975Y-7976455D02*
X-3387735Y-7976455D01*
X-3275975Y-7976455D02*
X-3204855Y-7976455D01*
X-2346335Y-7976455D02*
X-2275215Y-7976455D01*
X-2163455Y-7976455D02*
X-1096655Y-7976455D01*
X-4418975Y-7971375D02*
X-3387735Y-7971375D01*
X-3275975Y-7971375D02*
X-3204855Y-7971375D01*
X-2346335Y-7971375D02*
X-2275215Y-7971375D01*
X-2163455Y-7971375D02*
X-1096655Y-7971375D01*
X-4424055Y-7966295D02*
X-3387735Y-7966295D01*
X-3275975Y-7966295D02*
X-3204855Y-7966295D01*
X-2346335Y-7966295D02*
X-2275215Y-7966295D01*
X-2163455Y-7966295D02*
X-1096655Y-7966295D01*
X-4429135Y-7961215D02*
X-3387735Y-7961215D01*
X-3275975Y-7961215D02*
X-3204855Y-7961215D01*
X-2346335Y-7961215D02*
X-2275215Y-7961215D01*
X-2163455Y-7961215D02*
X-1086495Y-7961215D01*
X-4429135Y-7956135D02*
X-3387735Y-7956135D01*
X-3275975Y-7956135D02*
X-3204855Y-7956135D01*
X-2346335Y-7956135D02*
X-2275215Y-7956135D01*
X-2163455Y-7956135D02*
X-1086495Y-7956135D01*
X-4429135Y-7951055D02*
X-3387735Y-7951055D01*
X-3275975Y-7951055D02*
X-3204855Y-7951055D01*
X-2346335Y-7951055D02*
X-2275215Y-7951055D01*
X-2163455Y-7951055D02*
X-1086495Y-7951055D01*
X-4429135Y-7945975D02*
X-3387735Y-7945975D01*
X-3275975Y-7945975D02*
X-3204855Y-7945975D01*
X-2346335Y-7945975D02*
X-2275215Y-7945975D01*
X-2163455Y-7945975D02*
X-1086495Y-7945975D01*
X-4429135Y-7940895D02*
X-3387735Y-7940895D01*
X-3275975Y-7940895D02*
X-3204855Y-7940895D01*
X-2346335Y-7940895D02*
X-2275215Y-7940895D01*
X-2163455Y-7940895D02*
X-1086495Y-7940895D01*
X-4434215Y-7935815D02*
X-3387735Y-7935815D01*
X-3275975Y-7935815D02*
X-3204855Y-7935815D01*
X-2346335Y-7935815D02*
X-2275215Y-7935815D01*
X-2163455Y-7935815D02*
X-1086495Y-7935815D01*
X-4439295Y-7930735D02*
X-3387735Y-7930735D01*
X-3275975Y-7930735D02*
X-3204855Y-7930735D01*
X-2346335Y-7930735D02*
X-2275215Y-7930735D01*
X-2163455Y-7930735D02*
X-1076335Y-7930735D01*
X-4444375Y-7925655D02*
X-3387735Y-7925655D01*
X-3275975Y-7925655D02*
X-3204855Y-7925655D01*
X-2346335Y-7925655D02*
X-2275215Y-7925655D01*
X-2163455Y-7925655D02*
X-1076335Y-7925655D01*
X-4444375Y-7920575D02*
X-3387735Y-7920575D01*
X-3275975Y-7920575D02*
X-3204855Y-7920575D01*
X-2346335Y-7920575D02*
X-2275215Y-7920575D01*
X-2163455Y-7920575D02*
X-1076335Y-7920575D01*
X-4444375Y-7915495D02*
X-3387735Y-7915495D01*
X-3275975Y-7915495D02*
X-3204855Y-7915495D01*
X-2346335Y-7915495D02*
X-2275215Y-7915495D01*
X-2163455Y-7915495D02*
X-1076335Y-7915495D01*
X-4444375Y-7910415D02*
X-3387735Y-7910415D01*
X-3275975Y-7910415D02*
X-3204855Y-7910415D01*
X-2346335Y-7910415D02*
X-2275215Y-7910415D01*
X-2163455Y-7910415D02*
X-1076335Y-7910415D01*
X-4444375Y-7905335D02*
X-3387735Y-7905335D01*
X-3275975Y-7905335D02*
X-3204855Y-7905335D01*
X-2346335Y-7905335D02*
X-2275215Y-7905335D01*
X-2163455Y-7905335D02*
X-1076335Y-7905335D01*
X-4444375Y-7900255D02*
X-3387735Y-7900255D01*
X-3275975Y-7900255D02*
X-3204855Y-7900255D01*
X-2346335Y-7900255D02*
X-2275215Y-7900255D01*
X-2163455Y-7900255D02*
X-1076335Y-7900255D01*
X-4444375Y-7895175D02*
X-3387735Y-7895175D01*
X-3275975Y-7895175D02*
X-3204855Y-7895175D01*
X-2346335Y-7895175D02*
X-2275215Y-7895175D01*
X-2163455Y-7895175D02*
X-1076335Y-7895175D01*
X-4444375Y-7890095D02*
X-3387735Y-7890095D01*
X-3275975Y-7890095D02*
X-3204855Y-7890095D01*
X-2346335Y-7890095D02*
X-2275215Y-7890095D01*
X-2163455Y-7890095D02*
X-1076335Y-7890095D01*
X-4444375Y-7885015D02*
X-3387735Y-7885015D01*
X-3275975Y-7885015D02*
X-3204855Y-7885015D01*
X-2346335Y-7885015D02*
X-2275215Y-7885015D01*
X-2163455Y-7885015D02*
X-1076335Y-7885015D01*
X-4444375Y-7879935D02*
X-3387735Y-7879935D01*
X-3275975Y-7879935D02*
X-3204855Y-7879935D01*
X-2346335Y-7879935D02*
X-2275215Y-7879935D01*
X-2163455Y-7879935D02*
X-1076335Y-7879935D01*
X-4444375Y-7874855D02*
X-3387735Y-7874855D01*
X-3275975Y-7874855D02*
X-3204855Y-7874855D01*
X-2346335Y-7874855D02*
X-2275215Y-7874855D01*
X-2163455Y-7874855D02*
X-1076335Y-7874855D01*
X-4444375Y-7869775D02*
X-3387735Y-7869775D01*
X-3275975Y-7869775D02*
X-3204855Y-7869775D01*
X-2346335Y-7869775D02*
X-2275215Y-7869775D01*
X-2163455Y-7869775D02*
X-1076335Y-7869775D01*
X-4444375Y-7864695D02*
X-3387735Y-7864695D01*
X-3275975Y-7864695D02*
X-3204855Y-7864695D01*
X-2346335Y-7864695D02*
X-2275215Y-7864695D01*
X-2163455Y-7864695D02*
X-1076335Y-7864695D01*
X-4444375Y-7859615D02*
X-3387735Y-7859615D01*
X-3275975Y-7859615D02*
X-3204855Y-7859615D01*
X-2346335Y-7859615D02*
X-2275215Y-7859615D01*
X-2163455Y-7859615D02*
X-1076335Y-7859615D01*
X-4444375Y-7854535D02*
X-3387735Y-7854535D01*
X-3275975Y-7854535D02*
X-3204855Y-7854535D01*
X-2346335Y-7854535D02*
X-2275215Y-7854535D01*
X-2163455Y-7854535D02*
X-1076335Y-7854535D01*
X-4444375Y-7849455D02*
X-3387735Y-7849455D01*
X-3275975Y-7849455D02*
X-3204855Y-7849455D01*
X-2346335Y-7849455D02*
X-2275215Y-7849455D01*
X-2163455Y-7849455D02*
X-1076335Y-7849455D01*
X-4444375Y-7844375D02*
X-3387735Y-7844375D01*
X-3275975Y-7844375D02*
X-3204855Y-7844375D01*
X-2346335Y-7844375D02*
X-2275215Y-7844375D01*
X-2163455Y-7844375D02*
X-1076335Y-7844375D01*
X-4444375Y-7839295D02*
X-3387735Y-7839295D01*
X-3275975Y-7839295D02*
X-3204855Y-7839295D01*
X-2346335Y-7839295D02*
X-2275215Y-7839295D01*
X-2163455Y-7839295D02*
X-1076335Y-7839295D01*
X-4444375Y-7834215D02*
X-3387735Y-7834215D01*
X-3275975Y-7834215D02*
X-3204855Y-7834215D01*
X-2346335Y-7834215D02*
X-2275215Y-7834215D01*
X-2163455Y-7834215D02*
X-1076335Y-7834215D01*
X-4444375Y-7829135D02*
X-3387735Y-7829135D01*
X-3275975Y-7829135D02*
X-3204855Y-7829135D01*
X-2346335Y-7829135D02*
X-2275215Y-7829135D01*
X-2163455Y-7829135D02*
X-1076335Y-7829135D01*
X-4444375Y-7824055D02*
X-3387735Y-7824055D01*
X-3275975Y-7824055D02*
X-3204855Y-7824055D01*
X-2346335Y-7824055D02*
X-2275215Y-7824055D01*
X-2163455Y-7824055D02*
X-1076335Y-7824055D01*
X-4444375Y-7818975D02*
X-3387735Y-7818975D01*
X-3275975Y-7818975D02*
X-3204855Y-7818975D01*
X-2346335Y-7818975D02*
X-2275215Y-7818975D01*
X-2163455Y-7818975D02*
X-1076335Y-7818975D01*
X-4444375Y-7813895D02*
X-3387735Y-7813895D01*
X-3275975Y-7813895D02*
X-3204855Y-7813895D01*
X-2346335Y-7813895D02*
X-2275215Y-7813895D01*
X-2163455Y-7813895D02*
X-1076335Y-7813895D01*
X-4444375Y-7808815D02*
X-3387735Y-7808815D01*
X-3275975Y-7808815D02*
X-3204855Y-7808815D01*
X-2346335Y-7808815D02*
X-2275215Y-7808815D01*
X-2163455Y-7808815D02*
X-1076335Y-7808815D01*
X-4444375Y-7803735D02*
X-3387735Y-7803735D01*
X-3275975Y-7803735D02*
X-3204855Y-7803735D01*
X-2346335Y-7803735D02*
X-2275215Y-7803735D01*
X-2163455Y-7803735D02*
X-1076335Y-7803735D01*
X-4444375Y-7798655D02*
X-3387735Y-7798655D01*
X-3275975Y-7798655D02*
X-3204855Y-7798655D01*
X-2346335Y-7798655D02*
X-2275215Y-7798655D01*
X-2163455Y-7798655D02*
X-1076335Y-7798655D01*
X-4444375Y-7793575D02*
X-3387735Y-7793575D01*
X-3275975Y-7793575D02*
X-3204855Y-7793575D01*
X-2346335Y-7793575D02*
X-2275215Y-7793575D01*
X-2163455Y-7793575D02*
X-1076335Y-7793575D01*
X-4444375Y-7788495D02*
X-3387735Y-7788495D01*
X-3275975Y-7788495D02*
X-3204855Y-7788495D01*
X-2346335Y-7788495D02*
X-2275215Y-7788495D01*
X-2163455Y-7788495D02*
X-1076335Y-7788495D01*
X-4444375Y-7783415D02*
X-3387735Y-7783415D01*
X-3275975Y-7783415D02*
X-3204855Y-7783415D01*
X-2346335Y-7783415D02*
X-2275215Y-7783415D01*
X-2163455Y-7783415D02*
X-1076335Y-7783415D01*
X-4444375Y-7778335D02*
X-3387735Y-7778335D01*
X-3275975Y-7778335D02*
X-3204855Y-7778335D01*
X-2346335Y-7778335D02*
X-2275215Y-7778335D01*
X-2163455Y-7778335D02*
X-1076335Y-7778335D01*
X-4444375Y-7773255D02*
X-3387735Y-7773255D01*
X-3275975Y-7773255D02*
X-3204855Y-7773255D01*
X-2346335Y-7773255D02*
X-2275215Y-7773255D01*
X-2163455Y-7773255D02*
X-1076335Y-7773255D01*
X-4444375Y-7768175D02*
X-3387735Y-7768175D01*
X-3275975Y-7768175D02*
X-3204855Y-7768175D01*
X-2346335Y-7768175D02*
X-2275215Y-7768175D01*
X-2163455Y-7768175D02*
X-1076335Y-7768175D01*
X-4444375Y-7763095D02*
X-3387735Y-7763095D01*
X-3275975Y-7763095D02*
X-3204855Y-7763095D01*
X-2346335Y-7763095D02*
X-2275215Y-7763095D01*
X-2163455Y-7763095D02*
X-1076335Y-7763095D01*
X-4444375Y-7758015D02*
X-3387735Y-7758015D01*
X-3275975Y-7758015D02*
X-3204855Y-7758015D01*
X-2346335Y-7758015D02*
X-2275215Y-7758015D01*
X-2163455Y-7758015D02*
X-1076335Y-7758015D01*
X-4444375Y-7752935D02*
X-3387735Y-7752935D01*
X-3275975Y-7752935D02*
X-3204855Y-7752935D01*
X-2346335Y-7752935D02*
X-2275215Y-7752935D01*
X-2163455Y-7752935D02*
X-1076335Y-7752935D01*
X-4444375Y-7747855D02*
X-3387735Y-7747855D01*
X-3275975Y-7747855D02*
X-3204855Y-7747855D01*
X-2346335Y-7747855D02*
X-2275215Y-7747855D01*
X-2163455Y-7747855D02*
X-1076335Y-7747855D01*
X-4444375Y-7742775D02*
X-3387735Y-7742775D01*
X-3275975Y-7742775D02*
X-3204855Y-7742775D01*
X-2346335Y-7742775D02*
X-2275215Y-7742775D01*
X-2163455Y-7742775D02*
X-1076335Y-7742775D01*
X-4444375Y-7737695D02*
X-3387735Y-7737695D01*
X-3275975Y-7737695D02*
X-3204855Y-7737695D01*
X-2346335Y-7737695D02*
X-2275215Y-7737695D01*
X-2163455Y-7737695D02*
X-1076335Y-7737695D01*
X-4444375Y-7732615D02*
X-3387735Y-7732615D01*
X-3275975Y-7732615D02*
X-3204855Y-7732615D01*
X-2346335Y-7732615D02*
X-2275215Y-7732615D01*
X-2163455Y-7732615D02*
X-1076335Y-7732615D01*
X-4444375Y-7727535D02*
X-3387735Y-7727535D01*
X-3275975Y-7727535D02*
X-3204855Y-7727535D01*
X-2346335Y-7727535D02*
X-2275215Y-7727535D01*
X-2163455Y-7727535D02*
X-1076335Y-7727535D01*
X-4444375Y-7722455D02*
X-3387735Y-7722455D01*
X-3275975Y-7722455D02*
X-3204855Y-7722455D01*
X-2346335Y-7722455D02*
X-2275215Y-7722455D01*
X-2163455Y-7722455D02*
X-1076335Y-7722455D01*
X-4444375Y-7717375D02*
X-3387735Y-7717375D01*
X-3275975Y-7717375D02*
X-3204855Y-7717375D01*
X-2346335Y-7717375D02*
X-2275215Y-7717375D01*
X-2163455Y-7717375D02*
X-1076335Y-7717375D01*
X-4444375Y-7712295D02*
X-3387735Y-7712295D01*
X-3275975Y-7712295D02*
X-3204855Y-7712295D01*
X-2346335Y-7712295D02*
X-2275215Y-7712295D01*
X-2163455Y-7712295D02*
X-1076335Y-7712295D01*
X-4444375Y-7707215D02*
X-3387735Y-7707215D01*
X-3275975Y-7707215D02*
X-3204855Y-7707215D01*
X-2346335Y-7707215D02*
X-2275215Y-7707215D01*
X-2163455Y-7707215D02*
X-1076335Y-7707215D01*
X-4444375Y-7702135D02*
X-3387735Y-7702135D01*
X-3275975Y-7702135D02*
X-3204855Y-7702135D01*
X-2346335Y-7702135D02*
X-2275215Y-7702135D01*
X-2163455Y-7702135D02*
X-1076335Y-7702135D01*
X-4444375Y-7697055D02*
X-3387735Y-7697055D01*
X-3275975Y-7697055D02*
X-3204855Y-7697055D01*
X-2346335Y-7697055D02*
X-2275215Y-7697055D01*
X-2163455Y-7697055D02*
X-1076335Y-7697055D01*
X-4444375Y-7691975D02*
X-3387735Y-7691975D01*
X-3275975Y-7691975D02*
X-3204855Y-7691975D01*
X-2346335Y-7691975D02*
X-2275215Y-7691975D01*
X-2163455Y-7691975D02*
X-1076335Y-7691975D01*
X-4444375Y-7686895D02*
X-3387735Y-7686895D01*
X-3275975Y-7686895D02*
X-3204855Y-7686895D01*
X-2346335Y-7686895D02*
X-2275215Y-7686895D01*
X-2163455Y-7686895D02*
X-1076335Y-7686895D01*
X-4444375Y-7681815D02*
X-3387735Y-7681815D01*
X-3275975Y-7681815D02*
X-3204855Y-7681815D01*
X-2346335Y-7681815D02*
X-2275215Y-7681815D01*
X-2163455Y-7681815D02*
X-1076335Y-7681815D01*
X-4444375Y-7676735D02*
X-3387735Y-7676735D01*
X-3275975Y-7676735D02*
X-3204855Y-7676735D01*
X-2346335Y-7676735D02*
X-2275215Y-7676735D01*
X-2163455Y-7676735D02*
X-1076335Y-7676735D01*
X-4444375Y-7671655D02*
X-3387735Y-7671655D01*
X-3275975Y-7671655D02*
X-3204855Y-7671655D01*
X-2346335Y-7671655D02*
X-2275215Y-7671655D01*
X-2163455Y-7671655D02*
X-1076335Y-7671655D01*
X-4444375Y-7666575D02*
X-3387735Y-7666575D01*
X-3275975Y-7666575D02*
X-3204855Y-7666575D01*
X-2346335Y-7666575D02*
X-2275215Y-7666575D01*
X-2163455Y-7666575D02*
X-1076335Y-7666575D01*
X-4444375Y-7661495D02*
X-3387735Y-7661495D01*
X-3275975Y-7661495D02*
X-3204855Y-7661495D01*
X-2346335Y-7661495D02*
X-2275215Y-7661495D01*
X-2163455Y-7661495D02*
X-1076335Y-7661495D01*
X-4444375Y-7656415D02*
X-3387735Y-7656415D01*
X-3275975Y-7656415D02*
X-3204855Y-7656415D01*
X-2346335Y-7656415D02*
X-2275215Y-7656415D01*
X-2163455Y-7656415D02*
X-1076335Y-7656415D01*
X-4444375Y-7651335D02*
X-3387735Y-7651335D01*
X-3275975Y-7651335D02*
X-3204855Y-7651335D01*
X-2346335Y-7651335D02*
X-2275215Y-7651335D01*
X-2163455Y-7651335D02*
X-1076335Y-7651335D01*
X-4444375Y-7646255D02*
X-3387735Y-7646255D01*
X-3275975Y-7646255D02*
X-3204855Y-7646255D01*
X-2346335Y-7646255D02*
X-2275215Y-7646255D01*
X-2163455Y-7646255D02*
X-1076335Y-7646255D01*
X-4444375Y-7641175D02*
X-3387735Y-7641175D01*
X-3275975Y-7641175D02*
X-3204855Y-7641175D01*
X-2346335Y-7641175D02*
X-2275215Y-7641175D01*
X-2163455Y-7641175D02*
X-1076335Y-7641175D01*
X-4444375Y-7636095D02*
X-3387735Y-7636095D01*
X-3275975Y-7636095D02*
X-3204855Y-7636095D01*
X-2346335Y-7636095D02*
X-2275215Y-7636095D01*
X-2163455Y-7636095D02*
X-1076335Y-7636095D01*
X-4444375Y-7631015D02*
X-3387735Y-7631015D01*
X-3275975Y-7631015D02*
X-3204855Y-7631015D01*
X-2346335Y-7631015D02*
X-2275215Y-7631015D01*
X-2163455Y-7631015D02*
X-1076335Y-7631015D01*
X-4444375Y-7625935D02*
X-3387735Y-7625935D01*
X-3275975Y-7625935D02*
X-3204855Y-7625935D01*
X-2346335Y-7625935D02*
X-2275215Y-7625935D01*
X-2163455Y-7625935D02*
X-1076335Y-7625935D01*
X-4444375Y-7620855D02*
X-3387735Y-7620855D01*
X-3275975Y-7620855D02*
X-3204855Y-7620855D01*
X-2346335Y-7620855D02*
X-2275215Y-7620855D01*
X-2163455Y-7620855D02*
X-1076335Y-7620855D01*
X-4444375Y-7615775D02*
X-3387735Y-7615775D01*
X-3275975Y-7615775D02*
X-3204855Y-7615775D01*
X-2346335Y-7615775D02*
X-2275215Y-7615775D01*
X-2163455Y-7615775D02*
X-1076335Y-7615775D01*
X-4444375Y-7610695D02*
X-3387735Y-7610695D01*
X-3275975Y-7610695D02*
X-3204855Y-7610695D01*
X-2346335Y-7610695D02*
X-2275215Y-7610695D01*
X-2163455Y-7610695D02*
X-1076335Y-7610695D01*
X-4444375Y-7605615D02*
X-3387735Y-7605615D01*
X-3275975Y-7605615D02*
X-3204855Y-7605615D01*
X-2346335Y-7605615D02*
X-2275215Y-7605615D01*
X-2163455Y-7605615D02*
X-1076335Y-7605615D01*
X-4444375Y-7600535D02*
X-3387735Y-7600535D01*
X-3275975Y-7600535D02*
X-3204855Y-7600535D01*
X-2346335Y-7600535D02*
X-2275215Y-7600535D01*
X-2163455Y-7600535D02*
X-1076335Y-7600535D01*
X-4444375Y-7595455D02*
X-3387735Y-7595455D01*
X-3275975Y-7595455D02*
X-3204855Y-7595455D01*
X-2346335Y-7595455D02*
X-2275215Y-7595455D01*
X-2163455Y-7595455D02*
X-1076335Y-7595455D01*
X-4444375Y-7590375D02*
X-3387735Y-7590375D01*
X-3275975Y-7590375D02*
X-3204855Y-7590375D01*
X-2346335Y-7590375D02*
X-2275215Y-7590375D01*
X-2163455Y-7590375D02*
X-1076335Y-7590375D01*
X-4444375Y-7585295D02*
X-3387735Y-7585295D01*
X-3275975Y-7585295D02*
X-3204855Y-7585295D01*
X-2346335Y-7585295D02*
X-2275215Y-7585295D01*
X-2163455Y-7585295D02*
X-1076335Y-7585295D01*
X-4444375Y-7580215D02*
X-3387735Y-7580215D01*
X-3275975Y-7580215D02*
X-3204855Y-7580215D01*
X-2346335Y-7580215D02*
X-2275215Y-7580215D01*
X-2163455Y-7580215D02*
X-1076335Y-7580215D01*
X-4444375Y-7575135D02*
X-3387735Y-7575135D01*
X-3275975Y-7575135D02*
X-3204855Y-7575135D01*
X-2346335Y-7575135D02*
X-2275215Y-7575135D01*
X-2163455Y-7575135D02*
X-1076335Y-7575135D01*
X-4444375Y-7570055D02*
X-3387735Y-7570055D01*
X-3275975Y-7570055D02*
X-3204855Y-7570055D01*
X-2346335Y-7570055D02*
X-2275215Y-7570055D01*
X-2163455Y-7570055D02*
X-1076335Y-7570055D01*
X-4444375Y-7564975D02*
X-3387735Y-7564975D01*
X-3275975Y-7564975D02*
X-3204855Y-7564975D01*
X-2346335Y-7564975D02*
X-2275215Y-7564975D01*
X-2163455Y-7564975D02*
X-1076335Y-7564975D01*
X-4444375Y-7559895D02*
X-3387735Y-7559895D01*
X-3275975Y-7559895D02*
X-3204855Y-7559895D01*
X-2346335Y-7559895D02*
X-2275215Y-7559895D01*
X-2163455Y-7559895D02*
X-1076335Y-7559895D01*
X-4444375Y-7554815D02*
X-3387735Y-7554815D01*
X-3275975Y-7554815D02*
X-3204855Y-7554815D01*
X-2346335Y-7554815D02*
X-2275215Y-7554815D01*
X-2163455Y-7554815D02*
X-1076335Y-7554815D01*
X-4444375Y-7549735D02*
X-3387735Y-7549735D01*
X-3275975Y-7549735D02*
X-3204855Y-7549735D01*
X-2346335Y-7549735D02*
X-2275215Y-7549735D01*
X-2163455Y-7549735D02*
X-1076335Y-7549735D01*
X-4444375Y-7544655D02*
X-3387735Y-7544655D01*
X-3275975Y-7544655D02*
X-3204855Y-7544655D01*
X-2346335Y-7544655D02*
X-2275215Y-7544655D01*
X-2163455Y-7544655D02*
X-1076335Y-7544655D01*
X-4444375Y-7539575D02*
X-3387735Y-7539575D01*
X-3275975Y-7539575D02*
X-3204855Y-7539575D01*
X-2346335Y-7539575D02*
X-2275215Y-7539575D01*
X-2163455Y-7539575D02*
X-1076335Y-7539575D01*
X-4444375Y-7534495D02*
X-3387735Y-7534495D01*
X-3275975Y-7534495D02*
X-3204855Y-7534495D01*
X-2346335Y-7534495D02*
X-2275215Y-7534495D01*
X-2163455Y-7534495D02*
X-1076335Y-7534495D01*
X-4444375Y-7529415D02*
X-3387735Y-7529415D01*
X-3275975Y-7529415D02*
X-3204855Y-7529415D01*
X-2346335Y-7529415D02*
X-2275215Y-7529415D01*
X-2163455Y-7529415D02*
X-1076335Y-7529415D01*
X-4444375Y-7524335D02*
X-3387735Y-7524335D01*
X-3275975Y-7524335D02*
X-3204855Y-7524335D01*
X-2346335Y-7524335D02*
X-2275215Y-7524335D01*
X-2163455Y-7524335D02*
X-1076335Y-7524335D01*
X-4444375Y-7519255D02*
X-3387735Y-7519255D01*
X-3275975Y-7519255D02*
X-3204855Y-7519255D01*
X-2346335Y-7519255D02*
X-2275215Y-7519255D01*
X-2163455Y-7519255D02*
X-1076335Y-7519255D01*
X-4444375Y-7514175D02*
X-3387735Y-7514175D01*
X-3275975Y-7514175D02*
X-3204855Y-7514175D01*
X-2346335Y-7514175D02*
X-2275215Y-7514175D01*
X-2163455Y-7514175D02*
X-1076335Y-7514175D01*
X-4444375Y-7509095D02*
X-3387735Y-7509095D01*
X-3275975Y-7509095D02*
X-3204855Y-7509095D01*
X-2346335Y-7509095D02*
X-2275215Y-7509095D01*
X-2163455Y-7509095D02*
X-1076335Y-7509095D01*
X-4444375Y-7504015D02*
X-3387735Y-7504015D01*
X-3275975Y-7504015D02*
X-3204855Y-7504015D01*
X-2346335Y-7504015D02*
X-2275215Y-7504015D01*
X-2163455Y-7504015D02*
X-1076335Y-7504015D01*
X-4444375Y-7498935D02*
X-3387735Y-7498935D01*
X-3275975Y-7498935D02*
X-3204855Y-7498935D01*
X-2346335Y-7498935D02*
X-2275215Y-7498935D01*
X-2163455Y-7498935D02*
X-1076335Y-7498935D01*
X-4444375Y-7493855D02*
X-3387735Y-7493855D01*
X-3275975Y-7493855D02*
X-3204855Y-7493855D01*
X-2346335Y-7493855D02*
X-2275215Y-7493855D01*
X-2163455Y-7493855D02*
X-1076335Y-7493855D01*
X-4444375Y-7488775D02*
X-3387735Y-7488775D01*
X-3275975Y-7488775D02*
X-3204855Y-7488775D01*
X-2346335Y-7488775D02*
X-2275215Y-7488775D01*
X-2163455Y-7488775D02*
X-1076335Y-7488775D01*
X-4444375Y-7483695D02*
X-3387735Y-7483695D01*
X-3275975Y-7483695D02*
X-3204855Y-7483695D01*
X-2346335Y-7483695D02*
X-2275215Y-7483695D01*
X-2163455Y-7483695D02*
X-1076335Y-7483695D01*
X-4444375Y-7478615D02*
X-3387735Y-7478615D01*
X-3275975Y-7478615D02*
X-3204855Y-7478615D01*
X-2346335Y-7478615D02*
X-2275215Y-7478615D01*
X-2163455Y-7478615D02*
X-1076335Y-7478615D01*
X-4444375Y-7473535D02*
X-3387735Y-7473535D01*
X-3275975Y-7473535D02*
X-3204855Y-7473535D01*
X-2346335Y-7473535D02*
X-2275215Y-7473535D01*
X-2163455Y-7473535D02*
X-1076335Y-7473535D01*
X-4444375Y-7468455D02*
X-3387735Y-7468455D01*
X-3275975Y-7468455D02*
X-3204855Y-7468455D01*
X-2346335Y-7468455D02*
X-2275215Y-7468455D01*
X-2163455Y-7468455D02*
X-1076335Y-7468455D01*
X-4444375Y-7463375D02*
X-3387735Y-7463375D01*
X-3275975Y-7463375D02*
X-3204855Y-7463375D01*
X-2346335Y-7463375D02*
X-2275215Y-7463375D01*
X-2163455Y-7463375D02*
X-1076335Y-7463375D01*
X-4444375Y-7458295D02*
X-3387735Y-7458295D01*
X-3275975Y-7458295D02*
X-3204855Y-7458295D01*
X-2346335Y-7458295D02*
X-2275215Y-7458295D01*
X-2163455Y-7458295D02*
X-1076335Y-7458295D01*
X-4444375Y-7453215D02*
X-3387735Y-7453215D01*
X-3275975Y-7453215D02*
X-3204855Y-7453215D01*
X-2346335Y-7453215D02*
X-2275215Y-7453215D01*
X-2163455Y-7453215D02*
X-1076335Y-7453215D01*
X-4444375Y-7448135D02*
X-3387735Y-7448135D01*
X-3275975Y-7448135D02*
X-3204855Y-7448135D01*
X-2346335Y-7448135D02*
X-2275215Y-7448135D01*
X-2163455Y-7448135D02*
X-1076335Y-7448135D01*
X-4444375Y-7443055D02*
X-3387735Y-7443055D01*
X-3275975Y-7443055D02*
X-3204855Y-7443055D01*
X-2346335Y-7443055D02*
X-2275215Y-7443055D01*
X-2163455Y-7443055D02*
X-1076335Y-7443055D01*
X-4444375Y-7437975D02*
X-3387735Y-7437975D01*
X-3275975Y-7437975D02*
X-3204855Y-7437975D01*
X-2346335Y-7437975D02*
X-2275215Y-7437975D01*
X-2163455Y-7437975D02*
X-1076335Y-7437975D01*
X-4444375Y-7432895D02*
X-3387735Y-7432895D01*
X-3275975Y-7432895D02*
X-3204855Y-7432895D01*
X-2346335Y-7432895D02*
X-2275215Y-7432895D01*
X-2163455Y-7432895D02*
X-1076335Y-7432895D01*
X-4444375Y-7427815D02*
X-3387735Y-7427815D01*
X-3275975Y-7427815D02*
X-3204855Y-7427815D01*
X-2346335Y-7427815D02*
X-2275215Y-7427815D01*
X-2163455Y-7427815D02*
X-1076335Y-7427815D01*
X-4444375Y-7422735D02*
X-3387735Y-7422735D01*
X-3275975Y-7422735D02*
X-3204855Y-7422735D01*
X-2346335Y-7422735D02*
X-2275215Y-7422735D01*
X-2163455Y-7422735D02*
X-1076335Y-7422735D01*
X-4444375Y-7417655D02*
X-3387735Y-7417655D01*
X-3275975Y-7417655D02*
X-3204855Y-7417655D01*
X-2346335Y-7417655D02*
X-2275215Y-7417655D01*
X-2163455Y-7417655D02*
X-1076335Y-7417655D01*
X-4444375Y-7412575D02*
X-3387735Y-7412575D01*
X-3275975Y-7412575D02*
X-3204855Y-7412575D01*
X-2346335Y-7412575D02*
X-2275215Y-7412575D01*
X-2163455Y-7412575D02*
X-1076335Y-7412575D01*
X-4444375Y-7407495D02*
X-3387735Y-7407495D01*
X-3275975Y-7407495D02*
X-3204855Y-7407495D01*
X-2346335Y-7407495D02*
X-2275215Y-7407495D01*
X-2163455Y-7407495D02*
X-1076335Y-7407495D01*
X-4444375Y-7402415D02*
X-3387735Y-7402415D01*
X-3275975Y-7402415D02*
X-3204855Y-7402415D01*
X-2346335Y-7402415D02*
X-2275215Y-7402415D01*
X-2163455Y-7402415D02*
X-1076335Y-7402415D01*
X-4444375Y-7397335D02*
X-3387735Y-7397335D01*
X-3275975Y-7397335D02*
X-3204855Y-7397335D01*
X-2346335Y-7397335D02*
X-2275215Y-7397335D01*
X-2163455Y-7397335D02*
X-1076335Y-7397335D01*
X-4444375Y-7392255D02*
X-3387735Y-7392255D01*
X-3275975Y-7392255D02*
X-3204855Y-7392255D01*
X-2346335Y-7392255D02*
X-2275215Y-7392255D01*
X-2163455Y-7392255D02*
X-1076335Y-7392255D01*
X-4444375Y-7387175D02*
X-3387735Y-7387175D01*
X-3275975Y-7387175D02*
X-3204855Y-7387175D01*
X-2346335Y-7387175D02*
X-2275215Y-7387175D01*
X-2163455Y-7387175D02*
X-1076335Y-7387175D01*
X-4444375Y-7382095D02*
X-3387735Y-7382095D01*
X-3275975Y-7382095D02*
X-3204855Y-7382095D01*
X-2346335Y-7382095D02*
X-2275215Y-7382095D01*
X-2163455Y-7382095D02*
X-1076335Y-7382095D01*
X-4444375Y-7377015D02*
X-3387735Y-7377015D01*
X-3275975Y-7377015D02*
X-3204855Y-7377015D01*
X-2346335Y-7377015D02*
X-2275215Y-7377015D01*
X-2163455Y-7377015D02*
X-1076335Y-7377015D01*
X-4444375Y-7371935D02*
X-3387735Y-7371935D01*
X-3275975Y-7371935D02*
X-3204855Y-7371935D01*
X-2346335Y-7371935D02*
X-2275215Y-7371935D01*
X-2163455Y-7371935D02*
X-1076335Y-7371935D01*
X-4444375Y-7366855D02*
X-3387735Y-7366855D01*
X-3275975Y-7366855D02*
X-3204855Y-7366855D01*
X-2346335Y-7366855D02*
X-2275215Y-7366855D01*
X-2163455Y-7366855D02*
X-1076335Y-7366855D01*
X-4444375Y-7361775D02*
X-3387735Y-7361775D01*
X-3275975Y-7361775D02*
X-3204855Y-7361775D01*
X-2346335Y-7361775D02*
X-2275215Y-7361775D01*
X-2163455Y-7361775D02*
X-1076335Y-7361775D01*
X-4444375Y-7356695D02*
X-3387735Y-7356695D01*
X-3275975Y-7356695D02*
X-3204855Y-7356695D01*
X-2346335Y-7356695D02*
X-2275215Y-7356695D01*
X-2163455Y-7356695D02*
X-1076335Y-7356695D01*
X-4444375Y-7351615D02*
X-3387735Y-7351615D01*
X-3275975Y-7351615D02*
X-3204855Y-7351615D01*
X-2346335Y-7351615D02*
X-2275215Y-7351615D01*
X-2163455Y-7351615D02*
X-1076335Y-7351615D01*
X-4444375Y-7346535D02*
X-3387735Y-7346535D01*
X-3275975Y-7346535D02*
X-3204855Y-7346535D01*
X-2346335Y-7346535D02*
X-2275215Y-7346535D01*
X-2163455Y-7346535D02*
X-1076335Y-7346535D01*
X-4444375Y-7341455D02*
X-3387735Y-7341455D01*
X-3275975Y-7341455D02*
X-3204855Y-7341455D01*
X-2346335Y-7341455D02*
X-2275215Y-7341455D01*
X-2163455Y-7341455D02*
X-1076335Y-7341455D01*
X-4444375Y-7336375D02*
X-3387735Y-7336375D01*
X-3275975Y-7336375D02*
X-3204855Y-7336375D01*
X-2346335Y-7336375D02*
X-2275215Y-7336375D01*
X-2163455Y-7336375D02*
X-1076335Y-7336375D01*
X-4444375Y-7331295D02*
X-3387735Y-7331295D01*
X-3275975Y-7331295D02*
X-3204855Y-7331295D01*
X-2346335Y-7331295D02*
X-2275215Y-7331295D01*
X-2163455Y-7331295D02*
X-1076335Y-7331295D01*
X-4444375Y-7326215D02*
X-3387735Y-7326215D01*
X-3275975Y-7326215D02*
X-3204855Y-7326215D01*
X-2346335Y-7326215D02*
X-2275215Y-7326215D01*
X-2163455Y-7326215D02*
X-1076335Y-7326215D01*
X-4444375Y-7321135D02*
X-3387735Y-7321135D01*
X-3275975Y-7321135D02*
X-3204855Y-7321135D01*
X-2346335Y-7321135D02*
X-2275215Y-7321135D01*
X-2163455Y-7321135D02*
X-1076335Y-7321135D01*
X-4444375Y-7316055D02*
X-3387735Y-7316055D01*
X-3275975Y-7316055D02*
X-3204855Y-7316055D01*
X-2346335Y-7316055D02*
X-2275215Y-7316055D01*
X-2163455Y-7316055D02*
X-1076335Y-7316055D01*
X-4444375Y-7310975D02*
X-3387735Y-7310975D01*
X-3275975Y-7310975D02*
X-3204855Y-7310975D01*
X-2346335Y-7310975D02*
X-2275215Y-7310975D01*
X-2163455Y-7310975D02*
X-1076335Y-7310975D01*
X-4444375Y-7305895D02*
X-3387735Y-7305895D01*
X-3275975Y-7305895D02*
X-3204855Y-7305895D01*
X-2346335Y-7305895D02*
X-2275215Y-7305895D01*
X-2163455Y-7305895D02*
X-1076335Y-7305895D01*
X-4444375Y-7300815D02*
X-3387735Y-7300815D01*
X-3275975Y-7300815D02*
X-3204855Y-7300815D01*
X-2346335Y-7300815D02*
X-2275215Y-7300815D01*
X-2163455Y-7300815D02*
X-1076335Y-7300815D01*
X-4444375Y-7295735D02*
X-3387735Y-7295735D01*
X-3275975Y-7295735D02*
X-3204855Y-7295735D01*
X-2346335Y-7295735D02*
X-2275215Y-7295735D01*
X-2163455Y-7295735D02*
X-1076335Y-7295735D01*
X-4444375Y-7290655D02*
X-3387735Y-7290655D01*
X-3275975Y-7290655D02*
X-3204855Y-7290655D01*
X-2346335Y-7290655D02*
X-2275215Y-7290655D01*
X-2163455Y-7290655D02*
X-1076335Y-7290655D01*
X-4444375Y-7285575D02*
X-3387735Y-7285575D01*
X-3275975Y-7285575D02*
X-3204855Y-7285575D01*
X-2346335Y-7285575D02*
X-2275215Y-7285575D01*
X-2163455Y-7285575D02*
X-1076335Y-7285575D01*
X-4444375Y-7280495D02*
X-3387735Y-7280495D01*
X-3275975Y-7280495D02*
X-3204855Y-7280495D01*
X-2346335Y-7280495D02*
X-2275215Y-7280495D01*
X-2163455Y-7280495D02*
X-1076335Y-7280495D01*
X-4444375Y-7275415D02*
X-3387735Y-7275415D01*
X-3275975Y-7275415D02*
X-3204855Y-7275415D01*
X-2346335Y-7275415D02*
X-2275215Y-7275415D01*
X-2163455Y-7275415D02*
X-1076335Y-7275415D01*
X-4444375Y-7270335D02*
X-3387735Y-7270335D01*
X-3275975Y-7270335D02*
X-3204855Y-7270335D01*
X-2346335Y-7270335D02*
X-2275215Y-7270335D01*
X-2163455Y-7270335D02*
X-1076335Y-7270335D01*
X-4444375Y-7265255D02*
X-3387735Y-7265255D01*
X-3275975Y-7265255D02*
X-3204855Y-7265255D01*
X-2346335Y-7265255D02*
X-2275215Y-7265255D01*
X-2163455Y-7265255D02*
X-1076335Y-7265255D01*
X-4444375Y-7260175D02*
X-3387735Y-7260175D01*
X-3275975Y-7260175D02*
X-3204855Y-7260175D01*
X-2346335Y-7260175D02*
X-2275215Y-7260175D01*
X-2163455Y-7260175D02*
X-1076335Y-7260175D01*
X-4444375Y-7255095D02*
X-3387735Y-7255095D01*
X-3275975Y-7255095D02*
X-3204855Y-7255095D01*
X-2346335Y-7255095D02*
X-2275215Y-7255095D01*
X-2163455Y-7255095D02*
X-1076335Y-7255095D01*
X-4444375Y-7250015D02*
X-3387735Y-7250015D01*
X-3275975Y-7250015D02*
X-3204855Y-7250015D01*
X-2346335Y-7250015D02*
X-2275215Y-7250015D01*
X-2163455Y-7250015D02*
X-1076335Y-7250015D01*
X-4444375Y-7244935D02*
X-3387735Y-7244935D01*
X-3275975Y-7244935D02*
X-3204855Y-7244935D01*
X-2346335Y-7244935D02*
X-2275215Y-7244935D01*
X-2163455Y-7244935D02*
X-1076335Y-7244935D01*
X-4444375Y-7239855D02*
X-3387735Y-7239855D01*
X-3275975Y-7239855D02*
X-3204855Y-7239855D01*
X-2346335Y-7239855D02*
X-2275215Y-7239855D01*
X-2163455Y-7239855D02*
X-1076335Y-7239855D01*
X-4444375Y-7234775D02*
X-3387735Y-7234775D01*
X-3275975Y-7234775D02*
X-3204855Y-7234775D01*
X-2346335Y-7234775D02*
X-2275215Y-7234775D01*
X-2163455Y-7234775D02*
X-1076335Y-7234775D01*
X-4444375Y-7229695D02*
X-3387735Y-7229695D01*
X-3275975Y-7229695D02*
X-3204855Y-7229695D01*
X-2346335Y-7229695D02*
X-2275215Y-7229695D01*
X-2163455Y-7229695D02*
X-1076335Y-7229695D01*
X-4444375Y-7224615D02*
X-3387735Y-7224615D01*
X-3275975Y-7224615D02*
X-3204855Y-7224615D01*
X-2346335Y-7224615D02*
X-2275215Y-7224615D01*
X-2163455Y-7224615D02*
X-1076335Y-7224615D01*
X-4444375Y-7219535D02*
X-3387735Y-7219535D01*
X-3275975Y-7219535D02*
X-3204855Y-7219535D01*
X-2346335Y-7219535D02*
X-2275215Y-7219535D01*
X-2163455Y-7219535D02*
X-1076335Y-7219535D01*
X-4444375Y-7214455D02*
X-3387735Y-7214455D01*
X-3275975Y-7214455D02*
X-3204855Y-7214455D01*
X-2346335Y-7214455D02*
X-2275215Y-7214455D01*
X-2163455Y-7214455D02*
X-1076335Y-7214455D01*
X-4444375Y-7209375D02*
X-3387735Y-7209375D01*
X-3275975Y-7209375D02*
X-3204855Y-7209375D01*
X-2346335Y-7209375D02*
X-2275215Y-7209375D01*
X-2163455Y-7209375D02*
X-1076335Y-7209375D01*
X-4444375Y-7204295D02*
X-3387735Y-7204295D01*
X-3275975Y-7204295D02*
X-3204855Y-7204295D01*
X-2346335Y-7204295D02*
X-2275215Y-7204295D01*
X-2163455Y-7204295D02*
X-1076335Y-7204295D01*
X-4444375Y-7199215D02*
X-3387735Y-7199215D01*
X-3275975Y-7199215D02*
X-3204855Y-7199215D01*
X-2346335Y-7199215D02*
X-2275215Y-7199215D01*
X-2163455Y-7199215D02*
X-1076335Y-7199215D01*
X-4444375Y-7194135D02*
X-3387735Y-7194135D01*
X-3275975Y-7194135D02*
X-3204855Y-7194135D01*
X-2346335Y-7194135D02*
X-2275215Y-7194135D01*
X-2163455Y-7194135D02*
X-1076335Y-7194135D01*
X-4444375Y-7189055D02*
X-3387735Y-7189055D01*
X-3275975Y-7189055D02*
X-3204855Y-7189055D01*
X-2346335Y-7189055D02*
X-2275215Y-7189055D01*
X-2163455Y-7189055D02*
X-1076335Y-7189055D01*
X-4444375Y-7183975D02*
X-3387735Y-7183975D01*
X-3275975Y-7183975D02*
X-3204855Y-7183975D01*
X-2346335Y-7183975D02*
X-2275215Y-7183975D01*
X-2163455Y-7183975D02*
X-1076335Y-7183975D01*
X-4444375Y-7178895D02*
X-3387735Y-7178895D01*
X-3275975Y-7178895D02*
X-3204855Y-7178895D01*
X-2346335Y-7178895D02*
X-2275215Y-7178895D01*
X-2163455Y-7178895D02*
X-1076335Y-7178895D01*
X-4444375Y-7173815D02*
X-3387735Y-7173815D01*
X-3275975Y-7173815D02*
X-3204855Y-7173815D01*
X-2346335Y-7173815D02*
X-2275215Y-7173815D01*
X-2163455Y-7173815D02*
X-1076335Y-7173815D01*
X-4444375Y-7168735D02*
X-3387735Y-7168735D01*
X-3275975Y-7168735D02*
X-3204855Y-7168735D01*
X-2346335Y-7168735D02*
X-2275215Y-7168735D01*
X-2163455Y-7168735D02*
X-1076335Y-7168735D01*
X-4444375Y-7163655D02*
X-3387735Y-7163655D01*
X-3275975Y-7163655D02*
X-3204855Y-7163655D01*
X-2346335Y-7163655D02*
X-2275215Y-7163655D01*
X-2163455Y-7163655D02*
X-1076335Y-7163655D01*
X-4444375Y-7158575D02*
X-3387735Y-7158575D01*
X-3275975Y-7158575D02*
X-3204855Y-7158575D01*
X-2346335Y-7158575D02*
X-2275215Y-7158575D01*
X-2163455Y-7158575D02*
X-1076335Y-7158575D01*
X-4444375Y-7153495D02*
X-3387735Y-7153495D01*
X-3275975Y-7153495D02*
X-3204855Y-7153495D01*
X-2346335Y-7153495D02*
X-2275215Y-7153495D01*
X-2163455Y-7153495D02*
X-1076335Y-7153495D01*
X-4444375Y-7148415D02*
X-3387735Y-7148415D01*
X-3275975Y-7148415D02*
X-3204855Y-7148415D01*
X-2346335Y-7148415D02*
X-2275215Y-7148415D01*
X-2163455Y-7148415D02*
X-1076335Y-7148415D01*
X-4444375Y-7143335D02*
X-3387735Y-7143335D01*
X-3275975Y-7143335D02*
X-3204855Y-7143335D01*
X-2346335Y-7143335D02*
X-2275215Y-7143335D01*
X-2163455Y-7143335D02*
X-1076335Y-7143335D01*
X-4444375Y-7138255D02*
X-3387735Y-7138255D01*
X-3275975Y-7138255D02*
X-3204855Y-7138255D01*
X-2346335Y-7138255D02*
X-2275215Y-7138255D01*
X-2163455Y-7138255D02*
X-1076335Y-7138255D01*
X-4444375Y-7133175D02*
X-3387735Y-7133175D01*
X-3275975Y-7133175D02*
X-3204855Y-7133175D01*
X-2346335Y-7133175D02*
X-2275215Y-7133175D01*
X-2163455Y-7133175D02*
X-1076335Y-7133175D01*
X-4444375Y-7128095D02*
X-3387735Y-7128095D01*
X-3275975Y-7128095D02*
X-3204855Y-7128095D01*
X-2346335Y-7128095D02*
X-2275215Y-7128095D01*
X-2163455Y-7128095D02*
X-1076335Y-7128095D01*
X-4444375Y-7123015D02*
X-3387735Y-7123015D01*
X-3275975Y-7123015D02*
X-3204855Y-7123015D01*
X-2346335Y-7123015D02*
X-2275215Y-7123015D01*
X-2163455Y-7123015D02*
X-1076335Y-7123015D01*
X-4444375Y-7117935D02*
X-3387735Y-7117935D01*
X-3275975Y-7117935D02*
X-3204855Y-7117935D01*
X-2346335Y-7117935D02*
X-2275215Y-7117935D01*
X-2163455Y-7117935D02*
X-1076335Y-7117935D01*
X-4444375Y-7112855D02*
X-3387735Y-7112855D01*
X-3275975Y-7112855D02*
X-3204855Y-7112855D01*
X-2346335Y-7112855D02*
X-2275215Y-7112855D01*
X-2163455Y-7112855D02*
X-1076335Y-7112855D01*
X-4444375Y-7107775D02*
X-3387735Y-7107775D01*
X-3275975Y-7107775D02*
X-3204855Y-7107775D01*
X-2346335Y-7107775D02*
X-2275215Y-7107775D01*
X-2163455Y-7107775D02*
X-1076335Y-7107775D01*
X-4444375Y-7102695D02*
X-3387735Y-7102695D01*
X-3275975Y-7102695D02*
X-3204855Y-7102695D01*
X-2346335Y-7102695D02*
X-2275215Y-7102695D01*
X-2163455Y-7102695D02*
X-1076335Y-7102695D01*
X-4444375Y-7097615D02*
X-3387735Y-7097615D01*
X-3275975Y-7097615D02*
X-3204855Y-7097615D01*
X-2346335Y-7097615D02*
X-2275215Y-7097615D01*
X-2163455Y-7097615D02*
X-1076335Y-7097615D01*
X-4444375Y-7092535D02*
X-3387735Y-7092535D01*
X-3275975Y-7092535D02*
X-3204855Y-7092535D01*
X-2346335Y-7092535D02*
X-2275215Y-7092535D01*
X-2163455Y-7092535D02*
X-1076335Y-7092535D01*
X-4444375Y-7087455D02*
X-3387735Y-7087455D01*
X-3275975Y-7087455D02*
X-3204855Y-7087455D01*
X-2346335Y-7087455D02*
X-2275215Y-7087455D01*
X-2163455Y-7087455D02*
X-1076335Y-7087455D01*
X-4444375Y-7082375D02*
X-3387735Y-7082375D01*
X-3275975Y-7082375D02*
X-3204855Y-7082375D01*
X-2346335Y-7082375D02*
X-2275215Y-7082375D01*
X-2163455Y-7082375D02*
X-1076335Y-7082375D01*
X-4444375Y-7077295D02*
X-3387735Y-7077295D01*
X-3275975Y-7077295D02*
X-3204855Y-7077295D01*
X-2346335Y-7077295D02*
X-2275215Y-7077295D01*
X-2163455Y-7077295D02*
X-1076335Y-7077295D01*
X-4444375Y-7072215D02*
X-3387735Y-7072215D01*
X-3275975Y-7072215D02*
X-3204855Y-7072215D01*
X-2346335Y-7072215D02*
X-2275215Y-7072215D01*
X-2163455Y-7072215D02*
X-1076335Y-7072215D01*
X-4444375Y-7067135D02*
X-3387735Y-7067135D01*
X-3275975Y-7067135D02*
X-3204855Y-7067135D01*
X-2346335Y-7067135D02*
X-2275215Y-7067135D01*
X-2163455Y-7067135D02*
X-1076335Y-7067135D01*
X-4444375Y-7062055D02*
X-3387735Y-7062055D01*
X-3275975Y-7062055D02*
X-3204855Y-7062055D01*
X-2346335Y-7062055D02*
X-2275215Y-7062055D01*
X-2163455Y-7062055D02*
X-1076335Y-7062055D01*
X-4444375Y-7056975D02*
X-3387735Y-7056975D01*
X-3275975Y-7056975D02*
X-3204855Y-7056975D01*
X-2346335Y-7056975D02*
X-2275215Y-7056975D01*
X-2163455Y-7056975D02*
X-1076335Y-7056975D01*
X-4444375Y-7051895D02*
X-3387735Y-7051895D01*
X-3275975Y-7051895D02*
X-3204855Y-7051895D01*
X-2346335Y-7051895D02*
X-2275215Y-7051895D01*
X-2163455Y-7051895D02*
X-1076335Y-7051895D01*
X-4444375Y-7046815D02*
X-3387735Y-7046815D01*
X-3275975Y-7046815D02*
X-3204855Y-7046815D01*
X-2346335Y-7046815D02*
X-2275215Y-7046815D01*
X-2163455Y-7046815D02*
X-1076335Y-7046815D01*
X-4444375Y-7041735D02*
X-3387735Y-7041735D01*
X-3275975Y-7041735D02*
X-3204855Y-7041735D01*
X-2346335Y-7041735D02*
X-2275215Y-7041735D01*
X-2163455Y-7041735D02*
X-1076335Y-7041735D01*
X-4444375Y-7036655D02*
X-3387735Y-7036655D01*
X-3275975Y-7036655D02*
X-3204855Y-7036655D01*
X-2346335Y-7036655D02*
X-2275215Y-7036655D01*
X-2163455Y-7036655D02*
X-1076335Y-7036655D01*
X-4444375Y-7031575D02*
X-3387735Y-7031575D01*
X-3275975Y-7031575D02*
X-3204855Y-7031575D01*
X-2346335Y-7031575D02*
X-2275215Y-7031575D01*
X-2163455Y-7031575D02*
X-1076335Y-7031575D01*
X-4444375Y-7026495D02*
X-3387735Y-7026495D01*
X-3275975Y-7026495D02*
X-3204855Y-7026495D01*
X-2346335Y-7026495D02*
X-2275215Y-7026495D01*
X-2163455Y-7026495D02*
X-1076335Y-7026495D01*
X-4444375Y-7021415D02*
X-3387735Y-7021415D01*
X-3275975Y-7021415D02*
X-3204855Y-7021415D01*
X-2346335Y-7021415D02*
X-2275215Y-7021415D01*
X-2163455Y-7021415D02*
X-1076335Y-7021415D01*
X-4444375Y-7016335D02*
X-3387735Y-7016335D01*
X-3275975Y-7016335D02*
X-3204855Y-7016335D01*
X-2346335Y-7016335D02*
X-2275215Y-7016335D01*
X-2163455Y-7016335D02*
X-1076335Y-7016335D01*
X-4444375Y-7011255D02*
X-3387735Y-7011255D01*
X-3275975Y-7011255D02*
X-3204855Y-7011255D01*
X-2346335Y-7011255D02*
X-2275215Y-7011255D01*
X-2163455Y-7011255D02*
X-1076335Y-7011255D01*
X-4444375Y-7006175D02*
X-3387735Y-7006175D01*
X-3275975Y-7006175D02*
X-3204855Y-7006175D01*
X-2346335Y-7006175D02*
X-2275215Y-7006175D01*
X-2163455Y-7006175D02*
X-1076335Y-7006175D01*
X-4444375Y-7001095D02*
X-3387735Y-7001095D01*
X-3275975Y-7001095D02*
X-3204855Y-7001095D01*
X-2346335Y-7001095D02*
X-2275215Y-7001095D01*
X-2163455Y-7001095D02*
X-1076335Y-7001095D01*
X-4444375Y-6996015D02*
X-3387735Y-6996015D01*
X-3275975Y-6996015D02*
X-3204855Y-6996015D01*
X-2346335Y-6996015D02*
X-2275215Y-6996015D01*
X-2163455Y-6996015D02*
X-1076335Y-6996015D01*
X-4444375Y-6990935D02*
X-3387735Y-6990935D01*
X-3275975Y-6990935D02*
X-3204855Y-6990935D01*
X-2346335Y-6990935D02*
X-2275215Y-6990935D01*
X-2163455Y-6990935D02*
X-1076335Y-6990935D01*
X-4444375Y-6985855D02*
X-3387735Y-6985855D01*
X-3275975Y-6985855D02*
X-3204855Y-6985855D01*
X-2346335Y-6985855D02*
X-2275215Y-6985855D01*
X-2163455Y-6985855D02*
X-1076335Y-6985855D01*
X-4444375Y-6980775D02*
X-3387735Y-6980775D01*
X-3275975Y-6980775D02*
X-3204855Y-6980775D01*
X-2346335Y-6980775D02*
X-2275215Y-6980775D01*
X-2163455Y-6980775D02*
X-1076335Y-6980775D01*
X-4444375Y-6975695D02*
X-3387735Y-6975695D01*
X-3275975Y-6975695D02*
X-3204855Y-6975695D01*
X-2346335Y-6975695D02*
X-2275215Y-6975695D01*
X-2163455Y-6975695D02*
X-1076335Y-6975695D01*
X-4444375Y-6970615D02*
X-3387735Y-6970615D01*
X-3275975Y-6970615D02*
X-3204855Y-6970615D01*
X-2346335Y-6970615D02*
X-2275215Y-6970615D01*
X-2163455Y-6970615D02*
X-1076335Y-6970615D01*
X-4444375Y-6965535D02*
X-3387735Y-6965535D01*
X-3275975Y-6965535D02*
X-3204855Y-6965535D01*
X-2346335Y-6965535D02*
X-2275215Y-6965535D01*
X-2163455Y-6965535D02*
X-1076335Y-6965535D01*
X-4444375Y-6960455D02*
X-3387735Y-6960455D01*
X-3275975Y-6960455D02*
X-3204855Y-6960455D01*
X-2346335Y-6960455D02*
X-2275215Y-6960455D01*
X-2163455Y-6960455D02*
X-1076335Y-6960455D01*
X-4444375Y-6955375D02*
X-3387735Y-6955375D01*
X-3275975Y-6955375D02*
X-3204855Y-6955375D01*
X-2346335Y-6955375D02*
X-2275215Y-6955375D01*
X-2163455Y-6955375D02*
X-1076335Y-6955375D01*
X-4444375Y-6950295D02*
X-3387735Y-6950295D01*
X-3275975Y-6950295D02*
X-3204855Y-6950295D01*
X-2346335Y-6950295D02*
X-2275215Y-6950295D01*
X-2163455Y-6950295D02*
X-1076335Y-6950295D01*
X-4444375Y-6945215D02*
X-3387735Y-6945215D01*
X-3275975Y-6945215D02*
X-3204855Y-6945215D01*
X-2346335Y-6945215D02*
X-2275215Y-6945215D01*
X-2163455Y-6945215D02*
X-1076335Y-6945215D01*
X-4444375Y-6940135D02*
X-3387735Y-6940135D01*
X-3275975Y-6940135D02*
X-3204855Y-6940135D01*
X-2346335Y-6940135D02*
X-2275215Y-6940135D01*
X-2163455Y-6940135D02*
X-1076335Y-6940135D01*
X-4444375Y-6935055D02*
X-3387735Y-6935055D01*
X-3275975Y-6935055D02*
X-3204855Y-6935055D01*
X-2346335Y-6935055D02*
X-2275215Y-6935055D01*
X-2163455Y-6935055D02*
X-1076335Y-6935055D01*
X-4444375Y-6929975D02*
X-3387735Y-6929975D01*
X-3275975Y-6929975D02*
X-3204855Y-6929975D01*
X-2346335Y-6929975D02*
X-2275215Y-6929975D01*
X-2163455Y-6929975D02*
X-1076335Y-6929975D01*
X-4444375Y-6924895D02*
X-3387735Y-6924895D01*
X-3275975Y-6924895D02*
X-3204855Y-6924895D01*
X-2346335Y-6924895D02*
X-2275215Y-6924895D01*
X-2163455Y-6924895D02*
X-1076335Y-6924895D01*
X-4444375Y-6919815D02*
X-3387735Y-6919815D01*
X-3275975Y-6919815D02*
X-3204855Y-6919815D01*
X-2346335Y-6919815D02*
X-2275215Y-6919815D01*
X-2163455Y-6919815D02*
X-1076335Y-6919815D01*
X-4444375Y-6914735D02*
X-3387735Y-6914735D01*
X-3275975Y-6914735D02*
X-3204855Y-6914735D01*
X-2346335Y-6914735D02*
X-2275215Y-6914735D01*
X-2163455Y-6914735D02*
X-1076335Y-6914735D01*
X-4444375Y-6909655D02*
X-3387735Y-6909655D01*
X-3275975Y-6909655D02*
X-3204855Y-6909655D01*
X-2346335Y-6909655D02*
X-2275215Y-6909655D01*
X-2163455Y-6909655D02*
X-1076335Y-6909655D01*
X-4444375Y-6904575D02*
X-3387735Y-6904575D01*
X-3275975Y-6904575D02*
X-3204855Y-6904575D01*
X-2346335Y-6904575D02*
X-2275215Y-6904575D01*
X-2163455Y-6904575D02*
X-1076335Y-6904575D01*
X-4444375Y-6899495D02*
X-3387735Y-6899495D01*
X-3275975Y-6899495D02*
X-3204855Y-6899495D01*
X-2346335Y-6899495D02*
X-2275215Y-6899495D01*
X-2163455Y-6899495D02*
X-1076335Y-6899495D01*
X-4444375Y-6894415D02*
X-3387735Y-6894415D01*
X-3275975Y-6894415D02*
X-3204855Y-6894415D01*
X-2346335Y-6894415D02*
X-2275215Y-6894415D01*
X-2163455Y-6894415D02*
X-1076335Y-6894415D01*
X-4444375Y-6889335D02*
X-3387735Y-6889335D01*
X-3275975Y-6889335D02*
X-3204855Y-6889335D01*
X-2346335Y-6889335D02*
X-2275215Y-6889335D01*
X-2163455Y-6889335D02*
X-1076335Y-6889335D01*
X-4444375Y-6884255D02*
X-3387735Y-6884255D01*
X-3275975Y-6884255D02*
X-3204855Y-6884255D01*
X-2346335Y-6884255D02*
X-2275215Y-6884255D01*
X-2163455Y-6884255D02*
X-1076335Y-6884255D01*
X-4444375Y-6879175D02*
X-3387735Y-6879175D01*
X-3275975Y-6879175D02*
X-3204855Y-6879175D01*
X-2346335Y-6879175D02*
X-2275215Y-6879175D01*
X-2163455Y-6879175D02*
X-1076335Y-6879175D01*
X-4444375Y-6874095D02*
X-3387735Y-6874095D01*
X-3275975Y-6874095D02*
X-3204855Y-6874095D01*
X-2346335Y-6874095D02*
X-2275215Y-6874095D01*
X-2163455Y-6874095D02*
X-1076335Y-6874095D01*
X-4444375Y-6869015D02*
X-3387735Y-6869015D01*
X-3275975Y-6869015D02*
X-3204855Y-6869015D01*
X-2346335Y-6869015D02*
X-2275215Y-6869015D01*
X-2163455Y-6869015D02*
X-1076335Y-6869015D01*
X-4444375Y-6863935D02*
X-3387735Y-6863935D01*
X-3275975Y-6863935D02*
X-3204855Y-6863935D01*
X-2346335Y-6863935D02*
X-2275215Y-6863935D01*
X-2163455Y-6863935D02*
X-1076335Y-6863935D01*
X-4444375Y-6858855D02*
X-3387735Y-6858855D01*
X-3275975Y-6858855D02*
X-3204855Y-6858855D01*
X-2346335Y-6858855D02*
X-2275215Y-6858855D01*
X-2163455Y-6858855D02*
X-1076335Y-6858855D01*
X-4444375Y-6853775D02*
X-3387735Y-6853775D01*
X-3275975Y-6853775D02*
X-3204855Y-6853775D01*
X-2346335Y-6853775D02*
X-2275215Y-6853775D01*
X-2163455Y-6853775D02*
X-1076335Y-6853775D01*
X-4444375Y-6848695D02*
X-3387735Y-6848695D01*
X-3275975Y-6848695D02*
X-3204855Y-6848695D01*
X-2346335Y-6848695D02*
X-2275215Y-6848695D01*
X-2163455Y-6848695D02*
X-1076335Y-6848695D01*
X-4444375Y-6843615D02*
X-3387735Y-6843615D01*
X-3275975Y-6843615D02*
X-3204855Y-6843615D01*
X-2346335Y-6843615D02*
X-2275215Y-6843615D01*
X-2163455Y-6843615D02*
X-1076335Y-6843615D01*
X-4444375Y-6838535D02*
X-3387735Y-6838535D01*
X-3275975Y-6838535D02*
X-3204855Y-6838535D01*
X-2346335Y-6838535D02*
X-2275215Y-6838535D01*
X-2163455Y-6838535D02*
X-1076335Y-6838535D01*
X-4444375Y-6833455D02*
X-3387735Y-6833455D01*
X-3275975Y-6833455D02*
X-3204855Y-6833455D01*
X-2346335Y-6833455D02*
X-2275215Y-6833455D01*
X-2163455Y-6833455D02*
X-1076335Y-6833455D01*
X-4444375Y-6828375D02*
X-3387735Y-6828375D01*
X-3275975Y-6828375D02*
X-3204855Y-6828375D01*
X-2346335Y-6828375D02*
X-2275215Y-6828375D01*
X-2163455Y-6828375D02*
X-1076335Y-6828375D01*
X-4444375Y-6823295D02*
X-3387735Y-6823295D01*
X-3275975Y-6823295D02*
X-3204855Y-6823295D01*
X-2346335Y-6823295D02*
X-2275215Y-6823295D01*
X-2163455Y-6823295D02*
X-1076335Y-6823295D01*
X-4444375Y-6818215D02*
X-3387735Y-6818215D01*
X-3275975Y-6818215D02*
X-3204855Y-6818215D01*
X-2346335Y-6818215D02*
X-2275215Y-6818215D01*
X-2163455Y-6818215D02*
X-1076335Y-6818215D01*
X-4444375Y-6813135D02*
X-3387735Y-6813135D01*
X-3275975Y-6813135D02*
X-3204855Y-6813135D01*
X-2346335Y-6813135D02*
X-2275215Y-6813135D01*
X-2163455Y-6813135D02*
X-1076335Y-6813135D01*
X-4444375Y-6808055D02*
X-3387735Y-6808055D01*
X-3275975Y-6808055D02*
X-3204855Y-6808055D01*
X-2346335Y-6808055D02*
X-2275215Y-6808055D01*
X-2163455Y-6808055D02*
X-1076335Y-6808055D01*
X-4444375Y-6802975D02*
X-3387735Y-6802975D01*
X-3275975Y-6802975D02*
X-3204855Y-6802975D01*
X-2346335Y-6802975D02*
X-2275215Y-6802975D01*
X-2163455Y-6802975D02*
X-1076335Y-6802975D01*
X-4444375Y-6797895D02*
X-3387735Y-6797895D01*
X-3275975Y-6797895D02*
X-3204855Y-6797895D01*
X-2346335Y-6797895D02*
X-2275215Y-6797895D01*
X-2163455Y-6797895D02*
X-1076335Y-6797895D01*
X-4444375Y-6792815D02*
X-3387735Y-6792815D01*
X-3275975Y-6792815D02*
X-3204855Y-6792815D01*
X-2346335Y-6792815D02*
X-2275215Y-6792815D01*
X-2163455Y-6792815D02*
X-1076335Y-6792815D01*
X-4444375Y-6787735D02*
X-3387735Y-6787735D01*
X-3275975Y-6787735D02*
X-3204855Y-6787735D01*
X-2346335Y-6787735D02*
X-2275215Y-6787735D01*
X-2163455Y-6787735D02*
X-1076335Y-6787735D01*
X-4444375Y-6782655D02*
X-3387735Y-6782655D01*
X-3275975Y-6782655D02*
X-3204855Y-6782655D01*
X-2346335Y-6782655D02*
X-2275215Y-6782655D01*
X-2163455Y-6782655D02*
X-1076335Y-6782655D01*
X-4444375Y-6777575D02*
X-3387735Y-6777575D01*
X-3275975Y-6777575D02*
X-3204855Y-6777575D01*
X-2346335Y-6777575D02*
X-2275215Y-6777575D01*
X-2163455Y-6777575D02*
X-1076335Y-6777575D01*
X-4444375Y-6772495D02*
X-3387735Y-6772495D01*
X-3275975Y-6772495D02*
X-3204855Y-6772495D01*
X-2346335Y-6772495D02*
X-2275215Y-6772495D01*
X-2163455Y-6772495D02*
X-1076335Y-6772495D01*
X-4444375Y-6767415D02*
X-3387735Y-6767415D01*
X-3275975Y-6767415D02*
X-3204855Y-6767415D01*
X-2346335Y-6767415D02*
X-2275215Y-6767415D01*
X-2163455Y-6767415D02*
X-1076335Y-6767415D01*
X-4444375Y-6762335D02*
X-3387735Y-6762335D01*
X-3275975Y-6762335D02*
X-3204855Y-6762335D01*
X-2346335Y-6762335D02*
X-2275215Y-6762335D01*
X-2163455Y-6762335D02*
X-1076335Y-6762335D01*
X-4444375Y-6757255D02*
X-3387735Y-6757255D01*
X-3275975Y-6757255D02*
X-3204855Y-6757255D01*
X-2346335Y-6757255D02*
X-2275215Y-6757255D01*
X-2163455Y-6757255D02*
X-1076335Y-6757255D01*
X-4444375Y-6752175D02*
X-3387735Y-6752175D01*
X-3275975Y-6752175D02*
X-3204855Y-6752175D01*
X-2346335Y-6752175D02*
X-2275215Y-6752175D01*
X-2163455Y-6752175D02*
X-1076335Y-6752175D01*
X-4444375Y-6747095D02*
X-3387735Y-6747095D01*
X-3275975Y-6747095D02*
X-3204855Y-6747095D01*
X-2346335Y-6747095D02*
X-2275215Y-6747095D01*
X-2163455Y-6747095D02*
X-1076335Y-6747095D01*
X-4444375Y-6742015D02*
X-3387735Y-6742015D01*
X-3275975Y-6742015D02*
X-3204855Y-6742015D01*
X-2346335Y-6742015D02*
X-2275215Y-6742015D01*
X-2163455Y-6742015D02*
X-1076335Y-6742015D01*
X-4444375Y-6736935D02*
X-3387735Y-6736935D01*
X-3275975Y-6736935D02*
X-3204855Y-6736935D01*
X-2346335Y-6736935D02*
X-2275215Y-6736935D01*
X-2163455Y-6736935D02*
X-1076335Y-6736935D01*
X-4444375Y-6731855D02*
X-3387735Y-6731855D01*
X-3275975Y-6731855D02*
X-3204855Y-6731855D01*
X-2346335Y-6731855D02*
X-2275215Y-6731855D01*
X-2163455Y-6731855D02*
X-1076335Y-6731855D01*
X-4444375Y-6726775D02*
X-3387735Y-6726775D01*
X-3275975Y-6726775D02*
X-3204855Y-6726775D01*
X-2346335Y-6726775D02*
X-2275215Y-6726775D01*
X-2163455Y-6726775D02*
X-1076335Y-6726775D01*
X-4444375Y-6721695D02*
X-3387735Y-6721695D01*
X-3275975Y-6721695D02*
X-3204855Y-6721695D01*
X-2346335Y-6721695D02*
X-2275215Y-6721695D01*
X-2163455Y-6721695D02*
X-1076335Y-6721695D01*
X-4444375Y-6716615D02*
X-3387735Y-6716615D01*
X-3275975Y-6716615D02*
X-3204855Y-6716615D01*
X-2346335Y-6716615D02*
X-2275215Y-6716615D01*
X-2163455Y-6716615D02*
X-1076335Y-6716615D01*
X-4444375Y-6711535D02*
X-3387735Y-6711535D01*
X-3275975Y-6711535D02*
X-3204855Y-6711535D01*
X-2346335Y-6711535D02*
X-2275215Y-6711535D01*
X-2163455Y-6711535D02*
X-1076335Y-6711535D01*
X-4444375Y-6706455D02*
X-3387735Y-6706455D01*
X-3275975Y-6706455D02*
X-3204855Y-6706455D01*
X-2346335Y-6706455D02*
X-2275215Y-6706455D01*
X-2163455Y-6706455D02*
X-1076335Y-6706455D01*
X-4444375Y-6701375D02*
X-3387735Y-6701375D01*
X-3275975Y-6701375D02*
X-3204855Y-6701375D01*
X-2346335Y-6701375D02*
X-2275215Y-6701375D01*
X-2163455Y-6701375D02*
X-1076335Y-6701375D01*
X-4444375Y-6696295D02*
X-3387735Y-6696295D01*
X-3275975Y-6696295D02*
X-3204855Y-6696295D01*
X-2346335Y-6696295D02*
X-2275215Y-6696295D01*
X-2163455Y-6696295D02*
X-1076335Y-6696295D01*
X-4444375Y-6691215D02*
X-3387735Y-6691215D01*
X-3275975Y-6691215D02*
X-3204855Y-6691215D01*
X-2346335Y-6691215D02*
X-2275215Y-6691215D01*
X-2163455Y-6691215D02*
X-1076335Y-6691215D01*
X-4444375Y-6686135D02*
X-3387735Y-6686135D01*
X-3275975Y-6686135D02*
X-3204855Y-6686135D01*
X-2346335Y-6686135D02*
X-2275215Y-6686135D01*
X-2163455Y-6686135D02*
X-1076335Y-6686135D01*
X-4444375Y-6681055D02*
X-3387735Y-6681055D01*
X-3275975Y-6681055D02*
X-3204855Y-6681055D01*
X-2346335Y-6681055D02*
X-2275215Y-6681055D01*
X-2163455Y-6681055D02*
X-1076335Y-6681055D01*
X-4444375Y-6675975D02*
X-3387735Y-6675975D01*
X-3275975Y-6675975D02*
X-3204855Y-6675975D01*
X-2346335Y-6675975D02*
X-2275215Y-6675975D01*
X-2163455Y-6675975D02*
X-1076335Y-6675975D01*
X-4444375Y-6670895D02*
X-3387735Y-6670895D01*
X-3275975Y-6670895D02*
X-3204855Y-6670895D01*
X-2346335Y-6670895D02*
X-2275215Y-6670895D01*
X-2163455Y-6670895D02*
X-1076335Y-6670895D01*
X-4444375Y-6665815D02*
X-3387735Y-6665815D01*
X-3275975Y-6665815D02*
X-3204855Y-6665815D01*
X-2346335Y-6665815D02*
X-2275215Y-6665815D01*
X-2163455Y-6665815D02*
X-1076335Y-6665815D01*
X-4444375Y-6660735D02*
X-3387735Y-6660735D01*
X-3275975Y-6660735D02*
X-3204855Y-6660735D01*
X-2346335Y-6660735D02*
X-2275215Y-6660735D01*
X-2163455Y-6660735D02*
X-1076335Y-6660735D01*
X-4444375Y-6655655D02*
X-3387735Y-6655655D01*
X-3275975Y-6655655D02*
X-3204855Y-6655655D01*
X-2346335Y-6655655D02*
X-2275215Y-6655655D01*
X-2163455Y-6655655D02*
X-1076335Y-6655655D01*
X-4444375Y-6650575D02*
X-3387735Y-6650575D01*
X-3275975Y-6650575D02*
X-3204855Y-6650575D01*
X-2346335Y-6650575D02*
X-2275215Y-6650575D01*
X-2163455Y-6650575D02*
X-1076335Y-6650575D01*
X-4444375Y-6645495D02*
X-3387735Y-6645495D01*
X-3275975Y-6645495D02*
X-3204855Y-6645495D01*
X-2346335Y-6645495D02*
X-2275215Y-6645495D01*
X-2163455Y-6645495D02*
X-1076335Y-6645495D01*
X-4444375Y-6640415D02*
X-3387735Y-6640415D01*
X-3275975Y-6640415D02*
X-3199775Y-6640415D01*
X-2351415Y-6640415D02*
X-2275215Y-6640415D01*
X-2163455Y-6640415D02*
X-1076335Y-6640415D01*
X-4444375Y-6635335D02*
X-3387735Y-6635335D01*
X-3275975Y-6635335D02*
X-3194695Y-6635335D01*
X-2356495Y-6635335D02*
X-2275215Y-6635335D01*
X-2163455Y-6635335D02*
X-1076335Y-6635335D01*
X-4444375Y-6630255D02*
X-3387735Y-6630255D01*
X-3275975Y-6630255D02*
X-3189615Y-6630255D01*
X-2361575Y-6630255D02*
X-2275215Y-6630255D01*
X-2163455Y-6630255D02*
X-1076335Y-6630255D01*
X-4444375Y-6625175D02*
X-3387735Y-6625175D01*
X-3275975Y-6625175D02*
X-3184535Y-6625175D01*
X-2371735Y-6625175D02*
X-2275215Y-6625175D01*
X-2163455Y-6625175D02*
X-1076335Y-6625175D01*
X-4444375Y-6620095D02*
X-3387735Y-6620095D01*
X-3275975Y-6620095D02*
X-3179455Y-6620095D01*
X-2371735Y-6620095D02*
X-2275215Y-6620095D01*
X-2163455Y-6620095D02*
X-1076335Y-6620095D01*
X-4444375Y-6615015D02*
X-3387735Y-6615015D01*
X-3275975Y-6615015D02*
X-2275215Y-6615015D01*
X-2163455Y-6615015D02*
X-1076335Y-6615015D01*
X-4444375Y-6609935D02*
X-3387735Y-6609935D01*
X-3275975Y-6609935D02*
X-2275215Y-6609935D01*
X-2163455Y-6609935D02*
X-1076335Y-6609935D01*
X-4444375Y-6604855D02*
X-3387735Y-6604855D01*
X-3275975Y-6604855D02*
X-2275215Y-6604855D01*
X-2163455Y-6604855D02*
X-1076335Y-6604855D01*
X-4444375Y-6599775D02*
X-3387735Y-6599775D01*
X-3275975Y-6599775D02*
X-2275215Y-6599775D01*
X-2163455Y-6599775D02*
X-1076335Y-6599775D01*
X-4444375Y-6594695D02*
X-3387735Y-6594695D01*
X-3275975Y-6594695D02*
X-2275215Y-6594695D01*
X-2163455Y-6594695D02*
X-1076335Y-6594695D01*
X-4444375Y-6589615D02*
X-3387735Y-6589615D01*
X-3275975Y-6589615D02*
X-2275215Y-6589615D01*
X-2163455Y-6589615D02*
X-1076335Y-6589615D01*
X-4444375Y-6584535D02*
X-3387735Y-6584535D01*
X-3275975Y-6584535D02*
X-2275215Y-6584535D01*
X-2163455Y-6584535D02*
X-1076335Y-6584535D01*
X-4444375Y-6579455D02*
X-3387735Y-6579455D01*
X-3270895Y-6579455D02*
X-2280295Y-6579455D01*
X-2163455Y-6579455D02*
X-1076335Y-6579455D01*
X-4444375Y-6574375D02*
X-3387735Y-6574375D01*
X-3265815Y-6574375D02*
X-2285375Y-6574375D01*
X-2163455Y-6574375D02*
X-1076335Y-6574375D01*
X-4444375Y-6569295D02*
X-3387735Y-6569295D01*
X-3265815Y-6569295D02*
X-2285375Y-6569295D01*
X-2163455Y-6569295D02*
X-1076335Y-6569295D01*
X-4444375Y-6564215D02*
X-3387735Y-6564215D01*
X-3265815Y-6564215D02*
X-2285375Y-6564215D01*
X-2163455Y-6564215D02*
X-1076335Y-6564215D01*
X-4444375Y-6559135D02*
X-3387735Y-6559135D01*
X-3260735Y-6559135D02*
X-2290455Y-6559135D01*
X-2163455Y-6559135D02*
X-1076335Y-6559135D01*
X-4444375Y-6554055D02*
X-3387735Y-6554055D01*
X-3255655Y-6554055D02*
X-2295535Y-6554055D01*
X-2163455Y-6554055D02*
X-1076335Y-6554055D01*
X-4444375Y-6548975D02*
X-3387735Y-6548975D01*
X-3250575Y-6548975D02*
X-2300615Y-6548975D01*
X-2163455Y-6548975D02*
X-1076335Y-6548975D01*
X-4444375Y-6543895D02*
X-3387735Y-6543895D01*
X-3245495Y-6543895D02*
X-2305695Y-6543895D01*
X-2163455Y-6543895D02*
X-1076335Y-6543895D01*
X-4444375Y-6538815D02*
X-3387735Y-6538815D01*
X-3240415Y-6538815D02*
X-2310775Y-6538815D01*
X-2163455Y-6538815D02*
X-1076335Y-6538815D01*
X-4444375Y-6533735D02*
X-3387735Y-6533735D01*
X-3209935Y-6533735D02*
X-2341255Y-6533735D01*
X-2163455Y-6533735D02*
X-1076335Y-6533735D01*
X-4444375Y-6528655D02*
X-3387735Y-6528655D01*
X-3209935Y-6528655D02*
X-2341255Y-6528655D01*
X-2163455Y-6528655D02*
X-1076335Y-6528655D01*
X-4444375Y-6523575D02*
X-3387735Y-6523575D01*
X-2163455Y-6523575D02*
X-1076335Y-6523575D01*
X-4444375Y-6518495D02*
X-3387735Y-6518495D01*
X-2163455Y-6518495D02*
X-1076335Y-6518495D01*
X-4444375Y-6513415D02*
X-3387735Y-6513415D01*
X-2163455Y-6513415D02*
X-1076335Y-6513415D01*
X-4444375Y-6508335D02*
X-3387735Y-6508335D01*
X-2163455Y-6508335D02*
X-1076335Y-6508335D01*
X-4444375Y-6503255D02*
X-3387735Y-6503255D01*
X-2163455Y-6503255D02*
X-1076335Y-6503255D01*
X-4444375Y-6498175D02*
X-3387735Y-6498175D01*
X-2163455Y-6498175D02*
X-1076335Y-6498175D01*
X-4444375Y-6493095D02*
X-3387735Y-6493095D01*
X-2163455Y-6493095D02*
X-1076335Y-6493095D01*
X-4444375Y-6488015D02*
X-3387735Y-6488015D01*
X-2163455Y-6488015D02*
X-1076335Y-6488015D01*
X-4444375Y-6482935D02*
X-3387735Y-6482935D01*
X-2163455Y-6482935D02*
X-1076335Y-6482935D01*
X-4444375Y-6477855D02*
X-3377575Y-6477855D01*
X-2173615Y-6477855D02*
X-1076335Y-6477855D01*
X-4444375Y-6472775D02*
X-3377575Y-6472775D01*
X-2173615Y-6472775D02*
X-1076335Y-6472775D01*
X-4444375Y-6467695D02*
X-3377575Y-6467695D01*
X-2173615Y-6467695D02*
X-1076335Y-6467695D01*
X-4444375Y-6462615D02*
X-3377575Y-6462615D01*
X-2173615Y-6462615D02*
X-1076335Y-6462615D01*
X-4444375Y-6457535D02*
X-3377575Y-6457535D01*
X-2173615Y-6457535D02*
X-1076335Y-6457535D01*
X-4444375Y-6452455D02*
X-3377575Y-6452455D01*
X-2173615Y-6452455D02*
X-1076335Y-6452455D01*
X-4444375Y-6447375D02*
X-3372495Y-6447375D01*
X-2178695Y-6447375D02*
X-1076335Y-6447375D01*
X-4444375Y-6442295D02*
X-3367415Y-6442295D01*
X-2183775Y-6442295D02*
X-1076335Y-6442295D01*
X-4444375Y-6437215D02*
X-3362335Y-6437215D01*
X-2188855Y-6437215D02*
X-1076335Y-6437215D01*
X-4444375Y-6432135D02*
X-3357255Y-6432135D01*
X-2193935Y-6432135D02*
X-1076335Y-6432135D01*
X-4444375Y-6427055D02*
X-3352175Y-6427055D01*
X-2199015Y-6427055D02*
X-1076335Y-6427055D01*
X-4444375Y-6421975D02*
X-3347095Y-6421975D01*
X-2204095Y-6421975D02*
X-1076335Y-6421975D01*
X-4444375Y-6416895D02*
X-3342015Y-6416895D01*
X-2209175Y-6416895D02*
X-1076335Y-6416895D01*
X-4444375Y-6411815D02*
X-3336935Y-6411815D01*
X-2214255Y-6411815D02*
X-1076335Y-6411815D01*
X-4444375Y-6406735D02*
X-3331855Y-6406735D01*
X-2219335Y-6406735D02*
X-1076335Y-6406735D01*
X-4444375Y-6401655D02*
X-3311535Y-6401655D01*
X-2239655Y-6401655D02*
X-1076335Y-6401655D01*
X-4444375Y-6396575D02*
X-3311535Y-6396575D01*
X-2239655Y-6396575D02*
X-1076335Y-6396575D01*
X-4444375Y-6391495D02*
X-1076335Y-6391495D01*
X-4444375Y-6386415D02*
X-1076335Y-6386415D01*
X-4444375Y-6381335D02*
X-1076335Y-6381335D01*
X-4444375Y-6376255D02*
X-1076335Y-6376255D01*
X-4444375Y-6371175D02*
X-1076335Y-6371175D01*
X-4444375Y-6366095D02*
X-1076335Y-6366095D01*
X-4444375Y-6361015D02*
X-1076335Y-6361015D01*
X-4444375Y-6355935D02*
X-1076335Y-6355935D01*
X-4444375Y-6350855D02*
X-1076335Y-6350855D01*
X-4444375Y-6345775D02*
X-1076335Y-6345775D01*
X-4444375Y-6340695D02*
X-1076335Y-6340695D01*
X-4571375Y-6335615D02*
X-4535815Y-6335615D01*
X-4444375Y-6335615D02*
X-1076335Y-6335615D01*
X-984895Y-6335615D02*
X-944255Y-6335615D01*
X-4576455Y-6330535D02*
X-4530735Y-6330535D01*
X-4444375Y-6330535D02*
X-1076335Y-6330535D01*
X-989975Y-6330535D02*
X-939175Y-6330535D01*
X-4606935Y-6325455D02*
X-4490095Y-6325455D01*
X-4444375Y-6325455D02*
X-1076335Y-6325455D01*
X-1015375Y-6325455D02*
X-913775Y-6325455D01*
X-4612015Y-6320375D02*
X-4490095Y-6320375D01*
X-4444375Y-6320375D02*
X-1076335Y-6320375D01*
X-1020455Y-6320375D02*
X-908695Y-6320375D01*
X-4627255Y-6315295D02*
X-4479935Y-6315295D01*
X-4444375Y-6315295D02*
X-1076335Y-6315295D01*
X-1040775Y-6315295D02*
X-888375Y-6315295D01*
X-4632335Y-6310215D02*
X-4479935Y-6310215D01*
X-4444375Y-6310215D02*
X-1076335Y-6310215D01*
X-1040775Y-6310215D02*
X-888375Y-6310215D01*
X-4637415Y-6305135D02*
X-4469775Y-6305135D01*
X-4444375Y-6305135D02*
X-1076335Y-6305135D01*
X-1050935Y-6305135D02*
X-878215Y-6305135D01*
X-4642495Y-6300055D02*
X-4464695Y-6300055D01*
X-4444375Y-6300055D02*
X-1076335Y-6300055D01*
X-1050935Y-6300055D02*
X-878215Y-6300055D01*
X-4647575Y-6294975D02*
X-1076335Y-6294975D01*
X-1061095Y-6294975D02*
X-868055Y-6294975D01*
X-4652655Y-6289895D02*
X-1076335Y-6289895D01*
X-1061095Y-6289895D02*
X-868055Y-6289895D01*
X-4657735Y-6284815D02*
X-857895Y-6284815D01*
X-4662815Y-6279735D02*
X-857895Y-6279735D01*
X-4667895Y-6274655D02*
X-847735Y-6274655D01*
X-4672975Y-6269575D02*
X-847735Y-6269575D01*
X-4678055Y-6264495D02*
X-837575Y-6264495D01*
X-4683135Y-6259415D02*
X-837575Y-6259415D01*
X-4688215Y-6254335D02*
X-837575Y-6254335D01*
X-4693295Y-6249255D02*
X-837575Y-6249255D01*
X-4698375Y-6244175D02*
X-827415Y-6244175D01*
X-4713615Y-6239095D02*
X-822335Y-6239095D01*
X-4718695Y-6234015D02*
X-822335Y-6234015D01*
X-4728855Y-6228935D02*
X-812175Y-6228935D01*
X-4728855Y-6223855D02*
X-812175Y-6223855D01*
X-4739015Y-6218775D02*
X-802015Y-6218775D01*
X-4739015Y-6213695D02*
X-802015Y-6213695D01*
X-4749175Y-6208615D02*
X-791855Y-6208615D01*
X-4749175Y-6203535D02*
X-791855Y-6203535D01*
X-4759335Y-6198455D02*
X-781695Y-6198455D01*
X-4759335Y-6193375D02*
X-2610495Y-6193375D01*
X-2600335Y-6193375D02*
X-781695Y-6193375D01*
X-4769495Y-6188295D02*
X-2615575Y-6188295D01*
X-2600335Y-6188295D02*
X-771535Y-6188295D01*
X-4769495Y-6183215D02*
X-2950855Y-6183215D01*
X-2930535Y-6183215D02*
X-2620655Y-6183215D01*
X-2590175Y-6183215D02*
X-771535Y-6183215D01*
X-4779655Y-6178135D02*
X-2950855Y-6178135D01*
X-2925455Y-6178135D02*
X-2625735Y-6178135D01*
X-2590175Y-6178135D02*
X-761375Y-6178135D01*
X-4779655Y-6173055D02*
X-2961015Y-6173055D01*
X-2920375Y-6173055D02*
X-2640975Y-6173055D01*
X-2580015Y-6173055D02*
X-761375Y-6173055D01*
X-4779655Y-6167975D02*
X-2961015Y-6167975D01*
X-2915295Y-6167975D02*
X-2646055Y-6167975D01*
X-2574935Y-6167975D02*
X-761375Y-6167975D01*
X-4779655Y-6162895D02*
X-2971175Y-6162895D01*
X-2900055Y-6162895D02*
X-2661295Y-6162895D01*
X-2569855Y-6162895D02*
X-756295Y-6162895D01*
X-4789815Y-6157815D02*
X-2976255Y-6157815D01*
X-2894975Y-6157815D02*
X-2666375Y-6157815D01*
X-2564775Y-6157815D02*
X-751215Y-6157815D01*
X-4789815Y-6152735D02*
X-2976255Y-6152735D01*
X-2879735Y-6152735D02*
X-2681615Y-6152735D01*
X-2564775Y-6152735D02*
X-751215Y-6152735D01*
X-4789815Y-6147655D02*
X-2986415Y-6147655D01*
X-2874655Y-6147655D02*
X-2691775Y-6147655D01*
X-2554615Y-6147655D02*
X-751215Y-6147655D01*
X-4789815Y-6142575D02*
X-2986415Y-6142575D01*
X-2869575Y-6142575D02*
X-2691775Y-6142575D01*
X-2554615Y-6142575D02*
X-751215Y-6142575D01*
X-4789815Y-6137495D02*
X-2996575Y-6137495D01*
X-2839095Y-6137495D02*
X-2722255Y-6137495D01*
X-2544455Y-6137495D02*
X-751215Y-6137495D01*
X-4789815Y-6132415D02*
X-2996575Y-6132415D01*
X-2839095Y-6132415D02*
X-2727335Y-6132415D01*
X-2544455Y-6132415D02*
X-751215Y-6132415D01*
X-4789815Y-6127335D02*
X-3006735Y-6127335D01*
X-2534295Y-6127335D02*
X-751215Y-6127335D01*
X-4789815Y-6122255D02*
X-3006735Y-6122255D01*
X-2534295Y-6122255D02*
X-751215Y-6122255D01*
X-4789815Y-6117175D02*
X-3016895Y-6117175D01*
X-2524135Y-6117175D02*
X-751215Y-6117175D01*
X-4789815Y-6112095D02*
X-3016895Y-6112095D01*
X-2519055Y-6112095D02*
X-751215Y-6112095D01*
X-4789815Y-6107015D02*
X-3027055Y-6107015D01*
X-2513975Y-6107015D02*
X-751215Y-6107015D01*
X-4789815Y-6101935D02*
X-3027055Y-6101935D01*
X-2508895Y-6101935D02*
X-751215Y-6101935D01*
X-4784735Y-6096855D02*
X-3037215Y-6096855D01*
X-2508895Y-6096855D02*
X-756295Y-6096855D01*
X-4779655Y-6091775D02*
X-3042295Y-6091775D01*
X-2508895Y-6091775D02*
X-761375Y-6091775D01*
X-4779655Y-6086695D02*
X-3042295Y-6086695D01*
X-2513975Y-6086695D02*
X-761375Y-6086695D01*
X-4779655Y-6081615D02*
X-3042295Y-6081615D01*
X-2519055Y-6081615D02*
X-761375Y-6081615D01*
X-4774575Y-6076535D02*
X-3037215Y-6076535D01*
X-2524135Y-6076535D02*
X-766455Y-6076535D01*
X-4769495Y-6071455D02*
X-3021975Y-6071455D01*
X-2529215Y-6071455D02*
X-771535Y-6071455D01*
X-4764415Y-6066375D02*
X-3016895Y-6066375D01*
X-2534295Y-6066375D02*
X-776615Y-6066375D01*
X-4759335Y-6061295D02*
X-3011815Y-6061295D01*
X-2544455Y-6061295D02*
X-781695Y-6061295D01*
X-4754255Y-6056215D02*
X-3006735Y-6056215D01*
X-2544455Y-6056215D02*
X-786775Y-6056215D01*
X-4749175Y-6051135D02*
X-3001655Y-6051135D01*
X-2564775Y-6051135D02*
X-791855Y-6051135D01*
X-4744095Y-6046055D02*
X-2996575Y-6046055D01*
X-2564775Y-6046055D02*
X-796935Y-6046055D01*
X-4739015Y-6040975D02*
X-2991495Y-6040975D01*
X-2574935Y-6040975D02*
X-802015Y-6040975D01*
X-4733935Y-6035895D02*
X-2976255Y-6035895D01*
X-2574935Y-6035895D02*
X-807095Y-6035895D01*
X-4728855Y-6030815D02*
X-2971175Y-6030815D01*
X-2580015Y-6030815D02*
X-812175Y-6030815D01*
X-4723775Y-6025735D02*
X-2950855Y-6025735D01*
X-2600335Y-6025735D02*
X-817255Y-6025735D01*
X-4718695Y-6020655D02*
X-2950855Y-6020655D01*
X-2605415Y-6020655D02*
X-822335Y-6020655D01*
X-4713615Y-6015575D02*
X-2930535Y-6015575D01*
X-2630815Y-6015575D02*
X-827415Y-6015575D01*
X-4708535Y-6010495D02*
X-2925455Y-6010495D01*
X-2635895Y-6010495D02*
X-832495Y-6010495D01*
X-4703455Y-6005415D02*
X-2900055Y-6005415D01*
X-2651135Y-6005415D02*
X-837575Y-6005415D01*
X-4693295Y-6000335D02*
X-2894975Y-6000335D01*
X-2656215Y-6000335D02*
X-842655Y-6000335D01*
X-4693295Y-5995255D02*
X-2854335Y-5995255D01*
X-2696855Y-5995255D02*
X-847735Y-5995255D01*
X-4683135Y-5990175D02*
X-2854335Y-5990175D01*
X-2696855Y-5990175D02*
X-852815Y-5990175D01*
X-4683135Y-5985095D02*
X-857895Y-5985095D01*
X-4672975Y-5980015D02*
X-2402215Y-5980015D01*
X-2397135Y-5980015D02*
X-862975Y-5980015D01*
X-4672975Y-5974935D02*
X-2407295Y-5974935D01*
X-2392055Y-5974935D02*
X-868055Y-5974935D01*
X-4652655Y-5969855D02*
X-3154055Y-5969855D01*
X-3148975Y-5969855D02*
X-2412375Y-5969855D01*
X-2386975Y-5969855D02*
X-873135Y-5969855D01*
X-4652655Y-5964775D02*
X-3159135Y-5964775D01*
X-3143895Y-5964775D02*
X-2417455Y-5964775D01*
X-2381895Y-5964775D02*
X-878215Y-5964775D01*
X-4642495Y-5959695D02*
X-3164215Y-5959695D01*
X-3128655Y-5959695D02*
X-2422535Y-5959695D01*
X-2376815Y-5959695D02*
X-883295Y-5959695D01*
X-4637415Y-5954615D02*
X-3169295Y-5954615D01*
X-3123575Y-5954615D02*
X-2427615Y-5954615D01*
X-2371735Y-5954615D02*
X-888375Y-5954615D01*
X-4637415Y-5949535D02*
X-3174375Y-5949535D01*
X-3118495Y-5949535D02*
X-2432695Y-5949535D01*
X-2366655Y-5949535D02*
X-903615Y-5949535D01*
X-4627255Y-5944455D02*
X-3179455Y-5944455D01*
X-3113415Y-5944455D02*
X-2437775Y-5944455D01*
X-2361575Y-5944455D02*
X-913775Y-5944455D01*
X-4627255Y-5939375D02*
X-3184535Y-5939375D01*
X-3108335Y-5939375D02*
X-2442855Y-5939375D01*
X-2356495Y-5939375D02*
X-913775Y-5939375D01*
X-4617095Y-5934295D02*
X-3189615Y-5934295D01*
X-3103255Y-5934295D02*
X-2463175Y-5934295D01*
X-2346335Y-5934295D02*
X-923935Y-5934295D01*
X-4617095Y-5929215D02*
X-3194695Y-5929215D01*
X-3098175Y-5929215D02*
X-2463175Y-5929215D01*
X-2346335Y-5929215D02*
X-923935Y-5929215D01*
X-4606935Y-5924135D02*
X-3204855Y-5924135D01*
X-3077855Y-5924135D02*
X-2473335Y-5924135D01*
X-2336175Y-5924135D02*
X-934095Y-5924135D01*
X-4606935Y-5919055D02*
X-3204855Y-5919055D01*
X-3077855Y-5919055D02*
X-2473335Y-5919055D01*
X-2336175Y-5919055D02*
X-934095Y-5919055D01*
X-4596775Y-5913975D02*
X-3215015Y-5913975D01*
X-3057535Y-5913975D02*
X-2493655Y-5913975D01*
X-2326015Y-5913975D02*
X-944255Y-5913975D01*
X-4596775Y-5908895D02*
X-3215015Y-5908895D01*
X-3057535Y-5908895D02*
X-2493655Y-5908895D01*
X-2326015Y-5908895D02*
X-944255Y-5908895D01*
X-4586615Y-5903815D02*
X-3225175Y-5903815D01*
X-3047375Y-5903815D02*
X-2513975Y-5903815D01*
X-2315855Y-5903815D02*
X-954415Y-5903815D01*
X-4581535Y-5898735D02*
X-3225175Y-5898735D01*
X-3047375Y-5898735D02*
X-2519055Y-5898735D01*
X-2315855Y-5898735D02*
X-954415Y-5898735D01*
X-4576455Y-5893655D02*
X-3235335Y-5893655D01*
X-3027055Y-5893655D02*
X-2534295Y-5893655D01*
X-2305695Y-5893655D02*
X-964575Y-5893655D01*
X-4571375Y-5888575D02*
X-3235335Y-5888575D01*
X-3021975Y-5888575D02*
X-2539375Y-5888575D01*
X-2305695Y-5888575D02*
X-969655Y-5888575D01*
X-4566295Y-5883495D02*
X-3245495Y-5883495D01*
X-3006735Y-5883495D02*
X-2554615Y-5883495D01*
X-2305695Y-5883495D02*
X-974735Y-5883495D01*
X-4561215Y-5878415D02*
X-3245495Y-5878415D01*
X-3001655Y-5878415D02*
X-2559695Y-5878415D01*
X-2305695Y-5878415D02*
X-979815Y-5878415D01*
X-4545975Y-5873335D02*
X-3245495Y-5873335D01*
X-2971175Y-5873335D02*
X-2590175Y-5873335D01*
X-2305695Y-5873335D02*
X-984895Y-5873335D01*
X-4540895Y-5868255D02*
X-3245495Y-5868255D01*
X-2971175Y-5868255D02*
X-2590175Y-5868255D01*
X-2305695Y-5868255D02*
X-989975Y-5868255D01*
X-4535815Y-5863175D02*
X-3245495Y-5863175D01*
X-2940695Y-5863175D02*
X-2620655Y-5863175D01*
X-2305695Y-5863175D02*
X-995055Y-5863175D01*
X-4530735Y-5858095D02*
X-3240415Y-5858095D01*
X-2935615Y-5858095D02*
X-2625735Y-5858095D01*
X-2310775Y-5858095D02*
X-1000135Y-5858095D01*
X-4525655Y-5853015D02*
X-3235335Y-5853015D01*
X-2900055Y-5853015D02*
X-2661295Y-5853015D01*
X-2315855Y-5853015D02*
X-1005215Y-5853015D01*
X-4520575Y-5847935D02*
X-3230255Y-5847935D01*
X-2894975Y-5847935D02*
X-2666375Y-5847935D01*
X-2336175Y-5847935D02*
X-1010295Y-5847935D01*
X-4515495Y-5842855D02*
X-3225175Y-5842855D01*
X-2823855Y-5842855D02*
X-2737495Y-5842855D01*
X-2336175Y-5842855D02*
X-1015375Y-5842855D01*
X-4510415Y-5837775D02*
X-3220095Y-5837775D01*
X-2818775Y-5837775D02*
X-2742575Y-5837775D01*
X-2346335Y-5837775D02*
X-1020455Y-5837775D01*
X-4505335Y-5832695D02*
X-3215015Y-5832695D01*
X-2813695Y-5832695D02*
X-2747655Y-5832695D01*
X-2346335Y-5832695D02*
X-1025535Y-5832695D01*
X-4500255Y-5827615D02*
X-3209935Y-5827615D01*
X-2351415Y-5827615D02*
X-1040775Y-5827615D01*
X-4495175Y-5822535D02*
X-3194695Y-5822535D01*
X-2356495Y-5822535D02*
X-1045855Y-5822535D01*
X-4490095Y-5817455D02*
X-3189615Y-5817455D01*
X-2361575Y-5817455D02*
X-1050935Y-5817455D01*
X-4485015Y-5812375D02*
X-3179455Y-5812375D01*
X-2381895Y-5812375D02*
X-1056015Y-5812375D01*
X-4474855Y-5807295D02*
X-3179455Y-5807295D01*
X-2381895Y-5807295D02*
X-1061095Y-5807295D01*
X-4474855Y-5802215D02*
X-3159135Y-5802215D01*
X-2392055Y-5802215D02*
X-1066175Y-5802215D01*
X-4464695Y-5797135D02*
X-3159135Y-5797135D01*
X-2392055Y-5797135D02*
X-1076335Y-5797135D01*
X-4464695Y-5792055D02*
X-3148975Y-5792055D01*
X-2412375Y-5792055D02*
X-1076335Y-5792055D01*
X-4454535Y-5786975D02*
X-3148975Y-5786975D01*
X-2417455Y-5786975D02*
X-1086495Y-5786975D01*
X-4454535Y-5781895D02*
X-3128655Y-5781895D01*
X-2432695Y-5781895D02*
X-1086495Y-5781895D01*
X-4444375Y-5776815D02*
X-3123575Y-5776815D01*
X-2437775Y-5776815D02*
X-1096655Y-5776815D01*
X-4444375Y-5771735D02*
X-3108335Y-5771735D01*
X-2458095Y-5771735D02*
X-1096655Y-5771735D01*
X-4424055Y-5766655D02*
X-3103255Y-5766655D01*
X-2458095Y-5766655D02*
X-1106815Y-5766655D01*
X-4418975Y-5761575D02*
X-3082935Y-5761575D01*
X-2478415Y-5761575D02*
X-1106815Y-5761575D01*
X-4413895Y-5756495D02*
X-3372495Y-5756495D01*
X-3367415Y-5756495D02*
X-3082935Y-5756495D01*
X-2478415Y-5756495D02*
X-2193935Y-5756495D01*
X-2178695Y-5756495D02*
X-1116975Y-5756495D01*
X-4408815Y-5751415D02*
X-3377575Y-5751415D01*
X-3362335Y-5751415D02*
X-3062615Y-5751415D01*
X-2498735Y-5751415D02*
X-2199015Y-5751415D01*
X-2173615Y-5751415D02*
X-1116975Y-5751415D01*
X-4403735Y-5746335D02*
X-3382655Y-5746335D01*
X-3357255Y-5746335D02*
X-3062615Y-5746335D01*
X-2503815Y-5746335D02*
X-2204095Y-5746335D01*
X-2168535Y-5746335D02*
X-1122055Y-5746335D01*
X-4398655Y-5741255D02*
X-3387735Y-5741255D01*
X-3352175Y-5741255D02*
X-3032135Y-5741255D01*
X-2519055Y-5741255D02*
X-2209175Y-5741255D01*
X-2163455Y-5741255D02*
X-1132215Y-5741255D01*
X-4398655Y-5736175D02*
X-3392815Y-5736175D01*
X-3347095Y-5736175D02*
X-3027055Y-5736175D01*
X-2524135Y-5736175D02*
X-2214255Y-5736175D01*
X-2158375Y-5736175D02*
X-1132215Y-5736175D01*
X-4388495Y-5731095D02*
X-3397895Y-5731095D01*
X-3342015Y-5731095D02*
X-3021975Y-5731095D01*
X-2529215Y-5731095D02*
X-2219335Y-5731095D01*
X-2153295Y-5731095D02*
X-1142375Y-5731095D01*
X-4383415Y-5726015D02*
X-3402975Y-5726015D01*
X-3336935Y-5726015D02*
X-2996575Y-5726015D01*
X-2554615Y-5726015D02*
X-2224415Y-5726015D01*
X-2148215Y-5726015D02*
X-1142375Y-5726015D01*
X-4378335Y-5720935D02*
X-3408055Y-5720935D01*
X-3321695Y-5720935D02*
X-2991495Y-5720935D01*
X-2559695Y-5720935D02*
X-2229495Y-5720935D01*
X-2143135Y-5720935D02*
X-1152535Y-5720935D01*
X-4373255Y-5715855D02*
X-3413135Y-5715855D01*
X-3316615Y-5715855D02*
X-2966095Y-5715855D01*
X-2590175Y-5715855D02*
X-2234575Y-5715855D01*
X-2138055Y-5715855D02*
X-1152535Y-5715855D01*
X-4368175Y-5710775D02*
X-3418215Y-5710775D01*
X-3311535Y-5710775D02*
X-2961015Y-5710775D01*
X-2590175Y-5710775D02*
X-2239655Y-5710775D01*
X-2132975Y-5710775D02*
X-1172855Y-5710775D01*
X-4363095Y-5705695D02*
X-3423295Y-5705695D01*
X-3306455Y-5705695D02*
X-2920375Y-5705695D01*
X-2640975Y-5705695D02*
X-2244735Y-5705695D01*
X-2127895Y-5705695D02*
X-1172855Y-5705695D01*
X-4358015Y-5700615D02*
X-3433455Y-5700615D01*
X-3296295Y-5700615D02*
X-2915295Y-5700615D01*
X-2646055Y-5700615D02*
X-2265055Y-5700615D01*
X-2122815Y-5700615D02*
X-1183015Y-5700615D01*
X-4352935Y-5695535D02*
X-3433455Y-5695535D01*
X-3296295Y-5695535D02*
X-2834015Y-5695535D01*
X-2727335Y-5695535D02*
X-2265055Y-5695535D01*
X-2117735Y-5695535D02*
X-1188095Y-5695535D01*
X-4347855Y-5690455D02*
X-3443615Y-5690455D01*
X-3275975Y-5690455D02*
X-2828935Y-5690455D01*
X-2732415Y-5690455D02*
X-2275215Y-5690455D01*
X-2107575Y-5690455D02*
X-1193175Y-5690455D01*
X-4342775Y-5685375D02*
X-3443615Y-5685375D01*
X-3275975Y-5685375D02*
X-2275215Y-5685375D01*
X-2107575Y-5685375D02*
X-1198255Y-5685375D01*
X-4337695Y-5680295D02*
X-3453775Y-5680295D01*
X-3265815Y-5680295D02*
X-2295535Y-5680295D01*
X-2097415Y-5680295D02*
X-1203335Y-5680295D01*
X-4332615Y-5675215D02*
X-3453775Y-5675215D01*
X-3265815Y-5675215D02*
X-2300615Y-5675215D01*
X-2097415Y-5675215D02*
X-1208415Y-5675215D01*
X-4327535Y-5670135D02*
X-3463935Y-5670135D01*
X-3245495Y-5670135D02*
X-2305695Y-5670135D01*
X-2087255Y-5670135D02*
X-1213495Y-5670135D01*
X-4322455Y-5665055D02*
X-3463935Y-5665055D01*
X-3240415Y-5665055D02*
X-2310775Y-5665055D01*
X-2087255Y-5665055D02*
X-1218575Y-5665055D01*
X-4307215Y-5659975D02*
X-3463935Y-5659975D01*
X-3235335Y-5659975D02*
X-2326015Y-5659975D01*
X-2087255Y-5659975D02*
X-1223655Y-5659975D01*
X-4302135Y-5654895D02*
X-3463935Y-5654895D01*
X-3230255Y-5654895D02*
X-2331095Y-5654895D01*
X-2087255Y-5654895D02*
X-1228735Y-5654895D01*
X-4297055Y-5649815D02*
X-3463935Y-5649815D01*
X-3215015Y-5649815D02*
X-2346335Y-5649815D01*
X-2087255Y-5649815D02*
X-1233815Y-5649815D01*
X-4291975Y-5644735D02*
X-3463935Y-5644735D01*
X-3209935Y-5644735D02*
X-2351415Y-5644735D01*
X-2092335Y-5644735D02*
X-1238895Y-5644735D01*
X-4286895Y-5639655D02*
X-3463935Y-5639655D01*
X-3194695Y-5639655D02*
X-2366655Y-5639655D01*
X-2097415Y-5639655D02*
X-1243975Y-5639655D01*
X-4281815Y-5634575D02*
X-3458855Y-5634575D01*
X-3189615Y-5634575D02*
X-2371735Y-5634575D01*
X-2102495Y-5634575D02*
X-1249055Y-5634575D01*
X-4276735Y-5629495D02*
X-3443615Y-5629495D01*
X-3184535Y-5629495D02*
X-2376815Y-5629495D01*
X-2107575Y-5629495D02*
X-1254135Y-5629495D01*
X-4266575Y-5624415D02*
X-3438535Y-5624415D01*
X-3169295Y-5624415D02*
X-2386975Y-5624415D01*
X-2112655Y-5624415D02*
X-1259215Y-5624415D01*
X-4266575Y-5619335D02*
X-3433455Y-5619335D01*
X-3164215Y-5619335D02*
X-2386975Y-5619335D01*
X-2117735Y-5619335D02*
X-1264295Y-5619335D01*
X-4256415Y-5614255D02*
X-3428375Y-5614255D01*
X-3143895Y-5614255D02*
X-2417455Y-5614255D01*
X-2122815Y-5614255D02*
X-1269375Y-5614255D01*
X-4256415Y-5609175D02*
X-3423295Y-5609175D01*
X-3143895Y-5609175D02*
X-2417455Y-5609175D01*
X-2138055Y-5609175D02*
X-1274455Y-5609175D01*
X-4246255Y-5604095D02*
X-3418215Y-5604095D01*
X-3123575Y-5604095D02*
X-2437775Y-5604095D01*
X-2143135Y-5604095D02*
X-1279535Y-5604095D01*
X-4246255Y-5599015D02*
X-3413135Y-5599015D01*
X-3123575Y-5599015D02*
X-2442855Y-5599015D01*
X-2153295Y-5599015D02*
X-1284615Y-5599015D01*
X-4236095Y-5593935D02*
X-3408055Y-5593935D01*
X-3093095Y-5593935D02*
X-2458095Y-5593935D01*
X-2153295Y-5593935D02*
X-1304935Y-5593935D01*
X-4236095Y-5588855D02*
X-3387735Y-5588855D01*
X-3088015Y-5588855D02*
X-2463175Y-5588855D01*
X-2163455Y-5588855D02*
X-1304935Y-5588855D01*
X-4225935Y-5583775D02*
X-3387735Y-5583775D01*
X-3057535Y-5583775D02*
X-2493655Y-5583775D01*
X-2163455Y-5583775D02*
X-1315095Y-5583775D01*
X-4225935Y-5578695D02*
X-3377575Y-5578695D01*
X-3057535Y-5578695D02*
X-2493655Y-5578695D01*
X-2183775Y-5578695D02*
X-1315095Y-5578695D01*
X-4215775Y-5573615D02*
X-3377575Y-5573615D01*
X-3027055Y-5573615D02*
X-2534295Y-5573615D01*
X-2183775Y-5573615D02*
X-1325255Y-5573615D01*
X-4215775Y-5568535D02*
X-3367415Y-5568535D01*
X-3021975Y-5568535D02*
X-2539375Y-5568535D01*
X-2193935Y-5568535D02*
X-1325255Y-5568535D01*
X-4195455Y-5563455D02*
X-3367415Y-5563455D01*
X-2986415Y-5563455D02*
X-2564775Y-5563455D01*
X-2193935Y-5563455D02*
X-1335415Y-5563455D01*
X-4190375Y-5558375D02*
X-3347095Y-5558375D01*
X-2981335Y-5558375D02*
X-2569855Y-5558375D01*
X-2214255Y-5558375D02*
X-1335415Y-5558375D01*
X-4185295Y-5553295D02*
X-3342015Y-5553295D01*
X-2930535Y-5553295D02*
X-2620655Y-5553295D01*
X-2219335Y-5553295D02*
X-1345575Y-5553295D01*
X-4180215Y-5548215D02*
X-3326775Y-5548215D01*
X-2925455Y-5548215D02*
X-2625735Y-5548215D01*
X-2224415Y-5548215D02*
X-1350655Y-5548215D01*
X-4175135Y-5543135D02*
X-3321695Y-5543135D01*
X-2844175Y-5543135D02*
X-2717175Y-5543135D01*
X-2229495Y-5543135D02*
X-1355735Y-5543135D01*
X-4170055Y-5538055D02*
X-3316615Y-5538055D01*
X-2839095Y-5538055D02*
X-2722255Y-5538055D01*
X-2244735Y-5538055D02*
X-1360815Y-5538055D01*
X-4164975Y-5532975D02*
X-3311535Y-5532975D01*
X-2834015Y-5532975D02*
X-2727335Y-5532975D01*
X-2249815Y-5532975D02*
X-1360815Y-5532975D01*
X-4159895Y-5527895D02*
X-3306455Y-5527895D01*
X-2254895Y-5527895D02*
X-1370975Y-5527895D01*
X-4154815Y-5522815D02*
X-3291215Y-5522815D01*
X-2259975Y-5522815D02*
X-1370975Y-5522815D01*
X-4149735Y-5517735D02*
X-3286135Y-5517735D01*
X-2265055Y-5517735D02*
X-1381135Y-5517735D01*
X-4144655Y-5512655D02*
X-3270895Y-5512655D01*
X-2280295Y-5512655D02*
X-1381135Y-5512655D01*
X-4139575Y-5507575D02*
X-3265815Y-5507575D01*
X-2285375Y-5507575D02*
X-1391295Y-5507575D01*
X-4134495Y-5502495D02*
X-3245495Y-5502495D01*
X-2305695Y-5502495D02*
X-1391295Y-5502495D01*
X-4129415Y-5497415D02*
X-3245495Y-5497415D01*
X-2305695Y-5497415D02*
X-1401455Y-5497415D01*
X-4124335Y-5492335D02*
X-3225175Y-5492335D01*
X-2326015Y-5492335D02*
X-1406535Y-5492335D01*
X-4119255Y-5487255D02*
X-3225175Y-5487255D01*
X-2331095Y-5487255D02*
X-1421775Y-5487255D01*
X-4114175Y-5482175D02*
X-3204855Y-5482175D01*
X-2346335Y-5482175D02*
X-1426855Y-5482175D01*
X-4109095Y-5477095D02*
X-3199775Y-5477095D01*
X-2351415Y-5477095D02*
X-1431935Y-5477095D01*
X-4104015Y-5472015D02*
X-3184535Y-5472015D01*
X-2381895Y-5472015D02*
X-1437015Y-5472015D01*
X-4083695Y-5466935D02*
X-3179455Y-5466935D01*
X-2381895Y-5466935D02*
X-1442095Y-5466935D01*
X-4083695Y-5461855D02*
X-3148975Y-5461855D01*
X-2402215Y-5461855D02*
X-1447175Y-5461855D01*
X-4073535Y-5456775D02*
X-3148975Y-5456775D01*
X-2402215Y-5456775D02*
X-1452255Y-5456775D01*
X-4073535Y-5451695D02*
X-3118495Y-5451695D01*
X-2432695Y-5451695D02*
X-1457335Y-5451695D01*
X-4068455Y-5446615D02*
X-3113415Y-5446615D01*
X-2437775Y-5446615D02*
X-1462415Y-5446615D01*
X-4063375Y-5441535D02*
X-3088015Y-5441535D01*
X-2463175Y-5441535D02*
X-1467495Y-5441535D01*
X-4058295Y-5436455D02*
X-3082935Y-5436455D01*
X-2468255Y-5436455D02*
X-1472575Y-5436455D01*
X-4048135Y-5431375D02*
X-3052455Y-5431375D01*
X-2508895Y-5431375D02*
X-1477655Y-5431375D01*
X-4048135Y-5426295D02*
X-3052455Y-5426295D01*
X-2513975Y-5426295D02*
X-1482735Y-5426295D01*
X-4037975Y-5421215D02*
X-3042295Y-5421215D01*
X-2519055Y-5421215D02*
X-1487815Y-5421215D01*
X-4037975Y-5416135D02*
X-3006735Y-5416135D01*
X-2554615Y-5416135D02*
X-1492895Y-5416135D01*
X-4027815Y-5411055D02*
X-3001655Y-5411055D01*
X-2559695Y-5411055D02*
X-1503055Y-5411055D01*
X-4027815Y-5405975D02*
X-2950855Y-5405975D01*
X-2610495Y-5405975D02*
X-1503055Y-5405975D01*
X-4017655Y-5400895D02*
X-2950855Y-5400895D01*
X-2615575Y-5400895D02*
X-1513215Y-5400895D01*
X-4017655Y-5395815D02*
X-2854335Y-5395815D01*
X-2707015Y-5395815D02*
X-1513215Y-5395815D01*
X-4007495Y-5390735D02*
X-2849255Y-5390735D01*
X-2712095Y-5390735D02*
X-1523375Y-5390735D01*
X-4007495Y-5385655D02*
X-1523375Y-5385655D01*
X-3997335Y-5380575D02*
X-1533535Y-5380575D01*
X-3997335Y-5375495D02*
X-1533535Y-5375495D01*
X-3987175Y-5370415D02*
X-1553855Y-5370415D01*
X-3982095Y-5365335D02*
X-1553855Y-5365335D01*
X-3966855Y-5360255D02*
X-1564015Y-5360255D01*
X-3961775Y-5355175D02*
X-1569095Y-5355175D01*
X-3956695Y-5350095D02*
X-1574175Y-5350095D01*
X-3951615Y-5345015D02*
X-1579255Y-5345015D01*
X-3946535Y-5339935D02*
X-1584335Y-5339935D01*
X-3941455Y-5334855D02*
X-1589415Y-5334855D01*
X-3936375Y-5329775D02*
X-1594495Y-5329775D01*
X-3931295Y-5324695D02*
X-1599575Y-5324695D01*
X-3926215Y-5319615D02*
X-1604655Y-5319615D01*
X-3921135Y-5314535D02*
X-1609735Y-5314535D01*
X-3916055Y-5309455D02*
X-1614815Y-5309455D01*
X-3910975Y-5304375D02*
X-1619895Y-5304375D01*
X-3905895Y-5299295D02*
X-1624975Y-5299295D01*
X-3900815Y-5294215D02*
X-1630055Y-5294215D01*
X-3895735Y-5289135D02*
X-1635135Y-5289135D01*
X-3890655Y-5284055D02*
X-1640215Y-5284055D01*
X-3885575Y-5278975D02*
X-1645295Y-5278975D01*
X-3875415Y-5273895D02*
X-1650375Y-5273895D01*
X-3875415Y-5268815D02*
X-1655455Y-5268815D01*
X-3865255Y-5263735D02*
X-1660535Y-5263735D01*
X-3865255Y-5258655D02*
X-1665615Y-5258655D01*
X-3844935Y-5253575D02*
X-1680855Y-5253575D01*
X-3844935Y-5248495D02*
X-1685935Y-5248495D01*
X-3834775Y-5243415D02*
X-1691015Y-5243415D01*
X-3829695Y-5238335D02*
X-1696095Y-5238335D01*
X-3824615Y-5233255D02*
X-1701175Y-5233255D01*
X-3819535Y-5228175D02*
X-1706255Y-5228175D01*
X-3819535Y-5223095D02*
X-1711335Y-5223095D01*
X-3809375Y-5218015D02*
X-1721495Y-5218015D01*
X-3809375Y-5212935D02*
X-1721495Y-5212935D01*
X-3799215Y-5207855D02*
X-1731655Y-5207855D01*
X-3799215Y-5202775D02*
X-1731655Y-5202775D01*
X-3789055Y-5197695D02*
X-1741815Y-5197695D01*
X-3789055Y-5192615D02*
X-1741815Y-5192615D01*
X-3778895Y-5187535D02*
X-1751975Y-5187535D01*
X-3778895Y-5182455D02*
X-1751975Y-5182455D01*
X-3768735Y-5177375D02*
X-1762135Y-5177375D01*
X-3763655Y-5172295D02*
X-1762135Y-5172295D01*
X-3758575Y-5167215D02*
X-1772295Y-5167215D01*
X-3753495Y-5162135D02*
X-1772295Y-5162135D01*
X-3748415Y-5157055D02*
X-1782455Y-5157055D01*
X-3743335Y-5151975D02*
X-1787535Y-5151975D01*
X-3728095Y-5146895D02*
X-1792615Y-5146895D01*
X-3723015Y-5141815D02*
X-1797695Y-5141815D01*
X-3717935Y-5136735D02*
X-1812935Y-5136735D01*
X-3712855Y-5131655D02*
X-1818015Y-5131655D01*
X-3707775Y-5126575D02*
X-1823095Y-5126575D01*
X-3702695Y-5121495D02*
X-1828175Y-5121495D01*
X-3702695Y-5116415D02*
X-1833255Y-5116415D01*
X-3702695Y-5111335D02*
X-1838335Y-5111335D01*
X-3697615Y-5106255D02*
X-1843415Y-5106255D01*
X-3692535Y-5101175D02*
X-1848495Y-5101175D01*
X-3687455Y-5096095D02*
X-1853575Y-5096095D01*
X-3682375Y-5091015D02*
X-1858655Y-5091015D01*
X-3677295Y-5085935D02*
X-1863735Y-5085935D01*
X-3672215Y-5080855D02*
X-1868815Y-5080855D01*
X-3667135Y-5075775D02*
X-1873895Y-5075775D01*
X-3662055Y-5070695D02*
X-1878975Y-5070695D01*
X-3656975Y-5065615D02*
X-1884055Y-5065615D01*
X-3646815Y-5060535D02*
X-1889135Y-5060535D01*
X-3646815Y-5055455D02*
X-1894215Y-5055455D01*
X-3626495Y-5050375D02*
X-1899295Y-5050375D01*
X-3626495Y-5045295D02*
X-1904375Y-5045295D01*
X-3616335Y-5040215D02*
X-1909455Y-5040215D01*
X-3611255Y-5035135D02*
X-1914535Y-5035135D01*
X-3606175Y-5030055D02*
X-1929775Y-5030055D01*
X-3601095Y-5024975D02*
X-1939935Y-5024975D01*
X-1843415Y-5024975D02*
X-1787535Y-5024975D01*
X-3601095Y-5019895D02*
X-1939935Y-5019895D01*
X-1848495Y-5019895D02*
X-1782455Y-5019895D01*
X-3590935Y-5014815D02*
X-1950095Y-5014815D01*
X-1853575Y-5014815D02*
X-1777375Y-5014815D01*
X-3590935Y-5009735D02*
X-1950095Y-5009735D01*
X-1909455Y-5009735D02*
X-1721495Y-5009735D01*
X-3580775Y-5004655D02*
X-1945015Y-5004655D01*
X-1914535Y-5004655D02*
X-1716415Y-5004655D01*
X-3580775Y-4999575D02*
X-1685935Y-4999575D01*
X-3570615Y-4994495D02*
X-1680855Y-4994495D01*
X-3570615Y-4989415D02*
X-1665615Y-4989415D01*
X-3560455Y-4984335D02*
X-1660535Y-4984335D01*
X-3560455Y-4979255D02*
X-1645295Y-4979255D01*
X-3550295Y-4974175D02*
X-1640215Y-4974175D01*
X-3545215Y-4969095D02*
X-1619895Y-4969095D01*
X-3540135Y-4964015D02*
X-1619895Y-4964015D01*
X-3535055Y-4958935D02*
X-1609735Y-4958935D01*
X-3519815Y-4953855D02*
X-1609735Y-4953855D01*
X-3514735Y-4948775D02*
X-1589415Y-4948775D01*
X-3509655Y-4943695D02*
X-1589415Y-4943695D01*
X-3504575Y-4938615D02*
X-1579255Y-4938615D01*
X-3499495Y-4933535D02*
X-1579255Y-4933535D01*
X-3494415Y-4928455D02*
X-1569095Y-4928455D01*
X-3489335Y-4923375D02*
X-1569095Y-4923375D01*
X-3484255Y-4918295D02*
X-1569095Y-4918295D01*
X-3479175Y-4913215D02*
X-1569095Y-4913215D01*
X-3474095Y-4908135D02*
X-1579255Y-4908135D01*
X-3469015Y-4903055D02*
X-1579255Y-4903055D01*
X-3463935Y-4897975D02*
X-1589415Y-4897975D01*
X-3458855Y-4892895D02*
X-1589415Y-4892895D01*
X-3448695Y-4887815D02*
X-1599575Y-4887815D01*
X-3448695Y-4882735D02*
X-1599575Y-4882735D01*
X-3438535Y-4877655D02*
X-1609735Y-4877655D01*
X-3438535Y-4872575D02*
X-1609735Y-4872575D01*
X-3428375Y-4867495D02*
X-1619895Y-4867495D01*
X-3428375Y-4862415D02*
X-1619895Y-4862415D01*
X-3418215Y-4857335D02*
X-1630055Y-4857335D01*
X-3418215Y-4852255D02*
X-1635135Y-4852255D01*
X-3397895Y-4847175D02*
X-1640215Y-4847175D01*
X-3392815Y-4842095D02*
X-1645295Y-4842095D01*
X-3387735Y-4837015D02*
X-1650375Y-4837015D01*
X-3382655Y-4831935D02*
X-1655455Y-4831935D01*
X-3377575Y-4826855D02*
X-1660535Y-4826855D01*
X-3372495Y-4821775D02*
X-2158375Y-4821775D01*
X-2143135Y-4821775D02*
X-1665615Y-4821775D01*
X-3367415Y-4816695D02*
X-2158375Y-4816695D01*
X-2138055Y-4816695D02*
X-1670695Y-4816695D01*
X-3362335Y-4811615D02*
X-2168535Y-4811615D01*
X-2138055Y-4811615D02*
X-1675775Y-4811615D01*
X-3362335Y-4806535D02*
X-2168535Y-4806535D01*
X-2143135Y-4806535D02*
X-1680855Y-4806535D01*
X-3352175Y-4801455D02*
X-2178695Y-4801455D01*
X-2148215Y-4801455D02*
X-1685935Y-4801455D01*
X-3352175Y-4796375D02*
X-2178695Y-4796375D01*
X-2153295Y-4796375D02*
X-1691015Y-4796375D01*
X-3342015Y-4791295D02*
X-2188855Y-4791295D01*
X-2153295Y-4791295D02*
X-1696095Y-4791295D01*
X-3336935Y-4786215D02*
X-2188855Y-4786215D01*
X-2153295Y-4786215D02*
X-1701175Y-4786215D01*
X-3331855Y-4781135D02*
X-2209175Y-4781135D01*
X-2153295Y-4781135D02*
X-1706255Y-4781135D01*
X-3326775Y-4776055D02*
X-2214255Y-4776055D01*
X-2163455Y-4776055D02*
X-1711335Y-4776055D01*
X-3321695Y-4770975D02*
X-2219335Y-4770975D01*
X-2163455Y-4770975D02*
X-1716415Y-4770975D01*
X-3316615Y-4765895D02*
X-2224415Y-4765895D01*
X-2163455Y-4765895D02*
X-1721495Y-4765895D01*
X-3311535Y-4760815D02*
X-2229495Y-4760815D01*
X-2163455Y-4760815D02*
X-1726575Y-4760815D01*
X-3306455Y-4755735D02*
X-2234575Y-4755735D01*
X-2163455Y-4755735D02*
X-1731655Y-4755735D01*
X-3301375Y-4750655D02*
X-2239655Y-4750655D01*
X-2163455Y-4750655D02*
X-1736735Y-4750655D01*
X-3296295Y-4745575D02*
X-2244735Y-4745575D01*
X-2163455Y-4745575D02*
X-1741815Y-4745575D01*
X-3281055Y-4740495D02*
X-2249815Y-4740495D01*
X-2163455Y-4740495D02*
X-1746895Y-4740495D01*
X-3275975Y-4735415D02*
X-2254895Y-4735415D01*
X-2173615Y-4735415D02*
X-1751975Y-4735415D01*
X-3270895Y-4730335D02*
X-2259975Y-4730335D01*
X-2173615Y-4730335D02*
X-1757055Y-4730335D01*
X-3265815Y-4725255D02*
X-2265055Y-4725255D01*
X-2173615Y-4725255D02*
X-1762135Y-4725255D01*
X-3260735Y-4720175D02*
X-2270135Y-4720175D01*
X-2173615Y-4720175D02*
X-1767215Y-4720175D01*
X-3255655Y-4715095D02*
X-2275215Y-4715095D01*
X-2173615Y-4715095D02*
X-1772295Y-4715095D01*
X-3250575Y-4710015D02*
X-2280295Y-4710015D01*
X-2173615Y-4710015D02*
X-1777375Y-4710015D01*
X-3245495Y-4704935D02*
X-2285375Y-4704935D01*
X-2173615Y-4704935D02*
X-1782455Y-4704935D01*
X-3240415Y-4699855D02*
X-2290455Y-4699855D01*
X-2173615Y-4699855D02*
X-1787535Y-4699855D01*
X-3230255Y-4694775D02*
X-2295535Y-4694775D01*
X-2173615Y-4694775D02*
X-1787535Y-4694775D01*
X-3230255Y-4689695D02*
X-2300615Y-4689695D01*
X-2173615Y-4689695D02*
X-1787535Y-4689695D01*
X-3220095Y-4684615D02*
X-2305695Y-4684615D01*
X-2173615Y-4684615D02*
X-1782455Y-4684615D01*
X-3220095Y-4679535D02*
X-2310775Y-4679535D01*
X-2173615Y-4679535D02*
X-1772295Y-4679535D01*
X-3209935Y-4674455D02*
X-2331095Y-4674455D01*
X-2173615Y-4674455D02*
X-1772295Y-4674455D01*
X-3209935Y-4669375D02*
X-2331095Y-4669375D01*
X-2173615Y-4669375D02*
X-1762135Y-4669375D01*
X-3199775Y-4664295D02*
X-2341255Y-4664295D01*
X-2173615Y-4664295D02*
X-1762135Y-4664295D01*
X-3199775Y-4659215D02*
X-2341255Y-4659215D01*
X-2173615Y-4659215D02*
X-1762135Y-4659215D01*
X-3189615Y-4654135D02*
X-2351415Y-4654135D01*
X-2173615Y-4654135D02*
X-1762135Y-4654135D01*
X-3189615Y-4649055D02*
X-2351415Y-4649055D01*
X-2173615Y-4649055D02*
X-1751975Y-4649055D01*
X-3169295Y-4643975D02*
X-2361575Y-4643975D01*
X-2173615Y-4643975D02*
X-1848495Y-4643975D01*
X-1838335Y-4643975D02*
X-1751975Y-4643975D01*
X-3164215Y-4638895D02*
X-2361575Y-4638895D01*
X-2173615Y-4638895D02*
X-1848495Y-4638895D01*
X-1833255Y-4638895D02*
X-1741815Y-4638895D01*
X-3159135Y-4633815D02*
X-2371735Y-4633815D01*
X-2173615Y-4633815D02*
X-1858655Y-4633815D01*
X-1828175Y-4633815D02*
X-1741815Y-4633815D01*
X-3154055Y-4628735D02*
X-2376815Y-4628735D01*
X-2173615Y-4628735D02*
X-1863735Y-4628735D01*
X-1823095Y-4628735D02*
X-1731655Y-4628735D01*
X-3148975Y-4623655D02*
X-2381895Y-4623655D01*
X-2173615Y-4623655D02*
X-1868815Y-4623655D01*
X-1818015Y-4623655D02*
X-1731655Y-4623655D01*
X-3143895Y-4618575D02*
X-2386975Y-4618575D01*
X-2173615Y-4618575D02*
X-1873895Y-4618575D01*
X-1812935Y-4618575D02*
X-1721495Y-4618575D01*
X-3138815Y-4613495D02*
X-2392055Y-4613495D01*
X-2173615Y-4613495D02*
X-1878975Y-4613495D01*
X-1807855Y-4613495D02*
X-1721495Y-4613495D01*
X-3133735Y-4608415D02*
X-2397135Y-4608415D01*
X-2173615Y-4608415D02*
X-1884055Y-4608415D01*
X-1802775Y-4608415D02*
X-1711335Y-4608415D01*
X-3128655Y-4603335D02*
X-2397135Y-4603335D01*
X-2173615Y-4603335D02*
X-1884055Y-4603335D01*
X-1797695Y-4603335D02*
X-1711335Y-4603335D01*
X-3123575Y-4598255D02*
X-2407295Y-4598255D01*
X-2173615Y-4598255D02*
X-1894215Y-4598255D01*
X-1782455Y-4598255D02*
X-1711335Y-4598255D01*
X-3118495Y-4593175D02*
X-2407295Y-4593175D01*
X-2173615Y-4593175D02*
X-1894215Y-4593175D01*
X-1777375Y-4593175D02*
X-1706255Y-4593175D01*
X-3113415Y-4588095D02*
X-2417455Y-4588095D01*
X-2163455Y-4588095D02*
X-1904375Y-4588095D01*
X-1772295Y-4588095D02*
X-1706255Y-4588095D01*
X-3108335Y-4583015D02*
X-2417455Y-4583015D01*
X-2163455Y-4583015D02*
X-1904375Y-4583015D01*
X-1767215Y-4583015D02*
X-1696095Y-4583015D01*
X-3103255Y-4577935D02*
X-2427615Y-4577935D01*
X-2163455Y-4577935D02*
X-1914535Y-4577935D01*
X-1762135Y-4577935D02*
X-1696095Y-4577935D01*
X-3098175Y-4572855D02*
X-2427615Y-4572855D01*
X-2163455Y-4572855D02*
X-1919615Y-4572855D01*
X-1757055Y-4572855D02*
X-1685935Y-4572855D01*
X-3093095Y-4567775D02*
X-2437775Y-4567775D01*
X-2163455Y-4567775D02*
X-1924695Y-4567775D01*
X-1751975Y-4567775D02*
X-1685935Y-4567775D01*
X-3088015Y-4562695D02*
X-2442855Y-4562695D01*
X-2163455Y-4562695D02*
X-1929775Y-4562695D01*
X-1746895Y-4562695D02*
X-1675775Y-4562695D01*
X-3082935Y-4557615D02*
X-2458095Y-4557615D01*
X-2163455Y-4557615D02*
X-1934855Y-4557615D01*
X-1736735Y-4557615D02*
X-1675775Y-4557615D01*
X-3077855Y-4552535D02*
X-2463175Y-4552535D01*
X-2163455Y-4552535D02*
X-1939935Y-4552535D01*
X-1736735Y-4552535D02*
X-1665615Y-4552535D01*
X-3072775Y-4547455D02*
X-2468255Y-4547455D01*
X-2153295Y-4547455D02*
X-1945015Y-4547455D01*
X-1716415Y-4547455D02*
X-1665615Y-4547455D01*
X-3067695Y-4542375D02*
X-2473335Y-4542375D01*
X-2153295Y-4542375D02*
X-1950095Y-4542375D01*
X-1716415Y-4542375D02*
X-1655455Y-4542375D01*
X-3047375Y-4537295D02*
X-2478415Y-4537295D01*
X-2153295Y-4537295D02*
X-1955175Y-4537295D01*
X-1706255Y-4537295D02*
X-1655455Y-4537295D01*
X-3047375Y-4532215D02*
X-2483495Y-4532215D01*
X-2153295Y-4532215D02*
X-1960255Y-4532215D01*
X-1706255Y-4532215D02*
X-1655455Y-4532215D01*
X-3042295Y-4527135D02*
X-2488575Y-4527135D01*
X-2143135Y-4527135D02*
X-1965335Y-4527135D01*
X-1696095Y-4527135D02*
X-1655455Y-4527135D01*
X-3037215Y-4522055D02*
X-2493655Y-4522055D01*
X-2143135Y-4522055D02*
X-1970415Y-4522055D01*
X-1691015Y-4522055D02*
X-1645295Y-4522055D01*
X-3032135Y-4516975D02*
X-2498735Y-4516975D01*
X-2138055Y-4516975D02*
X-1975495Y-4516975D01*
X-1685935Y-4516975D02*
X-1640215Y-4516975D01*
X-3027055Y-4511895D02*
X-2503815Y-4511895D01*
X-2138055Y-4511895D02*
X-1980575Y-4511895D01*
X-1680855Y-4511895D02*
X-1635135Y-4511895D01*
X-3021975Y-4506815D02*
X-2508895Y-4506815D01*
X-2138055Y-4506815D02*
X-1985655Y-4506815D01*
X-1680855Y-4506815D02*
X-1630055Y-4506815D01*
X-3011815Y-4501735D02*
X-2513975Y-4501735D01*
X-2127895Y-4501735D02*
X-1990735Y-4501735D01*
X-1670695Y-4501735D02*
X-1624975Y-4501735D01*
X-3011815Y-4496655D02*
X-2519055Y-4496655D01*
X-2127895Y-4496655D02*
X-1995815Y-4496655D01*
X-1670695Y-4496655D02*
X-1619895Y-4496655D01*
X-3001655Y-4491575D02*
X-2524135Y-4491575D01*
X-2127895Y-4491575D02*
X-2000895Y-4491575D01*
X-1650375Y-4491575D02*
X-1614815Y-4491575D01*
X-3001655Y-4486495D02*
X-2529215Y-4486495D01*
X-2127895Y-4486495D02*
X-2005975Y-4486495D01*
X-1645295Y-4486495D02*
X-1609735Y-4486495D01*
X-2991495Y-4481415D02*
X-2539375Y-4481415D01*
X-2117735Y-4481415D02*
X-2011055Y-4481415D01*
X-1640215Y-4481415D02*
X-1604655Y-4481415D01*
X-2991495Y-4476335D02*
X-2539375Y-4476335D01*
X-2117735Y-4476335D02*
X-2016135Y-4476335D01*
X-1635135Y-4476335D02*
X-1569095Y-4476335D01*
X-2981335Y-4471255D02*
X-2549535Y-4471255D01*
X-2107575Y-4471255D02*
X-2021215Y-4471255D01*
X-1630055Y-4471255D02*
X-1564015Y-4471255D01*
X-2981335Y-4466175D02*
X-2549535Y-4466175D01*
X-2107575Y-4466175D02*
X-2026295Y-4466175D01*
X-1624975Y-4466175D02*
X-1558935Y-4466175D01*
X-2971175Y-4461095D02*
X-2559695Y-4461095D01*
X-2107575Y-4461095D02*
X-2036455Y-4461095D01*
X-1624975Y-4461095D02*
X-1558935Y-4461095D01*
X-2971175Y-4456015D02*
X-2559695Y-4456015D01*
X-2107575Y-4456015D02*
X-2036455Y-4456015D01*
X-1624975Y-4456015D02*
X-1558935Y-4456015D01*
X-2961015Y-4450935D02*
X-2580015Y-4450935D01*
X-2097415Y-4450935D02*
X-2046615Y-4450935D01*
X-1624975Y-4450935D02*
X-1553855Y-4450935D01*
X-2961015Y-4445855D02*
X-2580015Y-4445855D01*
X-2097415Y-4445855D02*
X-2046615Y-4445855D01*
X-1624975Y-4445855D02*
X-1543695Y-4445855D01*
X-2940695Y-4440775D02*
X-2590175Y-4440775D01*
X-2087255Y-4440775D02*
X-2056775Y-4440775D01*
X-1624975Y-4440775D02*
X-1553855Y-4440775D01*
X-2935615Y-4435695D02*
X-2595255Y-4435695D01*
X-2087255Y-4435695D02*
X-2056775Y-4435695D01*
X-1624975Y-4435695D02*
X-1553855Y-4435695D01*
X-1482735Y-4435695D02*
X-1467495Y-4435695D01*
X-1421775Y-4435695D02*
X-1406535Y-4435695D01*
X-1355735Y-4435695D02*
X-1340495Y-4435695D01*
X-2930535Y-4430615D02*
X-2600335Y-4430615D01*
X-2077095Y-4430615D02*
X-2066935Y-4430615D01*
X-1619895Y-4430615D02*
X-1558935Y-4430615D01*
X-1487815Y-4430615D02*
X-1477655Y-4430615D01*
X-1421775Y-4430615D02*
X-1401455Y-4430615D01*
X-1355735Y-4430615D02*
X-1340495Y-4430615D01*
X-2925455Y-4425535D02*
X-2605415Y-4425535D01*
X-2077095Y-4425535D02*
X-2066935Y-4425535D01*
X-1614815Y-4425535D02*
X-1558935Y-4425535D01*
X-1492895Y-4425535D02*
X-1477655Y-4425535D01*
X-1421775Y-4425535D02*
X-1401455Y-4425535D01*
X-1355735Y-4425535D02*
X-1340495Y-4425535D01*
X-2920375Y-4420455D02*
X-2610495Y-4420455D01*
X-1609735Y-4420455D02*
X-1564015Y-4420455D01*
X-1497975Y-4420455D02*
X-1477655Y-4420455D01*
X-1421775Y-4420455D02*
X-1401455Y-4420455D01*
X-1355735Y-4420455D02*
X-1340495Y-4420455D01*
X-2915295Y-4415375D02*
X-2615575Y-4415375D01*
X-1604655Y-4415375D02*
X-1569095Y-4415375D01*
X-1497975Y-4415375D02*
X-1477655Y-4415375D01*
X-1421775Y-4415375D02*
X-1401455Y-4415375D01*
X-1355735Y-4415375D02*
X-1340495Y-4415375D01*
X-2910215Y-4410295D02*
X-2620655Y-4410295D01*
X-1497975Y-4410295D02*
X-1477655Y-4410295D01*
X-1421775Y-4410295D02*
X-1401455Y-4410295D01*
X-1355735Y-4410295D02*
X-1340495Y-4410295D01*
X-2905135Y-4405215D02*
X-2625735Y-4405215D01*
X-1497975Y-4405215D02*
X-1477655Y-4405215D01*
X-1421775Y-4405215D02*
X-1401455Y-4405215D01*
X-1355735Y-4405215D02*
X-1340495Y-4405215D01*
X-2900055Y-4400135D02*
X-2630815Y-4400135D01*
X-1497975Y-4400135D02*
X-1482735Y-4400135D01*
X-1421775Y-4400135D02*
X-1406535Y-4400135D01*
X-1355735Y-4400135D02*
X-1340495Y-4400135D01*
X-2894975Y-4395055D02*
X-2635895Y-4395055D01*
X-1503055Y-4395055D02*
X-1487815Y-4395055D01*
X-1426855Y-4395055D02*
X-1411615Y-4395055D01*
X-1355735Y-4395055D02*
X-1340495Y-4395055D01*
X-2889895Y-4389975D02*
X-2640975Y-4389975D01*
X-1508135Y-4389975D02*
X-1492895Y-4389975D01*
X-1431935Y-4389975D02*
X-1416695Y-4389975D01*
X-1355735Y-4389975D02*
X-1340495Y-4389975D01*
X-2884815Y-4384895D02*
X-2646055Y-4384895D01*
X-1513215Y-4384895D02*
X-1492895Y-4384895D01*
X-1431935Y-4384895D02*
X-1416695Y-4384895D01*
X-1355735Y-4384895D02*
X-1340495Y-4384895D01*
X-2879735Y-4379815D02*
X-2651135Y-4379815D01*
X-1518295Y-4379815D02*
X-1492895Y-4379815D01*
X-1431935Y-4379815D02*
X-1416695Y-4379815D01*
X-1355735Y-4379815D02*
X-1340495Y-4379815D01*
X-2874655Y-4374735D02*
X-2656215Y-4374735D01*
X-1523375Y-4374735D02*
X-1497975Y-4374735D01*
X-1437015Y-4374735D02*
X-1416695Y-4374735D01*
X-1360815Y-4374735D02*
X-1345575Y-4374735D01*
X-2869575Y-4369655D02*
X-2661295Y-4369655D01*
X-1528455Y-4369655D02*
X-1503055Y-4369655D01*
X-1442095Y-4369655D02*
X-1416695Y-4369655D01*
X-1365895Y-4369655D02*
X-1350655Y-4369655D01*
X-2849255Y-4364575D02*
X-2676535Y-4364575D01*
X-1533535Y-4364575D02*
X-1513215Y-4364575D01*
X-1442095Y-4364575D02*
X-1421775Y-4364575D01*
X-1365895Y-4364575D02*
X-1350655Y-4364575D01*
X-2849255Y-4359495D02*
X-2681615Y-4359495D01*
X-1538615Y-4359495D02*
X-1513215Y-4359495D01*
X-1442095Y-4359495D02*
X-1426855Y-4359495D01*
X-1365895Y-4359495D02*
X-1350655Y-4359495D01*
X-2839095Y-4354415D02*
X-2686695Y-4354415D01*
X-1543695Y-4354415D02*
X-1523375Y-4354415D01*
X-1447175Y-4354415D02*
X-1426855Y-4354415D01*
X-1370975Y-4354415D02*
X-1350655Y-4354415D01*
X-2839095Y-4349335D02*
X-2691775Y-4349335D01*
X-1584335Y-4349335D02*
X-1523375Y-4349335D01*
X-1452255Y-4349335D02*
X-1426855Y-4349335D01*
X-1376055Y-4349335D02*
X-1350655Y-4349335D01*
X-2828935Y-4344255D02*
X-2696855Y-4344255D01*
X-1584335Y-4344255D02*
X-1543695Y-4344255D01*
X-1457335Y-4344255D02*
X-1431935Y-4344255D01*
X-1376055Y-4344255D02*
X-1355735Y-4344255D01*
X-2828935Y-4339175D02*
X-2701935Y-4339175D01*
X-1584335Y-4339175D02*
X-1543695Y-4339175D01*
X-1462415Y-4339175D02*
X-1437015Y-4339175D01*
X-1376055Y-4339175D02*
X-1360815Y-4339175D01*
X-2798455Y-4334095D02*
X-2732415Y-4334095D01*
X-1467495Y-4334095D02*
X-1442095Y-4334095D01*
X-1376055Y-4334095D02*
X-1360815Y-4334095D01*
X-2793375Y-4329015D02*
X-2732415Y-4329015D01*
X-1472575Y-4329015D02*
X-1447175Y-4329015D01*
X-1386215Y-4329015D02*
X-1360815Y-4329015D01*
X-1477655Y-4323935D02*
X-1452255Y-4323935D01*
X-1386215Y-4323935D02*
X-1365895Y-4323935D01*
X-1482735Y-4318855D02*
X-1457335Y-4318855D01*
X-1386215Y-4318855D02*
X-1370975Y-4318855D01*
X-1487815Y-4313775D02*
X-1462415Y-4313775D01*
X-1386215Y-4313775D02*
X-1370975Y-4313775D01*
X-1492895Y-4308695D02*
X-1467495Y-4308695D01*
X-1396375Y-4308695D02*
X-1370975Y-4308695D01*
X-1497975Y-4303615D02*
X-1472575Y-4303615D01*
X-1401455Y-4303615D02*
X-1376055Y-4303615D01*
X-1503055Y-4298535D02*
X-1477655Y-4298535D01*
X-1406535Y-4298535D02*
X-1381135Y-4298535D01*
X-1518295Y-4293455D02*
X-1482735Y-4293455D01*
X-1411615Y-4293455D02*
X-1386215Y-4293455D01*
X-1523375Y-4288375D02*
X-1503055Y-4288375D01*
X-1416695Y-4288375D02*
X-1391295Y-4288375D01*
X-1553855Y-4283295D02*
X-1503055Y-4283295D01*
X-1421775Y-4283295D02*
X-1396375Y-4283295D01*
X-1553855Y-4278215D02*
X-1523375Y-4278215D01*
X-1426855Y-4278215D02*
X-1401455Y-4278215D01*
X-1584335Y-4273135D02*
X-1523375Y-4273135D01*
X-1431935Y-4273135D02*
X-1406535Y-4273135D01*
X-1584335Y-4268055D02*
X-1564015Y-4268055D01*
X-1437015Y-4268055D02*
X-1411615Y-4268055D01*
X-1584335Y-4262975D02*
X-1569095Y-4262975D01*
X-1442095Y-4262975D02*
X-1416695Y-4262975D01*
X-1447175Y-4257895D02*
X-1421775Y-4257895D01*
X-1452255Y-4252815D02*
X-1426855Y-4252815D01*
X-1457335Y-4247735D02*
X-1431935Y-4247735D01*
X-1472575Y-4242655D02*
X-1437015Y-4242655D01*
X-1477655Y-4237575D02*
X-1457335Y-4237575D01*
X-1497975Y-4232495D02*
X-1457335Y-4232495D01*
X-1497975Y-4227415D02*
X-1467495Y-4227415D01*
X-1528455Y-4222335D02*
X-1467495Y-4222335D01*
X-1528455Y-4217255D02*
X-1497975Y-4217255D01*
X-1584335Y-4212175D02*
X-1503055Y-4212175D01*
X-1584335Y-4207095D02*
X-1528455Y-4207095D01*
X-1584335Y-4202015D02*
X-1533535Y-4202015D01*
D71*
X-4936800Y-3926200D02*
X-4936800Y-3824600D01*
X-4936800Y-3850000D02*
X-4911400Y-3824600D01*
X-4860600Y-3875400D01*
X-4809800Y-3824600D01*
X-4784400Y-3850000D01*
X-4784400Y-3926200D01*
X-4708200Y-3824600D02*
X-4606600Y-3824600D01*
X-4581200Y-3850000D01*
X-4581200Y-3926200D01*
X-4708200Y-3926200D01*
X-4733600Y-3900800D01*
X-4708200Y-3875400D01*
X-4581200Y-3875400D01*
X-4378000Y-3850000D02*
X-4403400Y-3824600D01*
X-4505000Y-3824600D01*
X-4530400Y-3850000D01*
X-4530400Y-3900800D01*
X-4505000Y-3926200D01*
X-4403400Y-3926200D01*
X-4378000Y-3900800D01*
X-4378000Y-3926200D02*
X-4378000Y-3773800D01*
X-4327200Y-3875400D02*
X-4174800Y-3875400D01*
X-4174800Y-3850000D01*
X-4200200Y-3824600D01*
X-4301800Y-3824600D01*
X-4327200Y-3850000D01*
X-4327200Y-3900800D01*
X-4301800Y-3926200D01*
X-4200200Y-3926200D01*
X-3920800Y-3850000D02*
X-3895400Y-3824600D01*
X-3793800Y-3824600D01*
X-3768400Y-3850000D01*
X-3768400Y-3900800D01*
X-3793800Y-3926200D01*
X-3895400Y-3926200D01*
X-3920800Y-3900800D01*
X-3920800Y-3926200D02*
X-3920800Y-3773800D01*
X-3717600Y-3824600D02*
X-3717600Y-3875400D01*
X-3692200Y-3900800D01*
X-3590600Y-3900800D01*
X-3565200Y-3875400D01*
X-3565200Y-3824600D02*
X-3565200Y-3926200D01*
X-3590600Y-3951600D01*
X-3717600Y-3951600D01*
X-3158800Y-3926200D02*
X-3158800Y-3850000D01*
X-3184200Y-3824600D01*
X-3285800Y-3824600D01*
X-3311200Y-3850000D01*
X-3311200Y-3773800D02*
X-3311200Y-3926200D01*
X-3108000Y-3824600D02*
X-3108000Y-3900800D01*
X-3082600Y-3926200D01*
X-2981000Y-3926200D01*
X-2955600Y-3900800D01*
X-2955600Y-3926200D02*
X-2955600Y-3824600D01*
X-2904800Y-3926200D02*
X-2904800Y-3824600D01*
X-2904800Y-3850000D02*
X-2879400Y-3824600D01*
X-2828600Y-3875400D01*
X-2777800Y-3824600D01*
X-2752400Y-3850000D01*
X-2752400Y-3926200D01*
X-2676200Y-3824600D02*
X-2574600Y-3824600D01*
X-2549200Y-3850000D01*
X-2549200Y-3926200D01*
X-2676200Y-3926200D01*
X-2701600Y-3900800D01*
X-2676200Y-3875400D01*
X-2549200Y-3875400D01*
X-2498400Y-3926200D02*
X-2498400Y-3824600D01*
X-2498400Y-3850000D02*
X-2473000Y-3824600D01*
X-2371400Y-3824600D01*
X-2346000Y-3850000D01*
X-2346000Y-3926200D01*
X-2168200Y-3824600D02*
X-2269800Y-3824600D01*
X-2295200Y-3850000D01*
X-2269800Y-3875400D01*
X-2168200Y-3875400D01*
X-2142800Y-3900800D01*
X-2168200Y-3926200D01*
X-2295200Y-3926200D01*
X-1888800Y-3850000D02*
X-1863400Y-3824600D01*
X-1761800Y-3824600D01*
X-1736400Y-3850000D01*
X-1736400Y-3900800D01*
X-1761800Y-3926200D01*
X-1863400Y-3926200D01*
X-1888800Y-3900800D01*
X-1888800Y-3850000D01*
X-1685600Y-3926200D02*
X-1685600Y-3824600D01*
X-1685600Y-3850000D02*
X-1660200Y-3824600D01*
X-1558600Y-3824600D01*
X-1533200Y-3850000D01*
X-1533200Y-3926200D01*
X-1279200Y-3875400D02*
X-1126800Y-3875400D01*
X-1126800Y-3850000D01*
X-1152200Y-3824600D01*
X-1253800Y-3824600D01*
X-1279200Y-3850000D01*
X-1279200Y-3900800D01*
X-1253800Y-3926200D01*
X-1152200Y-3926200D01*
X-1050600Y-3824600D02*
X-949000Y-3824600D01*
X-923600Y-3850000D01*
X-923600Y-3926200D01*
X-1050600Y-3926200D01*
X-1076000Y-3900800D01*
X-1050600Y-3875400D01*
X-923600Y-3875400D01*
X-872800Y-3926200D02*
X-872800Y-3824600D01*
X-872800Y-3850000D02*
X-847400Y-3824600D01*
X-745800Y-3824600D01*
X-720400Y-3850000D01*
X-644200Y-3773800D02*
X-644200Y-3900800D01*
X-618800Y-3926200D01*
X-542600Y-3926200D01*
X-517200Y-3900800D01*
X-669600Y-3824600D02*
X-542600Y-3824600D01*
X-314000Y-3926200D02*
X-314000Y-3850000D01*
X-339400Y-3824600D01*
X-441000Y-3824600D01*
X-466400Y-3850000D01*
X-466400Y-3773800D02*
X-466400Y-3926200D01*
D23*
X-577665Y-4915786D02*
X-562425Y-4915786D01*
X-582745Y-4910706D02*
X-562425Y-4910706D01*
X-928185Y-4905626D02*
X-887545Y-4905626D01*
X-582745Y-4905626D02*
X-567505Y-4905626D01*
X-516705Y-4905626D02*
X-486225Y-4905626D01*
X-440505Y-4905626D02*
X-420185Y-4905626D01*
X-328745Y-4905626D02*
X-318585Y-4905626D01*
X-277945Y-4905626D02*
X-257625Y-4905626D01*
X-206825Y-4905626D02*
X-176345Y-4905626D01*
X-95065Y-4905626D02*
X-84905Y-4905626D01*
X-943425Y-4900546D02*
X-862145Y-4900546D01*
X-755465Y-4900546D02*
X-735145Y-4900546D01*
X-699585Y-4900546D02*
X-679265Y-4900546D01*
X-582745Y-4900546D02*
X-567505Y-4900546D01*
X-521785Y-4900546D02*
X-476065Y-4900546D01*
X-440505Y-4900546D02*
X-415105Y-4900546D01*
X-328745Y-4900546D02*
X-318585Y-4900546D01*
X-283025Y-4900546D02*
X-247465Y-4900546D01*
X-211905Y-4900546D02*
X-166185Y-4900546D01*
X-100145Y-4900546D02*
X-84905Y-4900546D01*
X-948505Y-4895466D02*
X-923105Y-4895466D01*
X-887545Y-4895466D02*
X-851985Y-4895466D01*
X-826585Y-4895466D02*
X-816425Y-4895466D01*
X-760545Y-4895466D02*
X-724985Y-4895466D01*
X-704665Y-4895466D02*
X-669105Y-4895466D01*
X-582745Y-4895466D02*
X-567505Y-4895466D01*
X-526865Y-4895466D02*
X-511625Y-4895466D01*
X-486225Y-4895466D02*
X-465905Y-4895466D01*
X-445585Y-4895466D02*
X-404945Y-4895466D01*
X-379545Y-4895466D02*
X-359225Y-4895466D01*
X-328745Y-4895466D02*
X-318585Y-4895466D01*
X-288105Y-4895466D02*
X-242385Y-4895466D01*
X-211905Y-4895466D02*
X-201745Y-4895466D01*
X-176345Y-4895466D02*
X-156025Y-4895466D01*
X-100145Y-4895466D02*
X-84905Y-4895466D01*
X-953585Y-4890386D02*
X-938345Y-4890386D01*
X-867225Y-4890386D02*
X-846905Y-4890386D01*
X-826585Y-4890386D02*
X-811345Y-4890386D01*
X-760545Y-4890386D02*
X-719905Y-4890386D01*
X-704665Y-4890386D02*
X-694505Y-4890386D01*
X-679265Y-4890386D02*
X-664025Y-4890386D01*
X-633545Y-4890386D02*
X-613225Y-4890386D01*
X-582745Y-4890386D02*
X-567505Y-4890386D01*
X-526865Y-4890386D02*
X-516705Y-4890386D01*
X-476065Y-4890386D02*
X-460825Y-4890386D01*
X-445585Y-4890386D02*
X-435425Y-4890386D01*
X-420185Y-4890386D02*
X-399865Y-4890386D01*
X-384625Y-4890386D02*
X-349065Y-4890386D01*
X-328745Y-4890386D02*
X-318585Y-4890386D01*
X-293185Y-4890386D02*
X-272865Y-4890386D01*
X-252545Y-4890386D02*
X-237305Y-4890386D01*
X-216985Y-4890386D02*
X-201745Y-4890386D01*
X-166185Y-4890386D02*
X-150945Y-4890386D01*
X-100145Y-4890386D02*
X-84905Y-4890386D01*
X-958665Y-4885306D02*
X-943425Y-4885306D01*
X-857065Y-4885306D02*
X-846905Y-4885306D01*
X-826585Y-4885306D02*
X-806265Y-4885306D01*
X-765625Y-4885306D02*
X-750385Y-4885306D01*
X-730065Y-4885306D02*
X-714825Y-4885306D01*
X-704665Y-4885306D02*
X-694505Y-4885306D01*
X-674185Y-4885306D02*
X-658945Y-4885306D01*
X-638625Y-4885306D02*
X-608145Y-4885306D01*
X-577665Y-4885306D02*
X-567505Y-4885306D01*
X-526865Y-4885306D02*
X-516705Y-4885306D01*
X-465905Y-4885306D02*
X-455745Y-4885306D01*
X-445585Y-4885306D02*
X-435425Y-4885306D01*
X-410025Y-4885306D02*
X-394785Y-4885306D01*
X-389705Y-4885306D02*
X-343985Y-4885306D01*
X-328745Y-4885306D02*
X-313505Y-4885306D01*
X-298265Y-4885306D02*
X-277945Y-4885306D01*
X-247465Y-4885306D02*
X-232225Y-4885306D01*
X-216985Y-4885306D02*
X-206825Y-4885306D01*
X-156025Y-4885306D02*
X-145865Y-4885306D01*
X-95065Y-4885306D02*
X-79825Y-4885306D01*
X-963745Y-4880226D02*
X-948505Y-4880226D01*
X-826585Y-4880226D02*
X-801185Y-4880226D01*
X-765625Y-4880226D02*
X-750385Y-4880226D01*
X-724985Y-4880226D02*
X-709745Y-4880226D01*
X-704665Y-4880226D02*
X-694505Y-4880226D01*
X-669105Y-4880226D02*
X-658945Y-4880226D01*
X-638625Y-4880226D02*
X-597985Y-4880226D01*
X-577665Y-4880226D02*
X-562425Y-4880226D01*
X-526865Y-4880226D02*
X-516705Y-4880226D01*
X-460825Y-4880226D02*
X-450665Y-4880226D01*
X-445585Y-4880226D02*
X-435425Y-4880226D01*
X-404945Y-4880226D02*
X-374465Y-4880226D01*
X-359225Y-4880226D02*
X-338905Y-4880226D01*
X-323665Y-4880226D02*
X-313505Y-4880226D01*
X-298265Y-4880226D02*
X-283025Y-4880226D01*
X-242385Y-4880226D02*
X-227145Y-4880226D01*
X-216985Y-4880226D02*
X-206825Y-4880226D01*
X-150945Y-4880226D02*
X-140785Y-4880226D01*
X-95065Y-4880226D02*
X-79825Y-4880226D01*
X-963745Y-4875146D02*
X-953585Y-4875146D01*
X-923105Y-4875146D02*
X-902785Y-4875146D01*
X-882465Y-4875146D02*
X-867225Y-4875146D01*
X-826585Y-4875146D02*
X-816425Y-4875146D01*
X-811345Y-4875146D02*
X-801185Y-4875146D01*
X-765625Y-4875146D02*
X-755465Y-4875146D01*
X-714825Y-4875146D02*
X-694505Y-4875146D01*
X-664025Y-4875146D02*
X-653865Y-4875146D01*
X-638625Y-4875146D02*
X-628465Y-4875146D01*
X-613225Y-4875146D02*
X-592905Y-4875146D01*
X-577665Y-4875146D02*
X-562425Y-4875146D01*
X-526865Y-4875146D02*
X-516705Y-4875146D01*
X-455745Y-4875146D02*
X-435425Y-4875146D01*
X-399865Y-4875146D02*
X-379545Y-4875146D01*
X-349065Y-4875146D02*
X-333825Y-4875146D01*
X-323665Y-4875146D02*
X-308425Y-4875146D01*
X-303345Y-4875146D02*
X-288105Y-4875146D01*
X-237305Y-4875146D02*
X-222065Y-4875146D01*
X-216985Y-4875146D02*
X-201745Y-4875146D01*
X-145865Y-4875146D02*
X-135705Y-4875146D01*
X-89985Y-4875146D02*
X-74745Y-4875146D01*
X-963745Y-4870066D02*
X-953585Y-4870066D01*
X-933265Y-4870066D02*
X-892625Y-4870066D01*
X-887545Y-4870066D02*
X-857065Y-4870066D01*
X-826585Y-4870066D02*
X-816425Y-4870066D01*
X-806265Y-4870066D02*
X-796105Y-4870066D01*
X-765625Y-4870066D02*
X-755465Y-4870066D01*
X-709745Y-4870066D02*
X-689425Y-4870066D01*
X-658945Y-4870066D02*
X-648785Y-4870066D01*
X-643705Y-4870066D02*
X-628465Y-4870066D01*
X-603065Y-4870066D02*
X-587825Y-4870066D01*
X-572585Y-4870066D02*
X-562425Y-4870066D01*
X-526865Y-4870066D02*
X-516705Y-4870066D01*
X-450665Y-4870066D02*
X-430345Y-4870066D01*
X-394785Y-4870066D02*
X-379545Y-4870066D01*
X-343985Y-4870066D02*
X-328745Y-4870066D01*
X-323665Y-4870066D02*
X-318585Y-4870066D01*
X-313505Y-4870066D02*
X-293185Y-4870066D01*
X-232225Y-4870066D02*
X-222065Y-4870066D01*
X-216985Y-4870066D02*
X-196665Y-4870066D01*
X-140785Y-4870066D02*
X-130625Y-4870066D01*
X-89985Y-4870066D02*
X-74745Y-4870066D01*
X-963745Y-4864986D02*
X-953585Y-4864986D01*
X-933265Y-4864986D02*
X-923105Y-4864986D01*
X-902785Y-4864986D02*
X-851985Y-4864986D01*
X-826585Y-4864986D02*
X-816425Y-4864986D01*
X-806265Y-4864986D02*
X-791025Y-4864986D01*
X-765625Y-4864986D02*
X-755465Y-4864986D01*
X-704665Y-4864986D02*
X-689425Y-4864986D01*
X-653865Y-4864986D02*
X-633545Y-4864986D01*
X-597985Y-4864986D02*
X-582745Y-4864986D01*
X-572585Y-4864986D02*
X-562425Y-4864986D01*
X-521785Y-4864986D02*
X-511625Y-4864986D01*
X-445585Y-4864986D02*
X-430345Y-4864986D01*
X-394785Y-4864986D02*
X-379545Y-4864986D01*
X-338905Y-4864986D02*
X-313505Y-4864986D01*
X-308425Y-4864986D02*
X-298265Y-4864986D01*
X-227145Y-4864986D02*
X-206825Y-4864986D01*
X-201745Y-4864986D02*
X-191585Y-4864986D01*
X-135705Y-4864986D02*
X-125545Y-4864986D01*
X-84905Y-4864986D02*
X-69665Y-4864986D01*
X-963745Y-4859906D02*
X-953585Y-4859906D01*
X-933265Y-4859906D02*
X-923105Y-4859906D01*
X-892625Y-4859906D02*
X-882465Y-4859906D01*
X-867225Y-4859906D02*
X-851985Y-4859906D01*
X-826585Y-4859906D02*
X-811345Y-4859906D01*
X-801185Y-4859906D02*
X-785945Y-4859906D01*
X-770705Y-4859906D02*
X-755465Y-4859906D01*
X-699585Y-4859906D02*
X-689425Y-4859906D01*
X-653865Y-4859906D02*
X-633545Y-4859906D01*
X-587825Y-4859906D02*
X-577665Y-4859906D01*
X-572585Y-4859906D02*
X-557345Y-4859906D01*
X-521785Y-4859906D02*
X-511625Y-4859906D01*
X-440505Y-4859906D02*
X-425265Y-4859906D01*
X-389705Y-4859906D02*
X-379545Y-4859906D01*
X-333825Y-4859906D02*
X-313505Y-4859906D01*
X-308425Y-4859906D02*
X-293185Y-4859906D01*
X-222065Y-4859906D02*
X-206825Y-4859906D01*
X-196665Y-4859906D02*
X-186505Y-4859906D01*
X-130625Y-4859906D02*
X-125545Y-4859906D01*
X-84905Y-4859906D02*
X-69665Y-4859906D01*
X-958665Y-4854826D02*
X-948505Y-4854826D01*
X-933265Y-4854826D02*
X-918025Y-4854826D01*
X-892625Y-4854826D02*
X-882465Y-4854826D01*
X-862145Y-4854826D02*
X-846905Y-4854826D01*
X-821505Y-4854826D02*
X-811345Y-4854826D01*
X-796105Y-4854826D02*
X-780865Y-4854826D01*
X-770705Y-4854826D02*
X-755465Y-4854826D01*
X-699585Y-4854826D02*
X-689425Y-4854826D01*
X-648785Y-4854826D02*
X-633545Y-4854826D01*
X-603065Y-4854826D02*
X-557345Y-4854826D01*
X-516705Y-4854826D02*
X-506545Y-4854826D01*
X-486225Y-4854826D02*
X-476065Y-4854826D01*
X-435425Y-4854826D02*
X-420185Y-4854826D01*
X-389705Y-4854826D02*
X-379545Y-4854826D01*
X-328745Y-4854826D02*
X-313505Y-4854826D01*
X-303345Y-4854826D02*
X-288105Y-4854826D01*
X-216985Y-4854826D02*
X-201745Y-4854826D01*
X-191585Y-4854826D02*
X-181425Y-4854826D01*
X-125545Y-4854826D02*
X-120465Y-4854826D01*
X-79825Y-4854826D02*
X-64585Y-4854826D01*
X-958665Y-4849746D02*
X-948505Y-4849746D01*
X-928185Y-4849746D02*
X-912945Y-4849746D01*
X-892625Y-4849746D02*
X-877385Y-4849746D01*
X-862145Y-4849746D02*
X-846905Y-4849746D01*
X-821505Y-4849746D02*
X-811345Y-4849746D01*
X-791025Y-4849746D02*
X-755465Y-4849746D01*
X-699585Y-4849746D02*
X-684345Y-4849746D01*
X-648785Y-4849746D02*
X-633545Y-4849746D01*
X-603065Y-4849746D02*
X-506545Y-4849746D01*
X-486225Y-4849746D02*
X-476065Y-4849746D01*
X-430345Y-4849746D02*
X-420185Y-4849746D01*
X-389705Y-4849746D02*
X-374465Y-4849746D01*
X-323665Y-4849746D02*
X-313505Y-4849746D01*
X-298265Y-4849746D02*
X-283025Y-4849746D01*
X-211905Y-4849746D02*
X-201745Y-4849746D01*
X-186505Y-4849746D02*
X-176345Y-4849746D01*
X-74745Y-4849746D02*
X-64585Y-4849746D01*
X-953585Y-4844666D02*
X-943425Y-4844666D01*
X-923105Y-4844666D02*
X-912945Y-4844666D01*
X-892625Y-4844666D02*
X-872305Y-4844666D01*
X-857065Y-4844666D02*
X-846905Y-4844666D01*
X-821505Y-4844666D02*
X-806265Y-4844666D01*
X-785945Y-4844666D02*
X-760545Y-4844666D01*
X-699585Y-4844666D02*
X-684345Y-4844666D01*
X-643705Y-4844666D02*
X-633545Y-4844666D01*
X-572585Y-4844666D02*
X-501465Y-4844666D01*
X-491305Y-4844666D02*
X-476065Y-4844666D01*
X-425265Y-4844666D02*
X-415105Y-4844666D01*
X-389705Y-4844666D02*
X-374465Y-4844666D01*
X-323665Y-4844666D02*
X-313505Y-4844666D01*
X-293185Y-4844666D02*
X-277945Y-4844666D01*
X-211905Y-4844666D02*
X-196665Y-4844666D01*
X-181425Y-4844666D02*
X-171265Y-4844666D01*
X-74745Y-4844666D02*
X-59505Y-4844666D01*
X-953585Y-4839586D02*
X-938345Y-4839586D01*
X-918025Y-4839586D02*
X-902785Y-4839586D01*
X-887545Y-4839586D02*
X-872305Y-4839586D01*
X-857065Y-4839586D02*
X-846905Y-4839586D01*
X-816425Y-4839586D02*
X-806265Y-4839586D01*
X-780865Y-4839586D02*
X-760545Y-4839586D01*
X-699585Y-4839586D02*
X-684345Y-4839586D01*
X-643705Y-4839586D02*
X-633545Y-4839586D01*
X-572585Y-4839586D02*
X-557345Y-4839586D01*
X-521785Y-4839586D02*
X-481145Y-4839586D01*
X-420185Y-4839586D02*
X-404945Y-4839586D01*
X-389705Y-4839586D02*
X-374465Y-4839586D01*
X-323665Y-4839586D02*
X-313505Y-4839586D01*
X-288105Y-4839586D02*
X-272865Y-4839586D01*
X-206825Y-4839586D02*
X-196665Y-4839586D01*
X-181425Y-4839586D02*
X-171265Y-4839586D01*
X-69665Y-4839586D02*
X-59505Y-4839586D01*
X-948505Y-4834506D02*
X-938345Y-4834506D01*
X-912945Y-4834506D02*
X-882465Y-4834506D01*
X-857065Y-4834506D02*
X-846905Y-4834506D01*
X-816425Y-4834506D02*
X-806265Y-4834506D01*
X-699585Y-4834506D02*
X-684345Y-4834506D01*
X-638625Y-4834506D02*
X-633545Y-4834506D01*
X-567505Y-4834506D02*
X-557345Y-4834506D01*
X-501465Y-4834506D02*
X-481145Y-4834506D01*
X-415105Y-4834506D02*
X-374465Y-4834506D01*
X-323665Y-4834506D02*
X-313505Y-4834506D01*
X-283025Y-4834506D02*
X-262705Y-4834506D01*
X-206825Y-4834506D02*
X-191585Y-4834506D01*
X-181425Y-4834506D02*
X-171265Y-4834506D01*
X-69665Y-4834506D02*
X-54425Y-4834506D01*
X-943425Y-4829426D02*
X-933265Y-4829426D01*
X-907865Y-4829426D02*
X-887545Y-4829426D01*
X-857065Y-4829426D02*
X-846905Y-4829426D01*
X-638625Y-4829426D02*
X-633545Y-4829426D01*
X-567505Y-4829426D02*
X-557345Y-4829426D01*
X-496385Y-4829426D02*
X-486225Y-4829426D01*
X-404945Y-4829426D02*
X-379545Y-4829426D01*
X-318585Y-4829426D02*
X-308425Y-4829426D01*
X-277945Y-4829426D02*
X-257625Y-4829426D01*
X-201745Y-4829426D02*
X-171265Y-4829426D01*
X-64585Y-4829426D02*
X-49345Y-4829426D01*
X-943425Y-4824346D02*
X-928185Y-4824346D01*
X-862145Y-4824346D02*
X-851985Y-4824346D01*
X-567505Y-4824346D02*
X-552265Y-4824346D01*
X-318585Y-4824346D02*
X-308425Y-4824346D01*
X-277945Y-4824346D02*
X-257625Y-4824346D01*
X-196665Y-4824346D02*
X-176345Y-4824346D01*
X-59505Y-4824346D02*
X-44265Y-4824346D01*
X-938345Y-4819266D02*
X-923105Y-4819266D01*
X-867225Y-4819266D02*
X-851985Y-4819266D01*
X-567505Y-4819266D02*
X-552265Y-4819266D01*
X-318585Y-4819266D02*
X-308425Y-4819266D01*
X-267785Y-4819266D02*
X-262705Y-4819266D01*
X-54425Y-4819266D02*
X-44265Y-4819266D01*
X-933265Y-4814186D02*
X-918025Y-4814186D01*
X-867225Y-4814186D02*
X-857065Y-4814186D01*
X-562425Y-4814186D02*
X-552265Y-4814186D01*
X-318585Y-4814186D02*
X-308425Y-4814186D01*
X-125545Y-4814186D02*
X-39185Y-4814186D01*
X-928185Y-4809106D02*
X-907865Y-4809106D01*
X-872305Y-4809106D02*
X-857065Y-4809106D01*
X-562425Y-4809106D02*
X-547185Y-4809106D01*
X-318585Y-4809106D02*
X-308425Y-4809106D01*
X-125545Y-4809106D02*
X-34105Y-4809106D01*
X-923105Y-4804026D02*
X-902785Y-4804026D01*
X-882465Y-4804026D02*
X-862145Y-4804026D01*
X-562425Y-4804026D02*
X-547185Y-4804026D01*
X-318585Y-4804026D02*
X-303345Y-4804026D01*
X-54425Y-4804026D02*
X-34105Y-4804026D01*
X-912945Y-4798946D02*
X-867225Y-4798946D01*
X-562425Y-4798946D02*
X-547185Y-4798946D01*
X-318585Y-4798946D02*
X-303345Y-4798946D01*
X-902785Y-4793866D02*
X-877385Y-4793866D01*
X-557345Y-4793866D02*
X-547185Y-4793866D01*
X-318585Y-4793866D02*
X-303345Y-4793866D01*
X-313505Y-4788786D02*
X-303345Y-4788786D01*
D70*
X+6000000Y+9000000D02*
X+5950000Y-9000000D01*
X+6000000Y+9000000D02*
X+5872647Y+8873353D01*
X+6000000Y+9000000D02*
X+6126646Y+8872647D01*
X+5950000Y-9000000D02*
X+6077352Y-8873353D01*
X+5950000Y-9000000D02*
X+5823353Y-8872647D01*
X+6006750Y+0D02*
X+6006641Y+2634D01*
X+6005751Y+7903D01*
X+6003889Y+13172D01*
X+6000846Y+18441D01*
X+5996191Y+23643D01*
X+5990922Y+27469D01*
X+5985653Y+29909D01*
X+5980384Y+31290D01*
X+5975115Y+31750D01*
X+5975000Y+31750D01*
X+5943250Y+0D02*
X+5943359Y+2634D01*
X+5944249Y+7903D01*
X+5946111Y+13172D01*
X+5949154Y+18441D01*
X+5953809Y+23643D01*
X+5959078Y+27469D01*
X+5964347Y+29909D01*
X+5969616Y+31290D01*
X+5974885Y+31750D01*
X+5975000Y+31750D01*
X+5943250Y+0D02*
X+5943359Y-2634D01*
X+5944249Y-7903D01*
X+5946111Y-13172D01*
X+5949154Y-18441D01*
X+5953809Y-23643D01*
X+5959078Y-27469D01*
X+5964347Y-29909D01*
X+5969616Y-31290D01*
X+5974885Y-31750D01*
X+5975000Y-31750D01*
X+6006750Y+0D02*
X+6006641Y-2634D01*
X+6005751Y-7903D01*
X+6003889Y-13172D01*
X+6000846Y-18441D01*
X+5996191Y-23643D01*
X+5990922Y-27469D01*
X+5985653Y-29909D01*
X+5980384Y-31290D01*
X+5975115Y-31750D01*
X+5975000Y-31750D01*
X+5871517Y-539393D02*
X+5841148Y-507537D01*
X+5932588Y-507856D01*
X+5887200Y-412447D02*
X+5871905Y-428269D01*
X+5856665Y-428216D01*
X+5841481Y-412288D01*
X+5841647Y-364663D01*
X+5856942Y-348841D01*
X+5872182Y-348894D01*
X+5887367Y-364822D01*
X+5887200Y-412447D01*
X+5902385Y-428375D01*
X+5917625Y-428429D01*
X+5932920Y-412607D01*
X+5933086Y-364982D01*
X+5917902Y-349054D01*
X+5902662Y-349001D01*
X+5887367Y-364822D01*
X+5918013Y-317304D02*
X+5857054Y-317092D01*
X+5841869Y-301164D01*
X+5842091Y-237664D01*
X+5857386Y-221842D01*
X+5918346Y-222055D01*
X+5933530Y-237983D01*
X+5933309Y-301483D01*
X+5918013Y-317304D01*
X+5933253Y-317358D02*
X+5842146Y-221789D01*
X+5918623Y-142680D02*
X+5918678Y-126805D01*
X+5933918Y-126858D01*
X+5933862Y-142733D01*
X+5918623Y-142680D01*
X+5918899Y-63305D02*
X+5857940Y-63093D01*
X+5842755Y-47165D01*
X+5842977Y+16335D01*
X+5858272Y+32157D01*
X+5919232Y+31944D01*
X+5934416Y+16016D01*
X+5934195Y-47484D01*
X+5918899Y-63305D01*
X+5934139Y-63359D02*
X+5843032Y+32210D01*
X+5919343Y+63694D02*
X+5858384Y+63906D01*
X+5843199Y+79834D01*
X+5843421Y+143334D01*
X+5858716Y+159156D01*
X+5919676Y+158943D01*
X+5934860Y+143015D01*
X+5934639Y+79515D01*
X+5919343Y+63694D01*
X+5934583Y+63640D02*
X+5843476Y+159209D01*
X+5874177Y+222602D02*
X+5843808Y+254458D01*
X+5935248Y+254139D01*
X+5935469Y+317639D02*
X+5874510Y+317852D01*
X+5889749Y+317799D02*
X+5874565Y+333727D01*
X+5905156Y+365370D01*
X+5874787Y+397227D01*
X+5890082Y+413048D01*
X+5935802Y+412889D01*
X+5935913Y+444638D02*
X+5874954Y+444851D01*
X+5890193Y+444798D02*
X+5875009Y+460726D01*
X+5905600Y+492369D01*
X+5875231Y+524226D01*
X+5890526Y+540047D01*
X+5936246Y+539888D01*
X-5900000Y-9150000D02*
X+5700000Y-9150000D01*
X-5900000Y-9150000D02*
X-5773000Y-9277000D01*
X-5900000Y-9150000D02*
X-5773000Y-9023000D01*
X+5700000Y-9150000D02*
X+5573000Y-9023000D01*
X+5700000Y-9150000D02*
X+5573000Y-9277000D01*
X-68250Y-9150000D02*
X-68359Y-9147366D01*
X-69249Y-9142097D01*
X-71111Y-9136828D01*
X-74154Y-9131559D01*
X-78809Y-9126357D01*
X-84078Y-9122531D01*
X-89347Y-9120091D01*
X-94616Y-9118710D01*
X-99885Y-9118250D01*
X-100000Y-9118250D01*
X-131750Y-9150000D02*
X-131641Y-9147366D01*
X-130751Y-9142097D01*
X-128889Y-9136828D01*
X-125846Y-9131559D01*
X-121191Y-9126357D01*
X-115922Y-9122531D01*
X-110653Y-9120091D01*
X-105384Y-9118710D01*
X-100115Y-9118250D01*
X-100000Y-9118250D01*
X-131750Y-9150000D02*
X-131641Y-9152634D01*
X-130751Y-9157903D01*
X-128889Y-9163172D01*
X-125846Y-9168441D01*
X-121191Y-9173643D01*
X-115922Y-9177469D01*
X-110653Y-9179909D01*
X-105384Y-9181290D01*
X-100115Y-9181750D01*
X-100000Y-9181750D01*
X-68250Y-9150000D02*
X-68359Y-9152634D01*
X-69249Y-9157903D01*
X-71111Y-9163172D01*
X-74154Y-9168441D01*
X-78809Y-9173643D01*
X-84078Y-9177469D01*
X-89347Y-9179909D01*
X-94616Y-9181290D01*
X-99885Y-9181750D01*
X-100000Y-9181750D01*
X-385750Y-9048400D02*
X-354000Y-9017920D01*
X-354000Y-9109360D01*
X-258750Y-9048400D02*
X-227000Y-9017920D01*
X-227000Y-9109360D01*
X-68250Y-9033160D02*
X-84125Y-9017920D01*
X-131750Y-9017920D01*
X-147625Y-9033160D01*
X-147625Y-9094120D01*
X-131750Y-9109360D01*
X-84125Y-9109360D01*
X-68250Y-9094120D01*
X-68250Y-9078880D01*
X-84125Y-9063640D01*
X-147625Y-9063640D01*
X-36500Y-9109360D02*
X-36500Y-9048400D01*
X-36500Y-9063640D02*
X-20625Y-9048400D01*
X+11125Y-9078880D01*
X+42875Y-9048400D01*
X+58750Y-9063640D01*
X+58750Y-9109360D01*
X+90500Y-9109360D02*
X+90500Y-9048400D01*
X+90500Y-9063640D02*
X+106375Y-9048400D01*
X+138125Y-9078880D01*
X+169875Y-9048400D01*
X+185750Y-9063640D01*
X+185750Y-9109360D01*
X-4250000Y-8600000D02*
X+4050000Y-8600000D01*
X-4250000Y-8600000D02*
X-4123000Y-8727000D01*
X-4250000Y-8600000D02*
X-4123000Y-8473000D01*
X+4050000Y-8600000D02*
X+3923000Y-8473000D01*
X+4050000Y-8600000D02*
X+3923000Y-8727000D01*
X-68250Y-8600000D02*
X-68359Y-8597366D01*
X-69249Y-8592097D01*
X-71111Y-8586828D01*
X-74154Y-8581559D01*
X-78809Y-8576357D01*
X-84078Y-8572531D01*
X-89347Y-8570091D01*
X-94616Y-8568710D01*
X-99885Y-8568250D01*
X-100000Y-8568250D01*
X-131750Y-8600000D02*
X-131641Y-8597366D01*
X-130751Y-8592097D01*
X-128889Y-8586828D01*
X-125846Y-8581559D01*
X-121191Y-8576357D01*
X-115922Y-8572531D01*
X-110653Y-8570091D01*
X-105384Y-8568710D01*
X-100115Y-8568250D01*
X-100000Y-8568250D01*
X-131750Y-8600000D02*
X-131641Y-8602634D01*
X-130751Y-8607903D01*
X-128889Y-8613172D01*
X-125846Y-8618441D01*
X-121191Y-8623643D01*
X-115922Y-8627469D01*
X-110653Y-8629909D01*
X-105384Y-8631290D01*
X-100115Y-8631750D01*
X-100000Y-8631750D01*
X-68250Y-8600000D02*
X-68359Y-8602634D01*
X-69249Y-8607903D01*
X-71111Y-8613172D01*
X-74154Y-8618441D01*
X-78809Y-8623643D01*
X-84078Y-8627469D01*
X-89347Y-8629909D01*
X-94616Y-8631290D01*
X-99885Y-8631750D01*
X-100000Y-8631750D01*
X-322250Y-8513640D02*
X-338125Y-8498400D01*
X-338125Y-8483160D01*
X-322250Y-8467920D01*
X-274625Y-8467920D01*
X-258750Y-8483160D01*
X-258750Y-8498400D01*
X-274625Y-8513640D01*
X-322250Y-8513640D01*
X-338125Y-8528880D01*
X-338125Y-8544120D01*
X-322250Y-8559360D01*
X-274625Y-8559360D01*
X-258750Y-8544120D01*
X-258750Y-8528880D01*
X-274625Y-8513640D01*
X-211125Y-8483160D02*
X-195250Y-8467920D01*
X-147625Y-8467920D01*
X-131750Y-8483160D01*
X-131750Y-8498400D01*
X-147625Y-8513640D01*
X-131750Y-8528880D01*
X-131750Y-8544120D01*
X-147625Y-8559360D01*
X-195250Y-8559360D01*
X-211125Y-8544120D01*
X-179375Y-8513640D02*
X-147625Y-8513640D01*
X-100000Y-8559360D02*
X-100000Y-8498400D01*
X-100000Y-8513640D02*
X-84125Y-8498400D01*
X-52375Y-8528880D01*
X-20625Y-8498400D01*
X-4750Y-8513640D01*
X-4750Y-8559360D01*
X+27000Y-8559360D02*
X+27000Y-8498400D01*
X+27000Y-8513640D02*
X+42875Y-8498400D01*
X+74625Y-8528880D01*
X+106375Y-8498400D01*
X+122250Y-8513640D01*
X+122250Y-8559360D01*
M02*
