G04 PROTEUS GERBER X2 FILE*
%TF.GenerationSoftware,Labcenter,Proteus,8.9-SP2-Build28501*%
%TF.CreationDate,2020-06-14T21:48:05+00:00*%
%TF.FileFunction,Plated,1,2,PTH*%
%TF.FilePolarity,Positive*%
%TF.Part,Single*%
%TF.SameCoordinates,{e504a607-b79b-4a28-9592-e2b99df874d4}*%
%FSLAX45Y45*%
%MOMM*%
G01*
%TA.AperFunction,ViaDrill*%
%ADD38C,0.381000*%
%TA.AperFunction,ComponentDrill*%
%ADD39C,0.762000*%
%TA.AperFunction,ComponentDrill*%
%ADD40C,0.965200*%
%TA.AperFunction,ComponentDrill*%
%ADD41C,0.812800*%
%TA.AperFunction,OtherDrill,Unknown*%
%ADD42C,4.000000*%
%TD.AperFunction*%
D38*
X+3556000Y-3683000D03*
X-1778000Y-1841500D03*
X+635000Y-1651000D03*
X-3683000Y-1714500D03*
X-508000Y-1714500D03*
X+4635500Y+1397000D03*
X-4889500Y+1397000D03*
X+2603500Y+2286000D03*
X-1460500Y+2286000D03*
X+4000500Y+4445000D03*
X+4000500Y+3873500D03*
X-1016000Y-1587500D03*
X+2413000Y-3429000D03*
X+0Y-1143000D03*
X+1270000Y+5143500D03*
X+2286000Y+5334000D03*
X-3048000Y+1206500D03*
X-3429000Y+1079500D03*
X-2603500Y+952500D03*
X+2984500Y-1524000D03*
X+4318000Y-1524000D03*
X+381000Y-2032000D03*
X+190500Y-1016000D03*
X+190500Y-762000D03*
X+3492500Y+4318000D03*
X+190500Y+1524000D03*
X+3810000Y-1778000D03*
X+2349500Y+2730500D03*
X-4635500Y+1206500D03*
X+2794000Y-1778000D03*
X-3429000Y+1206500D03*
X-317500Y-2794000D03*
X+4508500Y+3238500D03*
X-1206500Y+4254500D03*
X+5016500Y+4064000D03*
X-4064000Y+7493000D03*
X-2921000Y+5778500D03*
X-5207000Y+3746500D03*
X-1079500Y+6286500D03*
X-4572000Y+6286500D03*
X+2222500Y+1079500D03*
X+2095500Y+5397500D03*
X+952500Y+3238500D03*
X-1460500Y+6413500D03*
X-4445000Y+6413500D03*
X-4318000Y+5461000D03*
X-3365500Y+8064500D03*
X+4191000Y+1143000D03*
X-1587500Y-1206500D03*
X-2603500Y+5270500D03*
X-4572000Y+5461000D03*
X+1206500Y+4127500D03*
X-2032000Y+6159500D03*
X-3810000Y+6159500D03*
X+4445000Y+1016000D03*
X-4127500Y+0D03*
X-3810000Y+5588000D03*
X+4699000Y+825500D03*
X-889000Y-825500D03*
X-3556000Y+5651500D03*
X+4635500Y+3683000D03*
X+2095500Y+3683000D03*
X-4064000Y+5905500D03*
X+4508500Y+3556000D03*
X+2159000Y+3556000D03*
X+508000Y+8509000D03*
X-2921000Y+8636000D03*
X+254000Y+2095500D03*
X-2286000Y-1333500D03*
D39*
X+3303000Y-3025000D03*
X+3557000Y-3025000D03*
X+3811000Y-3025000D03*
X+4065000Y-3025000D03*
X+4319000Y-3025000D03*
X+4573000Y-3025000D03*
X+4827000Y-3025000D03*
X+5081000Y-3025000D03*
X+5081000Y-2263000D03*
X+4827000Y-2263000D03*
X+4573000Y-2263000D03*
X+4319000Y-2263000D03*
X+4065000Y-2263000D03*
X+3811000Y-2263000D03*
X+3557000Y-2263000D03*
X+3303000Y-2263000D03*
X+2497000Y-666000D03*
X+2243000Y-666000D03*
X+1989000Y-666000D03*
X+1735000Y-666000D03*
X+1481000Y-666000D03*
X+1227000Y-666000D03*
X+973000Y-666000D03*
X+719000Y-666000D03*
X+719000Y-1428000D03*
X+973000Y-1428000D03*
X+1227000Y-1428000D03*
X+1481000Y-1428000D03*
X+1735000Y-1428000D03*
X+1989000Y-1428000D03*
X+2243000Y-1428000D03*
X+2497000Y-1428000D03*
X-2266000Y-3150000D03*
X-2012000Y-3150000D03*
X-1758000Y-3150000D03*
X-1504000Y-3150000D03*
X-1250000Y-3150000D03*
X-996000Y-3150000D03*
X-742000Y-3150000D03*
X-488000Y-3150000D03*
X-488000Y-2388000D03*
X-742000Y-2388000D03*
X-996000Y-2388000D03*
X-1250000Y-2388000D03*
X-1504000Y-2388000D03*
X-1758000Y-2388000D03*
X-2012000Y-2388000D03*
X-2266000Y-2388000D03*
X-3222000Y-634000D03*
X-3476000Y-634000D03*
X-3730000Y-634000D03*
X-3984000Y-634000D03*
X-4238000Y-634000D03*
X-4492000Y-634000D03*
X-4746000Y-634000D03*
X-5000000Y-634000D03*
X-5000000Y-1396000D03*
X-4746000Y-1396000D03*
X-4492000Y-1396000D03*
X-4238000Y-1396000D03*
X-3984000Y-1396000D03*
X-3730000Y-1396000D03*
X-3476000Y-1396000D03*
X-3222000Y-1396000D03*
X-4978000Y+3068000D03*
X-4724000Y+3068000D03*
X-4470000Y+3068000D03*
X-4216000Y+3068000D03*
X-3962000Y+3068000D03*
X-3708000Y+3068000D03*
X-3454000Y+3068000D03*
X-3200000Y+3068000D03*
X-3200000Y+3830000D03*
X-3454000Y+3830000D03*
X-3708000Y+3830000D03*
X-3962000Y+3830000D03*
X-4216000Y+3830000D03*
X-4470000Y+3830000D03*
X-4724000Y+3830000D03*
X-4978000Y+3830000D03*
X-822000Y+2398000D03*
X-1076000Y+2398000D03*
X-1330000Y+2398000D03*
X-1584000Y+2398000D03*
X-1838000Y+2398000D03*
X-2092000Y+2398000D03*
X-2346000Y+2398000D03*
X-2600000Y+2398000D03*
X-2600000Y+1636000D03*
X-2346000Y+1636000D03*
X-2092000Y+1636000D03*
X-1838000Y+1636000D03*
X-1584000Y+1636000D03*
X-1330000Y+1636000D03*
X-1076000Y+1636000D03*
X-822000Y+1636000D03*
X+722000Y+3036000D03*
X+976000Y+3036000D03*
X+1230000Y+3036000D03*
X+1484000Y+3036000D03*
X+1738000Y+3036000D03*
X+1992000Y+3036000D03*
X+2246000Y+3036000D03*
X+2500000Y+3036000D03*
X+2500000Y+3798000D03*
X+2246000Y+3798000D03*
X+1992000Y+3798000D03*
X+1738000Y+3798000D03*
X+1484000Y+3798000D03*
X+1230000Y+3798000D03*
X+976000Y+3798000D03*
X+722000Y+3798000D03*
X+5136000Y+2430000D03*
X+4882000Y+2430000D03*
X+4628000Y+2430000D03*
X+4374000Y+2430000D03*
X+4120000Y+2430000D03*
X+3866000Y+2430000D03*
X+3612000Y+2430000D03*
X+3358000Y+2430000D03*
X+3358000Y+1668000D03*
X+3612000Y+1668000D03*
X+3866000Y+1668000D03*
X+4120000Y+1668000D03*
X+4374000Y+1668000D03*
X+4628000Y+1668000D03*
X+4882000Y+1668000D03*
X+5136000Y+1668000D03*
X-4597000Y+6598000D03*
X-4343000Y+6598000D03*
X-4089000Y+6598000D03*
X-3835000Y+6598000D03*
X-3581000Y+6598000D03*
X-3327000Y+6598000D03*
X-3073000Y+6598000D03*
X-2819000Y+6598000D03*
X-2819000Y+7360000D03*
X-3073000Y+7360000D03*
X-3327000Y+7360000D03*
X-3581000Y+7360000D03*
X-3835000Y+7360000D03*
X-4089000Y+7360000D03*
X-4343000Y+7360000D03*
X-4597000Y+7360000D03*
X+4042000Y+7350000D03*
X+3788000Y+7350000D03*
X+3534000Y+7350000D03*
X+3280000Y+7350000D03*
X+3026000Y+7350000D03*
X+2772000Y+7350000D03*
X+2518000Y+7350000D03*
X+2264000Y+7350000D03*
X+2264000Y+6588000D03*
X+2518000Y+6588000D03*
X+2772000Y+6588000D03*
X+3026000Y+6588000D03*
X+3280000Y+6588000D03*
X+3534000Y+6588000D03*
X+3788000Y+6588000D03*
X+4042000Y+6588000D03*
D40*
X+5000000Y-4756000D03*
X+5000000Y-5010000D03*
X+5000000Y-5264000D03*
X+5000000Y-5518000D03*
X+5000000Y-5772000D03*
X+5000000Y-6026000D03*
X+5000000Y-6280000D03*
X+5000000Y-6534000D03*
X+5000000Y-6788000D03*
X+5000000Y-7042000D03*
X+5000000Y-7296000D03*
X+5000000Y-7550000D03*
X+5000000Y-7804000D03*
X+5000000Y-8058000D03*
X+5000000Y-8312000D03*
X+2750000Y-4742000D03*
X+2750000Y-4996000D03*
X+2750000Y-5250000D03*
X+2750000Y-5504000D03*
X+2750000Y-5758000D03*
X+2750000Y-6012000D03*
X+2750000Y-6266000D03*
X+2750000Y-6520000D03*
X+2750000Y-6774000D03*
X+2750000Y-7028000D03*
X+2750000Y-7282000D03*
X+2750000Y-7536000D03*
X+2750000Y-7790000D03*
X+2750000Y-8044000D03*
X+2750000Y-8298000D03*
D41*
X-3300000Y+500000D03*
X-3300000Y+700000D03*
X-3100000Y+500000D03*
X-3100000Y+700000D03*
X-2900000Y+500000D03*
X-2900000Y+700000D03*
X-2700000Y+500000D03*
X-2700000Y+700000D03*
X-2500000Y+500000D03*
X-2500000Y+700000D03*
X-2300000Y+500000D03*
X-2300000Y+700000D03*
X-2100000Y+500000D03*
X-2100000Y+700000D03*
X-1900000Y+500000D03*
X-1900000Y+700000D03*
X-1700000Y+500000D03*
X-1700000Y+700000D03*
X-1500000Y+500000D03*
X-1500000Y+700000D03*
X+1550000Y+550000D03*
X+1550000Y+750000D03*
X+1750000Y+550000D03*
X+1750000Y+750000D03*
X+1950000Y+550000D03*
X+1950000Y+750000D03*
X+2150000Y+550000D03*
X+2150000Y+750000D03*
X+2350000Y+550000D03*
X+2350000Y+750000D03*
X+2550000Y+550000D03*
X+2550000Y+750000D03*
X+2750000Y+550000D03*
X+2750000Y+750000D03*
X+2950000Y+550000D03*
X+2950000Y+750000D03*
X+3150000Y+550000D03*
X+3150000Y+750000D03*
X+3350000Y+550000D03*
X+3350000Y+750000D03*
X-3300000Y+4900000D03*
X-3300000Y+5100000D03*
X-3100000Y+4900000D03*
X-3100000Y+5100000D03*
X-2900000Y+4900000D03*
X-2900000Y+5100000D03*
X-2700000Y+4900000D03*
X-2700000Y+5100000D03*
X-2500000Y+4900000D03*
X-2500000Y+5100000D03*
X-2300000Y+4900000D03*
X-2300000Y+5100000D03*
X-2100000Y+4900000D03*
X-2100000Y+5100000D03*
X-1900000Y+4900000D03*
X-1900000Y+5100000D03*
X-1700000Y+4900000D03*
X-1700000Y+5100000D03*
X-1500000Y+4900000D03*
X-1500000Y+5100000D03*
X+1550000Y+4900000D03*
X+1550000Y+5100000D03*
X+1750000Y+4900000D03*
X+1750000Y+5100000D03*
X+1950000Y+4900000D03*
X+1950000Y+5100000D03*
X+2150000Y+4900000D03*
X+2150000Y+5100000D03*
X+2350000Y+4900000D03*
X+2350000Y+5100000D03*
X+2550000Y+4900000D03*
X+2550000Y+5100000D03*
X+2750000Y+4900000D03*
X+2750000Y+5100000D03*
X+2950000Y+4900000D03*
X+2950000Y+5100000D03*
X+3150000Y+4900000D03*
X+3150000Y+5100000D03*
X+3350000Y+4900000D03*
X+3350000Y+5100000D03*
X-800000Y+8150000D03*
X-800000Y+8350000D03*
X-600000Y+8150000D03*
X-600000Y+8350000D03*
X-400000Y+8150000D03*
X-400000Y+8350000D03*
X-200000Y+8150000D03*
X-200000Y+8350000D03*
X+0Y+8150000D03*
X+0Y+8350000D03*
X+200000Y+8150000D03*
X+200000Y+8350000D03*
X+400000Y+8150000D03*
X+400000Y+8350000D03*
X+600000Y+8150000D03*
X+600000Y+8350000D03*
X+800000Y+8150000D03*
X+800000Y+8350000D03*
X+1000000Y+8150000D03*
X+1000000Y+8350000D03*
D39*
X-3274000Y-2347000D03*
X-3274000Y-3363000D03*
X+1628000Y-3950000D03*
X+1628000Y-4966000D03*
X+4115000Y-5142000D03*
X+4115000Y-6158000D03*
X-3957000Y-2308000D03*
X-3957000Y-3324000D03*
X-4755000Y-2306000D03*
X-4755000Y-3322000D03*
X+1703000Y-6642000D03*
X+1703000Y-7658000D03*
X-1802000Y-1085000D03*
X-786000Y-1085000D03*
X+4966000Y+421000D03*
X+4966000Y-595000D03*
X-662000Y+5085000D03*
X-662000Y+4069000D03*
X+5284000Y+5081000D03*
X+5284000Y+4065000D03*
X+1139000Y-2336000D03*
X+1139000Y-3352000D03*
X+4239000Y-3756000D03*
X+5255000Y-3756000D03*
X+369000Y+1658000D03*
X+369000Y+642000D03*
X+5298000Y+8368000D03*
X+5298000Y+7352000D03*
X+3533000Y-7002000D03*
X+3533000Y-8018000D03*
X+1884000Y+6850000D03*
X+1884000Y+7104000D03*
X-3050000Y+2104000D03*
X-3050000Y+1850000D03*
X+350000Y+3554000D03*
X+350000Y+3300000D03*
X+2950000Y-2804000D03*
X+2950000Y-2550000D03*
X+350000Y-1150000D03*
X+350000Y-896000D03*
X+2950000Y+2200000D03*
X+2950000Y+1946000D03*
X-5350000Y-1154000D03*
X-5350000Y-900000D03*
X-2700000Y-2646000D03*
X-2700000Y-2900000D03*
X-5450000Y+3604000D03*
X-5450000Y+3350000D03*
X-5200000Y+7104000D03*
X-5200000Y+6850000D03*
D42*
X+4050000Y+8600000D03*
X-4250000Y+8600000D03*
X+4050000Y-8600000D03*
X-4250000Y-8600000D03*
M02*
